<svg width="271" height="55" viewBox="0 0 271 55" fill="none" xmlns="http://www.w3.org/2000/svg">
<g clip-path="url(#clip0_6778_76399)">
<rect y="0.972656" width="271" height="54" rx="12" fill="url(#paint0_linear_6778_76399)"/>
<g filter="url(#filter0_f_6778_76399)">
<circle cx="239.286" cy="27.2584" r="39.2857" fill="#F489FD"/>
</g>
<g filter="url(#filter1_f_6778_76399)">
<circle cx="46.2857" cy="39.2584" r="39.2857" fill="#F489FD"/>
</g>
<path d="M96.6588 32.9727V31.3867H98.8168C99.2155 31.3867 99.5275 31.2697 99.7528 31.0357C99.9782 30.8017 100.091 30.5157 100.091 30.1777C100.091 29.9437 100.039 29.7357 99.9348 29.5537C99.8308 29.3717 99.6835 29.2287 99.4928 29.1247C99.3108 29.0207 99.0855 28.9687 98.8168 28.9687H96.6588V27.4217H98.6478C98.9858 27.4217 99.2588 27.3393 99.4668 27.1747C99.6748 27.0013 99.7788 26.7413 99.7788 26.3947C99.7788 26.0567 99.6748 25.8053 99.4668 25.6407C99.2588 25.4673 98.9858 25.3807 98.6478 25.3807H96.6588V23.7947H99.0378C99.6272 23.7947 100.126 23.903 100.533 24.1197C100.949 24.3363 101.265 24.6267 101.482 24.9907C101.699 25.3547 101.807 25.7577 101.807 26.1997C101.807 26.763 101.625 27.2397 101.261 27.6297C100.897 28.0197 100.36 28.2883 99.6488 28.4357L99.7008 27.7467C100.472 27.894 101.066 28.193 101.482 28.6437C101.907 29.0943 102.119 29.649 102.119 30.3077C102.119 30.8103 101.993 31.2653 101.742 31.6727C101.499 32.0713 101.144 32.3877 100.676 32.6217C100.217 32.8557 99.6618 32.9727 99.0118 32.9727H96.6588ZM95.0988 32.9727V23.7947H97.1138V32.9727H95.0988ZM105.884 33.1027C105.303 33.1027 104.783 32.9597 104.324 32.6737C103.873 32.3877 103.514 31.9977 103.245 31.5037C102.985 31.0097 102.855 30.4463 102.855 29.8137C102.855 29.181 102.985 28.6177 103.245 28.1237C103.514 27.6297 103.873 27.2397 104.324 26.9537C104.783 26.6677 105.303 26.5247 105.884 26.5247C106.309 26.5247 106.69 26.607 107.028 26.7717C107.375 26.9363 107.656 27.166 107.873 27.4607C108.09 27.7467 108.211 28.076 108.237 28.4487V31.1787C108.211 31.5513 108.09 31.885 107.873 32.1797C107.665 32.4657 107.388 32.691 107.041 32.8557C106.694 33.0203 106.309 33.1027 105.884 33.1027ZM106.287 31.3087C106.712 31.3087 107.054 31.17 107.314 30.8927C107.574 30.6067 107.704 30.247 107.704 29.8137C107.704 29.519 107.643 29.259 107.522 29.0337C107.409 28.8083 107.245 28.635 107.028 28.5137C106.82 28.3837 106.577 28.3187 106.3 28.3187C106.023 28.3187 105.776 28.3837 105.559 28.5137C105.351 28.635 105.182 28.8083 105.052 29.0337C104.931 29.259 104.87 29.519 104.87 29.8137C104.87 30.0997 104.931 30.3553 105.052 30.5807C105.173 30.806 105.342 30.9837 105.559 31.1137C105.776 31.2437 106.018 31.3087 106.287 31.3087ZM107.626 32.9727V31.2697L107.925 29.7357L107.626 28.2017V26.6547H109.576V32.9727H107.626ZM114.031 33.1157C113.381 33.1157 112.792 32.9727 112.263 32.6867C111.735 32.4007 111.319 32.0063 111.015 31.5037C110.712 31.001 110.56 30.4377 110.56 29.8137C110.56 29.181 110.712 28.6177 111.015 28.1237C111.327 27.621 111.748 27.2267 112.276 26.9407C112.805 26.6547 113.399 26.5117 114.057 26.5117C114.551 26.5117 115.002 26.5983 115.409 26.7717C115.825 26.9363 116.194 27.1877 116.514 27.5257L115.24 28.7997C115.093 28.635 114.92 28.5137 114.72 28.4357C114.53 28.3577 114.309 28.3187 114.057 28.3187C113.771 28.3187 113.516 28.3837 113.29 28.5137C113.074 28.635 112.9 28.8083 112.77 29.0337C112.649 29.2503 112.588 29.506 112.588 29.8007C112.588 30.0953 112.649 30.3553 112.77 30.5807C112.9 30.806 113.078 30.9837 113.303 31.1137C113.529 31.2437 113.78 31.3087 114.057 31.3087C114.317 31.3087 114.547 31.2653 114.746 31.1787C114.954 31.0833 115.132 30.9533 115.279 30.7887L116.54 32.0627C116.211 32.4093 115.838 32.6737 115.422 32.8557C115.006 33.029 114.543 33.1157 114.031 33.1157ZM121.469 32.9727L119.259 29.6967L121.456 26.6547H123.679L121.027 30.0737L121.092 29.2547L123.809 32.9727H121.469ZM117.426 32.9727V23.5347H119.415V32.9727H117.426ZM127.895 32.9727V24.0417H129.884V32.9727H127.895ZM126.465 28.3447V26.6547H131.314V28.3447H126.465ZM135.105 33.1157C134.455 33.1157 133.866 32.9727 133.337 32.6867C132.817 32.392 132.406 31.9933 132.102 31.4907C131.799 30.988 131.647 30.4247 131.647 29.8007C131.647 29.1767 131.799 28.6177 132.102 28.1237C132.406 27.6297 132.817 27.2397 133.337 26.9537C133.857 26.659 134.447 26.5117 135.105 26.5117C135.764 26.5117 136.353 26.6547 136.873 26.9407C137.393 27.2267 137.805 27.621 138.108 28.1237C138.412 28.6177 138.563 29.1767 138.563 29.8007C138.563 30.4247 138.412 30.988 138.108 31.4907C137.805 31.9933 137.393 32.392 136.873 32.6867C136.353 32.9727 135.764 33.1157 135.105 33.1157ZM135.105 31.3087C135.391 31.3087 135.643 31.248 135.859 31.1267C136.076 30.9967 136.241 30.819 136.353 30.5937C136.475 30.3597 136.535 30.0953 136.535 29.8007C136.535 29.506 136.475 29.2503 136.353 29.0337C136.232 28.8083 136.063 28.635 135.846 28.5137C135.638 28.3837 135.391 28.3187 135.105 28.3187C134.828 28.3187 134.581 28.3837 134.364 28.5137C134.148 28.635 133.979 28.8083 133.857 29.0337C133.736 29.259 133.675 29.519 133.675 29.8137C133.675 30.0997 133.736 30.3597 133.857 30.5937C133.979 30.819 134.148 30.9967 134.364 31.1267C134.581 31.248 134.828 31.3087 135.105 31.3087ZM142.211 32.9727V23.7947H144.252V32.9727H142.211ZM147.892 32.9727V23.7947H149.946V32.9727H147.892ZM143.433 29.1377V27.3697H148.568V29.1377H143.433ZM154.567 33.1157C153.917 33.1157 153.328 32.9727 152.799 32.6867C152.279 32.392 151.868 31.9933 151.564 31.4907C151.261 30.988 151.109 30.4247 151.109 29.8007C151.109 29.1767 151.261 28.6177 151.564 28.1237C151.868 27.6297 152.279 27.2397 152.799 26.9537C153.319 26.659 153.909 26.5117 154.567 26.5117C155.226 26.5117 155.815 26.6547 156.335 26.9407C156.855 27.2267 157.267 27.621 157.57 28.1237C157.874 28.6177 158.025 29.1767 158.025 29.8007C158.025 30.4247 157.874 30.988 157.57 31.4907C157.267 31.9933 156.855 32.392 156.335 32.6867C155.815 32.9727 155.226 33.1157 154.567 33.1157ZM154.567 31.3087C154.853 31.3087 155.105 31.248 155.321 31.1267C155.538 30.9967 155.703 30.819 155.815 30.5937C155.937 30.3597 155.997 30.0953 155.997 29.8007C155.997 29.506 155.937 29.2503 155.815 29.0337C155.694 28.8083 155.525 28.635 155.308 28.5137C155.1 28.3837 154.853 28.3187 154.567 28.3187C154.29 28.3187 154.043 28.3837 153.826 28.5137C153.61 28.635 153.441 28.8083 153.319 29.0337C153.198 29.259 153.137 29.519 153.137 29.8137C153.137 30.0997 153.198 30.3597 153.319 30.5937C153.441 30.819 153.61 30.9967 153.826 31.1267C154.043 31.248 154.29 31.3087 154.567 31.3087ZM159.015 32.9727V26.6547H161.004V32.9727H159.015ZM163.058 32.9727V29.2807C163.058 28.96 162.959 28.713 162.759 28.5397C162.569 28.3577 162.33 28.2667 162.044 28.2667C161.845 28.2667 161.667 28.31 161.511 28.3967C161.355 28.4747 161.23 28.5873 161.134 28.7347C161.048 28.882 161.004 29.064 161.004 29.2807L160.237 28.9427C160.237 28.44 160.346 28.011 160.562 27.6557C160.779 27.2917 161.074 27.0143 161.446 26.8237C161.819 26.6243 162.239 26.5247 162.707 26.5247C163.149 26.5247 163.544 26.6243 163.89 26.8237C164.246 27.023 164.527 27.3003 164.735 27.6557C164.943 28.011 165.047 28.4357 165.047 28.9297V32.9727H163.058ZM167.101 32.9727V29.2807C167.101 28.96 167.002 28.713 166.802 28.5397C166.612 28.3577 166.373 28.2667 166.087 28.2667C165.888 28.2667 165.71 28.31 165.554 28.3967C165.398 28.4747 165.273 28.5873 165.177 28.7347C165.091 28.882 165.047 29.064 165.047 29.2807L163.903 29.1247C163.921 28.5873 164.046 28.128 164.28 27.7467C164.523 27.3567 164.839 27.0577 165.229 26.8497C165.628 26.633 166.074 26.5247 166.568 26.5247C167.054 26.5247 167.483 26.6287 167.855 26.8367C168.237 27.036 168.536 27.3263 168.752 27.7077C168.978 28.0803 169.09 28.531 169.09 29.0597V32.9727H167.101ZM173.485 33.1157C172.8 33.1157 172.189 32.977 171.652 32.6997C171.123 32.4137 170.707 32.0193 170.404 31.5167C170.101 31.014 169.949 30.4463 169.949 29.8137C169.949 29.181 170.096 28.6177 170.391 28.1237C170.694 27.621 171.102 27.2267 171.613 26.9407C172.124 26.6547 172.701 26.5117 173.342 26.5117C173.966 26.5117 174.516 26.646 174.993 26.9147C175.47 27.1833 175.842 27.556 176.111 28.0327C176.388 28.5093 176.527 29.0553 176.527 29.6707C176.527 29.7833 176.518 29.9047 176.501 30.0347C176.492 30.156 176.471 30.299 176.436 30.4637L170.989 30.4767V29.1117L175.591 29.0987L174.733 29.6707C174.724 29.3067 174.668 29.0077 174.564 28.7737C174.46 28.531 174.304 28.349 174.096 28.2277C173.897 28.0977 173.65 28.0327 173.355 28.0327C173.043 28.0327 172.77 28.1063 172.536 28.2537C172.311 28.3923 172.133 28.5917 172.003 28.8517C171.882 29.1117 171.821 29.428 171.821 29.8007C171.821 30.1733 171.886 30.494 172.016 30.7627C172.155 31.0227 172.345 31.2263 172.588 31.3737C172.839 31.5123 173.134 31.5817 173.472 31.5817C173.784 31.5817 174.066 31.5297 174.317 31.4257C174.568 31.313 174.789 31.1483 174.98 30.9317L176.072 32.0237C175.76 32.3877 175.383 32.6607 174.941 32.8427C174.499 33.0247 174.014 33.1157 173.485 33.1157Z" fill="white"/>
</g>
<rect x="0.25" y="1.22266" width="270.5" height="53.5" rx="11.75" stroke="#75007E" stroke-width="0.5"/>
<defs>
<filter id="filter0_f_6778_76399" x="145" y="-67.0273" width="188.572" height="188.571" filterUnits="userSpaceOnUse" color-interpolation-filters="sRGB">
<feFlood flood-opacity="0" result="BackgroundImageFix"/>
<feBlend mode="normal" in="SourceGraphic" in2="BackgroundImageFix" result="shape"/>
<feGaussianBlur stdDeviation="27.5" result="effect1_foregroundBlur_6778_76399"/>
</filter>
<filter id="filter1_f_6778_76399" x="-48" y="-55.0273" width="188.572" height="188.571" filterUnits="userSpaceOnUse" color-interpolation-filters="sRGB">
<feFlood flood-opacity="0" result="BackgroundImageFix"/>
<feBlend mode="normal" in="SourceGraphic" in2="BackgroundImageFix" result="shape"/>
<feGaussianBlur stdDeviation="27.5" result="effect1_foregroundBlur_6778_76399"/>
</filter>
<linearGradient id="paint0_linear_6778_76399" x1="-0.00934404" y1="27.9771" x2="271.01" y2="27.9771" gradientUnits="userSpaceOnUse">
<stop stop-color="#00DAFF"/>
<stop offset="0.16" stop-color="#31BAFD"/>
<stop offset="0.38" stop-color="#7190FA"/>
<stop offset="0.59" stop-color="#A46EF7"/>
<stop offset="0.76" stop-color="#C856F5"/>
<stop offset="0.91" stop-color="#DF47F4"/>
<stop offset="1" stop-color="#E742F4"/>
</linearGradient>
<clipPath id="clip0_6778_76399">
<rect y="0.972656" width="271" height="54" rx="12" fill="white"/>
</clipPath>
</defs>
</svg>
