<svg width="20" height="20" fill="none" xmlns="http://www.w3.org/2000/svg"><path d="M10.228 1.614c.689 0 1.356.086 2.002.258a8.04 8.04 0 0 1 2.434.991 8.549 8.549 0 0 1 4.178 7.365c0 2.218-.84 4.22-2.219 5.728a7.931 7.931 0 0 1-1.96 1.637 8.443 8.443 0 0 1-4.435 1.249 8.603 8.603 0 0 1-8.614-8.614 8.493 8.493 0 0 1 2.864-6.396 8.58 8.58 0 0 1 5.75-2.218Z" fill="#FFE8E5" stroke="#A71200" stroke-width="2" stroke-miterlimit="10" stroke-linecap="round" stroke-linejoin="round"/><path d="m12.467 7.924-4.544 4.565M7.987 7.967l4.544 4.565" stroke="#A71200" stroke-width="2" stroke-miterlimit="10" stroke-linecap="round" stroke-linejoin="round"/></svg>