<svg width="17" height="17" viewBox="0 0 17 17" fill="none" xmlns="http://www.w3.org/2000/svg">
<circle cx="8.8918" cy="8.10811" r="7.83784" stroke="#8F8F8F" stroke-width="0.540541"/>
<circle cx="8.8918" cy="8.10811" r="7.83784" stroke="black" stroke-opacity="0.2" stroke-width="0.540541"/>
<circle cx="8.8918" cy="8.10811" r="7.83784" stroke="black" stroke-opacity="0.2" stroke-width="0.540541"/>
<path d="M12.1349 5.93897C10.9349 5.82005 9.72772 5.75879 8.52411 5.75879C7.8106 5.75879 7.09709 5.79483 6.38357 5.8669L5.64844 5.93897" stroke="#8F8F8F" stroke-width="0.540541" stroke-linecap="round" stroke-linejoin="round"/>
<path d="M12.1349 5.93897C10.9349 5.82005 9.72772 5.75879 8.52411 5.75879C7.8106 5.75879 7.09709 5.79483 6.38357 5.8669L5.64844 5.93897" stroke="black" stroke-opacity="0.2" stroke-width="0.540541" stroke-linecap="round" stroke-linejoin="round"/>
<path d="M12.1349 5.93897C10.9349 5.82005 9.72772 5.75879 8.52411 5.75879C7.8106 5.75879 7.09709 5.79483 6.38357 5.8669L5.64844 5.93897" stroke="black" stroke-opacity="0.2" stroke-width="0.540541" stroke-linecap="round" stroke-linejoin="round"/>
<path d="M7.63037 5.57515L7.70965 5.10308C7.76731 4.76074 7.81055 4.50488 8.41956 4.50488H9.3637C9.97271 4.50488 10.0196 4.77515 10.0736 5.10668L10.1529 5.57515" stroke="#8F8F8F" stroke-width="0.540541" stroke-linecap="round" stroke-linejoin="round"/>
<path d="M7.63037 5.57515L7.70965 5.10308C7.76731 4.76074 7.81055 4.50488 8.41956 4.50488H9.3637C9.97271 4.50488 10.0196 4.77515 10.0736 5.10668L10.1529 5.57515" stroke="black" stroke-opacity="0.2" stroke-width="0.540541" stroke-linecap="round" stroke-linejoin="round"/>
<path d="M7.63037 5.57515L7.70965 5.10308C7.76731 4.76074 7.81055 4.50488 8.41956 4.50488H9.3637C9.97271 4.50488 10.0196 4.77515 10.0736 5.10668L10.1529 5.57515" stroke="black" stroke-opacity="0.2" stroke-width="0.540541" stroke-linecap="round" stroke-linejoin="round"/>
<path d="M11.36 7.07812L11.1258 10.707C11.0862 11.2727 11.0537 11.7124 10.0483 11.7124H7.73481C6.7294 11.7124 6.69697 11.2727 6.65733 10.707L6.4231 7.07812" stroke="#8F8F8F" stroke-width="0.540541" stroke-linecap="round" stroke-linejoin="round"/>
<path d="M11.36 7.07812L11.1258 10.707C11.0862 11.2727 11.0537 11.7124 10.0483 11.7124H7.73481C6.7294 11.7124 6.69697 11.2727 6.65733 10.707L6.4231 7.07812" stroke="black" stroke-opacity="0.2" stroke-width="0.540541" stroke-linecap="round" stroke-linejoin="round"/>
<path d="M11.36 7.07812L11.1258 10.707C11.0862 11.2727 11.0537 11.7124 10.0483 11.7124H7.73481C6.7294 11.7124 6.69697 11.2727 6.65733 10.707L6.4231 7.07812" stroke="black" stroke-opacity="0.2" stroke-width="0.540541" stroke-linecap="round" stroke-linejoin="round"/>
<path d="M8.28979 9.73047H9.48979" stroke="#8F8F8F" stroke-width="0.540541" stroke-linecap="round" stroke-linejoin="round"/>
<path d="M8.28979 9.73047H9.48979" stroke="black" stroke-opacity="0.2" stroke-width="0.540541" stroke-linecap="round" stroke-linejoin="round"/>
<path d="M8.28979 9.73047H9.48979" stroke="black" stroke-opacity="0.2" stroke-width="0.540541" stroke-linecap="round" stroke-linejoin="round"/>
<path d="M7.99072 8.28809H9.79252" stroke="#8F8F8F" stroke-width="0.540541" stroke-linecap="round" stroke-linejoin="round"/>
<path d="M7.99072 8.28809H9.79252" stroke="black" stroke-opacity="0.2" stroke-width="0.540541" stroke-linecap="round" stroke-linejoin="round"/>
<path d="M7.99072 8.28809H9.79252" stroke="black" stroke-opacity="0.2" stroke-width="0.540541" stroke-linecap="round" stroke-linejoin="round"/>
</svg>
