<svg width="25" height="25" viewBox="0 0 25 25" fill="none" xmlns="http://www.w3.org/2000/svg">
<path d="M6.25 6.25C6.75 5.75 7.29686 5.32813 7.89061 4.98438C8.65623 4.5 9.5156 4.14061 10.375 3.93748C13.2656 3.20311 16.4688 3.96875 18.75 6.25C20.3594 7.85938 21.2031 9.92193 21.2968 12.0157C21.3593 12.8907 21.2813 13.7813 21.0625 14.625C20.7031 16.1406 19.9219 17.5781 18.75 18.75C17.0625 20.4375 14.8438 21.3125 12.625 21.3437C10.3125 21.375 8 20.5 6.25 18.75C4.40625 16.9063 3.53127 14.4375 3.68752 12.0312C3.7969 9.92185 4.65625 7.84375 6.25 6.25Z" fill="#FFF2E5" stroke="#C56000" stroke-width="2.56611" stroke-miterlimit="10" stroke-linecap="round" stroke-linejoin="round"/>
<path d="M9.23341 12.4854L15.8428 12.501" stroke="#C56000" stroke-width="2.56611" stroke-miterlimit="10" stroke-linecap="round" stroke-linejoin="round"/>
</svg>
