<svg width="97" height="97" viewBox="0 0 97 97" fill="none" xmlns="http://www.w3.org/2000/svg">
<path d="M85.1978 34.6773V62.3222C85.1978 66.8488 82.7728 71.0523 78.8524 73.3561L54.8449 87.219C50.9245 89.4823 46.0745 89.4823 42.1137 87.219L18.1062 73.3561C14.1857 71.0928 11.7607 66.8893 11.7607 62.3222V34.6773C11.7607 30.1506 14.1857 25.9471 18.1062 23.6434L42.1137 9.78051C46.0341 7.51717 50.8841 7.51717 54.8449 9.78051L78.8524 23.6434C82.7728 25.9471 85.1978 30.1102 85.1978 34.6773Z" stroke="#151515" stroke-width="6.0625" stroke-linecap="round" stroke-linejoin="round"/>
<path d="M48.5001 44.4581C53.701 44.4581 57.9172 40.2418 57.9172 35.0409C57.9172 29.84 53.701 25.624 48.5001 25.624C43.2992 25.624 39.083 29.84 39.083 35.0409C39.083 40.2418 43.2992 44.4581 48.5001 44.4581Z" stroke="#A71200" stroke-width="6.0625" stroke-linecap="round" stroke-linejoin="round"/>
<path d="M64.6668 67.3329C64.6668 60.0579 57.4322 54.1572 48.5002 54.1572C39.5681 54.1572 32.3335 60.0579 32.3335 67.3329" stroke="#A71200" stroke-width="6.0625" stroke-linecap="round" stroke-linejoin="round"/>
<path d="M9 70C9.72 69.28 10.5075 68.6725 11.3625 68.1775C12.465 67.48 13.7025 66.9625 14.94 66.67C19.1025 65.6125 23.715 66.715 27 70C29.3175 72.3175 30.5324 75.2876 30.6674 78.3026C30.7574 79.5626 30.645 80.845 30.33 82.06C29.8125 84.2425 28.6875 86.3125 27 88C24.57 90.43 21.375 91.6899 18.18 91.7349C14.85 91.7799 11.52 90.52 9 88C6.345 85.345 5.08504 81.79 5.31003 78.325C5.46754 75.2875 6.705 72.295 9 70Z" fill="#FFE8E5" stroke="#A71200" stroke-width="3.6952" stroke-miterlimit="10" stroke-linecap="round" stroke-linejoin="round"/>
<path d="M13.2959 78.979L22.8134 79.0016" stroke="#A71200" stroke-width="3.6952" stroke-miterlimit="10" stroke-linecap="round" stroke-linejoin="round"/>
</svg>
