<svg width="17" height="17" viewBox="0 0 17 17" fill="none" xmlns="http://www.w3.org/2000/svg">
<circle cx="8.10811" cy="8.10811" r="7.83784" stroke="#8F8F8F" stroke-width="0.540541"/>
<circle cx="8.10811" cy="8.10811" r="7.83784" stroke="black" stroke-opacity="0.2" stroke-width="0.540541"/>
<circle cx="8.10811" cy="8.10811" r="7.83784" stroke="black" stroke-opacity="0.2" stroke-width="0.540541"/>
<path d="M8.70605 5.41005L5.33945 8.77588C5.20631 8.90899 5.08266 9.15619 5.05413 9.33684L4.87343 10.6204C4.80686 11.0863 5.13022 11.4096 5.59622 11.343L6.88011 11.1624C7.0608 11.1339 7.31757 11.0102 7.44121 10.8771L10.8078 7.51133C11.388 6.93134 11.6638 6.25628 10.8078 5.40056C9.96143 4.55435 9.28618 4.83006 8.70605 5.41005Z" stroke="#8F8F8F" stroke-width="0.608108" stroke-miterlimit="10" stroke-linecap="round" stroke-linejoin="round"/>
<path d="M8.70605 5.41005L5.33945 8.77588C5.20631 8.90899 5.08266 9.15619 5.05413 9.33684L4.87343 10.6204C4.80686 11.0863 5.13022 11.4096 5.59622 11.343L6.88011 11.1624C7.0608 11.1339 7.31757 11.0102 7.44121 10.8771L10.8078 7.51133C11.388 6.93134 11.6638 6.25628 10.8078 5.40056C9.96143 4.55435 9.28618 4.83006 8.70605 5.41005Z" stroke="black" stroke-opacity="0.2" stroke-width="0.608108" stroke-miterlimit="10" stroke-linecap="round" stroke-linejoin="round"/>
<path d="M8.70605 5.41005L5.33945 8.77588C5.20631 8.90899 5.08266 9.15619 5.05413 9.33684L4.87343 10.6204C4.80686 11.0863 5.13022 11.4096 5.59622 11.343L6.88011 11.1624C7.0608 11.1339 7.31757 11.0102 7.44121 10.8771L10.8078 7.51133C11.388 6.93134 11.6638 6.25628 10.8078 5.40056C9.96143 4.55435 9.28618 4.83006 8.70605 5.41005Z" stroke="black" stroke-opacity="0.2" stroke-width="0.608108" stroke-miterlimit="10" stroke-linecap="round" stroke-linejoin="round"/>
<path d="M8.22119 5.89453C8.5065 6.92139 9.30536 7.72006 10.3325 8.0053" stroke="#8F8F8F" stroke-width="0.608108" stroke-miterlimit="10" stroke-linecap="round" stroke-linejoin="round"/>
<path d="M8.22119 5.89453C8.5065 6.92139 9.30536 7.72006 10.3325 8.0053" stroke="black" stroke-opacity="0.2" stroke-width="0.608108" stroke-miterlimit="10" stroke-linecap="round" stroke-linejoin="round"/>
<path d="M8.22119 5.89453C8.5065 6.92139 9.30536 7.72006 10.3325 8.0053" stroke="black" stroke-opacity="0.2" stroke-width="0.608108" stroke-miterlimit="10" stroke-linecap="round" stroke-linejoin="round"/>
</svg>
