<svg width="34" height="34" viewBox="0 0 34 34" fill="none" xmlns="http://www.w3.org/2000/svg">
<path d="M12.7502 31.1663H21.2502C28.3335 31.1663 31.1668 28.333 31.1668 21.2497V12.7497C31.1668 5.66634 28.3335 2.83301 21.2502 2.83301H12.7502C5.66683 2.83301 2.8335 5.66634 2.8335 12.7497V21.2497C2.8335 28.333 5.66683 31.1663 12.7502 31.1663Z" stroke="#75007E" stroke-width="1.5" stroke-linecap="round" stroke-linejoin="round"/>
<path d="M12.7501 14.1667C14.3149 14.1667 15.5834 12.8981 15.5834 11.3333C15.5834 9.76853 14.3149 8.5 12.7501 8.5C11.1853 8.5 9.91675 9.76853 9.91675 11.3333C9.91675 12.8981 11.1853 14.1667 12.7501 14.1667Z" stroke="#75007E" stroke-width="1.5" stroke-linecap="round" stroke-linejoin="round"/>
<path d="M3.78223 26.8455L10.7664 22.1563C11.8856 21.4055 13.5006 21.4905 14.5064 22.3546L14.9739 22.7655C16.0789 23.7146 17.8639 23.7146 18.9689 22.7655L24.8622 17.708C25.9672 16.7588 27.7522 16.7588 28.8572 17.708L31.1664 19.6913" stroke="#75007E" stroke-width="1.5" stroke-linecap="round" stroke-linejoin="round"/>
</svg>
