<svg width="38" height="53" viewBox="0 0 38 53" fill="none" xmlns="http://www.w3.org/2000/svg">
<path d="M18.3818 27.7496C18.5055 28.9307 18.7816 30.0908 19.2033 31.2009C19.5621 32.2135 20.0278 33.1849 20.5925 34.0988C21.1626 35.0406 21.8055 35.9363 22.5154 36.7777C22.9684 35.9908 23.3362 35.1577 23.6124 34.2928C24.2615 32.36 24.4851 30.3098 24.268 28.2825C24.0176 26.1236 23.3566 24.0326 22.3205 22.1221C21.8803 21.1972 21.3663 20.3092 20.7834 19.4668C19.0293 21.8572 18.1784 24.7916 18.3818 27.7496Z" fill="#75007E"/>
<path fill-rule="evenodd" clip-rule="evenodd" d="M13.232 11.1604C13.2977 9.97466 13.5167 8.80244 13.8834 7.67295C14.8993 4.88742 16.8688 2.55169 19.4428 1.08007C19.6332 2.08659 19.7422 3.10682 19.7686 4.13084C19.9392 6.29746 19.6938 8.47671 19.0455 10.5511C18.4204 12.4918 17.3832 14.2744 16.0048 15.7768C15.4011 16.4549 14.7266 17.0667 13.993 17.6018C13.6861 16.5445 13.4625 15.4649 13.3242 14.3727C13.1795 13.3082 13.1485 12.2314 13.232 11.1604ZM6.49921 21.863C7.29402 22.7454 8.19971 23.5211 9.19369 24.1709C10.0795 24.7787 11.0275 25.2903 12.0218 25.6972C13.0368 26.1235 14.0836 26.4697 15.1526 26.7325C15.0561 25.8297 14.8634 24.9397 14.578 24.0777C13.9661 22.1329 12.9409 20.3433 11.5728 18.8316C10.1005 17.233 8.33591 15.9308 6.37427 14.9952C5.4742 14.5061 4.53618 14.0904 3.56932 13.752C3.55678 16.717 4.59479 19.5905 6.49921 21.863ZM17.3546 41.1036C16.2328 40.714 15.1661 40.1809 14.1811 39.5175C11.7827 37.7743 10.0792 35.238 9.37284 32.3584C10.3929 32.4523 11.4037 32.6284 12.3955 32.8847C14.5254 33.317 16.5529 34.1527 18.3688 35.3468C20.0625 36.4819 21.4908 37.9697 22.5558 39.7083C23.0416 40.4754 23.4442 41.2921 23.7567 42.1447C22.6558 42.1487 21.5563 42.0666 20.4683 41.899C19.4051 41.7452 18.3613 41.4785 17.3546 41.1036ZM25.0226 44.2016C25.4901 43.1099 26.097 42.0834 26.828 41.1476C28.7357 38.8778 31.3857 37.3571 34.3079 36.8551C34.1423 37.866 33.8956 38.8619 33.5701 39.8332C32.989 41.9274 32.0126 43.8911 30.6936 45.6184C29.4422 47.228 27.8576 48.5481 26.0483 49.4881C25.2489 49.9187 24.4059 50.2628 23.5334 50.5145C23.6069 49.4161 23.7662 48.3251 24.01 47.2515C24.2382 46.2018 24.5777 45.1794 25.0226 44.2016Z" fill="#75007E"/>
</svg>
