<svg width="38" height="53" viewBox="0 0 38 53" fill="none" xmlns="http://www.w3.org/2000/svg">
<path d="M19.4097 27.7479C19.286 28.929 19.0099 30.0891 18.5882 31.1992C18.2294 32.2118 17.7637 33.1832 17.199 34.0971C16.6289 35.0389 15.986 35.9346 15.2761 36.776C14.8231 35.9891 14.4553 35.156 14.1791 34.2911C13.53 32.3583 13.3064 30.308 13.5236 28.2808C13.7739 26.1219 14.4349 24.0309 15.471 22.1204C15.9112 21.1955 16.4252 20.3075 17.0081 19.4651C18.7622 21.8555 19.6131 24.7899 19.4097 27.7479Z" fill="#75007E"/>
<path fill-rule="evenodd" clip-rule="evenodd" d="M24.5591 11.1603C24.4934 9.97461 24.2744 8.80239 23.9077 7.6729C22.8919 4.88737 20.9223 2.55165 18.3483 1.08002C18.1579 2.08654 18.049 3.10677 18.0225 4.13079C17.8519 6.29741 18.0973 8.47666 18.7456 10.551C19.3707 12.4917 20.408 14.2743 21.7863 15.7767C22.3901 16.4549 23.0645 17.0667 23.7981 17.6017C24.105 16.5445 24.3286 15.4648 24.4669 14.3727C24.6117 13.3082 24.6426 12.2313 24.5591 11.1603ZM31.2921 21.863C30.4973 22.7453 29.5916 23.5211 28.5976 24.1708C27.7118 24.7786 26.7638 25.2903 25.7695 25.6971C24.7546 26.1234 23.7077 26.4696 22.6387 26.7325C22.7353 25.8296 22.9279 24.9397 23.2133 24.0777C23.8252 22.1328 24.8504 20.3432 26.2185 18.8315C27.6908 17.2329 29.4554 15.9307 31.4171 14.9952C32.3171 14.5061 33.2551 14.0903 34.222 13.7519C34.2345 16.7169 33.1965 19.5905 31.2921 21.863ZM20.4365 41.1005C21.5584 40.711 22.6251 40.1779 23.61 39.5145C26.0084 37.7713 27.7119 35.2349 28.4183 32.3553C27.3983 32.4493 26.3874 32.6253 25.3957 32.8817C23.2658 33.314 21.2382 34.1497 19.4223 35.3438C17.7286 36.4789 16.3003 37.9666 15.2353 39.7052C14.7495 40.4723 14.3469 41.2891 14.0345 42.1416C15.1353 42.1457 16.2348 42.0635 17.3229 41.8959C18.3861 41.7421 19.4298 41.4755 20.4365 41.1005ZM12.7686 44.2019C12.3011 43.1103 11.6942 42.0837 10.9631 41.1479C9.0554 38.8782 6.40545 37.3574 3.48326 36.8554C3.64882 37.8663 3.89555 38.8623 4.22108 39.8335C4.80218 41.9277 5.77854 43.8914 7.0975 45.6187C8.34896 47.2283 9.93358 48.5484 11.7428 49.4884C12.5422 49.919 13.3853 50.2631 14.2577 50.5148C14.1842 49.4164 14.0249 48.3254 13.7811 47.2519C13.5529 46.2021 13.2135 45.1797 12.7686 44.2019Z" fill="#75007E"/>
</svg>
