<svg width="16" height="16" viewBox="0 0 16 16" fill="none" xmlns="http://www.w3.org/2000/svg">
<path d="M12.8666 5.27999V8.71334C12.8666 10.7667 11.6933 11.6466 9.93329 11.6466H4.07328C3.77328 11.6466 3.48662 11.62 3.21995 11.56C3.05328 11.5334 2.89329 11.4867 2.74662 11.4333C1.74662 11.06 1.13995 10.1933 1.13995 8.71334V5.27999C1.13995 3.22666 2.31328 2.34668 4.07328 2.34668H9.93329C11.4266 2.34668 12.5 2.98001 12.7866 4.42668C12.8333 4.69334 12.8666 4.96666 12.8666 5.27999Z" stroke="#75007E" stroke-miterlimit="10" stroke-linecap="round" stroke-linejoin="round"/>
<path d="M14.8674 7.28007V10.7134C14.8674 12.7668 13.694 13.6467 11.934 13.6467H6.07404C5.5807 13.6467 5.13404 13.5801 4.74738 13.4334C3.95404 13.1401 3.41404 12.5334 3.2207 11.5601C3.48737 11.6201 3.77404 11.6467 4.07404 11.6467H9.93404C11.694 11.6467 12.8674 10.7668 12.8674 8.71342V5.28007C12.8674 4.96674 12.8407 4.68676 12.7874 4.42676C14.054 4.69342 14.8674 5.58674 14.8674 7.28007Z" stroke="#75007E" stroke-miterlimit="10" stroke-linecap="round" stroke-linejoin="round"/>
<path d="M6.99896 8.76001C7.97098 8.76001 8.75897 7.97202 8.75897 7C8.75897 6.02798 7.97098 5.23999 6.99896 5.23999C6.02694 5.23999 5.23895 6.02798 5.23895 7C5.23895 7.97202 6.02694 8.76001 6.99896 8.76001Z" stroke="#75007E" stroke-miterlimit="10" stroke-linecap="round" stroke-linejoin="round"/>
<path d="M3.18665 5.53345V8.4668" stroke="#75007E" stroke-miterlimit="10" stroke-linecap="round" stroke-linejoin="round"/>
<path d="M10.8145 5.53345V8.4668" stroke="#75007E" stroke-miterlimit="10" stroke-linecap="round" stroke-linejoin="round"/>
</svg>
