<svg width="82" height="82" viewBox="0 0 82 82" fill="none" xmlns="http://www.w3.org/2000/svg">
<path d="M57.2863 30.75V51.25C57.2863 59.45 55.2363 61.5 47.0363 61.5H34.7363C26.5363 61.5 24.4863 59.45 24.4863 51.25V30.75C24.4863 22.55 26.5363 20.5 34.7363 20.5H47.0363C55.2363 20.5 57.2863 22.55 57.2863 30.75Z" stroke="white" stroke-width="3.47458" stroke-linecap="round" stroke-linejoin="round"/>
<path d="M44.9871 27.675H36.7871" stroke="white" stroke-width="3.47458" stroke-linecap="round" stroke-linejoin="round"/>
<path d="M40.8865 55.555C42.6414 55.555 44.064 54.1324 44.064 52.3775C44.064 50.6226 42.6414 49.2 40.8865 49.2C39.1316 49.2 37.709 50.6226 37.709 52.3775C37.709 54.1324 39.1316 55.555 40.8865 55.555Z" stroke="white" stroke-width="3.47458" stroke-linecap="round" stroke-linejoin="round"/>
<path d="M82 41C82 63.6437 63.6437 82 41 82C18.3563 82 0 63.6437 0 41C0 18.3563 18.3563 0 41 0C63.6437 0 82 18.3563 82 41ZM5.2995 41C5.2995 60.7168 21.2832 76.7005 41 76.7005C60.7168 76.7005 76.7005 60.7168 76.7005 41C76.7005 21.2832 60.7168 5.2995 41 5.2995C21.2832 5.2995 5.2995 21.2832 5.2995 41Z" fill="white"/>
<line x1="68.2268" y1="16.2268" x2="16.7268" y2="67.7268" stroke="white" stroke-width="3.47"/>
</svg>
