<svg width="88" height="76" viewBox="0 0 88 76" fill="none" xmlns="http://www.w3.org/2000/svg">
<path d="M78.0122 35.5312V49.7496C78.0122 63.9679 72.3122 69.6679 58.0939 69.6679H41.0255C26.8072 69.6679 21.1072 63.9679 21.1072 49.7496V35.5312" stroke="#151515" stroke-width="4.75" stroke-linecap="round" stroke-linejoin="round"/>
<path d="M49.5437 38.0016C43.7487 38.0016 39.4737 33.2833 40.0437 27.4883L42.1337 6.33496H56.9221L59.0437 27.4883C59.6137 33.2833 55.3387 38.0016 49.5437 38.0016Z" stroke="#151515" stroke-width="4.75" stroke-linecap="round" stroke-linejoin="round"/>
<path d="M29.5634 38.0016C23.1667 38.0016 18.4801 32.8083 19.1134 26.4433L20.0001 17.735C21.1401 9.50163 24.3067 6.33496 32.6034 6.33496H42.2617L40.0451 28.5333C39.5067 33.7583 34.7884 38.0016 29.5634 38.0016Z" stroke="#151515" stroke-width="4.75" stroke-linecap="round" stroke-linejoin="round"/>
<path d="M69.6831 38.0016C64.4581 38.0016 59.7398 33.7583 59.2331 28.5333L58.5364 21.535L57.0164 6.33496H66.6748C74.9714 6.33496 78.1381 9.50163 79.2781 17.735L80.1331 26.4433C80.7664 32.8083 76.0798 38.0016 69.6831 38.0016Z" stroke="#151515" stroke-width="4.75" stroke-linecap="round" stroke-linejoin="round"/>
<path d="M49.5448 53.834C54.8331 53.834 57.4614 56.4623 57.4614 61.7507V69.6673H41.6281V61.7507C41.6281 56.4623 44.2564 53.834 49.5448 53.834Z" stroke="#151515" stroke-width="4.75" stroke-linecap="round" stroke-linejoin="round"/>
<path d="M9 49C9.72 48.28 10.5075 47.6725 11.3625 47.1775C12.465 46.48 13.7025 45.9625 14.94 45.67C19.1025 44.6125 23.715 45.715 27 49C29.3175 51.3175 30.5324 54.2876 30.6674 57.3026C30.7574 58.5626 30.645 59.845 30.33 61.06C29.8125 63.2425 28.6875 65.3125 27 67C24.57 69.43 21.375 70.6899 18.18 70.7349C14.85 70.7799 11.52 69.52 9 67C6.345 64.345 5.08504 60.79 5.31003 57.325C5.46754 54.2875 6.705 51.295 9 49Z" fill="#E8FFE8" stroke="#007E23" stroke-width="3.6952" stroke-miterlimit="10" stroke-linecap="round" stroke-linejoin="round"/>
<path d="M17.9321 53.2531L17.9546 62.7705" stroke="#007E23" stroke-width="3.6952" stroke-miterlimit="10" stroke-linecap="round" stroke-linejoin="round"/>
<path d="M13.2959 57.979L22.8134 58.0016" stroke="#007E23" stroke-width="3.6952" stroke-miterlimit="10" stroke-linecap="round" stroke-linejoin="round"/>
</svg>
