<svg width="16" height="16" viewBox="0 0 16 16" fill="none" xmlns="http://www.w3.org/2000/svg">
<path d="M3.99998 4.66659V11.3333C3.99998 11.7466 4.01332 12.1133 4.05998 12.4399C4.25332 14.1933 5.07999 14.6666 7.33332 14.6666H8.66666C10.92 14.6666 11.7467 14.1933 11.94 12.4399C11.9867 12.1133 12 11.7466 12 11.3333V4.66659C12 4.25326 11.9867 3.88659 11.94 3.55992C11.7467 1.80659 10.92 1.33325 8.66666 1.33325H7.33332C5.07999 1.33325 4.25332 1.80659 4.05998 3.55992C4.01332 3.88659 3.99998 4.25326 3.99998 4.66659Z" stroke="#75007E" stroke-linecap="round" stroke-linejoin="round"/>
<path d="M12 11.3335C12 11.7468 11.9866 12.1135 11.94 12.4402C12.0333 12.4468 12.12 12.4468 12.22 12.4468H12.4466C14.22 12.4468 14.6666 12.0002 14.6666 10.2201V5.78014C14.6666 4.00013 14.22 3.55347 12.4466 3.55347H12.22C12.12 3.55347 12.0333 3.55347 11.94 3.56013C11.9866 3.8868 12 4.25347 12 4.6668V11.3335Z" stroke="#75007E" stroke-linecap="round" stroke-linejoin="round"/>
<path d="M1.33339 5.78014V10.2201C1.33339 12.0002 1.78005 12.4468 3.55339 12.4468H3.78006C3.88006 12.4468 3.96673 12.4468 4.06006 12.4402C4.01339 12.1135 4.00006 11.7468 4.00006 11.3335V4.6668C4.00006 4.25347 4.01339 3.8868 4.06006 3.56013C3.96673 3.55347 3.88006 3.55347 3.78006 3.55347H3.55339C1.78005 3.55347 1.33339 4.00013 1.33339 5.78014Z" stroke="#75007E" stroke-linecap="round" stroke-linejoin="round"/>
</svg>
