<svg width="226" height="227" viewBox="0 0 226 227" fill="none" xmlns="http://www.w3.org/2000/svg">
<path d="M76.6957 29.0561L92.7439 10.8267L211.693 30.0713C214.508 30.5267 217.228 31.4433 219.744 32.7843L220.35 33.1071L76.6957 29.0561Z" fill="#FFE8E5"/>
<path d="M79.8119 40.8972L76.6957 29.0559L220.35 33.1069L79.8119 40.8972Z" fill="#E742F4"/>
<path d="M69.6063 35.522L220.271 33.0291C218.901 35.2946 216.76 36.991 214.242 37.8079L85.7 79.4971L69.6063 35.522Z" fill="#E742F4"/>
<path d="M69.6844 35.6L45.2228 59.9469L215.199 35.877C217.191 35.595 219.017 34.613 220.35 33.1071L69.6844 35.6Z" fill="#FFE8E5"/>
<path d="M92.4422 110.637C94.9675 109.242 97.1688 107.397 98.9797 105.141C100.568 103.162 101.893 100.713 102.787 98.3686C103.675 96.039 104.278 93.6061 104.663 91.1448C104.686 90.9975 104.708 90.8501 104.73 90.7026C104.74 90.6349 104.749 90.5672 104.759 90.4995C104.764 90.4645 104.791 90.2642 104.776 90.3794C104.815 90.091 104.85 89.8021 104.882 89.513C104.946 88.9531 104.999 88.3921 105.041 87.8302C105.119 86.8055 105.163 85.7782 105.175 84.7506C105.194 83.1787 105.142 81.6047 105.007 80.0383C104.968 79.5876 104.922 79.1373 104.866 78.6884C104.858 78.617 104.847 78.5458 104.839 78.4743C104.859 78.6597 104.859 78.6213 104.84 78.4886C104.834 78.4438 104.827 78.3991 104.82 78.3542C104.75 77.8551 105.103 77.5978 105.363 77.2277C105.595 76.899 105.796 76.549 105.968 76.1854C106.288 75.5093 106.483 74.7685 106.609 74.0332C106.818 72.8084 106.782 71.4728 106.636 70.2068C106.62 70.069 106.635 70.196 106.631 70.1641C106.622 70.1027 106.613 70.0413 106.604 69.98C106.589 69.8783 106.573 69.7766 106.555 69.6752C106.529 69.5241 106.501 69.3734 106.469 69.2235C106.424 69.0105 106.383 68.8315 106.426 68.6061C106.529 68.0694 106.664 67.5368 106.783 67.0035C107.269 64.8168 107.756 62.6301 108.243 60.4434C108.42 59.6455 108.598 58.8476 108.775 58.0497C108.807 57.9076 108.846 57.765 108.87 57.6213C108.965 57.0663 108.638 56.5334 108.083 56.3919C107.47 56.2356 106.924 56.6596 106.791 57.2511C106.642 57.9087 105.613 57.9065 105.462 57.2511C105.354 56.7764 105.014 56.3996 104.507 56.3547C103.983 56.3085 103.596 56.6469 103.397 57.0994C103.138 57.6883 102.312 57.4353 102.139 56.9349C101.969 56.4426 101.456 56.1423 100.945 56.2367C100.412 56.3353 100.174 56.7606 100.065 57.248C99.9985 57.5409 99.6923 57.7535 99.4005 57.7535C99.0773 57.7535 98.847 57.534 98.7365 57.248C98.5325 56.72 97.902 56.4601 97.3836 56.6584C97.0167 56.7988 96.8066 57.1017 96.7149 57.4727C96.5989 57.9421 96.5012 58.4168 96.3944 58.8884C95.989 60.6794 95.5835 62.4703 95.178 64.2613C95.0712 64.7331 94.9644 65.2049 94.8576 65.6767C94.7454 66.1724 94.0488 66.3552 93.7066 65.9806C93.2496 65.4803 92.7925 64.98 92.3355 64.4798C92.1689 64.2975 92.0023 64.0698 91.8063 63.9168C91.4338 63.626 91.039 63.7058 90.7255 63.9805C90.5731 64.1139 90.4546 64.2782 90.3782 64.4667C90.2858 64.6945 90.2798 64.8631 90.3185 65.0381C90.4377 65.5774 90.7807 66.0591 91.1069 66.5181C91.4564 67.0099 91.8397 67.4807 92.1551 67.9959C92.4678 68.5067 92.6497 69.0654 92.7645 69.6508C93.3063 72.415 92.7615 75.2877 92.5358 78.0577C92.3046 80.896 91.8763 83.7553 90.8322 86.4197C89.7508 89.1791 88.051 91.5767 85.9448 93.6515C84.8733 94.7071 83.6663 95.6817 82.2841 96.2978C81.0787 96.8351 79.789 97.0944 78.4688 97.0702C75.948 97.024 73.4098 96.0907 71.3943 94.5895C70.3675 93.8246 69.4565 92.9256 68.7461 91.8557C68.385 91.3118 68.1298 90.7133 67.7934 90.1554C67.338 89.3999 67.0763 88.5947 66.7826 87.7684C66.7413 87.6524 66.6273 87.4821 66.6252 87.3668C66.6227 87.2345 66.593 87.3609 66.6188 87.319L66.9037 87.321L66.9057 87.3205C67.1375 87.1126 66.8352 87.1331 67.0301 87.1716C67.0356 87.1727 67.2889 87.2469 67.3823 87.2634C67.9455 87.3625 68.5635 87.334 69.1325 87.2894C70.3433 87.1946 71.4509 86.5767 72.065 85.5595C72.6194 84.6413 72.8049 83.5351 72.8538 82.4705C72.8802 81.8968 72.8689 81.3219 72.8369 80.7486C72.8063 80.1991 72.6788 79.6126 72.7155 79.0648C72.7435 78.6455 73.0054 78.3593 73.3705 78.1893C73.5343 78.113 73.6976 78.0372 73.8448 77.9306C73.8879 77.8994 73.9143 77.8787 73.9612 77.8385L74.0408 77.7651C74.1476 77.6395 74.1495 77.6676 74.0466 77.8494C74.078 77.9652 74.1093 78.0811 74.1406 78.1969C74.0784 78.0504 73.9112 77.9534 73.7939 77.8427C73.6418 77.699 73.4958 77.5486 73.3559 77.393C73.0635 77.0677 72.7944 76.7188 72.544 76.3605C72.0686 75.6803 71.6721 74.9495 71.2865 74.2159C70.5406 72.7971 69.8249 71.3184 68.6524 70.1944C67.4647 69.0557 65.9056 68.3413 64.2756 68.1356C62.6278 67.9276 60.9814 68.2293 59.4355 68.8017C58.1263 69.2866 56.6462 70.0583 55.9559 71.3356C55.9378 71.3691 55.9222 71.4045 55.9033 71.4375C55.8338 71.5595 55.9521 71.2808 55.9103 71.4174C55.8904 71.4825 55.8636 71.5456 55.844 71.611C55.8192 71.6936 55.7986 71.7774 55.7809 71.8617C55.7717 71.9058 55.765 71.9503 55.7559 71.9943C55.715 72.1912 55.7605 71.9155 55.7478 72.0424C55.7077 72.4453 55.7054 72.8483 55.7289 73.2525C55.76 73.7893 55.8144 74.1937 55.8776 74.6029C55.9609 75.1426 56.0611 75.6796 56.1669 76.2153C56.3827 77.3087 56.6241 78.397 56.828 79.4928C57.0187 80.5175 57.1929 81.5588 57.2241 82.6026C57.2491 83.4376 57.1841 84.3461 56.7625 85.088C56.3383 85.8344 55.5832 86.2112 54.7461 86.2654C54.1225 86.3058 53.5524 86.14 52.9421 86.3794C52.233 86.6575 51.6627 87.2289 51.1863 87.8058C47.1983 92.6346 47.0575 99.438 48.2092 105.294C49.4424 111.565 52.0243 117.51 54.8985 123.186C55.2037 123.788 55.5133 124.388 55.8258 124.987C56.2355 125.772 55.0474 126.469 54.6367 125.682C51.5734 119.814 48.747 113.702 47.2217 107.233C45.726 100.89 45.5105 93.7364 49.2742 88.103C50.2644 86.621 51.5646 85.0418 53.465 84.8574C53.7963 84.8252 54.1135 84.879 54.4427 84.8914C54.5438 84.8952 54.6451 84.8947 54.7461 84.8882C54.7933 84.8851 54.8403 84.8803 54.8873 84.8752C54.675 84.8982 54.8789 84.8745 54.9244 84.8619C55.0054 84.8395 55.0845 84.8159 55.1645 84.7902C55.3017 84.7461 55.0236 84.868 55.1459 84.7965C55.1792 84.777 55.2146 84.761 55.248 84.7413C55.2808 84.7219 55.3115 84.6993 55.3441 84.6796C55.4616 84.6087 55.2263 84.791 55.3237 84.6951C55.3865 84.6331 55.4475 84.5722 55.5074 84.5073C55.3575 84.6698 55.5198 84.4836 55.5537 84.4268C55.5912 84.3638 55.6213 84.2977 55.6548 84.2327C55.6978 84.1493 55.5969 84.4007 55.6412 84.2644C55.6542 84.2243 55.6705 84.1851 55.6838 84.145C55.7162 84.0473 55.7428 83.9476 55.7654 83.8472C55.7859 83.7559 55.8011 83.6638 55.8164 83.5716C55.7816 83.7811 55.8264 83.4656 55.8308 83.411C55.8494 83.1798 55.8538 82.9475 55.8497 82.7156C55.8408 82.2107 55.7918 81.7064 55.7247 81.2061C55.7453 81.3598 55.7155 81.145 55.7134 81.1309C55.7036 81.0655 55.6942 81.0001 55.6842 80.9347C55.6639 80.8019 55.6425 80.6692 55.6203 80.5366C55.5709 80.2414 55.5172 79.9468 55.4612 79.6528C55.0416 77.4491 54.4058 75.2241 54.3391 72.9707C54.3116 72.0413 54.4265 71.1074 54.9627 70.3242C55.9292 68.9125 57.5 68.0549 59.0694 67.4737C62.5123 66.1988 66.4355 66.4657 69.2956 68.9208C70.6568 70.0892 71.5118 71.678 72.3307 73.2439C72.7311 74.0096 73.1338 74.7771 73.6166 75.4951C73.8345 75.8192 74.0686 76.1286 74.3298 76.4191C74.6284 76.7513 75.0727 77.0348 75.2963 77.4226C75.5949 77.9406 75.3399 78.4539 74.9352 78.8124C74.7574 78.9698 74.5631 79.1169 74.3567 79.235C74.2336 79.3054 73.9834 79.3859 73.923 79.4605L74.1001 79.1566C74.0356 79.3412 74.1358 79.6968 74.1535 79.9038C74.1789 80.1995 74.2006 80.4956 74.2166 80.792C74.249 81.3953 74.2585 82.0006 74.2244 82.604C74.1562 83.8123 73.9321 85.0421 73.3378 86.1105C72.6833 87.2871 71.5665 88.1358 70.2674 88.4821C69.5553 88.6719 68.8041 88.7072 68.07 88.6924C67.4005 88.679 66.5756 88.6356 66.0527 88.1601C65.4052 87.5712 65.4688 86.4912 66.2878 86.0976C66.6754 85.9112 67.1187 85.9643 67.4533 86.2325C67.7845 86.4981 67.9254 86.895 68.0672 87.2814C68.2155 87.6855 68.3389 88.0982 68.4912 88.5009C68.6348 88.8805 68.8394 89.22 69.0473 89.5668C69.3846 90.1293 69.6377 90.7295 70.0106 91.2723C71.4038 93.3002 73.7083 94.6999 76.0544 95.3361C77.2218 95.6526 78.4467 95.7839 79.6516 95.6379C81.0246 95.4714 82.3095 94.8466 83.427 94.0245C84.6327 93.1375 85.6884 92.0059 86.6461 90.8616C87.5821 89.7433 88.3728 88.5029 89.0063 87.1898C90.2354 84.642 90.7908 81.8185 91.0715 79.021C91.2135 77.6048 91.3426 76.185 91.4678 74.7672C91.5948 73.3305 91.7048 71.8476 91.5039 70.4124C91.4607 70.1043 91.3977 69.7976 91.3153 69.4976C91.2274 69.1771 91.192 69.0766 91.0304 68.7984C90.7222 68.2679 90.331 67.7889 89.9737 67.2916C89.2156 66.2365 88.5595 65.0102 89.2069 63.7317C89.8307 62.4997 91.415 61.9219 92.5784 62.7856C93.1848 63.2358 93.6694 63.9002 94.1755 64.4541C94.3438 64.6384 94.5122 64.8226 94.6805 65.0068C94.2968 65.1081 93.9132 65.2094 93.5295 65.3107C93.8503 63.8937 94.1711 62.4768 94.4919 61.0599C94.7082 60.1043 94.9246 59.1486 95.1409 58.193C95.2574 57.6786 95.3334 57.1207 95.5502 56.6362C95.9327 55.7816 96.818 55.2154 97.7541 55.2144C98.8291 55.2133 99.6881 55.9079 100.064 56.8819H98.7365C98.9665 55.861 99.6988 55.0379 100.764 54.8779C101.98 54.6954 103.071 55.4248 103.467 56.5689C103.047 56.514 102.628 56.4592 102.208 56.4043C102.626 55.4541 103.664 54.8767 104.69 54.9991C105.717 55.1217 106.559 55.8737 106.79 56.885H105.462C105.703 55.8156 106.649 55.0443 107.736 54.9868C108.858 54.9275 109.918 55.7254 110.19 56.8103C110.388 57.6002 110.093 58.4607 109.921 59.235C109.357 61.7707 108.792 64.3064 108.228 66.8421C108.068 67.5625 107.908 68.2828 107.747 69.0032V68.6371C107.944 69.4196 108.038 70.2402 108.094 71.0429C108.207 72.6544 108.091 74.334 107.568 75.871C107.218 76.901 106.693 77.8415 105.971 78.6574C106.03 78.4341 106.089 78.2107 106.148 77.9874C106.287 78.8602 106.367 79.7453 106.431 80.6261C106.582 82.7113 106.597 84.8077 106.48 86.895C106.322 89.7159 105.927 92.5364 105.215 95.2725C104.425 98.3131 103.23 101.279 101.531 103.929C99.6695 106.831 97.2103 109.314 94.2884 111.149C93.9113 111.386 93.527 111.611 93.1373 111.827C92.3609 112.256 91.6653 111.067 92.4422 110.637Z" fill="white"/>
<path d="M68.375 95.6732C69.5074 98.6508 72.5669 99.8081 75.3257 100.832C78.0672 101.85 81.0069 102.919 82.7164 105.449C85.1736 109.086 83.3107 113.855 85.5275 117.576C87.7124 121.244 92.1172 122.785 96.1415 123.293C105.059 124.418 113.739 120.528 119.725 114.023C125.802 107.419 129.125 98.8036 130.919 90.1266C132.081 84.5078 132.65 78.7905 133.132 73.0797C133.381 70.1222 133.616 67.1634 133.857 64.2052C133.979 62.7079 134.112 61.211 134.223 59.7129C134.262 59.1815 134.346 58.5759 134.166 58.064C134.082 57.8252 133.288 56.9186 133.065 57.5587C132.975 57.8168 132.709 58.1024 132.401 58.0642C129.284 57.6779 125.626 56.7144 123.08 59.1168C121.202 60.8881 120.401 63.6575 121.345 66.0956C121.573 66.6832 120.817 67.1452 120.333 66.8733C118.763 65.9901 117.193 65.107 115.623 64.2239L116.635 63.4462C120.69 78.6119 117.456 95.6838 107.584 107.986C105.212 110.942 102.416 113.58 99.2269 115.64C95.8467 117.824 92.045 119.209 88.1241 120.054C84.1086 120.919 80.007 121.284 75.9268 121.698C73.7102 121.923 71.4932 122.158 69.2916 122.504C67.517 122.782 65.6862 123.09 64.0394 123.841C62.4426 124.569 61.0606 125.74 60.5806 127.487C60.1063 129.214 60.7258 130.988 61.6197 132.466C63.7747 136.03 67.4809 138.385 70.8125 140.724C78.0131 145.78 85.5398 150.345 93.0449 154.929C107.002 163.453 121.049 172.198 132.522 184.001C137.853 189.485 142.592 195.601 146.196 202.362C147.115 204.085 147.954 205.849 148.719 207.646C149.491 209.462 150.22 211.332 151.362 212.955C152.44 214.487 153.994 215.753 155.875 216.106C157.491 216.409 159.144 215.875 159.898 214.343C160.465 213.191 160.494 211.571 159.334 210.776L160.169 209.694C163.64 212.445 168.499 211.482 172.088 209.536C174.081 208.455 175.9 207.086 177.697 205.713C179.37 204.435 181.26 203.011 182.048 200.979C182.727 199.227 182.508 196.975 180.726 195.982C179.045 195.044 176.892 195.32 175.048 195.032C171.367 194.455 168.385 192.018 166.031 189.262C163.523 186.323 161.512 182.994 159.257 179.865C156.877 176.563 154.359 173.361 151.71 170.27C146.343 164.005 140.445 158.181 134.037 152.982C121.347 142.687 106.363 134.734 90.105 132.122C84.2166 131.175 77.4028 130.95 72.1768 134.311C69.6456 135.939 67.9558 138.441 67.3377 141.382C66.6175 144.809 67.3799 148.349 66.8718 151.8C66.3629 155.257 63.9552 158.016 60.2344 157.822C58.1509 157.714 56.1602 156.846 54.3658 155.835C52.3948 154.725 50.5008 153.456 48.6723 152.126C45.0538 149.494 41.7806 146.502 38.6933 143.271C36.1075 140.564 33.0457 137.192 29.1335 136.627C28.197 136.492 27.1549 136.528 26.2551 136.843C25.8311 136.991 25.2979 137.243 25.086 137.675C24.8647 138.125 25.0616 138.789 25.634 138.742L24.97 139.613C24.5143 137.307 19.9385 139.308 18.7789 139.766C16.0463 140.844 13.4477 142.345 11.1481 144.174C10.0075 145.081 8.91832 146.067 7.92575 147.135C6.98721 148.144 5.71362 149.757 6.51006 151.195C7.07681 152.218 8.42186 152.609 9.46312 152.922C10.8224 153.329 12.1681 153.749 13.4859 154.28C18.7915 156.417 23.5127 159.678 27.9877 163.196C31.9336 166.298 35.6298 169.753 39.736 172.645C45.6155 176.785 52.3188 179.897 59.317 181.574C65.6022 183.081 72.6823 183.527 78.7294 180.85C85.3085 177.937 88.879 171.683 90.1384 164.816C90.3407 163.712 90.4841 162.601 90.5879 161.484C90.6692 160.609 92.0472 160.601 91.9651 161.484C91.2464 169.215 88.3079 177.022 81.2896 181.089C75.1427 184.652 67.5846 184.655 60.8001 183.308C53.2252 181.804 45.8989 178.554 39.5454 174.185C35.2216 171.212 31.361 167.602 27.2472 164.354C22.3346 160.475 17.0476 156.848 11.0638 154.85C8.89304 154.125 5.6503 153.69 4.983 151.051C4.26645 148.216 7.28996 145.665 9.16374 144.04C11.4881 142.024 14.0978 140.339 16.9035 139.075C19.0807 138.094 21.9025 136.722 24.3544 137.354C25.3172 137.602 26.1 138.245 26.298 139.247C26.3898 139.712 26.1012 140.08 25.634 140.119C23.7709 140.274 23.1179 137.894 24.1384 136.636C25.2957 135.21 27.5649 135.037 29.2556 135.265C33.3484 135.82 36.5636 139.069 39.2918 141.905C42.5836 145.326 45.9981 148.536 49.8716 151.3C51.8551 152.716 53.9226 154.123 56.1118 155.203C58.1226 156.195 60.697 157.048 62.838 155.942C66.2708 154.168 65.7046 149.346 65.6577 146.133C65.6085 142.753 65.9288 139.357 67.9235 136.508C71.5734 131.295 78.5768 129.979 84.5427 130.159C88.3533 130.274 92.1768 130.993 95.8784 131.866C100.085 132.859 104.207 134.202 108.208 135.836C116.202 139.101 123.705 143.48 130.637 148.616C137.63 153.797 144.065 159.714 149.914 166.155C152.812 169.347 155.564 172.669 158.174 176.101C160.717 179.445 162.968 182.991 165.474 186.359C167.802 189.489 170.707 192.664 174.665 193.562C176.648 194.012 178.774 193.717 180.696 194.461C182.457 195.142 183.569 196.638 183.754 198.51C184.197 202.971 179.918 205.803 176.786 208.111C173.237 210.726 169.129 213.122 164.552 212.737C162.572 212.57 160.756 211.905 159.195 210.668C158.586 210.186 159.386 209.146 160.029 209.587C162.424 211.228 161.972 214.869 159.855 216.564C156.99 218.858 152.833 216.952 150.8 214.478C149.529 212.93 148.703 211.109 147.926 209.279C147.141 207.43 146.327 205.599 145.404 203.813C143.577 200.277 141.434 196.908 139.055 193.719C129.069 180.332 115.274 170.438 101.281 161.632C93.5555 156.77 85.6759 152.156 78.0051 147.207C74.1515 144.72 70.3507 142.149 66.6596 139.426C63.6754 137.225 60.5282 134.537 59.3776 130.87C58.2826 127.38 60.1271 124.127 63.3442 122.652C66.9029 121.019 71.1518 120.816 74.9925 120.417C83.5413 119.528 92.3435 118.864 99.5851 113.739C106.242 109.027 110.995 101.743 113.808 94.1765C116.675 86.4615 117.647 78.0374 116.537 69.8767C116.259 67.8307 115.84 65.8066 115.307 63.8122C115.15 63.2265 115.795 62.7403 116.318 63.0346C117.888 63.9177 119.458 64.8008 121.029 65.684L120.017 66.4616C118.931 63.6568 119.863 60.3928 121.946 58.2982C124.83 55.3991 128.737 56.2328 132.401 56.6869L131.737 57.1925C132.34 55.4656 134.652 55.8324 135.34 57.2938C135.817 58.3065 135.617 59.5054 135.53 60.5767C135.412 62.0166 135.295 63.4564 135.178 64.8963C134.721 70.514 134.331 76.1442 133.647 81.7401C132.425 91.7228 130.092 101.814 124.407 110.274C119.163 118.077 111.206 123.833 101.678 124.739C97.2402 125.161 92.2201 124.579 88.3556 122.211C86.5694 121.116 84.9776 119.595 84.0304 117.708C82.9865 115.628 82.9436 113.343 82.8162 111.069C82.6946 108.899 82.3281 106.767 80.7167 105.187C79.559 104.051 78.0419 103.349 76.5512 102.761C73.6303 101.61 70.2467 100.752 68.2187 98.1662C67.7098 97.5172 67.3395 96.8085 67.0469 96.0392C66.7316 95.21 68.0625 94.8515 68.375 95.6732Z" fill="white"/>
<path d="M125.989 58.1444C125.591 59.8913 125.193 61.638 124.802 63.3863C124.742 63.6567 124.667 63.9286 124.624 64.2025C124.566 64.5702 124.106 64.774 123.777 64.6834C123.385 64.5758 123.238 64.2051 123.296 63.8364C123.408 63.1238 123.61 62.4152 123.769 61.7121C124.009 60.646 124.251 59.5802 124.493 58.5145C124.549 58.2691 124.605 58.0237 124.661 57.7783C124.743 57.4156 125.161 57.202 125.508 57.2974C125.88 57.3998 126.071 57.7806 125.989 58.1444Z" fill="white"/>
<path d="M129.365 57.907C128.967 59.6538 128.569 61.4006 128.178 63.1489C128.118 63.4192 128.043 63.6912 128 63.9651C127.942 64.3327 127.482 64.5366 127.153 64.446C126.761 64.3383 126.614 63.9677 126.672 63.5989C126.784 62.8863 126.986 62.1778 127.145 61.4746C127.385 60.4086 127.627 59.3428 127.869 58.2771C127.925 58.0317 127.981 57.7863 128.037 57.5409C128.119 57.1781 128.537 56.9646 128.884 57.0599C129.256 57.1624 129.447 57.5432 129.365 57.907Z" fill="white"/>
<path d="M132.684 58.2857C132.287 60.0325 131.889 61.7793 131.498 63.5276C131.437 63.7979 131.362 64.0699 131.319 64.3437C131.261 64.7114 130.802 64.9153 130.472 64.8247C130.08 64.717 129.933 64.3464 129.991 63.9776C130.103 63.265 130.305 62.5564 130.464 61.8533C130.705 60.7873 130.947 59.7215 131.189 58.6557C131.244 58.4103 131.3 58.1649 131.356 57.9195C131.439 57.5568 131.856 57.3432 132.203 57.4386C132.576 57.541 132.767 57.9218 132.684 58.2857Z" fill="white"/>
<path d="M100.105 57.0429C99.7075 58.7897 99.3097 60.5365 98.9187 62.2848C98.8582 62.5551 98.7832 62.8271 98.7401 63.1009C98.6822 63.4686 98.2226 63.6725 97.893 63.5819C97.5011 63.4742 97.354 63.1036 97.4121 62.7348C97.5243 62.0222 97.7262 61.3137 97.885 60.6105C98.1257 59.5445 98.3674 58.4787 98.6095 57.4129C98.6653 57.1676 98.7211 56.9221 98.7769 56.6767C98.8594 56.314 99.277 56.1004 99.624 56.1958C99.9967 56.2982 100.188 56.679 100.105 57.0429Z" fill="white"/>
<path d="M103.482 56.8054C103.084 58.5523 102.687 60.2991 102.296 62.0473C102.235 62.3177 102.16 62.5896 102.117 62.8635C102.059 63.2312 101.6 63.4351 101.27 63.3445C100.878 63.2368 100.731 62.8661 100.789 62.4974C100.901 61.7848 101.103 61.0762 101.262 60.3731C101.503 59.307 101.744 58.2412 101.987 57.1755C102.042 56.9301 102.098 56.6847 102.154 56.4393C102.236 56.0766 102.654 55.863 103.001 55.9584C103.374 56.0608 103.565 56.4416 103.482 56.8054Z" fill="white"/>
<path d="M106.8 57.1843C106.403 58.9312 106.005 60.678 105.614 62.4263C105.554 62.6966 105.479 62.9685 105.435 63.2424C105.377 63.6101 104.918 63.814 104.588 63.7234C104.196 63.6157 104.049 63.2451 104.107 62.8763C104.22 62.1637 104.422 61.4551 104.58 60.752C104.821 59.6859 105.063 58.6201 105.305 57.5544C105.361 57.309 105.416 57.0636 105.472 56.8182C105.555 56.4555 105.972 56.2419 106.319 56.3373C106.692 56.4397 106.883 56.8205 106.8 57.1843Z" fill="white"/>
<path d="M101.51 68.4858C99.6679 66.6057 97.0249 65.7351 94.4382 66.0714C94.0687 66.1194 93.7496 65.7206 93.7496 65.3828C93.7496 64.9708 94.0676 64.7424 94.4382 64.6942C97.3655 64.3136 100.423 65.4084 102.484 67.5119C103.104 68.1456 102.131 69.1202 101.51 68.4858Z" fill="white"/>
<path d="M43.2263 78.907C44.7745 77.852 46.1246 76.5442 47.1574 74.96C48.7056 72.5851 49.4386 69.7624 50.9016 67.334C52.8061 64.1726 55.9127 63.0204 59.415 62.7026C62.5122 62.4215 65.5369 63.6691 68.2944 65.1072C70.2933 66.1497 71.3949 68.5576 69.3407 70.2241C68.1303 71.206 66.1815 71.1057 65.0783 70.0048C65.4695 69.875 65.9158 70.1099 66.1245 70.4654C66.3332 70.8208 66.3432 71.262 66.2655 71.6668C66.1288 72.3782 65.6951 72.9983 65.1257 73.4352C64.4569 73.9484 63.949 73.8863 63.1862 73.9989C61.7655 74.2087 62.2545 77.4491 62.272 78.5679C62.3031 77.2765 61.7132 75.9841 60.7173 75.1614C60.112 74.6613 59.3069 74.3263 58.5419 74.5031C57.6276 74.7144 56.9916 75.6429 56.9355 76.5797C56.8795 77.5165 57.3154 78.4299 57.9336 79.1361C58.6114 79.9103 58.8223 80.8186 58.6703 81.8534C57.6604 88.7254 52.2934 94.7675 45.9986 97.367C39.9412 99.8684 32.9739 99.6577 26.7524 97.5983C23.474 96.5132 20.2689 94.8313 17.815 92.3654C15.8802 90.4213 14.3549 88.2487 14.1598 85.4221C14.0934 84.4609 14.4391 83.4128 15.2513 82.8945C16.0637 82.3761 17.3492 82.6343 17.6968 83.5331C16.7064 82.4554 16.383 80.8102 16.8917 79.4377C17.4005 78.0653 18.7182 77.0284 20.1718 76.8567C21.9728 76.6439 23.6758 77.6549 25.1464 78.7161C25.4342 79.6316 24.0942 80.385 23.2533 79.9226C22.4124 79.4602 22.1335 78.3766 22.1561 77.4173C22.194 75.8111 22.9039 74.1769 24.2206 73.2564C25.5372 72.3359 27.4734 72.2795 28.702 73.3147C29.1679 73.7073 29.5118 74.222 29.8491 74.7294C33.6299 80.4158 36.3702 83.5794 43.2263 78.907Z" fill="white"/>
<path d="M42.8791 78.3124C44.1607 77.4335 45.3303 76.3531 46.2383 75.0872C47.2177 73.7216 47.8872 72.1745 48.5452 70.6372C49.1907 69.1291 49.8254 67.5642 50.808 66.2373C51.652 65.0977 52.7178 64.1502 53.9717 63.4812C55.1877 62.8324 56.5223 62.432 57.8785 62.209C59.5592 61.9326 61.207 61.9069 62.8802 62.2615C64.6351 62.6333 66.3083 63.3425 67.9089 64.1386C68.598 64.4814 69.2654 64.83 69.8276 65.3664C70.3278 65.8436 70.7199 66.4306 70.9492 67.0834C71.4572 68.5297 70.8102 69.9826 69.6274 70.8668C68.4468 71.7495 66.7745 71.792 65.4818 71.1392C65.1546 70.974 64.8541 70.7464 64.5917 70.4917C64.2189 70.1299 64.4007 69.4755 64.8955 69.3407C65.486 69.1799 66.1238 69.3889 66.5229 69.8512C66.9584 70.3556 67.0504 71.02 66.9591 71.6608C66.8062 72.7332 66.0631 73.7859 65.0883 74.2746C64.5917 74.5236 64.0794 74.5829 63.5348 74.6438C63.4605 74.6521 63.3883 74.6572 63.3248 74.6706C63.2339 74.6898 63.1689 74.744 63.2847 74.6694C63.2751 74.6756 63.22 74.6956 63.2113 74.7097C63.1421 74.8219 63.2633 74.604 63.2335 74.6897C63.2198 74.729 63.089 74.8838 63.1836 74.7271C63.1478 74.7863 63.1122 74.8446 63.0776 74.9045C63.0653 74.9257 63.0231 75.0223 63.0619 74.9324C63.1073 74.8269 63.0455 74.9814 63.0425 74.9907C62.9928 75.1474 62.9529 75.3051 62.9248 75.4671C62.9181 75.5052 62.9123 75.5435 62.9065 75.5818C62.9105 75.5551 62.9206 75.4407 62.9084 75.5756C62.9011 75.6566 62.8923 75.7374 62.8865 75.8186C62.873 76.0067 62.8671 76.1954 62.8659 76.3841C62.8613 77.114 62.9466 77.839 62.961 78.5679H61.5837C61.5987 77.4263 61.0702 76.2001 60.0774 75.5381C59.6062 75.224 59.0317 75.0099 58.4965 75.2368C58.1249 75.3943 57.798 75.8407 57.6783 76.2853C57.5422 76.7907 57.6628 77.4201 57.9373 77.9372C58.255 78.5356 58.7761 78.9853 59.0545 79.6071C59.6311 80.8947 59.3518 82.2824 59.0273 83.6001C57.8146 88.5245 54.5364 92.8074 50.4293 95.7042C45.824 98.9524 40.0631 100.189 34.4905 99.8169C31.548 99.6203 28.6244 99.0117 25.8493 98.0137C23.1481 97.0423 20.5754 95.6929 18.3824 93.8263C16.3839 92.1253 14.5439 89.9413 13.8077 87.3786C13.44 86.0983 13.256 84.6553 13.8808 83.4261C14.4606 82.2855 15.7888 81.6386 17.0275 82.0772C17.664 82.3025 18.1023 82.7315 18.3612 83.3501C18.6303 83.9934 17.6472 84.5069 17.2102 84.02C15.8877 82.5467 15.5653 80.3247 16.5346 78.5745C17.4966 76.8376 19.462 75.9282 21.4041 76.2C22.4247 76.3428 23.3867 76.7759 24.2651 77.3021C24.4915 77.4377 24.7135 77.5806 24.9322 77.7282C25.1607 77.8824 25.4382 78.0337 25.6336 78.2292C25.9981 78.5936 25.9025 79.2599 25.6978 79.6769C25.3376 80.4104 24.4106 80.8288 23.6201 80.7352C22.6284 80.6177 21.9581 79.7958 21.6654 78.8916C21.0915 77.1191 21.7113 74.9845 22.8613 73.5821C24.0411 72.1432 26.1279 71.4592 27.909 72.095C28.9137 72.4537 29.6062 73.1584 30.2017 74.0218C30.7055 74.7523 31.1866 75.4974 31.7034 76.2192C32.5074 77.3422 33.3926 78.4639 34.5232 79.376C34.6148 79.4499 34.4665 79.3365 34.598 79.4322C34.6538 79.4728 34.7095 79.5134 34.7661 79.5528C34.9011 79.6467 35.0393 79.7359 35.1808 79.8195C35.303 79.8918 35.4277 79.96 35.5548 80.0234C35.6219 80.0568 35.6908 80.0865 35.7579 80.1196C35.7693 80.1253 35.856 80.1627 35.7782 80.1295C35.6893 80.0914 35.8335 80.1514 35.8509 80.158C36.1295 80.2634 36.4138 80.3491 36.7063 80.4063C36.7708 80.419 36.8357 80.4287 36.9004 80.4403C37.003 80.4586 36.7817 80.4274 36.8859 80.4388C36.9237 80.443 36.9615 80.4475 36.9994 80.4512C37.1534 80.4663 37.3081 80.4742 37.4629 80.4755C37.6127 80.4766 37.7626 80.4717 37.912 80.4608C37.9942 80.4549 38.0758 80.4459 38.1578 80.4378C38.1837 80.4353 38.2921 80.419 38.1619 80.4381C38.204 80.4319 38.2461 80.4255 38.2882 80.4185C38.6451 80.3596 38.9968 80.2712 39.3415 80.1617C40.1339 79.91 40.8364 79.5635 41.5854 79.1299C42.0271 78.8743 42.4568 78.5989 42.8791 78.3124C43.187 78.1035 43.6425 78.2537 43.8213 78.5594C44.02 78.8992 43.8829 79.2922 43.5742 79.5016C41.7546 80.736 39.5875 81.9308 37.3163 81.8495C35.4855 81.784 33.9249 80.8246 32.6648 79.5513C31.9395 78.8184 31.3031 77.999 30.6966 77.1669C30.3567 76.7006 30.0282 76.226 29.7048 75.7482C29.3552 75.2316 29.0368 74.6752 28.6239 74.2059C27.8945 73.3769 26.8562 73.086 25.8244 73.3075C24.7244 73.5437 23.8779 74.2961 23.361 75.3117C23.0916 75.8409 22.911 76.501 22.8635 77.0729C22.8366 77.3957 22.8299 77.7277 22.8753 78.0494C22.8962 78.1974 23.0132 78.617 23.0853 78.756C23.2075 78.9916 23.3496 79.1786 23.5343 79.2891C23.6788 79.3756 23.8074 79.4057 23.9563 79.3646C23.9969 79.3534 24.042 79.3401 24.0836 79.3313C24.16 79.303 24.1666 79.3032 24.1034 79.3317C24.143 79.314 24.1819 79.2947 24.2199 79.2737C24.2577 79.2529 24.2934 79.2295 24.3301 79.2069C24.3961 79.1608 24.3999 79.1582 24.3414 79.1992C24.3724 79.1719 24.4021 79.1431 24.4303 79.1129C24.4545 79.0903 24.4976 79.0123 24.4358 79.1103C24.4579 79.0775 24.478 79.0435 24.496 79.0083C24.4709 79.0749 24.4663 79.0847 24.4821 79.0377C24.5088 79 24.5005 78.8718 24.4963 79.0204C24.4988 78.9805 24.4983 78.9406 24.4949 78.9008C24.5053 78.9821 24.5012 78.9815 24.4827 78.8992C24.5882 79.0363 24.6937 79.1735 24.7992 79.3107C24.0546 78.7754 23.2741 78.2456 22.4208 77.8982C21.6205 77.5725 20.702 77.4101 19.9161 77.5997C18.4831 77.9455 17.3776 79.2199 17.3436 80.6981C17.324 81.5472 17.605 82.4011 18.1841 83.0462C17.8004 83.2695 17.4168 83.4929 17.0331 83.7162C17.0835 83.8364 16.9828 83.6473 16.9789 83.6414C17.0404 83.7345 16.9647 83.623 16.942 83.6009C16.9027 83.5625 16.865 83.5228 16.8215 83.4888C16.9267 83.5708 16.7479 83.451 16.7416 83.4475C16.5962 83.366 16.3923 83.3216 16.2388 83.3187C15.8742 83.3115 15.5337 83.4525 15.2762 83.7834C14.9396 84.2158 14.8298 84.7366 14.8415 85.2612C14.8547 85.8539 14.9719 86.4409 15.1358 87.0125C15.819 89.3953 17.6225 91.4093 19.5027 92.9757C21.5715 94.6994 24.0398 95.9374 26.5752 96.8124C29.2538 97.7368 32.0587 98.3137 34.8898 98.4636C40.245 98.7472 45.618 97.5038 49.9745 94.343C53.7856 91.5778 56.7731 87.4587 57.7945 82.8257C58.0463 81.6838 58.2331 80.5693 57.447 79.623C56.5489 78.5419 55.9057 77.0937 56.425 75.6876C56.928 74.3258 58.2536 73.4931 59.6996 73.8632C61.0674 74.2132 62.1049 75.3974 62.614 76.6674C62.8551 77.2686 62.9695 77.9205 62.961 78.5679C62.9493 79.4544 61.6012 79.4549 61.5837 78.5679C61.559 77.3105 61.3266 76.0122 61.6684 74.7752C61.8441 74.1393 62.2401 73.5255 62.9153 73.3523C63.3494 73.241 63.7556 73.2702 64.1182 73.1783C64.4891 73.0843 64.8251 72.8324 65.1104 72.5078C65.3908 72.1888 65.59 71.7686 65.6182 71.3342C65.6314 71.1313 65.6062 70.8939 65.4929 70.7571C65.4989 70.7644 65.3692 70.6678 65.4161 70.6873C65.3725 70.6692 65.3149 70.6526 65.2695 70.6464C65.3189 70.6531 65.3945 70.6326 65.2617 70.6688C65.363 70.2851 65.4642 69.9015 65.5655 69.5178C66.3383 70.2678 67.6116 70.4286 68.5422 69.929C68.833 69.7729 69.0095 69.6276 69.2427 69.3739C69.3893 69.2144 69.5796 68.9111 69.6323 68.7689C69.8167 68.2712 69.7945 67.9039 69.5973 67.384C69.5775 67.3319 69.5286 67.2291 69.4557 67.1003C69.3961 66.9949 69.3308 66.8928 69.261 66.7939C69.2176 66.7325 69.1387 66.6356 69.0403 66.5293C68.9193 66.3985 68.79 66.2756 68.6539 66.1607C68.4855 66.0185 68.2558 65.8695 68.0173 65.7391C67.6328 65.529 67.2372 65.3364 66.8428 65.1459C65.399 64.4485 63.8928 63.8581 62.3147 63.5489C60.8855 63.2688 59.416 63.3281 58.0438 63.5713C57.4143 63.6828 56.7909 63.8317 56.183 64.0302C55.5822 64.2263 55.1256 64.4174 54.565 64.7254C53.4957 65.313 52.5762 66.1075 51.8736 67.1034C50.9908 68.3543 50.3924 69.7952 49.7929 71.1956C49.1028 72.8076 48.4096 74.4345 47.3715 75.8598C46.3263 77.2947 45.0363 78.499 43.5742 79.5016C43.2674 79.712 42.8102 79.5592 42.6321 79.2546C42.4326 78.9136 42.5715 78.5233 42.8791 78.3124Z" fill="white"/>
<path d="M22.8788 153.713C23.0972 153.74 23.2374 153.684 23.3591 153.487C23.4882 153.278 23.4995 153.125 23.404 152.872C23.195 152.32 22.588 151.952 22.0156 151.859C21.8074 151.826 21.498 151.845 21.2922 151.939C21.1947 151.983 21.1065 152.052 21.0249 152.136C21.1094 152.049 20.9997 152.174 20.9853 152.199C20.965 152.234 20.9141 152.373 20.95 152.263C20.9302 152.324 20.9155 152.385 20.8993 152.446C20.8847 152.528 20.8839 152.529 20.8969 152.452C20.8941 152.483 20.8927 152.515 20.8925 152.547C20.8942 152.579 20.9142 152.797 20.8886 152.645C20.899 152.707 20.9184 152.765 20.9317 152.826C20.9634 152.971 20.8764 152.763 20.9555 152.885C20.9695 152.906 21.0762 153.046 20.9817 152.94C21.0144 152.977 21.1126 153.057 21.0165 152.99C21.0492 153.012 21.0833 153.033 21.1187 153.051C21.0464 153.023 21.0488 153.023 21.1259 153.049C20.8354 153.27 20.5448 153.491 20.2543 153.713C20.2463 152.674 19.4849 151.674 18.4343 151.429C17.9846 151.324 17.389 151.403 16.9627 151.618C16.4398 151.881 16.0854 152.22 15.8271 152.737C15.661 153.07 15.1909 153.163 14.885 152.984C14.5462 152.786 14.4712 152.376 14.6379 152.042C15.3833 150.549 17.1821 149.726 18.8005 150.101C20.4283 150.478 21.6188 152.063 21.6315 153.713C21.6348 154.147 21.187 154.511 20.7598 154.377C19.9725 154.128 19.5164 153.388 19.5147 152.578C19.5129 151.741 19.9927 151.008 20.7609 150.679C22.4347 149.962 24.7298 151.212 24.8334 153.087C24.8905 154.12 23.9649 155.221 22.8788 155.091C22.5096 155.046 22.1901 154.806 22.1901 154.402C22.1901 154.064 22.507 153.669 22.8788 153.713Z" fill="white"/>
<path d="M172.532 197.424C171.689 198.772 169.944 199.378 168.426 198.939C166.856 198.484 165.893 196.907 166.047 195.3C166.134 194.403 166.495 193.535 167.188 192.936C167.554 192.62 167.989 192.707 168.269 193.076C168.791 193.763 168.661 194.763 168.176 195.431C167.587 196.242 166.642 196.578 165.666 196.338C164.729 196.108 163.925 195.373 163.5 194.522C163.009 193.541 162.896 192.455 162.801 191.377C162.769 191.006 163.141 190.688 163.49 190.688C163.89 190.688 164.146 191.005 164.179 191.377C164.292 192.659 164.462 194.352 165.765 194.925C165.994 195.026 166.269 195.07 166.475 195.033C166.502 195.028 166.667 194.98 166.621 194.998C166.576 195.015 166.728 194.941 166.753 194.927C166.783 194.91 166.812 194.891 166.84 194.872C166.801 194.904 166.8 194.904 166.836 194.874C166.889 194.829 166.937 194.779 166.984 194.729C167.051 194.659 167.069 194.629 167.15 194.474C167.171 194.43 167.171 194.434 167.15 194.484C167.163 194.452 167.174 194.421 167.184 194.388C167.19 194.366 167.236 194.184 167.224 194.254C167.212 194.323 167.229 194.142 167.23 194.118C167.23 194.086 167.228 194.053 167.225 194.021C167.235 194.087 167.234 194.096 167.224 194.046C167.218 194.014 167.209 193.983 167.199 193.953C167.226 194.007 167.228 194.011 167.206 193.967C167.172 193.897 167.128 193.833 167.08 193.771L168.162 193.91C168.089 193.973 168.018 194.038 167.952 194.108C167.859 194.208 167.884 194.176 167.834 194.246C167.779 194.324 167.729 194.405 167.683 194.488C167.671 194.511 167.564 194.734 167.6 194.646C167.447 195.015 167.412 195.255 167.41 195.589C167.407 196.23 167.622 196.837 168.138 197.277C168.54 197.619 169.289 197.775 169.796 197.68C170.183 197.608 170.396 197.538 170.691 197.362C170.969 197.196 171.179 196.991 171.343 196.729C171.812 195.979 173.004 196.67 172.532 197.424Z" fill="white"/>
<path d="M69.8481 73.5285C69.6668 73.5226 69.4862 73.5317 69.3062 73.5553L69.4283 73.5389C69.2488 73.5641 69.0717 73.6028 68.8987 73.657C68.8167 73.6827 68.7364 73.7124 68.6565 73.7438C68.5648 73.7799 68.7264 73.7116 68.6741 73.7366C68.6526 73.7468 68.6305 73.7561 68.609 73.7662C68.5658 73.7864 68.5233 73.8078 68.481 73.8298C68.2681 73.9406 67.9726 73.8917 67.8529 73.6652C67.7414 73.4541 67.7901 73.1554 68.0176 73.0371C68.581 72.7438 69.2119 72.5899 69.8481 72.6103C70.0879 72.618 70.3186 72.816 70.3072 73.0694C70.2964 73.3115 70.1053 73.5367 69.8481 73.5285Z" fill="white"/>
<path d="M69.8014 75.4451C69.7688 75.4398 69.7362 75.4349 69.7036 75.4304L69.8256 75.4468C69.5374 75.4087 69.2462 75.4082 68.9579 75.4453L69.0799 75.4289C69.0603 75.4316 69.0407 75.4343 69.0211 75.4372C68.9601 75.4564 68.8991 75.4591 68.8381 75.4454C68.777 75.4427 68.7201 75.4245 68.6674 75.3909C68.5722 75.3352 68.4814 75.226 68.4564 75.1166C68.4297 74.9991 68.4354 74.8671 68.5027 74.7628C68.5629 74.6695 68.6619 74.5688 68.7771 74.5519C68.9879 74.5208 69.1983 74.4975 69.4116 74.4992C69.6242 74.5009 69.8358 74.5256 70.0455 74.5597C70.1521 74.5771 70.2676 74.6815 70.3198 74.7707C70.3774 74.8691 70.4018 75.0141 70.3661 75.1244C70.3302 75.2355 70.2613 75.3427 70.1552 75.3988L70.0455 75.4451C69.9641 75.4669 69.8827 75.4669 69.8014 75.4451Z" fill="white"/>
<path d="M70.7203 81.5295C70.3141 81.5497 69.9149 81.4434 69.5336 81.3142C69.3509 81.2522 69.1689 81.1882 68.9866 81.125C68.8914 81.092 68.7961 81.0591 68.7009 81.0261C68.6591 81.0116 68.6176 80.9959 68.5753 80.983L68.5367 80.9714C68.4829 80.9593 68.4845 80.9584 68.5415 80.9688C68.6105 80.9413 68.6959 80.9307 68.738 80.8566C68.7882 80.7683 68.7465 80.8336 68.7368 80.871C68.7286 80.9024 68.7159 80.9416 68.7164 80.9746C68.7144 80.8596 68.7194 80.9679 68.7179 80.9962C68.7138 81.0753 68.7193 81.152 68.7243 81.2307C68.728 81.2655 68.7266 81.2547 68.7198 81.1982C68.7227 81.2161 68.726 81.2339 68.7297 81.2516C68.738 81.293 68.7479 81.334 68.7595 81.3746C68.7695 81.4095 68.7824 81.4433 68.7929 81.4779C68.8208 81.5694 68.7558 81.4087 68.802 81.502C68.8343 81.5669 68.8679 81.6307 68.9075 81.6915C68.93 81.7263 68.969 81.7771 68.9202 81.7158C68.9427 81.7441 68.9662 81.7715 68.9907 81.7981C69.0481 81.8603 69.1109 81.9161 69.1778 81.968C69.3684 82.116 69.3449 82.4638 69.1778 82.6172C68.9757 82.8028 68.7319 82.7752 68.5285 82.6172C68.2031 82.3644 67.968 81.981 67.8646 81.5838C67.7598 81.181 67.7355 80.6036 68.0346 80.2732C68.4248 79.8422 69.0274 80.1692 69.4724 80.3234C69.6892 80.3985 69.9053 80.4774 70.1268 80.5377C70.229 80.5656 70.3325 80.5896 70.4372 80.606C70.3481 80.5921 70.5221 80.612 70.5394 80.6128C70.5998 80.6155 70.6599 80.6143 70.7202 80.6113C70.9605 80.5993 71.1901 80.831 71.1793 81.0703C71.1677 81.3293 70.9776 81.5167 70.7203 81.5295Z" fill="white"/>
<path d="M69.4726 81.4255C69.426 81.4555 69.3808 81.4872 69.3368 81.5209L69.4297 81.4491C69.3019 81.5484 69.1873 81.6627 69.0878 81.7903L69.1596 81.6974C69.0948 81.7817 69.0371 81.8707 68.9868 81.9643C68.9111 82.1053 68.7476 82.1917 68.5904 82.1917C68.5076 82.1914 68.4303 82.1705 68.3587 82.129C68.2898 82.0882 68.2348 82.0333 68.194 81.9643C68.0957 81.8268 68.0238 81.6643 67.9796 81.5016C67.935 81.3377 67.9141 81.1597 67.9293 80.99C67.9404 80.866 67.9731 80.7562 68.0638 80.6654C68.1434 80.5858 68.2741 80.5258 68.3884 80.5309C68.5072 80.5363 68.6303 80.5753 68.7131 80.6654C68.7912 80.7505 68.8583 80.8702 68.8475 80.99C68.8402 81.071 68.8418 81.1518 68.8518 81.2325L68.8354 81.1105C68.8491 81.2101 68.8754 81.3065 68.914 81.3993L68.8678 81.2897C68.9 81.3643 68.9396 81.4348 68.9869 81.5009H68.1941C68.3844 81.1466 68.6719 80.8495 69.0093 80.6328C69.107 80.57 69.2529 80.5562 69.363 80.5865C69.4695 80.6158 69.5849 80.6982 69.6374 80.7975C69.6936 80.904 69.7218 81.0331 69.6836 81.1512C69.6459 81.2678 69.5767 81.3586 69.4726 81.4255Z" fill="white"/>
<path d="M218.404 45.5164C213.371 47.8051 208.338 50.0908 203.303 52.3733C198.291 54.6452 193.278 56.914 188.263 59.1798C183.225 61.4561 178.186 63.7293 173.145 65.9995C168.105 68.2696 163.062 70.5366 158.019 72.8005C152.999 75.0539 147.977 77.3042 142.954 79.5514C142.321 79.835 141.687 80.1185 141.053 80.4019C140.714 80.5536 140.313 80.5001 140.111 80.1548C139.939 79.8608 140.017 79.3653 140.358 79.2127C145.405 76.9557 150.45 74.6957 155.494 72.4325C160.514 70.1799 165.533 67.9241 170.551 65.6653C175.592 63.396 180.632 61.1235 185.67 58.848C190.708 56.5724 195.745 54.2937 200.781 52.012C205.793 49.7408 210.803 47.4666 215.813 45.1893C216.445 44.902 217.077 44.6146 217.709 44.3272C218.047 44.1733 218.45 44.2304 218.651 44.5742C218.824 44.8699 218.744 45.3617 218.404 45.5164Z" fill="#FCEDFE"/>
<path d="M207.829 60.0619C203.735 62.9661 199.641 65.8703 195.547 68.7745C191.452 71.6787 187.358 74.583 183.264 77.4872C180.964 79.1188 178.664 80.7504 176.364 82.3819C176.06 82.5972 175.598 82.4359 175.421 82.1349C175.22 81.7898 175.364 81.4085 175.669 81.1927C179.763 78.2885 183.857 75.3843 187.951 72.4801C192.045 69.5759 196.14 66.6716 200.234 63.7674C202.534 62.1358 204.834 60.5043 207.134 58.8727C207.438 58.6574 207.9 58.8187 208.076 59.1197C208.278 59.4649 208.134 59.8461 207.829 60.0619Z" fill="#FCEDFE"/>
<path d="M60.0102 24.2081C59.145 23.5901 58.2798 22.9721 57.4147 22.3541C57.2653 22.2474 57.1485 22.1253 57.0982 21.9426C57.0528 21.7777 57.0733 21.5583 57.1676 21.412C57.3546 21.1219 57.7963 20.941 58.1098 21.1649C58.9749 21.7829 59.8402 22.4009 60.7053 23.0189C60.8547 23.1256 60.9715 23.2477 61.0218 23.4304C61.0672 23.5953 61.0467 23.8148 60.9524 23.9611C60.7653 24.2511 60.3237 24.432 60.0102 24.2081Z" fill="white"/>
<path d="M56.2786 33.2013C55.537 33.2013 54.7954 33.2013 54.0538 33.2013C53.6936 33.2013 53.3486 32.8846 53.3652 32.5127C53.3819 32.1396 53.6678 31.8241 54.0538 31.8241C54.7954 31.8241 55.537 31.8241 56.2786 31.8241C56.6388 31.8241 56.9839 32.1408 56.9672 32.5127C56.9505 32.8858 56.6646 33.2013 56.2786 33.2013Z" fill="white"/>
<path d="M67.3324 13.4169C67.826 15.0239 68.3196 16.6309 68.8132 18.2379C68.9223 18.5933 68.6833 18.9885 68.3322 19.085C67.9638 19.1862 67.5948 18.9608 67.4852 18.604C66.9916 16.997 66.498 15.39 66.0044 13.783C65.8952 13.4276 66.1343 13.0324 66.4853 12.9359C66.8538 12.8347 67.2228 13.0601 67.3324 13.4169Z" fill="white"/>
</svg>
