<svg width="105" height="80" viewBox="0 0 105 80" fill="none" xmlns="http://www.w3.org/2000/svg">
<path d="M99.3997 53.9795H27.7553C26.2397 53.9795 24.9997 55.2195 24.9997 56.735C24.9997 61.3093 28.6922 65.0017 33.2664 65.0017H93.8886C98.4628 65.0017 102.155 61.3093 102.155 56.735C102.155 55.2195 100.915 53.9795 99.3997 53.9795Z" stroke="#151515" stroke-width="5.51111" stroke-linecap="round" stroke-linejoin="round"/>
<path d="M96.5343 53.9775C96.617 53.0682 96.6445 52.1588 96.6445 51.2219C96.6445 32.9526 81.8472 18.1553 63.5779 18.1553C45.3085 18.1553 30.5112 32.9526 30.5112 51.2219C30.5112 52.1588 30.5388 53.0682 30.6214 53.9775" stroke="#151515" stroke-width="5.51111" stroke-linecap="round" stroke-linejoin="round"/>
<path d="M60.5468 18.2933C58.2597 16.3644 56.689 12.6169 56.689 9.88889C56.689 6.08622 59.7752 3 63.5779 3C67.3806 3 70.4668 6.08622 70.4668 9.88889C70.4668 12.6169 68.8961 16.3644 66.609 18.2933" stroke="#151515" stroke-width="5.51111" stroke-linecap="round" stroke-linejoin="round"/>
<path d="M57.9004 29.204C57.9004 29.204 50.6257 28.5151 48.1182 36.3133" stroke="#151515" stroke-width="5.51111" stroke-linecap="round" stroke-linejoin="round"/>
<path d="M25.9999 41.2717C27.0181 41.2717 28.0045 41.399 28.9591 41.6535C30.2319 41.9399 31.4729 42.449 32.5548 43.1172C36.2459 45.3128 38.7278 49.3539 38.7278 53.9996C38.7278 57.2771 37.4868 60.2363 35.4503 62.4637C34.623 63.4183 33.6366 64.2456 32.5548 64.882C30.6456 66.0594 28.3864 66.7275 25.9999 66.7275C22.5634 66.7275 19.4133 65.3593 17.1222 63.1319C14.7358 60.809 13.272 57.5634 13.272 53.9996C13.272 50.2449 14.8948 46.8402 17.5041 44.5491C19.7633 42.5127 22.7543 41.2717 25.9999 41.2717Z" fill="#FFE8E5" stroke="#A71200" stroke-width="3.6952" stroke-miterlimit="10" stroke-linecap="round" stroke-linejoin="round"/>
<path d="M29.3084 50.595L22.5945 57.3408" stroke="#A71200" stroke-width="3.6952" stroke-miterlimit="10" stroke-linecap="round" stroke-linejoin="round"/>
<path d="M22.6887 50.6585L29.4027 57.4043" stroke="#A71200" stroke-width="3.6952" stroke-miterlimit="10" stroke-linecap="round" stroke-linejoin="round"/>
</svg>
