<svg width="97" height="72" viewBox="0 0 97 72" fill="none" xmlns="http://www.w3.org/2000/svg">
<path d="M91.4 53.9795H19.7555C18.24 53.9795 17 55.2195 17 56.735C17 61.3093 20.6924 65.0017 25.2666 65.0017H85.8889C90.4631 65.0017 94.1555 61.3093 94.1555 56.735C94.1555 55.2195 92.9155 53.9795 91.4 53.9795Z" stroke="#151515" stroke-width="5.51111" stroke-linecap="round" stroke-linejoin="round"/>
<path d="M88.5343 53.9775C88.617 53.0682 88.6445 52.1588 88.6445 51.2219C88.6445 32.9526 73.8472 18.1553 55.5779 18.1553C37.3085 18.1553 22.5112 32.9526 22.5112 51.2219C22.5112 52.1588 22.5388 53.0682 22.6214 53.9775" stroke="#151515" stroke-width="5.51111" stroke-linecap="round" stroke-linejoin="round"/>
<path d="M52.547 18.2933C50.2599 16.3644 48.6893 12.6169 48.6893 9.88889C48.6893 6.08622 51.7755 3 55.5782 3C59.3808 3 62.467 6.08622 62.467 9.88889C62.467 12.6169 60.8964 16.3644 58.6093 18.2933" stroke="#151515" stroke-width="5.51111" stroke-linecap="round" stroke-linejoin="round"/>
<path d="M49.9009 29.204C49.9009 29.204 42.6262 28.5151 40.1187 36.3133" stroke="#151515" stroke-width="5.51111" stroke-linecap="round" stroke-linejoin="round"/>
<path d="M9 45C9.72 44.28 10.5075 43.6725 11.3625 43.1775C12.465 42.48 13.7025 41.9625 14.94 41.67C19.1025 40.6125 23.715 41.715 27 45C29.3175 47.3175 30.5324 50.2876 30.6674 53.3026C30.7574 54.5626 30.645 55.845 30.33 57.06C29.8125 59.2425 28.6875 61.3125 27 63C24.57 65.43 21.375 66.6899 18.18 66.7349C14.85 66.7799 11.52 65.52 9 63C6.345 60.345 5.08504 56.79 5.31003 53.325C5.46754 50.2875 6.705 47.295 9 45Z" fill="#E8FFE8" stroke="#007E23" stroke-width="3.6952" stroke-miterlimit="10" stroke-linecap="round" stroke-linejoin="round"/>
<path d="M17.9321 49.2531L17.9546 58.7705" stroke="#007E23" stroke-width="3.6952" stroke-miterlimit="10" stroke-linecap="round" stroke-linejoin="round"/>
<path d="M13.2962 53.979L22.8136 54.0016" stroke="#007E23" stroke-width="3.6952" stroke-miterlimit="10" stroke-linecap="round" stroke-linejoin="round"/>
</svg>
