<svg width="188" height="188" viewBox="0 0 188 188" fill="none" xmlns="http://www.w3.org/2000/svg">
<path d="M135.458 55.9481L141.122 71.0518C141.308 71.5474 141.403 72.0724 141.403 72.6018C141.403 75.0397 139.426 77.0161 136.988 77.0161H122.625C121.418 77.0161 120.439 76.0376 120.439 74.8305V73.2568C120.439 72.0497 121.418 71.0712 122.625 71.0712C123.951 71.0712 124.971 69.9003 124.79 68.5869L123.047 55.9481" fill="#E742F4"/>
<path d="M101.95 62.042H163.282C164.6 62.042 165.694 61.0223 165.786 59.7072L168.559 20.1968C168.661 18.7446 167.51 17.5105 166.054 17.5105H105.075L101.95 62.042Z" fill="#75007E"/>
<path d="M98.0435 62.042H161.716L164.841 17.5105H101.169L98.0435 62.042Z" fill="#E742F4"/>
<path d="M102.275 58.2659H158.144L160.739 21.2865H104.87L102.275 58.2659Z" fill="white"/>
<path d="M117.574 53.0576H154.343L156.051 28.7203H119.282L117.574 53.0576Z" fill="#FFE8E5"/>
<path d="M90.1009 32.6146H108.946C111.886 32.6146 114.325 30.1762 114.531 27.0314L115.142 17.696C115.369 14.2234 112.803 11.2722 109.557 11.2722H90.7118C87.7719 11.2722 85.3327 13.7107 85.1269 16.8555L84.516 26.1908C84.2887 29.6634 86.8545 32.6146 90.1009 32.6146Z" fill="white"/>
<path d="M86.6356 86.9427H149.439C149.613 86.9427 149.784 86.8952 149.934 86.8052L165.831 77.2362C166.664 76.7344 166.309 75.4535 165.336 75.4535H102.533C102.358 75.4535 102.187 75.501 102.037 75.591L86.1405 85.16C85.3068 85.6618 85.6625 86.9427 86.6356 86.9427Z" fill="#FFE8E5"/>
<path d="M7.81947 58.5185C5.03631 67.0843 4.11503 76.2359 5.03682 85.1907C5.77871 92.3978 6.30435 99.2171 11.3754 104.742C20.0698 114.216 34.2565 114.879 46.0356 113.129C50.172 112.514 54.5356 111.519 57.4646 108.534C60.3936 105.549 60.9903 99.9636 57.6361 97.4661C54.6891 95.2718 50.3765 96.38 47.055 94.8092C44.688 93.6899 43.1135 91.3068 42.3626 88.7984C40.5062 82.5966 41.2509 76.2075 41.0944 69.8546C40.9253 62.9909 39.0358 55.5957 33.5906 51.4138C30.6257 49.1368 26.9025 48.0578 23.2004 47.5388C20.6003 47.1743 17.8593 47.08 15.4431 48.1072C11.3569 49.8445 9.19156 54.2956 7.81947 58.5185Z" fill="#FFE8E5"/>
<path d="M136.751 84.7459H108.575C107.821 84.7459 107.82 83.574 108.575 83.574H136.751C137.505 83.574 137.506 84.7459 136.751 84.7459Z" fill="#75007E"/>
<path d="M34.9437 19.1917C34.2306 19.9312 33.3705 20.5745 32.29 21.0814C30.522 21.9108 28.5506 22.1887 26.7015 22.8168C22.9862 24.0786 19.8998 28.3715 19.9977 32.3558C20.0475 34.3866 21.0778 36.4464 22.8574 37.426C24.4776 38.3178 26.4667 38.2312 28.2659 37.8028C28.7798 37.6804 29.344 37.4878 29.5808 37.0155C29.8175 36.5433 29.3791 35.8084 28.8888 36.0051C28.1049 37.2211 28.5503 38.8784 29.3822 40.062C30.4887 41.6362 32.106 43.7615 33.7228 44.7975C37.7106 47.353 44.9483 47.7523 48.5285 44.3527C49.6546 43.2834 50.4053 41.7624 50.3297 40.2114C50.299 39.5836 50.1243 38.9412 49.7115 38.4671C49.2988 37.9931 48.6161 37.7249 48.0181 37.9184C47.9318 37.9463 47.8403 37.991 47.8067 38.0753C47.774 38.1572 47.8066 38.2499 47.8465 38.3285C48.6596 39.9284 50.7202 38.9406 51.6729 38.1424C52.8494 37.1567 53.6536 35.7184 53.8866 34.2024C54.187 32.2478 53.6098 30.2331 52.5229 28.6048C51.6527 27.3012 50.8018 25.5374 48.9299 25.766C48.5844 25.8082 48.2259 25.9355 48.021 26.2167C47.8161 26.498 47.8405 26.9583 48.1393 27.1366C48.4784 27.339 48.9064 27.0897 49.1895 26.8144C50.699 25.3462 50.91 23.5074 50.3733 21.5513C50.0027 20.2003 50.3702 18.7678 51.825 18.1829C53.6688 17.4416 55.2957 18.8195 55.361 20.6405C55.4002 21.7314 55.3804 22.8244 55.3019 23.9131C55.9436 23.7249 56.3237 23.0742 56.5791 22.4561C57.1031 21.1884 56.9207 19.0544 57.7469 17.9824C58.7572 16.6715 61.2109 17.4117 62.6271 17.2524C63.5441 17.1493 64.5234 16.8997 65.1 16.1792C65.6698 15.467 65.705 14.463 65.5518 13.564C65.0747 10.7648 62.8276 8.99892 60.4221 7.73925C57.1718 6.0372 53.6123 4.73162 49.9434 4.7502C45.8493 4.77093 41.8491 6.62689 39.7843 10.253C38.0348 13.326 37.2754 16.7734 34.9437 19.1917Z" fill="white"/>
<path d="M35.3578 19.606C34.4801 20.5091 33.4316 21.227 32.2761 21.7263C31.0296 22.2647 29.7133 22.5757 28.4056 22.9238C27.2642 23.2277 26.2663 23.5307 25.2793 24.1433C24.39 24.6952 23.6218 25.39 22.9313 26.2074C21.6164 27.764 20.6775 29.8195 20.5888 31.829C20.4983 33.8772 21.4026 36.0305 23.2927 36.9941C24.47 37.5943 25.8892 37.6276 27.1708 37.4248C27.7444 37.334 28.454 37.2569 28.9003 36.934C28.9443 36.9021 29.0364 36.8145 29.0746 36.7198C29.0261 36.8399 29.0635 36.6108 29.0601 36.754C29.0609 36.7188 29.0292 36.5833 29.0595 36.6915C29.0544 36.6733 28.9875 36.5252 29.0421 36.6255C29.0255 36.5935 29.0069 36.5626 28.9864 36.533C29.0239 36.5817 29.0204 36.5815 28.9758 36.5326L29.0158 36.5615C28.9568 36.5286 28.9599 36.5271 29.025 36.5572C28.8633 36.5902 29.2184 36.5114 29.0444 36.5702L29.3946 36.3009C29.0976 36.7767 29.0146 37.3236 29.0889 37.8543C29.1782 38.4932 29.4366 39.0809 29.7862 39.6159C30.5012 40.7101 31.333 41.7611 32.2239 42.7164C33.0515 43.6038 33.9219 44.3111 35.0092 44.8503C35.1231 44.9068 35.2379 44.9613 35.3536 45.0141C35.4075 45.0387 35.4616 45.0627 35.5158 45.0867C35.5431 45.0987 35.5704 45.1105 35.5977 45.1222C35.5401 45.0975 35.5982 45.1226 35.6231 45.1329C35.8755 45.2372 36.1313 45.3333 36.3897 45.4219C36.9122 45.601 37.4452 45.7491 37.9844 45.8685C40.116 46.3407 42.4587 46.3748 44.5777 45.8074C45.6188 45.5286 46.4783 45.1681 47.3778 44.5416C47.6021 44.3854 47.6914 44.3172 47.9218 44.1142C48.1566 43.9072 48.3771 43.6845 48.5793 43.4455C48.973 42.9799 49.2965 42.4257 49.4947 41.8543C49.8363 40.8697 50.0069 39.2069 48.9565 38.5949C48.7491 38.4741 48.4884 38.4137 48.3079 38.448C48.2784 38.4536 48.2364 38.4744 48.2071 38.4737C48.0188 38.4688 48.4525 38.1111 48.3523 38.0328C48.3921 38.0639 48.4309 38.1732 48.4604 38.2193C48.476 38.2438 48.4925 38.2686 48.5102 38.2916C48.5027 38.2818 48.4635 38.2346 48.5067 38.2826C48.5548 38.336 48.6049 38.3852 48.6588 38.4327C48.7092 38.4772 48.6498 38.4252 48.6417 38.4198C48.6626 38.4338 48.6831 38.4486 48.7049 38.4612C48.7482 38.4861 48.7913 38.5098 48.8358 38.5326C48.9134 38.5724 48.7489 38.5051 48.8322 38.5298C48.8557 38.5368 48.8787 38.5458 48.9023 38.5527C48.9576 38.5692 49.0137 38.5808 49.0702 38.5921C49.1378 38.6057 49.045 38.5893 49.0377 38.5887C49.0711 38.5916 49.1044 38.5946 49.1379 38.5962C49.1888 38.5987 49.2398 38.5991 49.2907 38.5977C49.3425 38.5963 49.3939 38.5914 49.4457 38.5879C49.5599 38.5803 49.4706 38.5846 49.4465 38.5887C49.4815 38.5827 49.5166 38.5767 49.5515 38.5698C49.6669 38.5469 49.781 38.5167 49.8933 38.4813C49.9459 38.4647 49.9982 38.447 50.05 38.4282C50.0761 38.4187 50.1018 38.4084 50.128 38.3991C50.2272 38.3638 50.1098 38.4093 50.1678 38.3839C50.385 38.2889 50.5949 38.177 50.7967 38.0525C50.892 37.9938 50.9854 37.9321 51.0768 37.8674C51.1168 37.839 51.1562 37.8098 51.1957 37.7805C51.0916 37.8577 51.2326 37.7498 51.2585 37.7282C51.5153 37.5138 51.7535 37.2769 51.9719 37.0237C52.7869 36.079 53.2849 34.8538 53.3651 33.6068C53.4535 32.2337 53.114 30.8602 52.4665 29.651C52.1865 29.1278 51.8468 28.636 51.5245 28.1382C51.3778 27.9116 51.2273 27.6878 51.0674 27.4703C51.0385 27.431 50.9818 27.3576 50.9021 27.2634C50.8145 27.1598 50.7231 27.0593 50.6268 26.9637C50.2787 26.618 49.9693 26.4129 49.4669 26.3395C49.5557 26.3525 49.4081 26.3366 49.3822 26.3352C49.3194 26.3319 49.2563 26.3312 49.1934 26.3326C49.0257 26.3364 48.9744 26.3393 48.8095 26.3843C48.7011 26.4139 48.6119 26.4507 48.5501 26.5035C48.5243 26.5255 48.5004 26.5513 48.4782 26.5769C48.491 26.5621 48.5035 26.5419 48.4809 26.5867C48.4688 26.6107 48.4768 26.611 48.474 26.6283C48.4715 26.6434 48.4707 26.6389 48.4681 26.6545C48.4745 26.6166 48.4585 26.6663 48.4861 26.6854C48.4929 26.6901 48.4361 26.6328 48.4349 26.6308C48.4128 26.5914 48.3664 26.6556 48.4555 26.6229C48.4082 26.6403 48.5392 26.5776 48.55 26.5716C48.7971 26.4339 49.0072 26.1753 49.1895 25.9488C49.5623 25.4857 49.802 24.9778 49.94 24.4088C50.0719 23.8656 50.0858 23.2759 50.0109 22.6733C49.9417 22.1156 49.7163 21.4773 49.6651 20.8734C49.5621 19.6574 50.1087 18.4496 51.1881 17.8405C52.3223 17.2006 53.6953 17.2575 54.7203 18.0719C55.1918 18.4465 55.5247 18.9621 55.7346 19.522C55.9765 20.1672 55.9619 20.8711 55.9659 21.55C55.9705 22.3385 55.9433 23.1266 55.8878 23.9131C55.6405 23.7248 55.3933 23.5365 55.1461 23.3481C55.2115 23.3271 55.2678 23.303 55.3608 23.2427C55.4132 23.2088 55.4644 23.1633 55.5407 23.0827C55.6658 22.9506 55.7695 22.7854 55.8722 22.5921C56.0501 22.2573 56.1626 21.9068 56.2472 21.5009C56.4273 20.6363 56.468 19.745 56.6991 18.8905C56.9168 18.0855 57.3378 17.3194 58.1215 16.9512C58.9002 16.5854 59.7822 16.5749 60.6257 16.6166C61.3628 16.653 62.172 16.7467 62.8616 16.6341C63.6995 16.4973 64.5726 16.208 64.8866 15.39C65.2103 14.5463 65.0225 13.5518 64.7251 12.7095C64.4618 11.9637 63.9784 11.2222 63.4333 10.6337C62.158 9.25728 60.4627 8.3683 58.7589 7.56354C56.7641 6.62128 54.6577 5.87816 52.474 5.52843C48.7958 4.93935 44.8424 5.69719 42.0938 8.26903C39.1894 10.9866 38.6367 15.2628 36.3321 18.4307C36.0323 18.8427 35.7101 19.2377 35.3578 19.606C34.8355 20.1521 34.0077 19.3227 34.5293 18.7774C37.4164 15.7585 37.8423 11.2129 40.6161 8.10452C43.2831 5.11583 47.4228 3.89405 51.3346 4.2194C53.6969 4.41588 55.9718 5.09036 58.1468 6.01244C60.0554 6.82158 61.9892 7.76038 63.5641 9.13096C65.0413 10.4165 66.0887 12.1743 66.207 14.1579C66.2741 15.2813 65.9268 16.3888 64.994 17.0719C64.2244 17.6355 63.1604 17.8485 62.2217 17.8617C61.3995 17.8733 60.5813 17.7469 59.7584 17.776C59.3478 17.7905 59.1388 17.8137 58.7228 17.9596C58.4901 18.0413 58.2545 18.2402 58.0986 18.5094C57.9806 18.7131 57.9687 18.7531 57.9 18.963C57.8342 19.1644 57.7834 19.3705 57.7401 19.5778C57.6439 20.0387 57.586 20.5064 57.5188 20.972C57.3894 21.8674 57.2045 22.779 56.6715 23.5335C56.3609 23.9731 55.9764 24.3114 55.4576 24.4781C55.1125 24.589 54.6896 24.2855 54.7159 23.9131C54.7607 23.2779 54.7875 22.6416 54.7933 22.0048C54.796 21.7016 54.7942 21.3984 54.7879 21.0952C54.7828 20.8504 54.7759 20.5009 54.7469 20.3461C54.7275 20.2427 54.7035 20.1403 54.6737 20.0394C54.6561 19.9797 54.6364 19.9209 54.6154 19.8624C54.5758 19.752 54.5951 19.8056 54.6059 19.8312C54.563 19.7289 54.5104 19.6298 54.4543 19.5342C54.429 19.4911 54.4028 19.4487 54.3752 19.407C54.3712 19.4009 54.2704 19.2592 54.3272 19.3331C54.2096 19.1802 54.0672 19.0364 53.9146 18.9184C54.0004 18.9848 53.8462 18.8744 53.8451 18.8737C53.8046 18.8472 53.7633 18.8221 53.7213 18.798C53.6793 18.7739 53.6364 18.7519 53.5934 18.7295C53.4791 18.6702 53.6311 18.7361 53.5199 18.6956C52.8011 18.434 51.9363 18.5945 51.3679 19.1589C51.1054 19.4195 50.9686 19.6795 50.8779 20.0718C50.8138 20.3488 50.8181 20.8532 50.8791 21.1492C50.9868 21.6723 51.1265 22.1754 51.187 22.7089C51.2456 23.2257 51.2323 23.7391 51.1583 24.2535C51.0094 25.2889 50.5252 26.2377 49.8204 27.0058C49.4367 27.424 48.9299 27.8383 48.3257 27.7899C47.6877 27.7389 47.2529 27.1664 47.3081 26.5406C47.419 25.2835 48.9397 25.001 49.9506 25.2437C50.8452 25.4585 51.5087 26.12 52.0435 26.8311C52.2953 27.1657 52.5196 27.5194 52.745 27.872C53.0103 28.2869 53.2869 28.6929 53.5157 29.1299C54.5636 31.1315 54.9254 33.5778 54.0821 35.7193C53.3899 37.477 51.9908 39.0957 50.1261 39.6353C49.3033 39.8733 48.3623 39.8137 47.7335 39.1714C47.3261 38.7553 46.9457 38.0399 47.4782 37.5615C47.9138 37.1701 48.6794 37.2148 49.1881 37.4146C50.3404 37.8671 50.8574 39.0376 50.9155 40.2115C50.9699 41.3101 50.6339 42.4215 50.0711 43.3585C49.0962 44.9817 47.4669 46.0607 45.7105 46.683C44.0149 47.2839 42.1632 47.4698 40.3736 47.3697C38.5488 47.2677 36.7435 46.875 35.0612 46.1576C34.256 45.8142 33.4925 45.3919 32.8013 44.8528C31.9529 44.191 31.2193 43.3911 30.5381 42.5617C29.8703 41.7485 29.1742 40.8982 28.6391 39.9894C28.0818 39.043 27.7729 37.926 27.9531 36.8299C28.0362 36.3248 28.2725 35.5366 28.8334 35.4124C29.4255 35.2814 29.9313 35.6974 30.1369 36.2234C30.3406 36.7443 30.1907 37.2956 29.8078 37.6906C29.4435 38.0664 28.9183 38.2482 28.4216 38.3679C26.2668 38.8873 23.7722 38.9222 21.9298 37.5162C20.2866 36.2624 19.407 34.204 19.4094 32.1587C19.4116 30.1943 20.1104 28.2485 21.1779 26.6161C22.2486 24.9787 23.7298 23.5406 25.5013 22.6828C27.5615 21.6853 29.9224 21.5466 31.9941 20.5756C32.946 20.1295 33.7968 19.531 34.5293 18.7774C35.0558 18.2357 35.884 19.0647 35.3578 19.606Z" fill="white"/>
<path d="M116.447 76.777C116.724 76.8453 116.901 76.8609 117.141 76.7636C117.236 76.7252 117.405 76.576 117.492 76.4358C117.77 75.9902 117.881 75.4068 117.91 74.8624C117.984 73.4927 117.549 72.2163 116.971 70.9156C116.289 69.3808 115.304 68.0054 113.864 67.1014C112.065 65.9714 109.861 65.5206 107.764 65.4161C105.493 65.3028 103.223 65.5741 100.981 65.9147C98.5711 66.2809 96.1644 66.6726 93.759 67.0688C91.2435 67.4831 88.7296 67.9068 86.2138 68.3196C83.8176 68.7128 81.3987 69.0289 79.0247 69.5443C77.4545 69.8852 75.7826 70.2876 74.3805 71.101C73.5367 71.5905 72.6479 72.166 71.9376 72.7432C71.7237 72.917 71.5148 73.0979 71.3187 73.2917C71.2399 73.3696 71.1629 73.4493 71.0893 73.5322C71.0548 73.571 71.0213 73.6105 70.9881 73.6504C70.9309 73.7193 71.0399 73.5788 70.9886 73.6483C70.97 73.6735 70.951 73.6986 70.9338 73.7248C70.8861 73.7978 70.8431 73.8715 70.8008 73.9477C70.7353 74.0654 70.824 73.8742 70.7935 73.9673C70.785 73.9932 70.7387 74.1232 70.7727 74.0244C70.808 73.9213 70.7823 74.0456 70.7764 74.0593C70.7621 74.0929 70.7772 73.9053 70.7799 74.0398C70.7789 73.9924 70.7555 73.9168 70.7753 74.0118C70.7489 73.8853 70.6999 73.9936 70.7843 74.008C70.7983 74.0104 70.6853 73.968 70.8098 74.0184C70.8528 74.0359 70.9281 74.076 70.8371 74.0383C70.9285 74.0761 71.0652 74.1358 71.1644 74.1335C71.3554 74.129 71.4978 73.7938 71.5626 73.6037C71.6996 73.2018 71.7047 72.7972 71.7179 72.3769C71.7343 71.8526 71.7465 71.3282 71.7542 70.8037C71.816 66.5861 71.5944 62.3477 70.8636 58.1888C70.1431 54.0884 68.9363 50.0554 67.0584 46.3312C65.1734 42.5928 62.6655 39.0376 59.324 36.4646C57.69 35.2064 55.8216 34.1149 53.841 33.5098C52.8768 33.2153 51.8917 33.1267 50.8889 33.2147C49.9658 33.2957 49.0617 33.5192 48.1531 33.691C47.1602 33.8788 46.1582 34.0083 45.1462 33.9964C44.3926 33.9876 44.3906 32.8157 45.1462 32.8246C47.2466 32.8492 49.2321 32.103 51.3179 32.0147C53.5883 31.9187 55.7668 32.8534 57.6979 33.9685C61.6414 36.2459 64.6525 39.7818 66.9409 43.669C69.2225 47.5449 70.7549 51.8317 71.6758 56.2254C72.604 60.6543 72.9461 65.1936 72.9354 69.7132C72.9328 70.8266 72.9691 71.9717 72.8574 73.0803C72.773 73.9175 72.4324 75.0177 71.5096 75.261C70.9264 75.4149 70.107 75.1356 69.7728 74.6166C69.4951 74.1854 69.6031 73.6628 69.8494 73.2461C70.4323 72.2601 71.5341 71.5429 72.4626 70.9195C73.3183 70.345 74.1672 69.8487 75.1269 69.4691C77.4537 68.5486 79.9401 68.1456 82.3991 67.7552C85.0786 67.3298 87.7548 66.8843 90.431 66.4389C93.0991 65.9949 95.7679 65.5556 98.4398 65.1352C100.845 64.7568 103.255 64.3392 105.691 64.2398C108.103 64.1414 110.576 64.375 112.831 65.2839C114.666 66.0238 116.179 67.2195 117.234 68.9029C117.733 69.6987 118.115 70.5657 118.438 71.4462C118.706 72.178 118.953 72.9117 119.044 73.6877C119.189 74.909 119.109 76.598 118.127 77.4868C117.57 77.9918 116.849 78.0827 116.136 77.907C115.404 77.7267 115.714 76.5962 116.447 76.777Z" fill="white"/>
<path d="M115.255 72.7636C115.791 74.4398 116.327 76.116 116.863 77.7922C117.218 78.9007 117.572 80.0092 117.926 81.1176C118.124 81.736 118.448 82.4463 118.438 83.1062C118.422 84.1964 117.605 85.1769 116.521 85.3485C115.364 85.5314 114.323 84.8615 113.931 83.7752C114.307 83.6714 114.684 83.5675 115.061 83.4637C115.396 84.5722 114.869 85.7962 113.798 86.2653C112.678 86.756 111.347 86.2848 110.797 85.1881C111.154 85.0376 111.511 84.8871 111.868 84.7366C112.113 85.971 111.391 87.2803 110.101 87.5277C108.916 87.7551 107.824 87.087 107.422 85.9647C107.013 84.8231 106.65 83.6628 106.264 82.513C106.109 82.0505 105.954 81.588 105.799 81.1255C106.175 81.0217 106.552 80.9179 106.929 80.814C107.272 81.8902 107.616 82.9664 107.96 84.0426C108.123 84.5523 108.296 85.0599 108.449 85.5726C108.708 86.4381 108.244 87.2984 107.606 87.8708C106.744 88.644 105.486 89.025 104.446 88.3463C103.955 88.0258 103.615 87.5509 103.452 86.9892C103.359 86.6685 103.291 86.3418 103.178 86.0271C103.04 85.6464 102.843 85.3105 102.57 85.0439C102.367 84.8463 102.082 84.6826 101.828 84.6038C101.155 84.395 100.407 84.4881 99.6865 84.6712C97.8696 85.1328 96.2239 86.1022 94.5294 86.8899C91.8836 88.1198 89.1707 89.209 86.4071 90.1448C83.6073 91.0929 80.7472 91.9306 77.8379 92.4679C76.3526 92.7422 74.8475 92.9359 73.3375 92.9952C72.6227 93.0233 71.9066 93.0211 71.1923 92.9827C70.5346 92.9474 69.7325 92.8575 69.1799 92.7755C68.635 92.6946 68.1008 92.5825 67.5692 92.4349C66.2978 92.0817 65.0627 91.5826 63.8878 90.9837C62.1971 90.1219 60.6264 89.0213 59.2222 87.7457C57.429 86.1169 55.9148 84.1799 54.7111 82.0801C53.1544 79.3644 52.1011 76.3721 51.4426 73.318C50.5543 69.1982 50.3392 64.9488 50.5222 60.7464C50.5754 59.5243 50.6637 58.304 50.7797 57.0863C50.8096 56.7713 51.0275 56.5004 51.3656 56.5004C51.6593 56.5004 51.9817 56.7694 51.9516 57.0863C51.5348 61.4643 51.4615 65.9194 52.0866 70.2822C52.3371 72.031 52.6973 73.7655 53.1941 75.4613C53.6215 76.9202 54.137 78.3161 54.7611 79.6405C55.327 80.8417 55.9821 82.0015 56.7306 83.0985C57.3962 84.0742 58.0233 84.8615 58.872 85.7604C59.5858 86.5164 60.354 87.2212 61.1703 87.8654C61.2201 87.9047 61.2701 87.9438 61.3203 87.9827C61.2172 87.9028 61.3294 87.9894 61.3682 88.0187C61.4674 88.0936 61.5668 88.168 61.6671 88.2413C61.8519 88.3764 62.039 88.5085 62.2281 88.6374C62.5978 88.8894 62.9756 89.1295 63.3608 89.3571C64.035 89.7553 64.7318 90.1153 65.4473 90.4334C65.522 90.4666 65.597 90.4991 65.6719 90.5316C65.7502 90.5656 65.771 90.5734 65.6702 90.5314C65.7157 90.5503 65.7611 90.5694 65.8067 90.5882C65.9561 90.6498 66.1063 90.7095 66.2572 90.7673C66.5393 90.8755 66.8241 90.977 67.1111 91.0713C67.7969 91.2967 68.4967 91.4848 69.2087 91.6057C69.3368 91.6274 69.3537 91.6266 69.1785 91.6035C70.437 91.77 71.688 91.8656 72.9587 91.8354C75.8768 91.766 78.7514 91.1661 81.5588 90.4012C84.3275 89.6468 87.0548 88.7383 89.7245 87.6862C92.0456 86.7716 94.2786 85.6911 96.5337 84.6304C98.0071 83.9373 99.7062 83.1741 101.376 83.3329C102.196 83.4108 102.98 83.73 103.533 84.3579C104.104 85.0058 104.343 85.7948 104.564 86.6098C104.669 86.9965 104.892 87.3174 105.281 87.4644C105.722 87.6309 106.154 87.4778 106.529 87.233C106.995 86.9281 107.483 86.396 107.299 85.8213C106.905 84.5872 106.51 83.3532 106.116 82.1191C106.01 81.7879 105.904 81.4567 105.799 81.1255C105.568 80.4038 106.69 80.1028 106.929 80.814C107.238 81.7357 107.547 82.6574 107.856 83.5791C108.042 84.1323 108.227 84.6855 108.413 85.2387C108.545 85.6329 108.65 86.0089 109.034 86.2429C109.863 86.7481 110.927 85.9987 110.738 85.0481C110.616 84.4355 111.493 83.9671 111.809 84.5966C112.094 85.164 112.738 85.4811 113.345 85.1924C113.89 84.9333 114.099 84.3323 113.931 83.7752C113.71 83.0449 114.808 82.7632 115.061 83.4637C115.286 84.0886 116.028 84.3937 116.627 84.1012C117.171 83.8352 117.366 83.2377 117.197 82.6804C117.037 82.1532 116.861 81.6302 116.693 81.1055C116.019 78.9981 115.345 76.8908 114.671 74.7834C114.489 74.214 114.307 73.6446 114.125 73.0752C113.895 72.3552 115.026 72.0469 115.255 72.7636Z" fill="white"/>
<path d="M110.696 85.0378C110.171 83.5193 109.646 82.0007 109.121 80.4822C109.046 80.2667 108.972 80.0513 108.897 79.8358C108.794 79.5367 109.015 79.195 109.306 79.115C109.628 79.0265 109.923 79.2241 110.027 79.5243C110.552 81.0428 111.077 82.5614 111.602 84.0799C111.677 84.2954 111.751 84.5108 111.826 84.7263C111.929 85.0253 111.708 85.3671 111.416 85.4471C111.094 85.5356 110.8 85.338 110.696 85.0378Z" fill="white"/>
<path d="M113.989 83.9966C113.464 82.478 112.939 80.9595 112.413 79.4409C112.339 79.2255 112.265 79.01 112.19 78.7946C112.087 78.4955 112.308 78.1538 112.599 78.0738C112.921 77.9852 113.216 78.1829 113.32 78.483C113.845 80.0016 114.37 81.5201 114.895 83.0387C114.97 83.2541 115.044 83.4696 115.119 83.685C115.222 83.9841 115.001 84.3258 114.709 84.4058C114.387 84.4943 114.092 84.2967 113.989 83.9966Z" fill="white"/>
<path d="M72.3713 62.7003C73.6182 62.039 74.8651 61.3777 76.112 60.7164C77.3268 60.0722 78.5322 59.4031 79.7716 58.807C81.1916 58.124 82.6773 57.6031 84.2115 57.2444C87.2327 56.5381 90.7432 56.2512 93.6109 57.6666C95.2292 58.4652 96.3883 59.875 96.932 61.5878C97.1607 62.3083 96.0297 62.6166 95.802 61.8993C95.7421 61.7106 95.676 61.524 95.6 61.3411C95.6431 61.4448 95.5983 61.3382 95.5865 61.3127C95.5683 61.2735 95.5507 61.2341 95.5322 61.195C95.4885 61.1028 95.4425 61.0116 95.3941 60.9217C95.3077 60.761 95.2138 60.6044 95.1125 60.4528C95.0674 60.3852 95.0209 60.3187 94.9729 60.2531C94.9612 60.2372 94.8619 60.1098 94.9478 60.218C94.918 60.1804 94.888 60.143 94.8574 60.1061C94.6362 59.8397 94.3898 59.5943 94.1232 59.3733C94.0871 59.3434 94.0505 59.3142 94.014 59.2849C94.03 59.2978 94.109 59.3541 94.0212 59.2909C93.9515 59.2407 93.8828 59.1894 93.812 59.1408C93.6635 59.039 93.5104 58.9439 93.3537 58.8552C93.2164 58.7775 93.0763 58.7049 92.934 58.637C92.8479 58.596 92.7609 58.5569 92.6733 58.5191C92.7975 58.5727 92.5427 58.4682 92.5014 58.4527C92.1657 58.326 91.8214 58.2225 91.4726 58.1387C91.3106 58.0997 91.1476 58.0651 90.9839 58.0343C90.9012 58.0188 90.8183 58.0042 90.7353 57.9906C90.6852 57.9824 90.6351 57.9746 90.585 57.9671C90.5514 57.9621 90.5178 57.9572 90.4842 57.9525C90.5473 57.9608 90.5571 57.9621 90.5135 57.9564C90.1457 57.9094 89.776 57.8789 89.4055 57.8634C88.6283 57.8309 87.8489 57.8621 87.0751 57.9397C86.8802 57.9592 86.6858 57.9821 86.4915 58.0071C86.6133 57.9914 86.3674 58.0247 86.3305 58.0301C86.2252 58.0455 86.1201 58.0617 86.0151 58.0788C85.634 58.1406 85.2545 58.2128 84.8772 58.2946C84.157 58.4509 83.4442 58.6419 82.7428 58.868C82.4193 58.9723 82.0982 59.0842 81.7802 59.2046C81.6436 59.2563 81.5076 59.3096 81.3722 59.3646C81.3273 59.3828 81.1387 59.4619 81.2771 59.403C81.1729 59.4473 81.0691 59.4926 80.9657 59.5388C79.6213 60.1396 78.3324 60.8644 77.0323 61.5539C75.6758 62.2733 74.3193 62.9927 72.9628 63.7121C72.6833 63.8604 72.3254 63.7829 72.1611 63.5019C72.0061 63.2369 72.0908 62.8491 72.3713 62.7003Z" fill="white"/>
<path d="M32.9759 92.5689C34.1339 96.016 36.7108 98.7867 39.7328 100.726C43.21 102.957 47.2233 104.026 51.2527 104.745C53.4262 105.133 55.6148 105.427 57.7947 105.776C58.7773 105.933 59.6846 106.078 60.6565 106.18C61.8787 106.307 63.1121 106.381 64.3408 106.329C65.3685 106.285 66.5247 106.18 67.4247 105.67C67.7721 105.474 68.0278 105.26 68.1823 104.891C68.2253 104.788 68.2311 104.534 68.2639 104.39C68.2542 104.433 68.307 104.478 68.3466 104.483C68.2769 104.473 68.1865 104.453 68.053 104.467C66.8186 104.595 65.6623 105.501 65.1778 106.615C64.8271 107.42 64.7203 108.313 64.5822 109.173C64.4081 110.257 64.2117 111.337 63.9937 112.413C63.5586 114.56 63.039 116.69 62.4456 118.799C60.0295 127.387 56.4181 135.609 52.2433 143.477C51.1599 145.518 50.0457 147.544 48.938 149.572C47.9041 151.465 46.893 153.359 45.7371 155.182C44.6636 156.875 43.551 158.552 42.6504 160.346C41.8112 162.018 41.0279 163.952 41.1435 165.858C41.2547 167.691 42.3015 169.32 43.4822 170.663C44.8191 172.183 46.3709 173.526 48.0025 174.72C51.3412 177.163 55.0581 179.026 58.7934 180.776C60.819 181.725 64.2116 182.961 65.9441 180.794C66.3655 180.267 66.582 179.6 66.6858 178.942C66.8541 177.873 66.8092 176.75 66.7504 175.673C66.6246 173.371 66.2504 171.082 66.2919 168.771C66.3636 164.776 67.7957 161.006 69.63 157.507C71.4969 153.945 73.6926 150.568 75.5807 147.016C77.752 142.931 79.8232 138.794 81.7915 134.607C83.7387 130.466 85.6373 126.286 87.2988 122.021C90.2518 114.441 92.6043 105.706 90.2282 97.6381C89.683 95.7866 88.8718 94.038 87.8041 92.43C87.3857 91.7999 88.4002 91.2124 88.816 91.8385C93.6277 99.0852 92.8163 108.432 90.4782 116.396C89.1436 120.941 87.2669 125.309 85.3473 129.633C83.3885 134.044 81.3166 138.406 79.1344 142.712C78.0433 144.864 76.9267 147.005 75.7787 149.127C74.8062 150.926 73.743 152.673 72.7053 154.434C70.634 157.948 68.602 161.594 67.8007 165.638C67.3563 167.881 67.4384 170.131 67.6462 172.396C67.8559 174.682 68.2158 177.088 67.7953 179.371C67.5403 180.756 66.7473 182.03 65.4465 182.642C64.1804 183.238 62.738 183.225 61.3903 182.954C59.6718 182.608 58.0953 181.749 56.5304 180.994C54.5854 180.056 52.6621 179.068 50.8056 177.964C48.9634 176.868 47.1906 175.651 45.5457 174.275C43.9937 172.976 42.4849 171.527 41.3702 169.826C40.2805 168.162 39.7497 166.249 40.0659 164.269C40.3887 162.247 41.2758 160.338 42.2725 158.567C43.3022 156.738 44.4966 155.009 45.582 153.213C46.7736 151.242 47.8197 149.176 48.924 147.155C53.4607 138.851 57.623 130.369 60.4709 121.321C61.1612 119.127 61.7757 116.91 62.3016 114.671C62.8224 112.454 63.1983 110.22 63.5938 107.979C63.8878 106.313 64.5865 104.72 66.1601 103.905C67.0065 103.467 68.9912 102.675 69.3897 104.092C69.6922 105.166 68.8408 106.238 67.9553 106.716C66.8915 107.29 65.623 107.439 64.4341 107.496C62.0732 107.61 59.727 107.263 57.403 106.893C52.8905 106.174 48.2911 105.675 43.973 104.098C40.3594 102.778 36.938 100.671 34.4978 97.655C33.34 96.2237 32.4329 94.6277 31.8459 92.8804C31.6052 92.1639 32.7366 91.8565 32.9759 92.5689Z" fill="white"/>
<path d="M92.7991 123.798C96.2077 127.932 98.6861 132.734 101.882 137.024C103.451 139.129 105.222 141.189 107.391 142.697C110.006 144.514 113.091 145.457 116.05 146.545C117.498 147.077 118.955 147.635 120.319 148.359C121.477 148.973 122.509 149.85 122.797 151.187C123.346 153.735 121.649 156.203 119.863 157.831C117.995 159.533 115.773 160.768 113.754 162.271C111.224 164.153 108.654 165.989 105.772 167.301C102.999 168.564 99.6466 169.769 96.6634 168.518C94.269 167.514 92.6412 165.425 91.2084 163.347C87.4196 157.851 83.175 152.701 78.8142 147.651C69.8352 137.255 60.2875 127.231 49.3758 118.833C46.7786 116.834 44.0864 114.95 41.2549 113.296C38.3855 111.621 35.33 110.414 32.359 108.949C28.0643 106.832 24.6578 103.457 22.4106 99.2349C18.0169 90.9799 17.7539 80.9055 18.7142 71.8065C18.8319 70.6919 18.9728 69.5798 19.1332 68.4707C19.2762 67.4818 19.2776 66.145 19.9096 65.3314C20.5863 64.4603 22.1739 64.465 22.3613 65.7414C22.4604 66.417 22.0689 67.0831 21.8173 67.6847C21.4412 68.5836 21.0652 69.4826 20.6892 70.3815C20.2224 71.4975 19.8245 73.3705 18.5769 73.8892C17.3644 74.3933 16.1808 73.4184 15.4963 72.502C13.9354 70.4123 13.0463 67.8031 12.6225 65.252C11.7421 59.9519 12.6088 54.3712 14.3756 49.3379C16.1515 44.2788 19.0542 39.5867 23.0253 35.9567C25.0086 34.1439 27.2475 32.5975 29.6827 31.4563C30.9009 30.8854 32.1634 30.4047 33.4585 30.0391C34.6167 29.7121 35.7945 29.4367 36.8936 28.9334C39.2159 27.87 40.3682 25.9492 40.5303 23.4195C40.6345 21.7933 40.4834 20.1642 40.8284 18.5579C41.0941 17.3206 41.5998 16.1211 42.2771 15.0532C45.088 10.6207 50.3597 8.72093 55.381 10.0727C57.7393 10.7076 59.9719 11.9809 61.6319 13.7832C63.5609 15.8777 64.3471 18.4134 64.5101 21.218C64.5969 22.7104 64.5618 24.2094 64.7104 25.6983C64.7637 26.2328 65.0034 26.9069 64.6665 27.395C64.3309 27.8813 63.7943 27.7168 63.3341 27.9411L63.6033 27.5909C62.8419 29.5301 61.957 31.5397 60.2321 32.8157C58.4145 34.1602 56.0612 34.7033 53.8327 34.418C53.0949 34.3235 53.0855 33.1504 53.8327 33.2461C56.9392 33.6438 59.889 32.3598 61.4257 29.5938C61.759 28.9937 62.0377 28.3649 62.2953 27.7292C62.5449 27.1131 62.7082 26.8446 63.3874 26.7241C63.485 26.7068 63.6585 26.7135 63.7364 26.6709C63.6103 26.7398 63.77 27.1398 63.6378 26.5127C63.5731 26.2059 63.5545 25.8776 63.5253 25.5656C63.454 24.8014 63.4312 24.0334 63.4103 23.2665C63.331 20.3624 63.1661 17.5352 61.2853 15.1715C59.7479 13.2392 57.5388 11.89 55.1731 11.2306C50.1444 9.82905 44.8013 12.0893 42.6008 16.9114C42.0176 18.1893 41.7805 19.5412 41.7472 20.9388C41.7106 22.4757 41.7906 24.0289 41.3746 25.5267C40.8079 27.5668 39.3891 29.0689 37.4851 29.9453C35.3046 30.9489 32.8969 31.2951 30.6997 32.2737C28.2973 33.3437 26.0746 34.801 24.1133 36.551C20.1909 40.0506 17.2925 44.6033 15.5427 49.5451C13.7998 54.4671 12.8767 59.9748 13.7912 65.1658C14.0123 66.4212 14.3461 67.6615 14.8204 68.8457C15.2862 70.0087 15.9129 71.3795 16.8241 72.2631C17.4815 72.9005 18.1977 73.0746 18.6674 72.1775C19.0647 71.4187 19.3474 70.5763 19.678 69.7861C19.9946 69.0291 20.3113 68.2721 20.628 67.5151C20.7812 67.1486 20.9573 66.7819 21.088 66.4067C21.1509 66.2262 21.4192 65.6729 20.8804 65.9815C20.7159 66.0758 20.6428 66.4894 20.6062 66.6524C20.1442 68.7059 19.9627 70.8725 19.7723 72.9651C19.5666 75.2262 19.4563 77.4969 19.4628 79.7676C19.4759 84.3123 19.9414 88.8941 21.2457 93.261C22.5002 97.4612 24.5981 101.452 27.8303 104.466C29.7135 106.223 31.904 107.486 34.2406 108.544C37.171 109.87 40.0572 111.184 42.8108 112.86C48.1985 116.139 53.1386 120.174 57.8583 124.341C62.8183 128.721 67.4975 133.411 71.9965 138.26C76.487 143.1 80.851 148.078 85.0118 153.204C87.0471 155.712 89.1017 158.24 90.949 160.891C92.3893 162.958 93.7108 165.307 95.8456 166.748C98.6628 168.65 101.927 167.712 104.813 166.454C107.583 165.246 110.092 163.545 112.509 161.749C114.516 160.256 116.716 158.989 118.621 157.365C119.56 156.566 120.43 155.664 121.025 154.575C121.704 153.332 122.145 151.557 121.117 150.375C120.197 149.317 118.55 148.77 117.287 148.265C115.832 147.684 114.347 147.183 112.878 146.639C110.25 145.666 107.692 144.535 105.521 142.731C101.603 139.475 98.9342 134.894 96.2105 130.664C94.8795 128.598 93.5364 126.526 91.9706 124.626C91.4944 124.049 92.3188 123.215 92.7991 123.798Z" fill="white"/>
<path d="M56.9722 19.8432C56.9443 19.8279 56.9155 19.8146 56.8871 19.8002C56.8445 19.7785 56.9671 19.8303 56.9219 19.8149C56.9086 19.8103 56.8956 19.8048 56.8823 19.8002C56.8224 19.7792 56.761 19.7631 56.6986 19.7517C56.684 19.749 56.6312 19.7416 56.6983 19.7504C56.7718 19.7599 56.6989 19.751 56.6871 19.7499C56.659 19.7473 56.6308 19.7457 56.6026 19.745C56.583 19.7445 56.4204 19.7354 56.412 19.7539C56.4125 19.7528 56.5121 19.7378 56.4529 19.749C56.439 19.7516 56.425 19.7539 56.4112 19.7567C56.38 19.7629 56.349 19.7703 56.3184 19.7788C56.2877 19.7873 56.2574 19.7968 56.2275 19.8075C56.2144 19.8122 56.2012 19.8189 56.1878 19.8224C56.199 19.8195 56.2703 19.7846 56.2227 19.8078C56.1654 19.8356 56.1094 19.8642 56.0561 19.8992C56.0443 19.9069 56.0329 19.9152 56.0212 19.923C55.9778 19.952 56.0411 19.9088 56.0494 19.9C56.0258 19.9251 55.9949 19.9458 55.9695 19.9696C55.8205 20.1095 55.5629 20.1284 55.4171 19.9696C55.2777 19.8177 55.258 19.5665 55.4171 19.4171C55.9379 18.9281 56.7395 18.8251 57.3665 19.1686C57.5459 19.2669 57.6188 19.5291 57.5067 19.703C57.3894 19.8849 57.1641 19.9483 56.9722 19.8432Z" fill="white"/>
<path d="M61.5463 22.7644C61.9364 23.2354 61.2117 23.6991 60.9435 23.205C60.7119 22.7783 61.2061 22.3538 61.5463 22.7644Z" fill="white"/>
<path d="M61.8224 22.4883C61.8733 22.5505 61.9274 22.6149 61.9608 22.6891C61.9823 22.7369 62.0052 22.7854 62.0201 22.8358C62.0355 22.8877 62.0406 22.9459 62.0466 22.998C62.0548 23.0693 62.043 23.1426 62.0297 23.2123C62.017 23.2785 61.9872 23.3435 61.9564 23.4023C61.8941 23.5213 61.7896 23.6203 61.6773 23.6915C61.5608 23.7653 61.423 23.8009 61.2864 23.8071C61.269 23.8079 61.2516 23.8073 61.2343 23.8057C61.1836 23.801 61.131 23.7956 61.0813 23.7831C61.0141 23.7662 60.9466 23.7379 60.8881 23.7006C60.7579 23.6175 60.6457 23.4975 60.5834 23.3552C60.5612 23.3045 60.537 23.2532 60.5225 23.1995C60.5072 23.1428 60.5002 23.0803 60.4952 23.0232C60.4882 22.9445 60.4998 22.8624 60.5172 22.7861C60.5223 22.7636 60.5295 22.7419 60.5381 22.7206C60.5579 22.6712 60.5769 22.6192 60.6049 22.5734C60.6319 22.5293 60.6656 22.4884 60.6986 22.4488C60.7131 22.4313 60.7292 22.4152 60.7466 22.4006C60.8391 22.3236 60.9144 22.2767 61.0296 22.2378C61.1041 22.2127 61.1892 22.2008 61.2675 22.2085C61.3907 22.2206 61.4892 22.2442 61.5993 22.3045C61.6826 22.3501 61.761 22.4153 61.8224 22.4883C61.8604 22.5236 61.8873 22.5655 61.9031 22.614C61.9275 22.6605 61.9388 22.7107 61.9367 22.7645C61.9367 22.8603 61.8942 22.9747 61.8223 23.0407C61.7479 23.109 61.6501 23.1597 61.5461 23.1551C61.4478 23.1507 61.3358 23.119 61.2699 23.0407C61.2427 23.0083 61.2129 22.9787 61.1794 22.9528L61.2585 23.0139C61.2312 22.9936 61.2024 22.9763 61.1713 22.9626L61.2646 23.002C61.2363 22.9903 61.2073 22.9819 61.1771 22.9774L61.2809 22.9913C61.2525 22.9877 61.2242 22.9874 61.1957 22.9908L61.2996 22.9768C61.2699 22.9809 61.2413 22.9888 61.2136 23.0002L61.3069 22.9608C61.2794 22.9728 61.2539 22.9879 61.2301 23.0061L61.3091 22.945C61.2835 22.9652 61.2609 22.9882 61.2408 23.014L61.3019 22.935C61.2818 22.9619 61.2653 22.9906 61.2521 23.0215L61.2915 22.9282C61.2783 22.9606 61.2693 22.9938 61.2643 23.0284L61.2782 22.9245C61.2735 22.9612 61.2735 22.9977 61.2778 23.0344L61.2638 22.9306C61.2696 22.9733 61.281 23.0143 61.2974 23.0541L61.258 22.9608C61.2756 23.0015 61.2975 23.0399 61.3244 23.0752L61.2633 22.9961C61.2849 23.0235 61.3091 23.0482 61.3367 23.0696L61.2576 23.0086C61.2815 23.0264 61.3068 23.0413 61.3342 23.053L61.2408 23.0136C61.2687 23.025 61.2974 23.0328 61.3272 23.037L61.2234 23.0231C61.2544 23.027 61.2854 23.0269 61.3164 23.0232L61.2126 23.0372C61.249 23.0323 61.2841 23.0225 61.318 23.0083L61.2247 23.0476C61.2567 23.0336 61.2867 23.016 61.3145 22.9948L61.2354 23.0559C61.2629 23.0343 61.2875 23.0098 61.3089 22.9822L61.2479 23.0612C61.2667 23.0362 61.2824 23.0094 61.2947 22.9806L61.2554 23.0739C61.2668 23.0462 61.2747 23.0175 61.2791 22.9878L61.2651 23.0917C61.2692 23.0604 61.2692 23.0293 61.2653 22.998L61.2793 23.1018C61.2745 23.0677 61.2653 23.0348 61.2523 23.0028L61.2917 23.0961C61.2742 23.0548 61.2512 23.0167 61.2243 22.981L61.2853 23.06C61.2803 23.0535 61.2751 23.0471 61.2699 23.0407C61.2318 23.0053 61.2049 22.9634 61.1891 22.915C61.1647 22.8684 61.1535 22.8183 61.1555 22.7645C61.1555 22.6687 61.1981 22.5542 61.2699 22.4883C61.3444 22.4199 61.4421 22.3692 61.5461 22.3739C61.6436 22.3782 61.7579 22.4094 61.8224 22.4883Z" fill="white"/>
<path d="M58.0925 28.9526C58.1429 28.9733 58.1938 28.9916 58.2468 29.0048C58.2729 29.0112 58.2999 29.0175 58.3266 29.0211C58.2724 29.0138 58.3448 29.0193 58.3648 29.0197C58.3921 29.0202 58.4191 29.019 58.4463 29.018C58.5122 29.0155 58.3989 29.0288 58.4638 29.0171C58.5242 29.0062 58.5823 28.9883 58.64 28.9672C58.5825 29.1848 58.525 29.4025 58.4676 29.6201C57.7713 29.0177 57.3353 27.9699 57.8612 27.1142C58.1129 26.7046 58.6337 26.392 59.0974 26.6669C59.396 26.8439 59.5098 27.1756 59.6635 27.4651C59.6801 27.4964 59.6977 27.5269 59.7166 27.5568C59.7242 27.5689 59.7327 27.5804 59.7411 27.5919C59.7093 27.5481 59.747 27.5971 59.7618 27.6143C59.835 27.6991 59.9154 27.7771 60.0022 27.8478C60.0511 27.8877 59.9602 27.8186 60.012 27.8547C60.0375 27.8724 60.0628 27.8903 60.0889 27.9071C60.1359 27.9374 60.1843 27.9654 60.2339 27.9911C60.2559 28.0025 60.2783 28.0131 60.3007 28.0239C60.338 28.0419 60.2617 28.0123 60.3275 28.0351C60.3865 28.0555 60.445 28.0748 60.5055 28.0907C60.7031 28.1426 60.8427 28.372 60.7783 28.5712C60.7125 28.7745 60.5095 28.8997 60.2978 28.844C59.9205 28.7448 59.5722 28.5398 59.2979 28.2626C59.1795 28.143 59.068 28.0085 58.9888 27.8594C58.9294 27.7474 58.8806 27.6301 58.8208 27.5182C58.7929 27.466 58.7573 27.4181 58.7292 27.3664C58.7728 27.4468 58.7416 27.3814 58.7172 27.3563C58.7059 27.3447 58.6924 27.3346 58.6816 27.3226C58.648 27.2854 58.7408 27.3725 58.7031 27.3415C58.6312 27.2823 58.755 27.3748 58.6996 27.3397C58.6866 27.3315 58.6633 27.3113 58.7036 27.3392L58.731 27.3437C58.7 27.3451 58.6968 27.3443 58.7212 27.3413C58.7661 27.3122 58.6172 27.395 58.6953 27.3493C58.6795 27.3586 58.6639 27.3678 58.6484 27.3775C58.5984 27.4088 58.6832 27.3434 58.6401 27.3844C58.6088 27.4142 58.5774 27.4445 58.551 27.4788C58.5902 27.4279 58.5249 27.5263 58.5163 27.5414C58.5074 27.5571 58.4591 27.6634 58.4823 27.6036C58.4639 27.6511 58.4488 27.7002 58.4366 27.7497C58.4274 27.7869 58.4194 27.8248 58.414 27.8628C58.4234 27.7962 58.4131 27.9128 58.4126 27.9319C58.4113 27.9772 58.4136 28.0222 58.4152 28.0674C58.4153 28.0696 58.4199 28.1335 58.416 28.0926C58.4119 28.0485 58.4252 28.1463 58.4271 28.1554C58.4374 28.2059 58.4503 28.2558 58.4658 28.3049C58.4715 28.3232 58.4777 28.3414 58.4841 28.3595C58.488 28.3705 58.5198 28.4483 58.4946 28.391C58.5332 28.4788 58.5805 28.5631 58.6327 28.6435C58.6467 28.665 58.6611 28.6863 58.6759 28.7073C58.6797 28.7127 58.7222 28.7699 58.7029 28.7451C58.6777 28.7127 58.7277 28.7746 58.733 28.7808C58.7497 28.8005 58.7667 28.8199 58.784 28.8391C58.8576 28.9204 58.937 28.9958 59.02 29.0676C59.1232 29.1569 59.1554 29.3208 59.1204 29.4477C59.082 29.5874 58.9787 29.6725 58.8476 29.7205C58.5432 29.832 58.1852 29.8293 57.8848 29.7059C57.6965 29.6285 57.5415 29.443 57.612 29.2253C57.6707 29.0439 57.8901 28.8694 58.0925 28.9526Z" fill="white"/>
<path d="M59.1733 28.0622C59.149 28.0547 59.125 28.0492 59.0998 28.0453L59.2036 28.0592C59.1661 28.0552 59.1299 28.0556 59.0924 28.0601L59.1962 28.0461C59.1521 28.0532 59.111 28.0652 59.0696 28.082L59.1629 28.0426C59.1273 28.0586 59.0947 28.0776 59.0618 28.0984C59.0006 28.1372 59.1321 28.0353 59.0793 28.0852C59.065 28.0986 59.0506 28.1115 59.037 28.1257C59.0123 28.1516 58.9948 28.1996 59.048 28.106C59.0381 28.1234 59.0245 28.1392 59.014 28.1563C58.9907 28.194 58.9713 28.2336 58.9535 28.2741L58.9929 28.1808C58.9242 28.3468 58.8971 28.5241 58.8721 28.701C58.8638 28.7596 58.8124 28.8325 58.7716 28.8733C58.7105 28.9344 58.6319 28.9694 58.5473 28.9808C58.406 28.9998 58.2221 28.9343 58.1581 28.7943C58.0115 28.4733 57.9731 28.1286 58.0605 27.7844C58.0984 27.6349 58.1619 27.485 58.246 27.3556C58.3517 27.1932 58.4761 27.071 58.6294 26.9557C58.705 26.8988 58.8437 26.8924 58.9304 26.9163C59.021 26.9412 59.1192 27.0113 59.1638 27.0958C59.2117 27.1865 59.2357 27.2963 59.2032 27.3968C59.1699 27.4997 59.1095 27.5656 59.0237 27.6302C59.1367 27.5452 59.021 27.6358 58.9942 27.6626C58.9773 27.6794 58.9611 27.6969 58.9455 27.7149C58.9376 27.7239 58.93 27.733 58.9225 27.7423C58.9631 27.6888 58.9744 27.6742 58.9563 27.6986C58.9059 27.7699 58.8631 27.8435 58.8285 27.9238L58.8679 27.8305C58.829 27.925 58.8025 28.023 58.7884 28.1242L58.8023 28.0204C58.7906 28.1157 58.7902 28.2108 58.8019 28.3061L58.7879 28.2022C58.8004 28.2914 58.8232 28.3772 58.8574 28.4605L58.8181 28.3671C58.8227 28.3782 58.8276 28.3891 58.8327 28.4C58.5947 28.4311 58.3567 28.4622 58.1187 28.4933C58.1641 28.172 58.2391 27.8645 58.4524 27.6098C58.6708 27.3489 59.0495 27.2062 59.3809 27.3089C59.5759 27.3693 59.7202 27.5842 59.6538 27.7894C59.5903 27.9856 59.3823 28.127 59.1733 28.0622Z" fill="white"/>
<path d="M105.886 144.833C105.89 145.499 105.898 146.235 106.227 146.831C106.346 147.046 106.514 147.258 106.677 147.382C106.908 147.556 107.099 147.615 107.324 147.619C107.355 147.618 107.386 147.617 107.416 147.613C107.363 147.621 107.372 147.618 107.443 147.605C107.503 147.587 107.563 147.575 107.621 147.551C107.54 147.584 107.689 147.514 107.704 147.506C107.74 147.485 107.774 147.463 107.808 147.44C107.77 147.47 107.778 147.463 107.831 147.417C107.875 147.377 107.92 147.334 107.955 147.286C107.901 147.361 107.986 147.223 107.994 147.207C107.956 147.283 108.026 147.097 108.03 147.067C108.018 147.16 108.024 147.009 108.022 146.991C108.037 147.111 108.004 146.958 107.993 146.933C108.049 147.069 107.89 146.798 107.976 146.907C107.941 146.863 107.9 146.824 107.858 146.787C107.936 146.856 107.803 146.754 107.796 146.749C107.734 146.718 107.731 146.714 107.787 146.737C107.761 146.727 107.736 146.718 107.709 146.711C107.684 146.703 107.657 146.696 107.631 146.691C107.699 146.698 107.698 146.7 107.629 146.695C107.568 146.699 107.559 146.698 107.603 146.693C107.646 146.685 107.638 146.688 107.578 146.701C107.514 146.722 107.512 146.723 107.572 146.703C107.54 146.721 107.509 146.741 107.48 146.764L107.75 146.414C107.729 146.532 107.745 146.409 107.733 146.519C107.726 146.583 107.722 146.648 107.72 146.713C107.715 146.843 107.72 146.972 107.73 147.101C107.74 147.233 107.812 147.554 107.885 147.764C108.028 148.18 108.318 148.633 108.638 148.965C108.964 149.304 109.384 149.604 109.772 149.764C110.01 149.861 110.263 149.932 110.517 149.97C110.558 149.977 110.559 149.977 110.521 149.97C110.553 149.974 110.585 149.977 110.617 149.979C110.682 149.984 110.747 149.987 110.812 149.988C110.877 149.989 110.942 149.987 111.007 149.984C111.03 149.983 111.212 149.967 111.145 149.976C111.458 149.934 111.774 150.052 111.866 150.386C111.941 150.659 111.772 151.063 111.456 151.106C110.193 151.279 108.994 150.865 108.046 150.021C107.158 149.232 106.565 148.072 106.546 146.875C106.541 146.518 106.538 146.042 106.83 145.798C107.06 145.605 107.382 145.507 107.682 145.526C108.331 145.566 108.907 146.01 109.123 146.621C109.336 147.22 109.066 147.913 108.591 148.305C108.08 148.726 107.402 148.898 106.759 148.714C106.055 148.514 105.467 147.954 105.153 147.302C104.782 146.53 104.72 145.677 104.714 144.833C104.71 144.078 105.882 144.078 105.886 144.833Z" fill="white"/>
<path d="M65.7265 158.357C64.7792 158.443 63.9071 159.282 63.6983 160.263C63.6991 160.259 63.6665 160.445 63.6772 160.364C63.6687 160.429 63.6648 160.494 63.6624 160.559C63.6596 160.635 63.6612 160.711 63.6646 160.787C63.6661 160.818 63.6685 160.849 63.6719 160.879C63.665 160.827 63.6676 160.837 63.6798 160.91C63.7437 161.176 63.7726 161.306 63.9537 161.449C63.8808 161.391 64.0162 161.479 64.0296 161.485C63.9901 161.466 63.99 161.463 64.0292 161.476C64.0768 161.488 64.068 161.487 64.003 161.475C64.0721 161.473 64.0692 161.474 63.9944 161.478L64.0418 161.464C63.9787 161.491 63.977 161.489 64.0368 161.457C63.9875 161.5 63.9881 161.499 64.0384 161.455C64.062 161.429 64.1306 161.317 64.0755 161.417C64.0891 161.396 64.1013 161.374 64.1121 161.352C64.1315 161.313 64.1271 161.323 64.0988 161.38C64.0806 161.247 64.1173 161.478 64.1022 161.356C64.1149 161.458 64.1414 161.497 64.221 161.558L64.5168 161.638C64.5864 161.63 64.3803 161.663 64.3554 161.669C64.2834 161.686 64.2124 161.706 64.1422 161.729C63.9968 161.778 63.9748 161.79 63.8237 161.876C63.5588 162.028 63.4031 162.164 63.1854 162.412C62.8353 162.811 62.5945 163.344 62.4825 163.909C62.3633 164.511 62.4577 165.298 62.6454 165.961C62.8647 166.736 63.2135 167.46 63.5897 168.168C63.738 168.448 63.6603 168.806 63.3795 168.97C63.1143 169.125 62.7267 169.04 62.5778 168.76C61.8451 167.379 61.1694 165.849 61.268 164.25C61.348 162.951 61.9938 161.668 63.0978 160.947C63.3659 160.772 63.6723 160.635 63.9822 160.554C64.1425 160.512 64.3196 160.475 64.4845 160.469C64.736 160.462 64.9332 160.603 65.0796 160.796C65.5095 161.363 65.1608 162.18 64.5847 162.494C63.9185 162.858 63.1728 162.492 62.8066 161.885C62.4543 161.301 62.4282 160.569 62.5755 159.919C62.9106 158.441 64.2324 157.321 65.7265 157.185C66.0421 157.156 66.3125 157.475 66.3125 157.771C66.3125 158.112 66.043 158.328 65.7265 158.357Z" fill="white"/>
<path d="M24.1249 167.87H24.1597C26.2757 167.87 27.9911 166.155 27.9911 164.039V110.675H32.3531V164.039C32.3531 166.155 34.0684 167.87 36.1844 167.87L42.2141 171.808H18.0952L24.1249 167.87Z" fill="#FFE8E5"/>
<path d="M39.97 180.532C38.0283 180.532 36.4543 178.958 36.4543 177.017C36.4543 175.075 38.0283 173.501 39.97 173.501C41.9116 173.501 43.4856 175.075 43.4856 177.017C43.4856 178.958 41.9116 180.532 39.97 180.532Z" fill="#E742F4"/>
<path d="M21.6103 180.532C19.6687 180.532 18.0947 178.958 18.0947 177.017C18.0947 175.075 19.6687 173.501 21.6103 173.501C23.552 173.501 25.126 175.075 25.126 177.017C25.126 178.958 23.552 180.532 21.6103 180.532Z" fill="#E742F4"/>
<path d="M62.5941 20.2828C62.4776 20.2033 62.3554 20.133 62.2271 20.0741C62.2101 20.0662 62.1929 20.0586 62.1757 20.0511C62.2258 20.0721 62.2308 20.0744 62.1908 20.0582C62.1555 20.0453 62.1206 20.0315 62.085 20.0193C62.0184 19.9965 61.9507 19.9765 61.8824 19.9593C61.814 19.9421 61.745 19.9277 61.6754 19.9163C61.6569 19.9133 61.6383 19.9104 61.6197 19.9078C61.677 19.9153 61.6837 19.9165 61.6397 19.9113C61.6069 19.9087 61.5742 19.905 61.5414 19.9028C61.3959 19.893 61.2503 19.8967 61.1053 19.9121C60.9014 19.9338 60.7059 19.717 60.7146 19.5215C60.7249 19.2914 60.8869 19.1541 61.1053 19.1309C61.7581 19.0616 62.4464 19.2386 62.9884 19.6082C63.1569 19.7231 63.2484 19.9568 63.1286 20.1426C63.0204 20.3103 62.7747 20.4059 62.5941 20.2828Z" fill="white"/>
<path d="M147.038 82.7779H144.265C143.958 82.7779 143.665 82.5083 143.679 82.1919C143.693 81.8744 143.936 81.606 144.265 81.606C145.189 81.606 146.113 81.606 147.038 81.606C147.344 81.606 147.638 81.8755 147.624 82.1919C147.609 82.5094 147.366 82.7779 147.038 82.7779Z" fill="#75007E"/>
<path d="M144.354 79.2894H141.492C141.185 79.2894 140.892 79.0199 140.906 78.7035C140.92 78.386 141.163 78.1176 141.492 78.1176H144.354C144.66 78.1176 144.954 78.3871 144.94 78.7035C144.926 79.021 144.682 79.2894 144.354 79.2894Z" fill="#75007E"/>
<path d="M129.595 80.4522H126.822C126.516 80.4522 126.222 80.1827 126.236 79.8662C126.251 79.5488 126.494 79.2803 126.822 79.2803H129.595C129.902 79.2803 130.195 79.5498 130.181 79.8662C130.167 80.1837 129.924 80.4522 129.595 80.4522Z" fill="#75007E"/>
<path d="M106.608 78.5738H105.803C105.652 78.5738 105.494 78.5084 105.388 78.4021C105.331 78.3491 105.291 78.2862 105.267 78.2136C105.23 78.1437 105.214 78.0685 105.217 77.9878C105.223 77.8363 105.273 77.6791 105.388 77.5735C105.503 77.4682 105.644 77.4019 105.803 77.4019H106.608C106.758 77.4019 106.916 77.4672 107.022 77.5735C107.079 77.6266 107.119 77.6894 107.143 77.762C107.18 77.8319 107.197 77.9071 107.193 77.9878C107.187 78.1393 107.137 78.2965 107.022 78.4021C106.907 78.5074 106.766 78.5738 106.608 78.5738Z" fill="#75007E"/>
<path d="M100.167 81.794H97.2152C96.9087 81.794 96.6151 81.5245 96.6293 81.208C96.6435 80.8905 96.8867 80.6221 97.2152 80.6221H100.167C100.473 80.6221 100.767 80.8916 100.753 81.208C100.739 81.5255 100.495 81.794 100.167 81.794Z" fill="#75007E"/>
<path d="M148.955 35.8048H128.869C127.941 35.8048 127.007 35.833 126.079 35.8048C126.065 35.8044 126.052 35.8048 126.038 35.8048C125.284 35.8048 125.283 34.6329 126.038 34.6329H146.124C147.052 34.6329 147.986 34.6047 148.914 34.6329C148.928 34.6333 148.941 34.6329 148.955 34.6329C149.709 34.6329 149.71 35.8048 148.955 35.8048Z" fill="#75007E"/>
<path d="M152.471 39.9064H128.719C127.626 39.9064 126.527 39.9375 125.434 39.9064C125.418 39.9059 125.403 39.9064 125.387 39.9064C124.633 39.9064 124.632 38.7345 125.387 38.7345H149.139C150.232 38.7345 151.331 38.7034 152.424 38.7345C152.439 38.735 152.455 38.7345 152.471 38.7345C153.225 38.7345 153.226 39.9064 152.471 39.9064Z" fill="#75007E"/>
<path d="M151.95 44.0731H128.198C127.105 44.0731 126.006 44.1042 124.913 44.0731C124.897 44.0727 124.882 44.0731 124.866 44.0731C124.112 44.0731 124.111 42.9013 124.866 42.9013H148.618C149.711 42.9013 150.81 42.8702 151.903 42.9013C151.918 42.9017 151.934 42.9013 151.95 42.9013C152.704 42.9013 152.705 44.0731 151.95 44.0731Z" fill="#75007E"/>
<path d="M151.95 48.1095H135.286C134.517 48.1095 133.742 48.1357 132.973 48.1095C132.962 48.1091 132.95 48.1095 132.939 48.1095C132.185 48.1095 132.184 46.9377 132.939 46.9377H149.602C150.372 46.9377 151.146 46.9115 151.915 46.9377C151.927 46.9381 151.938 46.9377 151.95 46.9377C152.704 46.9377 152.705 48.1095 151.95 48.1095Z" fill="#75007E"/>
<path d="M105.284 22.5267C104.016 23.5349 102.747 24.5431 101.479 25.5513C101.301 25.6926 101.123 25.834 100.945 25.9754C100.543 26.2952 100.108 26.5718 99.5642 26.5474C99.0597 26.5249 98.5342 26.3593 98.1831 25.9754C97.38 25.0969 96.5768 24.2185 95.7737 23.34C94.495 21.9415 93.2164 20.543 91.9377 19.1445C91.6463 18.8257 91.3548 18.5069 91.0634 18.1881C90.7157 17.8078 90.4913 17.3311 90.4913 16.807C90.4913 16.328 90.7041 15.7558 91.0634 15.426C91.4356 15.0843 91.9243 14.8306 92.4444 14.8539C92.9489 14.8765 93.4745 15.042 93.8255 15.426C94.6287 16.3044 95.4318 17.1829 96.235 18.0614C97.5136 19.4599 98.7923 20.8584 100.071 22.2569C100.362 22.5757 100.654 22.8945 100.945 23.2132H98.1831C99.4515 22.2051 100.72 21.1969 101.988 20.1887C102.166 20.0473 102.344 19.906 102.522 19.7646C102.943 19.4297 103.342 19.1925 103.903 19.1925C104.382 19.1925 104.954 19.4053 105.284 19.7646C105.626 20.1368 105.879 20.6255 105.856 21.1457C105.834 21.6286 105.68 22.2117 105.284 22.5267Z" fill="#75007E"/>
<path d="M90.7513 91.5995H179.197C180.392 91.5995 181.588 91.5767 182.783 91.5995C182.835 91.6004 182.887 91.5995 182.939 91.5995C183.693 91.5995 183.695 92.7713 182.939 92.7713H94.4935C93.2992 92.7713 92.1023 92.7941 90.9081 92.7713C90.8559 92.7703 90.8035 92.7713 90.7513 92.7713C89.9973 92.7713 89.996 91.5995 90.7513 91.5995Z" fill="#F489FD"/>
<path d="M177.038 60.1435C176.521 59.7301 176.004 59.3168 175.488 58.9034C175.378 58.8157 175.316 58.6228 175.316 58.4891C175.316 58.3454 175.38 58.1737 175.488 58.0748C175.599 57.9723 175.746 57.8962 175.902 57.9032L176.058 57.9241C176.157 57.9519 176.243 58.0022 176.316 58.0748C176.833 58.4881 177.35 58.9015 177.866 59.3149C177.976 59.4026 178.038 59.5955 178.038 59.7292C178.038 59.8729 177.974 60.0446 177.866 60.1435C177.755 60.246 177.608 60.3221 177.452 60.3151L177.296 60.2942C177.197 60.2664 177.111 60.2161 177.038 60.1435Z" fill="#F4F4F4"/>
<path d="M171.767 67.8941C171.354 67.3774 170.941 66.8607 170.527 66.344C170.427 66.2182 170.356 66.0974 170.356 65.9297C170.356 65.7859 170.419 65.6143 170.527 65.5153C170.639 65.4128 170.785 65.3367 170.942 65.3437C171.087 65.3502 171.261 65.3966 171.356 65.5153C171.769 66.032 172.183 66.5487 172.596 67.0654C172.697 67.1913 172.768 67.3121 172.768 67.4798C172.768 67.6235 172.704 67.7951 172.596 67.8941C172.484 67.9966 172.338 68.0727 172.182 68.0657C172.036 68.0592 171.862 68.0129 171.767 67.8941Z" fill="#F4F4F4"/>
<path d="M161.365 69.3399V67.7898C161.365 67.4833 161.635 67.1897 161.951 67.2039C162.269 67.2181 162.537 67.4613 162.537 67.7898V69.3399C162.537 69.6464 162.268 69.94 161.951 69.9259C161.634 69.9116 161.365 69.6684 161.365 69.3399Z" fill="#F4F4F4"/>
<path d="M81.3492 26.4123C80.9496 28.9118 81.8781 31.6048 83.7329 33.3803H82.9042C83.1753 33.1139 83.2883 32.7485 83.2234 32.4234L83.6327 32.8326C83.6777 32.8393 83.4933 32.8316 83.4611 32.8324C83.4649 32.8323 83.3591 32.8386 83.4103 32.8332C83.4688 32.827 83.3401 32.8458 83.3293 32.8481C83.1432 32.8881 83.0696 32.9184 82.9273 32.9995C82.6902 33.1347 82.4637 33.3493 82.3172 33.5694C81.9166 34.1714 81.8749 34.9432 82.0161 35.6809C82.1613 36.4392 82.4395 37.2347 82.745 37.8903C83.0221 38.4851 83.368 39.0772 83.7791 39.5305C84.0404 39.8186 84.2677 40.0189 84.5698 40.2012C84.7057 40.2832 84.8899 40.3751 84.972 40.4055C85.1555 40.4733 85.3432 40.5223 85.5356 40.5569C85.8472 40.6131 86.0232 40.9924 85.9448 41.2777C85.8546 41.6059 85.5366 41.7433 85.224 41.687C83.5653 41.3881 82.4276 39.9588 81.7477 38.5128C80.9802 36.8807 80.1947 34.5969 81.3242 32.9495C81.9268 32.0706 82.8694 31.5441 83.9442 31.7026C84.1288 31.7298 84.3179 31.9337 84.3535 32.1119C84.5062 32.877 84.2948 33.6567 83.7329 34.209C83.5035 34.4344 83.1349 34.4298 82.9042 34.209C80.7393 32.1365 79.748 29.0476 80.2192 26.1008C80.2692 25.7881 80.659 25.6144 80.94 25.6916C81.2728 25.7831 81.3994 26.0987 81.3492 26.4123Z" fill="#E742F4"/>
</svg>
