<svg width="155" height="155" viewBox="0 0 155 155" fill="none" xmlns="http://www.w3.org/2000/svg">
<path d="M148.983 150.958C148.983 150.958 131.305 117.777 83.4371 127.115C57.5993 132.282 12.6325 148.238 6.01442 148.238C24.9621 152.137 148.983 150.958 148.983 150.958Z" fill="#E742F4"/>
<path d="M103.473 136.996C101.01 137.003 98.7529 136.393 96.8554 135.701C93.6287 134.523 92.0942 130.831 93.5515 127.721C111.707 88.9745 92.8249 34.7568 92.8249 34.7568C92.8249 34.7568 87.476 31.7349 96.1792 33.6387C123.093 74.1698 111.962 119.996 110.093 130.477C110.093 130.477 109.343 136.981 103.473 136.996Z" fill="#FFE8E5"/>
<path d="M109.236 129.01C105.588 129.961 101.58 129.285 98.3986 127.277C97.5121 126.717 96.6897 126.054 95.9595 125.302C95.6861 125.02 96.1168 124.588 96.3908 124.87C98.8945 127.45 102.479 128.873 106.064 128.827C107.081 128.814 108.09 128.679 109.074 128.422C109.454 128.323 109.616 128.911 109.236 129.01Z" fill="white"/>
<path d="M111.066 119.955C107.567 120.867 103.725 120.223 100.67 118.304C99.8087 117.763 99.0102 117.12 98.3018 116.39C98.0283 116.108 98.4591 115.676 98.733 115.959C101.136 118.434 104.575 119.8 108.016 119.755C108.992 119.743 109.959 119.613 110.904 119.367C111.284 119.268 111.446 119.856 111.066 119.955Z" fill="white"/>
<path d="M112.713 108.043C109.606 109.157 106.067 108.866 103.136 107.374C102.307 106.952 101.534 106.428 100.829 105.821C100.53 105.565 100.963 105.135 101.26 105.39C103.634 107.432 106.864 108.368 109.967 108.049C110.848 107.958 111.717 107.754 112.551 107.455C112.921 107.322 113.08 107.911 112.713 108.043Z" fill="white"/>
<path d="M113.251 100.033C110.275 101.436 106.74 101.531 103.678 100.334C102.803 99.9923 101.971 99.5542 101.203 99.0131C100.885 98.7888 101.189 98.2597 101.511 98.4865C104.069 100.289 107.364 100.951 110.428 100.332C111.295 100.157 112.143 99.8834 112.943 99.506C113.296 99.3395 113.606 99.8652 113.251 100.033Z" fill="white"/>
<path d="M113.26 91.0999C110.565 92.6914 107.217 93.0697 104.217 92.2013C103.371 91.9563 102.553 91.6098 101.789 91.1717C101.448 90.9765 101.755 90.4493 102.096 90.6451C104.665 92.1178 107.825 92.431 110.653 91.5806C111.459 91.3385 112.228 91.001 112.952 90.5733C113.291 90.3733 113.598 90.9003 113.26 91.0999Z" fill="white"/>
<path d="M111.857 80.801C109.705 82.0694 107.035 82.3742 104.64 81.6819C103.962 81.4861 103.307 81.2082 102.695 80.8579C102.354 80.663 102.661 80.1358 103.003 80.3313C105.025 81.4884 107.504 81.7358 109.731 81.0698C110.368 80.8791 110.976 80.6123 111.549 80.2744C111.888 80.0747 112.195 80.6016 111.857 80.801Z" fill="white"/>
<path d="M110.535 72.0593C108.384 73.3277 105.714 73.6325 103.318 72.9403C102.641 72.7444 101.986 72.4665 101.374 72.1162C101.033 71.9213 101.34 71.3941 101.682 71.5896C103.703 72.7467 106.183 72.9941 108.409 72.3281C109.047 72.1374 109.654 71.8706 110.228 71.5327C110.566 71.333 110.874 71.8599 110.535 72.0593Z" fill="white"/>
<path d="M92.8391 86.223C92.7627 86.6797 92.3987 86.9303 91.9493 86.9354C91.5278 86.9401 91.1458 86.7534 90.7437 86.6589C90.6233 86.6306 90.4225 86.5824 90.3318 86.6654C90.318 86.68 90.3147 86.6829 90.3219 86.6739C90.3216 86.6538 90.3182 86.6626 90.3116 86.7002C90.3107 86.6925 90.3332 86.7419 90.3344 86.7441C90.3748 86.8176 90.4187 86.8901 90.4661 86.9595C90.6629 87.2472 90.9426 87.4648 91.2546 87.6146C91.4031 87.6859 91.4423 87.8979 91.364 88.0318C91.2753 88.1836 91.0958 88.2128 90.9468 88.1412C90.5628 87.9568 90.237 87.6746 89.9857 87.3321C89.8531 87.1515 89.7106 86.93 89.7064 86.6984C89.702 86.4503 89.8514 86.2278 90.0666 86.1117C90.5042 85.8755 91.0315 86.1091 91.4644 86.2379C91.6375 86.2895 91.8578 86.346 92.0155 86.3238C92.0787 86.3149 92.1463 86.2952 92.1749 86.2694C92.2283 86.2212 92.2379 86.1394 92.251 86.0609C92.2782 85.8984 92.4791 85.8075 92.6262 85.8479C92.7985 85.8953 92.8664 86.06 92.8391 86.223Z" fill="#151515"/>
<path d="M43.3268 104.023C43.9344 104.563 44.5725 105.104 45.3266 105.43C45.6763 105.582 46.057 105.685 46.4382 105.711C46.8319 105.737 47.6183 105.708 47.8881 105.349C48.0646 105.115 47.9877 105.26 47.8984 105.198C47.8282 105.149 47.6622 105.152 47.582 105.156C47.3547 105.168 47.2212 105.254 47.1023 105.461C46.7924 106.002 46.9482 106.82 47.0824 107.385C47.4321 108.858 48.1643 110.203 48.6916 111.614C49.3229 113.303 49.8693 115.029 50.4548 116.734C51.6558 120.233 52.8568 123.731 54.0579 127.229C54.6095 128.836 55.0825 130.499 55.7681 132.055C56.3311 133.332 57.0185 134.611 57.2363 136.005C57.4429 137.328 57.0163 138.455 56.0925 139.407C54.9515 140.583 53.4914 141.54 52.1353 142.444C49.4722 144.219 46.3499 146.096 43.0293 145.97C41.7659 145.923 40.1709 145.642 39.6462 144.32C39.4137 143.734 39.432 143.093 39.5076 142.478C39.6099 141.646 39.752 140.833 39.7601 139.991C39.7894 136.924 38.6548 134.022 37.2733 131.334C35.9379 128.736 34.3972 126.251 33.0885 123.637C31.9636 121.391 30.9327 119.086 30.1547 116.695C28.6827 112.171 28.0884 106.934 30.7521 102.718C33.8573 97.8032 39.9738 95.6805 45.5778 96.2859C50.9823 96.8698 55.552 99.8123 59.2558 103.653C62.8847 107.417 65.7936 111.811 69.5044 115.501C70.5705 116.561 71.6752 117.687 73.0758 118.294C73.44 118.452 73.9256 118.636 74.2559 118.311C74.2642 118.303 74.3201 118.2 74.3227 118.193C74.3652 118.081 74.3649 117.997 74.296 117.829C73.9051 116.872 72.4815 116.124 71.5872 115.614C68.4727 113.838 65.0457 112.554 61.6595 111.402C57.1013 109.851 52.2199 109.397 47.4255 109.741C44.1131 109.979 40.761 110.612 37.6491 111.792C34.8628 112.849 32.5228 114.529 30.6026 116.803C28.3521 119.469 26.5211 122.448 24.4856 125.273C23.6369 126.451 22.7525 127.894 21.3645 128.49C20.6783 128.785 19.954 128.78 19.2223 128.714C18.4764 128.647 17.614 128.488 16.9164 128.862C15.4224 129.663 16.9198 132.191 17.4437 133.189C18.159 134.552 19.0319 135.831 20.0091 137.02C21.0169 138.246 22.1268 139.386 23.2935 140.46C24.3708 141.453 25.5718 142.751 26.9828 143.248C28.765 143.876 29.9612 142.193 30.9918 141.026C32.1691 139.692 33.3351 138.349 34.4911 136.996C36.853 134.234 39.1734 131.436 41.4663 128.616C43.2291 126.448 45.0298 124.377 47.7846 123.504C50.3518 122.69 53.0154 123.188 55.4688 124.137C60.831 126.211 65.643 129.442 70.9168 131.708C73.401 132.775 76.0441 133.644 78.7607 133.8C81.5176 133.957 84.2055 133.304 86.5819 131.895C92.0207 128.671 95.3386 122.71 97.8295 117.105C98.4466 115.716 99.0208 114.309 99.5755 112.895C99.7208 112.524 101.05 109.653 100.122 109.592L100.564 109.257C99.9353 110.953 101.572 112.299 102.897 113.036C104.126 113.719 105.54 114.114 106.887 114.496C109.595 115.265 112.386 115.758 115.196 115.933C120.661 116.274 126.64 115.472 131.081 112.016C133.13 110.421 134.972 108.199 135.662 105.661C136.17 103.791 136.173 101.822 135.653 99.9539C134.407 95.4717 130.61 92.1631 126.725 89.9066C120.909 86.5287 114.134 84.9016 107.501 84.1605C106.487 84.0473 105.472 83.9568 104.455 83.8835C103.871 83.8414 103.866 82.9263 104.455 82.9687C111.786 83.4972 119.268 84.9575 125.838 88.3752C130.202 90.6454 134.487 94.0282 136.237 98.7872C136.961 100.755 137.14 102.882 136.763 104.943C136.277 107.596 134.744 109.905 132.801 111.74C128.473 115.826 122.244 117.063 116.468 116.905C113.456 116.823 110.446 116.375 107.53 115.619C104.83 114.92 100.935 114.008 99.7323 111.154C99.4393 110.459 99.4193 109.721 99.6814 109.013C99.7481 108.833 99.912 108.664 100.122 108.678C101.355 108.759 101.482 110.154 101.223 111.114C100.841 112.534 100.153 113.933 99.592 115.292C98.3729 118.242 97.0296 121.153 95.3602 123.878C92.2039 129.032 87.5367 133.945 81.2287 134.652C75.5383 135.291 70.0544 132.488 65.1761 129.921C62.5007 128.513 59.8555 127.037 57.0941 125.801C54.4971 124.638 51.6643 123.553 48.7797 124.185C45.7329 124.852 43.8433 127.137 41.9668 129.443C39.5751 132.382 37.1532 135.296 34.6852 138.172C33.4762 139.58 32.2605 140.984 31.0231 142.368C30.0435 143.463 28.8706 144.535 27.2845 144.268C25.8042 144.019 24.6093 142.845 23.5247 141.895C22.284 140.809 21.0957 139.66 20.0056 138.422C18.9789 137.256 18.0323 136.011 17.2317 134.678C16.4651 133.402 15.5915 131.875 15.4001 130.376C15.2168 128.94 16.121 127.935 17.519 127.752C18.3191 127.646 19.1013 127.837 19.9005 127.844C20.8139 127.851 21.5068 127.464 22.1275 126.822C23.366 125.542 24.333 123.927 25.3376 122.462C26.3303 121.015 27.3141 119.56 28.3693 118.157C30.2652 115.636 32.3419 113.375 35.1709 111.902C38.0202 110.418 41.2466 109.625 44.4081 109.159C48.0004 108.63 51.6537 108.587 55.2577 109.029C57.1808 109.265 59.0783 109.598 60.9216 110.194C62.5323 110.714 64.1251 111.293 65.7004 111.912C67.5292 112.63 69.3462 113.399 71.091 114.304C72.3559 114.961 73.7946 115.704 74.7208 116.821C75.0207 117.183 75.2768 117.619 75.2606 118.104C75.2334 118.919 74.4791 119.436 73.7036 119.401C72.3057 119.339 70.9221 118.1 69.9523 117.204C68.8867 116.219 67.88 115.17 66.9156 114.086C63.3177 110.043 60.2726 105.454 56.1076 101.944C51.6205 98.1628 45.6572 96.1469 39.8269 97.5367C36.8728 98.2409 34.1135 99.8375 32.212 102.232C30.6168 104.241 29.8544 106.734 29.8045 109.279C29.7021 114.508 32.0191 119.587 34.3668 124.136C37.1388 129.506 41.3387 134.96 40.5874 141.356C40.5031 142.073 40.2907 142.817 40.3848 143.543C40.506 144.478 41.2786 144.803 42.1091 144.957C43.944 145.296 45.8343 144.789 47.5054 144.042C49.101 143.329 50.6006 142.388 52.0422 141.406C52.8056 140.885 53.5535 140.341 54.2799 139.77C54.9336 139.256 55.6391 138.711 56.0557 137.975C56.799 136.663 56.1149 135.076 55.5654 133.821C54.9204 132.348 54.3489 130.89 53.8262 129.367C52.5749 125.721 51.323 122.076 50.0715 118.43C49.4575 116.642 48.8436 114.854 48.2296 113.065C47.7008 111.525 46.9858 110.059 46.4623 108.519C46.0922 107.43 45.6973 105.926 46.3868 104.877C46.8639 104.151 48.3204 103.916 48.7866 104.803C49.4311 106.03 47.4753 106.632 46.6363 106.632C45.0725 106.632 43.7937 105.661 42.6799 104.669C42.2392 104.277 42.8881 103.632 43.3268 104.023Z" fill="#151515"/>
<path d="M25.8946 127.02C26.3409 128.117 26.5173 129.529 25.6946 130.501C25.0903 131.215 23.8481 131.52 23.0549 130.945C22.4623 130.515 22.2372 129.729 22.5768 129.068C22.725 128.779 23.0788 128.806 23.2952 128.976C23.7292 129.315 23.8439 129.921 23.7206 130.436C23.5828 131.011 23.1342 131.432 22.5792 131.606C21.2972 132.007 20.1854 131.097 19.3262 130.271C18.901 129.862 19.5484 129.216 19.973 129.624C20.5493 130.178 21.2706 130.877 22.1114 130.776C22.2829 130.755 22.4548 130.7 22.5884 130.599C22.6202 130.575 22.6482 130.545 22.6759 130.517C22.6887 130.504 22.743 130.434 22.7102 130.479C22.7379 130.441 22.7626 130.397 22.7842 130.355C22.8225 130.28 22.7851 130.373 22.8122 130.286C22.8242 130.247 22.8346 130.208 22.8436 130.169C22.849 130.146 22.8572 130.061 22.8521 130.124C22.856 130.077 22.8558 130.029 22.8543 129.982C22.8519 129.902 22.8598 129.985 22.8504 129.94C22.8425 129.903 22.8331 129.865 22.821 129.828C22.7904 129.736 22.8377 129.847 22.7922 129.771C22.7296 129.666 22.8385 129.806 22.7541 129.716C22.7217 129.681 22.6855 129.652 22.6483 129.622L23.3667 129.53C23.28 129.699 23.3288 129.91 23.4516 130.081C23.4698 130.107 23.4691 130.106 23.4494 130.078C23.4688 130.1 23.4891 130.121 23.5102 130.142C23.5311 130.162 23.5528 130.181 23.5753 130.2C23.5399 130.172 23.544 130.173 23.5875 130.204C23.6242 130.226 23.6612 130.247 23.6999 130.266C23.6212 130.228 23.7736 130.29 23.7923 130.295C23.8344 130.307 23.8771 130.316 23.92 130.323C23.828 130.307 24.0001 130.327 24.019 130.327C24.0642 130.328 24.1091 130.326 24.1542 130.324C24.2098 130.318 24.2146 130.318 24.1686 130.325C24.199 130.321 24.2292 130.315 24.2592 130.309C24.4964 130.261 24.5955 130.22 24.7929 130.089C24.9276 130 25.0443 129.879 25.1417 129.705C25.2622 129.489 25.3302 129.241 25.3503 128.996C25.3992 128.399 25.2355 127.811 25.0124 127.263C24.9193 127.034 25.1136 126.76 25.3319 126.7C25.5937 126.628 25.8011 126.79 25.8946 127.02Z" fill="#151515"/>
<path d="M87.1125 87.9436C84.78 86.1631 81.9762 84.9744 79.1961 84.0904C77.8415 83.6596 76.4584 83.3022 75.0548 83.0729C74.4873 82.9802 73.9593 82.9148 73.3372 82.885C73.0793 82.8727 72.8208 82.8685 72.5626 82.8767C72.4481 82.8804 72.3337 82.8865 72.2195 82.8957C72.1737 82.8993 72.128 82.9035 72.0823 82.9083C72.0489 82.9117 72.0156 82.9157 71.9822 82.9195C71.8863 82.9305 72.0761 82.9038 71.9744 82.9207C71.7888 82.9515 71.6047 82.9861 71.4248 83.0427C71.3825 83.0561 71.3408 83.071 71.299 83.0858C71.238 83.1074 71.2082 83.1271 71.2907 83.0874C71.2156 83.1236 71.1434 83.1607 71.0715 83.2031C71.0429 83.22 71.0171 83.2409 70.9895 83.2591C71.1148 83.1762 71.015 83.2371 70.9841 83.2685C70.9651 83.2878 70.9461 83.3079 70.9263 83.3263C70.8336 83.4122 70.9483 83.2651 70.9113 83.3427C70.8853 83.3971 70.826 83.5629 70.8673 83.4062C70.8488 83.4763 70.8356 83.6581 70.8319 83.4984C70.8334 83.5661 70.8275 83.6353 70.8287 83.7036C70.8309 83.8265 70.816 83.6597 70.8287 83.7095C70.8399 83.7539 70.8469 83.7993 70.8588 83.8437C70.8813 83.9281 70.9111 84.01 70.9437 84.091C70.9055 83.996 70.9368 84.0742 70.9595 84.1199C70.9886 84.1783 71.0181 84.2363 71.05 84.2932C71.4461 85.0014 72.1184 85.5444 72.7093 86.0901C75.5691 88.7313 78.9224 90.8081 82.4817 92.3683C83.8091 92.9502 85.1714 93.4551 86.5551 93.8864C87.0807 94.0502 87.6097 94.2031 88.1421 94.3434C88.9018 94.5436 89.6877 94.417 90.262 93.8478C90.5403 93.572 90.7223 93.2336 90.816 92.8545L91.0262 93.371C90.219 92.8361 89.4352 92.234 88.8545 91.4502C88.2646 90.654 88.0545 89.5854 88.0056 88.6126C87.9791 88.0853 88.0251 87.5339 88.1955 87.0317C88.3576 86.5544 88.5903 86.0893 88.819 85.6408C89.2216 84.8515 89.6979 84.1025 90.2612 83.4179C91.1119 82.384 92.1951 81.5491 93.4594 81.0911C94.4632 80.7275 95.5592 80.636 96.6153 80.7672C98.0853 80.9499 99.534 81.4953 100.775 82.306C100.924 82.4035 101.078 82.5018 101.22 82.6086C101.945 83.1548 102.418 83.9325 102.724 84.7768C103.407 86.661 103.203 88.7384 102.592 90.6106C102.258 91.6371 101.818 92.6244 101.403 93.6199C101.187 94.1382 101.027 94.6374 101.016 95.2037C101.005 95.7401 101.088 96.2707 101.231 96.7868C101.704 98.4966 102.895 99.9363 104.449 100.778C105.096 101.129 105.697 101.346 106.385 101.622C107.096 101.907 107.812 102.18 108.533 102.439C110.134 103.012 111.763 103.521 113.423 103.893C114.912 104.227 116.455 104.471 117.986 104.362C118.323 104.338 118.567 104.308 118.905 104.234C119.05 104.202 119.193 104.166 119.335 104.123C119.404 104.102 119.472 104.08 119.54 104.056C119.577 104.043 119.614 104.029 119.651 104.015C119.665 104.01 119.785 103.962 119.715 103.991C120.238 103.771 120.572 103.517 120.952 103.117C121.026 103.039 121.096 102.958 121.163 102.875C121.207 102.82 121.1 102.964 121.163 102.874C121.175 102.855 121.189 102.838 121.201 102.82C121.231 102.775 121.261 102.731 121.289 102.686C121.34 102.603 121.382 102.517 121.426 102.431C121.474 102.336 121.402 102.513 121.44 102.393C121.455 102.348 121.471 102.305 121.484 102.259C121.507 102.18 121.522 102.1 121.537 102.019C121.509 102.171 121.536 102.017 121.538 101.981C121.541 101.937 121.542 101.893 121.541 101.849C121.541 101.809 121.537 101.769 121.536 101.729C121.529 101.6 121.544 101.757 121.535 101.706C121.517 101.617 121.5 101.53 121.474 101.443C121.463 101.408 121.452 101.373 121.439 101.338C121.429 101.309 121.362 101.16 121.423 101.291C121.381 101.203 121.339 101.116 121.291 101.032C121.245 100.952 121.196 100.875 121.144 100.8C121.119 100.765 121.094 100.732 121.07 100.698C121.007 100.612 121.116 100.754 121.072 100.701C121.052 100.676 121.031 100.65 121.01 100.625C120.873 100.461 120.725 100.307 120.569 100.161C120.487 100.084 120.404 100.01 120.318 99.9384C120.27 99.897 120.22 99.8562 120.17 99.8161C120.15 99.7997 120.129 99.7836 120.109 99.7674C120.026 99.7016 120.154 99.8009 120.076 99.742C119.153 99.0445 118.115 98.5053 117.061 98.0348C115.88 97.5072 114.575 97.0465 113.296 96.6597C111.987 96.2641 110.658 95.9321 109.316 95.6685C108.112 95.4319 107.057 95.2673 105.85 95.1881C105.386 95.1576 104.92 95.1439 104.455 95.1619C103.866 95.1847 103.867 94.2698 104.455 94.2471C105.53 94.2055 106.607 94.3205 107.67 94.4678C108.961 94.6467 110.241 94.9059 111.506 95.2194C114.106 95.8636 116.729 96.7129 119.079 98.0161C119.982 98.5169 120.895 99.1074 121.581 99.8895C122.111 100.493 122.533 101.259 122.443 102.088C122.336 103.075 121.626 103.857 120.845 104.41C119.775 105.167 118.353 105.321 117.079 105.3C115.429 105.272 113.782 104.947 112.189 104.536C110.572 104.119 108.985 103.59 107.423 103.002C106.738 102.745 106.057 102.474 105.381 102.193C104.616 101.876 103.864 101.555 103.189 101.066C101.689 99.9763 100.59 98.3609 100.231 96.5309C100.116 95.9476 100.063 95.3482 100.132 94.756C100.199 94.1751 100.398 93.6666 100.623 93.1318C101.051 92.1131 101.496 91.0973 101.814 90.0371C102.336 88.2927 102.486 86.2749 101.661 84.591C101.38 84.0173 101.002 83.5553 100.469 83.2016C100.362 83.1301 100.255 83.0575 100.146 82.9897C99.919 82.8498 99.6864 82.7201 99.4494 82.599C99.2932 82.5192 99.1351 82.4433 98.9752 82.3714C98.9343 82.353 98.8933 82.3351 98.8523 82.317C98.8337 82.3088 98.815 82.301 98.7964 82.2929C98.7014 82.2517 98.8691 82.3227 98.8061 82.2971C98.7125 82.259 98.6191 82.221 98.5247 82.185C98.1114 82.0276 97.6876 81.8972 97.2561 81.8001C97.1469 81.7755 97.0372 81.7531 96.9271 81.7329C96.8713 81.7227 96.8153 81.713 96.7592 81.704C96.7292 81.6991 96.5269 81.6708 96.6345 81.6845C96.3881 81.6531 96.1403 81.6329 95.892 81.6264C95.6355 81.6196 95.3785 81.627 95.1229 81.6499C94.9671 81.6638 94.9074 81.6718 94.8319 81.684C94.6993 81.7054 94.5674 81.7297 94.4364 81.7591C93.8566 81.8891 93.4207 82.0569 92.9305 82.329C91.6855 83.02 90.7297 84.1442 90.0001 85.3872C89.7563 85.8026 89.5359 86.2315 89.3346 86.6689C89.1324 87.1079 88.9596 87.5419 88.9249 88.0292C88.8882 88.5459 88.9428 89.0618 89.0537 89.5666C89.1509 90.0088 89.2673 90.4271 89.5179 90.8083C90.003 91.5464 90.7614 92.0998 91.4879 92.5812C91.662 92.6965 91.749 92.892 91.6982 93.0977C91.4594 94.0636 90.7491 94.8317 89.8228 95.1796C89.0346 95.4757 88.2654 95.3296 87.4837 95.1134C86.1483 94.7442 84.8332 94.3006 83.5442 93.7929C79.8451 92.3359 76.3506 90.3596 73.2901 87.813C72.4215 87.0903 71.5911 86.3216 70.8064 85.5085C70.4385 85.1274 70.1218 84.6138 69.98 84.0994C69.7472 83.2551 70.1788 82.5617 70.961 82.2415C71.8524 81.8767 72.9167 81.9235 73.8566 82.0058C75.2718 82.1298 76.6723 82.4242 78.0416 82.7961C79.6099 83.2219 81.1449 83.7627 82.64 84.3986C84.0597 85.0024 85.4497 85.7002 86.7354 86.556C87.0213 86.7463 87.3012 86.9454 87.5742 87.1538C87.7703 87.3034 87.8739 87.5478 87.7383 87.7796C87.6254 87.9726 87.3101 88.0944 87.1125 87.9436Z" fill="#151515"/>
<path d="M73.8145 112.081C75.1284 111.205 76.2305 110.026 77.0305 108.665C77.4268 107.991 77.7497 107.277 77.982 106.53C78.1141 106.106 78.2292 105.653 78.1677 105.205C78.1208 104.862 77.9752 104.566 77.7627 104.291C77.3453 103.752 76.7066 103.357 76.11 103.014C75.7538 102.81 75.3922 102.614 75.03 102.421C74.256 102.007 73.4765 101.604 72.7006 101.194C70.7928 100.186 68.9036 99.1398 67.0897 97.9694C65.0772 96.6709 63.1413 95.2233 61.4347 93.538C59.7456 91.8698 58.2629 89.9412 57.3069 87.7571C56.2723 85.3934 55.8145 82.7242 56.2413 80.1629C56.4689 78.7974 56.9975 77.4681 57.8209 76.3513C58.687 75.1765 59.8265 74.238 61.1209 73.5672C64.2678 71.9363 67.9429 71.7396 71.4141 72.0054C75.237 72.2981 79.0029 73.0992 82.6874 74.1388C84.5422 74.6622 86.3642 75.2693 88.1582 75.9738C89.9304 76.6697 91.6752 77.4325 93.4248 78.1829C94.2561 78.5394 95.0888 78.8926 95.9261 79.2348C96.1546 79.3282 96.3166 79.5389 96.2456 79.7974C96.1861 80.0139 95.913 80.2109 95.6829 80.1169C92.193 78.6907 88.7799 77.0667 85.2027 75.8622C83.3567 75.2406 81.4698 74.7252 79.5769 74.2678C77.6843 73.8104 75.7696 73.4275 73.8384 73.175C70.4507 72.7321 66.8812 72.5315 63.5741 73.5511C62.1276 73.997 60.7256 74.6923 59.614 75.7118C58.63 76.6142 57.8913 77.7449 57.4739 78.9904C57.0395 80.2863 56.9387 81.6004 57.0319 82.9662C57.0747 83.5938 57.1398 84.0688 57.2713 84.695C57.3941 85.28 57.5562 85.8566 57.7547 86.4205C57.9588 87.0003 58.1392 87.4227 58.4177 87.9803C58.6771 88.4994 58.966 89.0036 59.2798 89.4918C59.9243 90.4947 60.5913 91.3262 61.4159 92.2076C62.229 93.0767 63.1082 93.8827 64.0282 94.6372C64.9065 95.3575 65.8235 96.0279 66.8081 96.69C68.6332 97.9173 70.5456 99.0076 72.4841 100.044C73.2967 100.478 74.1143 100.903 74.9294 101.333C75.7896 101.786 76.6839 102.224 77.4717 102.796C78.1077 103.259 78.6695 103.817 78.9457 104.569C79.2668 105.442 79.0152 106.39 78.7099 107.23C78.1487 108.773 77.2594 110.188 76.1094 111.361C75.5541 111.927 74.9358 112.431 74.2763 112.871C74.0707 113.008 73.7699 112.912 73.6505 112.707C73.5193 112.483 73.6084 112.219 73.8145 112.081Z" fill="#151515"/>
<path d="M87.261 79.4233C88.311 80.0429 89.6629 80.9797 89.6813 82.3451C89.6911 83.0757 89.1652 83.6236 88.4488 83.688C87.7167 83.7537 87.125 83.2847 86.6094 82.8284C86.8643 82.7611 87.1191 82.6939 87.3739 82.6266C87.0246 83.49 86.4409 84.2094 85.6474 84.7039C85.1464 85.0162 84.6866 84.2251 85.1857 83.914C85.7616 83.5551 86.2361 83.0154 86.4918 82.3834C86.6229 82.0593 86.9795 81.9365 87.2563 82.1816C87.5813 82.4692 87.9689 82.8129 88.3946 82.7777C88.5112 82.768 88.6387 82.7239 88.7131 82.6004C88.7815 82.4869 88.7794 82.3029 88.7373 82.1355C88.5138 81.2478 87.5465 80.6541 86.7992 80.2132C86.2926 79.9142 86.7523 79.1231 87.261 79.4233Z" fill="#151515"/>
<path d="M107.291 89.0127C106.967 88.8222 106.561 88.8819 106.204 88.9314C105.829 88.9833 105.354 89.0425 105.094 89.3239C105.009 89.4165 104.945 89.5592 104.938 89.6441C104.929 89.7531 104.977 89.8352 105.062 89.8936C105.208 89.9934 105.325 90.0072 105.507 90.0023C105.753 89.9956 105.997 89.9089 106.23 89.8366C106.61 89.7192 106.953 90.1728 106.747 90.5085C106.214 91.3756 106.422 92.5474 107.236 93.2031C107.428 93.3583 107.397 93.6885 107.236 93.85C107.045 94.0403 106.782 94.0055 106.589 93.85C105.487 92.9622 105.222 91.2433 105.957 90.0468C106.129 90.2708 106.301 90.4948 106.473 90.7187C105.84 90.9148 105.116 91.0596 104.536 90.638C103.987 90.239 103.882 89.5165 104.238 88.9479C104.588 88.3887 105.211 88.165 105.834 88.0679C106.479 87.9675 107.162 87.8754 107.753 88.2228C108.26 88.5211 107.8 89.3122 107.291 89.0127Z" fill="#151515"/>
<path d="M91.016 94.4515C90.6747 94.9357 92.1847 94.6762 92.7587 94.5298C93.3328 94.3835 93.8661 94.1127 94.394 93.844C93.2092 93.8986 92.0478 93.4487 91.0474 92.8115C91.0474 92.8115 91.578 93.6542 91.016 94.4515Z" fill="#151515"/>
<path d="M91.4111 94.6823C91.3821 94.7258 91.3823 94.7631 91.4166 94.6479C91.4082 94.6794 91.4085 94.6698 91.4178 94.6192C91.4282 94.5727 91.4259 94.5263 91.411 94.4799C91.3892 94.4008 91.3356 94.3575 91.2867 94.2981C91.2235 94.2212 91.3249 94.3164 91.245 94.2719C91.1522 94.2202 91.2457 94.2638 91.2486 94.267C91.2598 94.2697 91.2711 94.2719 91.2825 94.2738C91.3179 94.28 91.2979 94.2775 91.2225 94.2663C91.2477 94.2863 91.3474 94.274 91.3803 94.2742C91.5128 94.275 91.6454 94.2643 91.777 94.2499C91.808 94.2465 91.8389 94.2426 91.8699 94.2389C91.9272 94.2321 91.7897 94.2515 91.8795 94.2374C91.9538 94.2257 92.0282 94.2145 92.1022 94.2015C92.3821 94.1524 92.6607 94.0919 92.9307 94.0025C93.3597 93.8606 93.7616 93.6534 94.1633 93.449L94.3942 94.3014C93.1178 94.3512 91.8818 93.8796 90.8166 93.2064C91.0252 92.9978 91.2338 92.7892 91.4424 92.5806C91.8338 93.2116 91.8244 94.0691 91.4111 94.6823C91.2732 94.8869 91.0082 94.9768 90.7853 94.8464C90.5823 94.7277 90.4825 94.4264 90.6212 94.2206C90.7218 94.0713 90.791 93.9314 90.815 93.75C90.8068 93.8122 90.8167 93.67 90.8166 93.6719C90.8173 93.6401 90.8168 93.6081 90.8154 93.5763C90.8151 93.5704 90.7988 93.4258 90.813 93.5174C90.8076 93.4825 90.8004 93.4479 90.7927 93.4134C90.7787 93.3512 90.7611 93.2898 90.7404 93.2294C90.7314 93.203 90.7205 93.1773 90.7116 93.151C90.7236 93.1866 90.7483 93.2292 90.7187 93.1689C90.6976 93.1262 90.6777 93.0829 90.6525 93.0423C90.4139 92.6576 90.8919 92.1723 91.2784 92.4165C92.2205 93.0119 93.2759 93.4302 94.3942 93.3865C94.8387 93.3692 95.0293 94.0332 94.625 94.2389C94.1002 94.5059 93.567 94.7761 92.9987 94.9388C92.6881 95.0277 92.3674 95.0858 92.0477 95.1301C91.7072 95.1772 91.3455 95.2297 91.0055 95.1491C90.5823 95.0488 90.3729 94.5936 90.6212 94.2206C90.7579 94.0152 91.0249 93.9266 91.247 94.0565C91.451 94.1758 91.5486 94.4758 91.4111 94.6823Z" fill="#151515"/>
<path d="M100.904 90.3212C100.378 90.807 99.821 90.8478 99.1718 91.0211C98.7105 91.1443 98.5025 91.6057 98.727 92.0666C98.8995 92.4207 99.2547 92.6469 99.6092 92.8186C99.9637 92.9902 100.342 93.1307 100.639 93.3899C100.935 93.6491 101.135 94.0703 101.001 94.4406C100.957 93.7131 101.403 93.0511 101.88 92.5002C102.357 91.9494 102.902 91.4183 103.129 90.7259C103.194 90.5293 103.231 90.3157 103.178 90.1155C103.125 89.9153 102.966 89.7332 102.761 89.703C103.566 89.5967 104.276 88.9683 104.48 88.1826C104.587 87.7676 104.524 87.2538 104.163 87.0229C105.182 87.0995 106.428 86.0937 106.402 85.037C106.381 84.1772 105.598 83.4078 104.738 83.4022C105.324 83.2052 105.727 82.6083 105.776 81.9922C105.826 81.3761 105.558 80.7607 105.137 80.3079C104.717 79.8551 104.155 79.5521 103.571 79.3515C102.963 79.143 102.255 79.0485 101.706 79.3814C102.037 78.8048 101.723 78.0255 101.181 77.6395C100.64 77.2535 99.9426 77.1709 99.2778 77.1441C98.6729 77.1197 98.0209 77.1459 97.5357 77.508C97.9407 77.1635 97.8376 76.4573 97.44 76.1043C97.0423 75.7512 96.4648 75.6835 95.9351 75.7296C95.3698 75.7789 94.7977 75.9482 94.3669 76.3176C93.9362 76.687 93.6731 77.2817 93.8008 77.8346C93.435 77.8664 93.0724 77.9348 92.7201 78.0384C92.3277 78.1539 91.9311 78.3256 91.6765 78.6458C91.4414 78.9415 91.3562 79.3276 91.3076 79.7023C91.2459 80.1787 91.233 80.6685 91.3509 81.1343C91.422 81.4153 91.5528 81.6995 91.7959 81.8574C92.0615 82.03 92.4385 82.008 92.6823 81.8057C92.9296 82.6622 93.6414 83.2723 94.5329 83.3677C95.2527 83.4447 95.9685 83.2324 96.6614 83.0225C96.4823 83.3805 96.6431 83.8308 96.9241 84.1158C97.2052 84.4008 97.5833 84.5635 97.9404 84.7442C98.2975 84.9249 98.6587 85.146 98.8534 85.4957C99.0718 85.888 99.0408 86.3663 98.998 86.8132C98.9464 87.3525 98.8729 87.925 98.528 88.3427C98.7741 87.9869 99.0266 87.6243 99.3746 87.3672C100.259 86.7141 101.319 87.3176 101.562 88.3212C101.736 89.0365 101.445 89.8218 100.904 90.3212Z" fill="#151515"/>
<path d="M101.227 90.6448C100.752 91.0705 100.2 91.245 99.5912 91.3886C99.4895 91.4126 99.3064 91.4484 99.2534 91.4718C99.2499 91.4734 99.1408 91.5449 99.1813 91.5111C99.1574 91.5325 99.1353 91.5555 99.1147 91.5801C99.1405 91.5522 99.1381 91.5606 99.1076 91.6055C99.1351 91.5403 99.0933 91.6602 99.0908 91.6756C99.1056 91.5837 99.1066 91.8056 99.0946 91.7336C99.1104 91.8285 99.1517 91.9091 99.2113 91.9861C99.5532 92.4276 100.209 92.5436 100.661 92.8383C101.225 93.2066 101.662 93.8685 101.442 94.5623C101.286 95.0564 100.565 94.9614 100.544 94.4407C100.503 93.4355 101.154 92.6269 101.785 91.918C102.064 91.6039 102.345 91.2907 102.548 90.9198C102.637 90.7574 102.721 90.5736 102.743 90.3878C102.748 90.3432 102.749 90.2861 102.74 90.244C102.735 90.2209 102.705 90.1675 102.724 90.2018C102.705 90.1665 102.704 90.1522 102.666 90.1338C102.694 90.1475 102.713 90.1597 102.64 90.1441C102.218 90.0546 102.189 89.3283 102.64 89.262C103.139 89.1886 103.577 88.9291 103.844 88.5059C103.972 88.3027 104.06 88.0736 104.069 87.8721C104.074 87.7343 104.076 87.7078 104.037 87.5812C104.017 87.5185 103.971 87.4446 103.932 87.4179C103.764 87.3013 103.665 87.1077 103.722 86.9014C103.773 86.7156 103.964 86.554 104.163 86.5656C104.552 86.5883 104.88 86.4665 105.23 86.2245C105.53 86.0178 105.803 85.6862 105.901 85.3554C105.951 85.1863 105.961 85.0442 105.931 84.8937C105.891 84.697 105.812 84.5224 105.705 84.3816C105.459 84.0554 105.1 83.8687 104.738 83.8597C104.206 83.8464 104.139 83.1334 104.617 82.9612C104.983 82.8292 105.257 82.4187 105.314 82.0482C105.394 81.523 105.148 80.9828 104.792 80.6083C104.419 80.2158 103.929 79.9532 103.42 79.7828C102.945 79.624 102.392 79.5143 101.936 79.7765C101.532 80.0093 101.095 79.5489 101.311 79.1506C101.341 79.0953 101.367 79.0321 101.382 78.9404C101.384 78.9234 101.387 78.7987 101.377 78.7245C101.361 78.6106 101.286 78.4388 101.198 78.3033C101.005 78.0032 100.649 77.8261 100.279 77.7287C99.8521 77.6162 99.4018 77.5938 98.9618 77.595C98.5344 77.5961 98.1218 77.6493 97.7666 77.9031C97.3436 78.2052 96.8316 77.5325 97.2123 77.1847C97.2141 77.183 97.3087 77.0776 97.2692 77.1325C97.2868 77.1061 97.3025 77.0786 97.3164 77.05C97.3041 77.0791 97.3032 77.0786 97.3135 77.0487C97.321 77.026 97.3272 77.0029 97.332 76.9794C97.3302 77.0138 97.3305 77.0144 97.3328 76.9814C97.3381 76.9328 97.3373 76.8828 97.3332 76.8342C97.324 76.7255 97.2571 76.5632 97.153 76.4619C96.8489 76.1664 96.3678 76.1533 95.9646 76.1848C95.5213 76.2195 95.0367 76.3494 94.6904 76.6411C94.3734 76.9082 94.1631 77.331 94.2419 77.7131C94.306 78.0241 94.1085 78.2633 93.8008 78.2921C93.3259 78.3366 92.8014 78.4312 92.3775 78.6604C91.9754 78.8779 91.8423 79.2329 91.7715 79.6675C91.6941 80.1425 91.6779 80.6618 91.8237 81.1251C91.8684 81.2671 91.9409 81.4232 92.0747 81.491C92.198 81.5534 92.3178 81.5128 92.4515 81.4109C92.6962 81.2243 93.047 81.4311 93.1234 81.6842C93.287 82.2264 93.6921 82.6695 94.2251 82.8374C94.9649 83.0705 95.7972 82.8063 96.5398 82.5816C96.7135 82.5291 96.9145 82.6035 97.0206 82.7455C97.1388 82.9037 97.1353 83.0781 97.0564 83.2535C97.0371 83.2964 97.0406 83.3858 97.0541 83.4475C97.0746 83.541 97.1155 83.6309 97.1708 83.7068C97.3183 83.9093 97.5577 84.0363 97.774 84.1499C98.2951 84.4237 98.8422 84.6582 99.1852 85.1638C99.5397 85.6863 99.5058 86.3398 99.4431 86.9383C99.3766 87.5719 99.2542 88.1565 98.8515 88.6663C98.7121 88.8427 98.4112 88.8298 98.2509 88.7021C98.0845 88.5695 98.0013 88.3024 98.1331 88.112C98.5322 87.5354 98.9772 86.9208 99.681 86.7075C100.271 86.5288 100.897 86.7128 101.352 87.1103C102.425 88.0466 102.192 89.7293 101.227 90.6448C100.801 91.05 100.153 90.4042 100.581 89.9979C100.898 89.6966 101.129 89.281 101.152 88.8506C101.163 88.6457 101.127 88.402 101.065 88.2496C100.98 88.0423 100.89 87.9333 100.742 87.7897C100.513 87.568 100.199 87.5024 99.9002 87.5975C99.5016 87.7242 99.1735 88.2118 98.923 88.5737C98.6835 88.389 98.4441 88.2042 98.2046 88.0194C98.5098 87.6331 98.5322 87.0248 98.5622 86.5553C98.5782 86.3041 98.5922 86.028 98.4914 85.7905C98.4105 85.5998 98.2488 85.4579 98.0787 85.3476C97.6071 85.0419 97.0633 84.8746 96.6459 84.4834C96.1758 84.0429 95.9998 83.3841 96.2664 82.7918C96.4386 83.0158 96.6108 83.2398 96.783 83.4637C95.8622 83.7424 94.824 84.0336 93.8801 83.6847C93.0772 83.3879 92.4881 82.7454 92.2412 81.9274C92.4652 82.0186 92.6892 82.1097 92.9132 82.2008C92.3221 82.6515 91.4951 82.4002 91.1286 81.798C90.7655 81.2014 90.7636 80.4084 90.8458 79.7382C90.9329 79.0284 91.1412 78.385 91.7589 77.9654C92.3399 77.5707 93.1169 77.4414 93.8008 77.3773C93.6538 77.5703 93.5068 77.7633 93.3597 77.9563C93.1091 76.7407 94.0179 75.7407 95.1292 75.4141C96.0933 75.1307 97.559 75.1499 98.0746 76.1934C98.3374 76.7253 98.3196 77.4108 97.8591 77.8316C97.6743 77.5921 97.4896 77.3527 97.3048 77.1132C97.8008 76.7589 98.4301 76.6756 99.0254 76.6804C99.6043 76.6851 100.218 76.7242 100.767 76.9222C101.311 77.1186 101.8 77.4593 102.071 77.9835C102.338 78.4998 102.382 79.0926 102.101 79.6124C101.892 79.4038 101.683 79.1952 101.475 78.9866C102.504 78.3942 103.886 78.8288 104.809 79.4422C105.784 80.0905 106.528 81.3032 106.14 82.4997C105.936 83.1273 105.482 83.6193 104.86 83.8433L104.738 82.9449C106.021 82.9769 107.098 84.2207 106.808 85.5022C106.554 86.6239 105.307 87.5473 104.163 87.4804L104.394 86.6281C105.124 87.1339 105.092 88.1044 104.716 88.8243C104.359 89.509 103.649 90.0314 102.883 90.1441V89.262C103.514 89.3959 103.737 90.0782 103.623 90.6465C103.519 91.1696 103.209 91.6288 102.883 92.0389C102.322 92.7447 101.418 93.4495 101.458 94.4407L100.56 94.3191C100.623 94.119 100.532 93.9195 100.359 93.7535C100.139 93.5418 99.83 93.4237 99.5571 93.2976C98.9913 93.036 98.4024 92.67 98.2253 92.0293C98.0469 91.3839 98.4208 90.7686 99.0502 90.5802C99.5929 90.4177 100.147 90.3863 100.581 89.9979C100.765 89.8331 101.046 89.8164 101.227 89.9979C101.395 90.1654 101.412 90.4793 101.227 90.6448Z" fill="#151515"/>
<path d="M40.2703 134.304C40.7723 133.806 41.5492 133.751 42.1679 134.055C42.7963 134.364 43.2051 135.026 43.406 135.676C43.6153 136.353 43.5581 137.181 42.9407 137.625C42.4038 138.011 41.6749 137.932 41.2777 137.401C41.0451 137.09 41.4345 136.59 41.7943 136.729C42.4987 136.999 43.0781 137.594 43.2264 138.351C43.3768 139.12 43.1162 139.94 42.5231 140.459C42.3373 140.622 42.059 140.642 41.8762 140.459C41.7102 140.293 41.6896 139.976 41.8762 139.812C42.2288 139.504 42.4239 139.037 42.3443 138.595C42.2662 138.161 41.9544 137.766 41.5511 137.611C41.7233 137.387 41.8955 137.163 42.0677 136.939C42.0467 136.911 42.0468 136.908 42.068 136.93C42.0916 136.952 42.0888 136.951 42.0595 136.925C42.1021 136.947 42.1091 136.952 42.0806 136.94C42.0515 136.929 42.0599 136.931 42.1057 136.947C42.1674 136.982 42.0989 136.953 42.1342 136.954C42.1516 136.954 42.2697 136.948 42.2293 136.954C42.3141 136.941 42.4307 136.883 42.4815 136.825C42.7043 136.569 42.592 136.069 42.4635 135.746C42.3248 135.397 42.0953 135.046 41.7541 134.869C41.4788 134.727 41.128 134.742 40.9171 134.951C40.4989 135.366 39.8517 134.72 40.2703 134.304Z" fill="#151515"/>
<path d="M96.2666 33.8227C96.2666 33.8227 67.2953 30.0341 63.8272 65.4608C72.2691 57.5728 75.5652 54.2718 75.5652 54.2718L74.2016 50.5605L77.4039 52.8769L82.2991 47.9853L81.1102 44.9163L83.7353 46.9609L96.2666 33.8227Z" fill="#75007E"/>
<path d="M96.1899 33.6472C96.1899 33.6472 77.8176 10.9283 50.8801 34.1973C62.4332 34.3043 67.0966 34.1859 67.0966 34.1859L68.6677 30.5576L69.3901 34.4433L76.3084 34.2753L77.5633 31.2326L78.0549 34.5236L96.1899 33.6472Z" fill="#75007E"/>
<path d="M95.5339 32.8888C95.5339 32.8888 94.3414 8.43007 64.6063 10.8489C72.3699 16.636 75.5836 18.8625 75.5836 18.8625L78.4413 17.1849L77.008 20.1712L81.7719 23.4796L84.1259 22.0417L82.8307 24.5115L95.5339 32.8888Z" fill="#75007E"/>
<path d="M94.4491 33.0465C94.4491 33.0465 89.3917 9.08665 118.766 3.87549C112.727 11.4443 110.184 14.4139 110.184 14.4139L106.994 13.5169L109.138 16.0414L105.371 20.4511L102.729 19.6581L104.609 21.718L94.4491 33.0465Z" fill="#75007E"/>
<path d="M94.2887 34.2627C94.2887 34.2627 122.734 27.5889 129.736 62.4895C120.546 55.4875 116.936 52.5335 116.936 52.5335L117.92 48.7043L114.966 51.3301L109.606 46.9538L110.481 43.7811L108.074 46.0786L94.2887 34.2627Z" fill="#75007E"/>
<path d="M92.7894 34.7789C92.7894 34.7789 107.417 9.4859 137.636 28.2965C126.24 30.1937 121.614 30.7998 121.614 30.7998L119.5 27.459L119.389 31.4098L112.528 32.3165L110.816 29.5052L110.841 32.8326L92.7894 34.7789Z" fill="#75007E"/>
<path d="M92.6473 44.5145C89.8825 44.5145 87.6413 42.2732 87.6413 39.5085C87.6413 36.7437 89.8825 34.5024 92.6473 34.5024C95.412 34.5024 97.6533 36.7437 97.6533 39.5085C97.6533 42.2732 95.412 44.5145 92.6473 44.5145Z" fill="#E742F4"/>
<path d="M98.8477 41.9735C96.083 41.9735 93.8417 39.7322 93.8417 36.9675C93.8417 34.2027 96.083 31.9614 98.8477 31.9614C101.612 31.9614 103.854 34.2027 103.854 36.9675C103.854 39.7322 101.612 41.9735 98.8477 41.9735Z" fill="#E742F4"/>
<path d="M107.834 63.3963C105.681 64.3177 103.226 65.3025 100.88 64.4909C100.647 64.4102 100.492 64.1775 100.561 63.9283C100.623 63.7015 100.889 63.5277 101.123 63.6088C103.223 64.3353 105.443 63.4319 107.372 62.6064C107.599 62.5093 107.863 62.5388 107.998 62.7705C108.111 62.963 108.062 63.2986 107.834 63.3963Z" fill="white"/>
<path d="M104.785 53.6513C102.96 54.8944 100.787 55.5873 98.5821 55.6538C97.9932 55.6715 97.9938 54.7567 98.5821 54.7389C100.634 54.6771 102.628 54.0161 104.323 52.8614C104.527 52.7222 104.83 52.8227 104.949 53.0254C105.081 53.2515 104.99 53.5118 104.785 53.6513Z" fill="white"/>
<path d="M101.639 47.3459C100.711 47.944 99.664 48.3623 98.5785 48.5627C98.344 48.606 98.0739 48.4983 98.0159 48.2433C97.9648 48.0189 98.0837 47.7271 98.3353 47.6806C99.377 47.4883 100.293 47.126 101.177 46.556C101.379 46.426 101.691 46.5082 101.803 46.7201C101.923 46.9473 101.854 47.2072 101.639 47.3459Z" fill="white"/>
<path d="M107.555 135.824C108.572 134.894 109.813 134.209 111.143 133.844C109.591 132.796 107.249 133.177 106.109 134.663C106.346 133.863 105.963 132.982 105.364 132.401C104.764 131.82 103.979 131.478 103.212 131.148C103.663 132.386 103.994 133.668 104.199 134.97C103.371 133.348 101.663 132.211 99.8478 132.073C100.713 133.077 101.579 134.08 102.444 135.084C100.9 134.362 99.0565 134.306 97.471 134.934C98.3203 135.76 99.3639 136.385 100.493 136.745C98.5871 137.061 96.8431 138.247 95.8492 139.904C97.3636 139.848 98.8855 139.996 100.361 140.342" fill="#E742F4"/>
<path d="M127.345 136.815C127.648 137.131 127.827 137.546 127.844 137.983C127.875 138.794 127.827 139.83 127.737 140.452C127.07 145.063 122.688 148.965 118.077 148.297C113.466 147.63 110.371 142.646 111.038 138.035C111.191 136.976 111.446 136.07 111.8 135.271C111.941 134.954 112.171 134.685 112.461 134.495L115.389 132.811L124.357 134.006L127.345 136.815Z" fill="#FFE8E5"/>
<path d="M119.646 135.686C116.913 135.29 114.801 134.249 114.93 133.36C115.059 132.471 117.379 132.071 120.112 132.467C122.846 132.862 124.957 133.904 124.829 134.793C124.7 135.682 122.38 136.081 119.646 135.686Z" fill="#75007E"/>
<path d="M119.882 134.056C118.789 133.898 117.934 133.553 117.972 133.287C118.011 133.02 118.929 132.932 120.022 133.09C121.115 133.249 121.97 133.593 121.932 133.86C121.893 134.126 120.976 134.214 119.882 134.056Z" fill="white"/>
<path d="M118.641 133.218C118.458 132.471 118.273 131.721 118.119 130.967C118.025 130.509 118.027 129.998 117.818 129.571C117.593 129.111 117.138 129.006 116.663 129.085C116.098 129.178 115.572 129.421 115.011 129.531C114.628 129.607 114.464 129.019 114.849 128.943C115.749 128.766 116.741 128.171 117.659 128.59C118.565 129.003 118.543 130.057 118.725 130.888C118.883 131.613 119.053 132.335 119.229 133.056C119.322 133.437 118.734 133.6 118.641 133.218Z" fill="white"/>
<path d="M126.859 138.112C124.089 139.346 120.92 139.589 117.988 138.819C117.161 138.602 116.358 138.302 115.589 137.929C115.412 137.843 115.567 137.58 115.743 137.666C118.383 138.948 121.458 139.281 124.319 138.637C125.138 138.453 125.939 138.19 126.705 137.849C126.883 137.769 127.038 138.032 126.859 138.112Z" fill="white"/>
<path d="M113.54 136.674L113.251 136.559C113.231 136.554 113.213 136.545 113.199 136.531C113.182 136.52 113.169 136.506 113.159 136.488C113.14 136.456 113.132 136.408 113.144 136.371C113.156 136.334 113.179 136.298 113.214 136.28C113.248 136.262 113.294 136.25 113.332 136.264L113.621 136.38C113.641 136.385 113.658 136.394 113.673 136.408C113.69 136.418 113.703 136.433 113.712 136.45C113.731 136.483 113.739 136.531 113.728 136.568C113.716 136.605 113.693 136.64 113.658 136.659C113.624 136.677 113.577 136.689 113.54 136.674Z" fill="white"/>
<path d="M92.9892 89.7233C92.4703 89.8198 91.9517 89.8212 91.4321 89.7289C91.2747 89.7009 91.1717 89.5004 91.2191 89.3538C91.2739 89.1846 91.4255 89.1108 91.5942 89.1408C91.6208 89.1455 91.6474 89.1501 91.674 89.1544C91.6918 89.1572 91.7096 89.1599 91.7274 89.1625C91.6953 89.1584 91.6905 89.1578 91.7131 89.1606C91.7667 89.167 91.8203 89.1731 91.8741 89.1776C91.9861 89.187 92.0985 89.1915 92.2109 89.191C92.3188 89.1906 92.4267 89.1856 92.5342 89.1761C92.5611 89.1737 92.5879 89.1711 92.6147 89.1681C92.6368 89.1657 92.6959 89.1582 92.6407 89.1657C92.7031 89.1572 92.7652 89.1467 92.8271 89.1352C92.9834 89.1061 93.1635 89.1782 93.2022 89.3482C93.2363 89.4979 93.1569 89.6921 92.9892 89.7233Z" fill="#151515"/>
<path d="M92.1022 85.5132C91.9475 85.539 91.8091 85.54 91.6542 85.5165C91.5301 85.4977 91.4136 85.4541 91.3005 85.4004C91.0766 85.2944 90.8812 85.1086 90.7613 84.8922C90.684 84.7526 90.7228 84.5531 90.8707 84.4749C91.0141 84.3992 91.2054 84.4353 91.2879 84.5843C91.3007 84.6074 91.3142 84.6301 91.3288 84.652C91.3355 84.662 91.3426 84.6716 91.3493 84.6814C91.3808 84.7275 91.2998 84.6234 91.3369 84.665C91.3705 84.7026 91.4039 84.7393 91.442 84.7725C91.4511 84.7804 91.4603 84.788 91.4695 84.7956C91.5071 84.8268 91.418 84.7581 91.4477 84.7786C91.4695 84.7935 91.4909 84.8087 91.5134 84.8225C91.5585 84.8501 91.6057 84.8737 91.6543 84.8943L91.5815 84.8635C91.6617 84.8961 91.7447 84.9186 91.8306 84.9304L91.7495 84.9195C91.8306 84.9294 91.9116 84.9294 91.9927 84.9187L91.9116 84.9296C91.9211 84.9282 91.9306 84.9267 91.94 84.9251C92.0232 84.9112 92.0997 84.9117 92.175 84.9558C92.2383 84.9928 92.2986 85.0653 92.3151 85.138C92.3487 85.2853 92.2704 85.485 92.1022 85.5132Z" fill="#151515"/>
<path d="M95.9041 86.954C95.169 87.2897 94.2571 87.0373 93.8253 86.3438C93.7408 86.2082 93.7919 86.0021 93.9347 85.9266C94.0843 85.8476 94.2618 85.8913 94.3519 86.036C94.3704 86.0658 94.3894 86.1035 94.4144 86.1282C94.3886 86.1028 94.3906 86.0982 94.4154 86.127C94.4274 86.141 94.4397 86.1548 94.4524 86.1682C94.4776 86.1951 94.5042 86.2208 94.5318 86.2453C94.5429 86.2551 94.5543 86.2645 94.5654 86.2742C94.6221 86.3229 94.5124 86.2382 94.5739 86.2807C94.6321 86.3207 94.6913 86.358 94.7544 86.3899C94.771 86.3982 94.7879 86.4058 94.8045 86.414C94.8563 86.4392 94.768 86.4014 94.8036 86.4135C94.8388 86.4254 94.8733 86.4391 94.9089 86.4498C94.9728 86.4691 95.0483 86.4944 95.1155 86.4956C95.039 86.4943 95.093 86.4919 95.1118 86.4936C95.1303 86.4951 95.1488 86.4964 95.1673 86.4973C95.2043 86.4989 95.2413 86.4991 95.2783 86.4977C95.3132 86.4964 95.3542 86.4857 95.3887 86.4888C95.3699 86.4871 95.3333 86.4984 95.3734 86.4898C95.3951 86.4851 95.4168 86.4815 95.4384 86.4764C95.4708 86.4688 95.5029 86.4599 95.5345 86.4496C95.5521 86.4439 95.5694 86.4372 95.5869 86.4313C95.6466 86.4114 95.5338 86.4559 95.5962 86.4274C95.741 86.3613 95.9313 86.3813 96.0134 86.5368C96.0842 86.6708 96.059 86.8833 95.9041 86.954Z" fill="#151515"/>
<path d="M49.8441 69.4043C46.3216 69.6727 43.2759 67.6556 39.9752 66.8236C38.6169 66.4812 37.1406 66.3098 35.7791 66.5978C35.1022 66.741 34.4995 66.976 33.9261 67.3631C33.3673 67.7403 32.8192 68.291 32.6012 68.9563C32.4827 69.3179 32.4697 69.6634 32.5684 69.9971C32.655 70.2899 32.839 70.574 33.0925 70.7295C33.1303 70.7527 33.169 70.7741 33.2089 70.7935C33.2399 70.8083 33.2408 70.8092 33.2116 70.7963C33.2413 70.8075 33.2715 70.8175 33.3021 70.8263C33.3326 70.8352 33.3636 70.8426 33.3946 70.8493C33.5308 70.8788 33.3229 70.8503 33.4623 70.8586C33.5417 70.8633 33.6226 70.8634 33.7016 70.8537C33.6282 70.8627 33.7284 70.8474 33.7457 70.843C33.7922 70.8312 33.8381 70.8188 33.8842 70.8054C33.9564 70.7844 34.1378 70.6793 34.1884 70.6308C34.2108 70.6093 34.2324 70.5877 34.2536 70.5651C34.3183 70.4964 34.2481 70.5852 34.295 70.5121C34.3158 70.4796 34.3353 70.4463 34.3521 70.4115C34.3659 70.3831 34.3659 70.3838 34.3522 70.4137C34.363 70.3839 34.3724 70.3538 34.3803 70.3231C34.5409 69.7577 35.4238 69.9981 35.2624 70.5663C35.0475 71.323 34.2804 71.7988 33.5101 71.7757C32.6508 71.7498 31.997 71.1231 31.7195 70.3428C31.107 68.6205 32.5822 66.9751 34.0155 66.25C35.482 65.508 37.163 65.4364 38.7641 65.6571C40.4959 65.8958 42.1067 66.5355 43.7281 67.1591C45.6832 67.911 47.715 68.6518 49.8441 68.4895C50.0907 68.4708 50.3015 68.7132 50.3015 68.9469C50.3015 69.2101 50.0914 69.3855 49.8441 69.4043Z" fill="#75007E"/>
<path d="M58.2332 71.2334C55.2764 72.9261 51.8851 73.8355 48.4786 73.8618C47.5154 73.8693 46.5569 73.7979 45.6029 73.6676C45.3579 73.6342 45.2242 73.3204 45.2834 73.105C45.356 72.8408 45.6003 72.7519 45.8461 72.7855C49.0378 73.2214 52.3361 72.7913 55.3314 71.6192C56.1731 71.2899 56.9873 70.8924 57.7715 70.4435C58.2832 70.1505 58.7446 70.9406 58.2332 71.2334Z" fill="#75007E"/>
<path d="M145.432 64.4882C143.032 67.5863 139.59 69.838 135.83 70.9123C133.918 71.4586 131.923 71.6889 129.937 71.5962C127.956 71.5038 125.599 71.1716 124.038 72.6414C123.705 72.9546 123.443 73.3272 123.312 73.7511C123.182 74.1744 123.199 74.5527 123.376 74.988C123.513 75.3259 123.802 75.6965 124.11 75.896C124.459 76.1213 124.782 76.1834 125.157 76.0717C125.723 75.9035 125.965 76.7861 125.401 76.9538C124.48 77.2278 123.541 76.7939 122.967 76.0639C122.364 75.2971 122.134 74.2814 122.483 73.3528C122.833 72.423 123.569 71.7041 124.443 71.2523C125.451 70.7308 126.575 70.5797 127.699 70.5819C128.878 70.5842 130.052 70.727 131.232 70.7C132.225 70.6773 133.204 70.5686 134.175 70.3734C136.139 69.9784 138.028 69.2579 139.757 68.2462C141.696 67.1113 143.408 65.6184 144.785 63.8413C144.936 63.6459 145.272 63.6822 145.432 63.8413C145.624 64.0343 145.583 64.2922 145.432 64.4882Z" fill="#75007E"/>
<path d="M141.604 74.2451C141.041 74.4058 140.478 74.5666 139.916 74.7274C139.686 74.7931 139.408 74.6472 139.353 74.4079C139.298 74.1642 139.426 73.9156 139.673 73.8452C140.235 73.6845 140.798 73.5237 141.361 73.3629C141.591 73.2972 141.869 73.4431 141.923 73.6824C141.979 73.9261 141.85 74.1747 141.604 74.2451Z" fill="#75007E"/>
<path d="M16.8035 122.69C16.0749 122.216 15.3462 121.742 14.6175 121.268C14.4172 121.137 14.3151 120.856 14.4534 120.642C14.5824 120.442 14.8647 120.338 15.0792 120.478C15.8079 120.952 16.5366 121.426 17.2652 121.901C17.4655 122.031 17.5676 122.312 17.4293 122.526C17.3004 122.726 17.018 122.83 16.8035 122.69Z" fill="#75007E"/>
<path d="M12.3461 128.022C11.9442 128.102 11.5423 128.182 11.1403 128.263C11.0187 128.287 10.8976 128.281 10.7879 128.217C10.693 128.161 10.6025 128.052 10.5777 127.943C10.551 127.826 10.5568 127.695 10.6238 127.591C10.6857 127.495 10.7811 127.404 10.8971 127.381C11.2991 127.3 11.701 127.22 12.1029 127.14C12.2245 127.115 12.3456 127.122 12.4554 127.186C12.5502 127.241 12.6407 127.35 12.6656 127.459C12.6922 127.576 12.6865 127.708 12.6195 127.812C12.5575 127.908 12.4622 127.999 12.3461 128.022Z" fill="#75007E"/>
<path d="M19.7329 119.141C19.75 118.996 19.7537 118.85 19.7422 118.704C19.7391 118.666 19.71 118.549 19.7435 118.69C19.7352 118.655 19.7324 118.618 19.7255 118.582C19.7127 118.515 19.6967 118.449 19.6779 118.383C19.6589 118.317 19.6355 118.253 19.6124 118.188C19.5943 118.143 19.5993 118.154 19.6274 118.222C19.6202 118.205 19.6128 118.188 19.6052 118.172C19.59 118.139 19.5739 118.106 19.5571 118.074C19.5234 118.009 19.4866 117.946 19.4466 117.885C19.4266 117.854 19.4052 117.825 19.3844 117.795C19.3557 117.756 19.363 117.765 19.4063 117.822C19.395 117.808 19.3835 117.794 19.3719 117.78C19.2926 117.683 19.2379 117.585 19.2379 117.456C19.2379 117.344 19.2877 117.21 19.3719 117.133C19.5399 116.979 19.8564 116.935 20.0187 117.133C20.4777 117.691 20.733 118.415 20.6478 119.141C20.6331 119.266 20.6065 119.372 20.5138 119.465C20.4345 119.544 20.3043 119.604 20.1904 119.599C20.0721 119.593 19.9494 119.554 19.8669 119.465C19.7904 119.381 19.7191 119.259 19.7329 119.141Z" fill="#75007E"/>
</svg>
