<svg width="132" height="132" viewBox="0 0 132 132" fill="none" xmlns="http://www.w3.org/2000/svg">
<path d="M59.2152 112.731L106.951 110.299V7.43945L59.2152 9.8716V112.731Z" fill="#FFE8E5"/>
<path d="M84.0968 52.9238L101.422 52.0411V14.71L84.0968 15.5927V52.9238Z" fill="white"/>
<path d="M63.5465 53.9551L80.8713 53.0724V15.7412L63.5465 16.6239V53.9551Z" fill="white"/>
<path d="M84.7418 102.38L102.067 101.376V58.8975L84.7418 59.9019V102.38Z" fill="white"/>
<path d="M101.459 58.6108C99.6235 58.6108 98.136 57.1233 98.136 55.2883C98.136 53.4534 99.6235 51.9658 101.459 51.9658C103.293 51.9658 104.781 53.4534 104.781 55.2883C104.781 57.1233 103.293 58.6108 101.459 58.6108Z" fill="#E742F4"/>
<path d="M64.1915 103.554L81.5164 102.55V60.0713L64.1915 61.0757V103.554Z" fill="white"/>
<path d="M59.4208 112.379C63.4967 114.113 67.5725 115.847 71.6484 117.58C78.1477 120.345 84.647 123.109 91.1463 125.874C92.642 126.51 94.1376 127.146 95.6332 127.783L95.021 128.134V26.8306C95.021 26.3792 94.9713 25.8953 95.021 25.446C95.0272 25.3904 95.021 25.3309 95.021 25.2747L95.2225 25.626C91.1467 23.8922 87.0708 22.1585 82.995 20.4248C76.4956 17.6602 69.9963 14.8956 63.497 12.131C62.0013 11.4948 60.5057 10.8586 59.0101 10.2224C58.5298 10.0181 58.9439 9.31698 59.4208 9.51983C63.4966 11.2536 67.5725 12.9873 71.6483 14.721C78.1477 17.4856 84.647 20.2502 91.1463 23.0148C92.642 23.651 94.1376 24.2872 95.6332 24.9234C95.7602 24.9774 95.8347 25.1455 95.8347 25.2747V123.95C95.8347 125.286 95.8661 126.627 95.8347 127.963C95.8333 128.02 95.8347 128.077 95.8347 128.134C95.8347 128.472 95.4957 128.601 95.2225 128.485C91.1466 126.751 87.0708 125.018 82.9949 123.284C76.4956 120.519 69.9963 117.755 63.497 114.99C62.0013 114.354 60.5057 113.718 59.0101 113.082C58.5298 112.877 58.9439 112.176 59.4208 112.379Z" fill="#75007E"/>
<path d="M104.666 50.26C105.641 50.6462 106.405 51.4627 106.632 52.502C106.867 53.5796 106.525 54.7402 105.706 55.4895C105.516 55.6631 105.317 55.8287 105.12 55.9936C104.742 56.3102 104.275 56.4547 103.786 56.3459C103.271 56.2315 102.853 55.8271 102.701 55.3257C102.572 54.903 102.66 54.4611 102.884 54.0895C103.172 53.6134 103.463 53.1395 103.752 52.6645C103.833 52.8637 103.914 53.0629 103.995 53.2621C103.255 53.0105 102.515 52.759 101.775 52.5074C101.51 52.4174 101.188 52.2751 100.937 52.2414C100.324 52.1594 99.7542 52.5589 99.6167 53.1742C99.5426 53.5059 99.6314 53.8708 99.8392 54.1386C99.9361 54.2635 100.068 54.3711 100.182 54.4797C100.469 54.7521 100.776 55.0129 101.045 55.3021C101.644 55.9446 101.487 57.0229 100.697 57.4327C100.315 57.6304 99.8714 57.6337 99.4834 57.4538C99.3803 57.406 99.2869 57.3414 99.1915 57.2801C98.461 56.8107 97.7304 56.3412 96.9999 55.8717H97.4105C97.346 55.905 97.285 55.9463 97.225 55.987C97.1914 56.0098 97.1582 56.0332 97.1252 56.057C97.0899 56.0826 96.9432 56.1992 97.0692 56.0973C96.9677 56.1793 96.866 56.2604 96.7677 56.3463C96.4828 56.5951 96.2153 56.8635 95.9598 57.1422C95.5903 57.5453 95.2537 57.9615 94.9543 58.3661C93.985 59.6754 93.1927 61.0931 92.4437 62.5364C92.0161 63.3605 91.5313 64.1552 90.9972 64.9146C89.729 66.7179 88.1966 68.3198 86.4273 69.6369C84.4104 71.1384 82.0859 72.2198 79.6386 72.7973C76.5852 73.5177 73.408 73.4585 70.3353 72.8888C69.8903 72.8062 69.4476 72.7123 69.0068 72.6095C68.4971 72.4906 68.7129 71.7058 69.2231 71.8249C72.2818 72.5386 75.5067 72.7703 78.5848 72.1902C81.078 71.7204 83.3731 70.771 85.461 69.3325C86.3612 68.7122 87.1877 68.0229 87.9953 67.2231C88.3749 66.8472 88.7394 66.4561 89.0882 66.0515C89.2573 65.8553 89.4227 65.656 89.5843 65.4537C89.6223 65.4062 89.66 65.3585 89.6976 65.3107C89.72 65.2821 89.7423 65.2534 89.7646 65.2248C89.7202 65.2819 89.759 65.2321 89.7674 65.2211C89.8476 65.1167 89.9268 65.0116 90.005 64.9057C90.5656 64.147 91.0759 63.3508 91.5291 62.5235C91.8745 61.8928 92.19 61.2466 92.5433 60.6199C92.943 59.9111 93.3688 59.2163 93.8304 58.5459C94.443 57.6562 95.1146 56.7906 95.8965 56.0419C96.2174 55.7347 96.5655 55.4171 96.9535 55.1953C96.9689 55.1866 96.9841 55.1773 96.9998 55.1692C97.1267 55.1037 97.2847 55.0883 97.4105 55.1692C98.0699 55.5929 98.7294 56.0167 99.3888 56.4405C99.5046 56.5149 99.6198 56.5903 99.7362 56.6637C99.9068 56.7713 100.057 56.8026 100.231 56.7497C100.436 56.6872 100.623 56.4655 100.606 56.2007C100.594 56.0222 100.486 55.8913 100.349 55.7611C100.04 55.4673 99.7299 55.1749 99.4224 54.8795C98.877 54.3558 98.6385 53.5661 98.8648 52.8339C99.0993 52.0752 99.762 51.5317 100.546 51.4352C100.965 51.3838 101.339 51.501 101.726 51.6325C102.554 51.9142 103.383 52.1959 104.211 52.4776C104.454 52.56 104.598 52.8394 104.454 53.0752C104.225 53.4526 103.995 53.83 103.765 54.2074C103.685 54.3383 103.595 54.4671 103.525 54.604C103.374 54.9036 103.484 55.2745 103.73 55.447C103.975 55.6196 104.283 55.6189 104.529 55.432C104.694 55.3062 104.847 55.1592 105.005 55.0238C105.621 54.4959 105.971 53.7549 105.883 52.9341C105.795 52.1081 105.227 51.3527 104.449 51.0446C104.245 50.9638 104.102 50.7724 104.165 50.5442C104.218 50.3498 104.46 50.1786 104.666 50.26Z" fill="#151515"/>
<path d="M71.3998 42.5524C68.2846 44.7502 67.1236 48.9016 66.5441 52.47C65.976 55.9679 65.9308 59.5602 66.1537 63.0914C66.202 63.8567 66.2572 64.6245 66.3516 65.3858C66.6737 67.9855 66.8746 70.5799 66.8864 73.2012C66.9125 79.0192 66.238 84.8366 65.169 90.5499C64.513 94.0559 63.7123 97.5438 62.707 100.967C62.631 101.226 62.5608 101.489 62.4726 101.744C62.4669 101.76 62.4625 101.777 62.4569 101.794C62.3642 102.067 62.463 101.775 62.4467 101.82C62.4058 101.931 62.3661 102.042 62.3322 102.156C61.9386 103.475 62.01 104.924 62.4933 106.233C62.9045 107.348 63.6301 108.324 64.4869 109.137C64.7513 109.387 65.0287 109.626 65.3174 109.848C65.5843 110.054 66.0846 110.267 66.2322 110.574C66.5172 111.167 66.3823 112.001 66.1138 112.57C65.6016 113.656 64.4341 114.366 63.3635 114.811C62.2522 115.272 61.0545 115.487 59.8588 115.575C57.3689 115.758 54.8155 115.394 52.4147 114.738C51.249 114.419 50.0997 114.014 49.0118 113.485C47.8112 112.902 46.3537 112.027 46.1036 110.597C45.9914 109.956 46.1017 109.31 46.2304 108.68C46.3858 107.92 46.5056 107.166 46.6042 106.396C46.8363 104.583 47.0894 102.773 47.3647 100.967C47.9148 97.3564 48.4993 93.732 49.3029 90.1683C50.0837 86.7058 51.105 83.2996 51.7863 79.8142C52.0841 78.2907 52.3503 76.7377 52.4007 75.1834C52.4304 74.2645 52.3683 73.0368 52.9281 72.2512C53.2495 71.8001 53.916 71.5962 54.4213 71.8501C54.9129 72.0971 55.1744 72.7314 55.0126 73.2563C54.8348 73.8336 54.2985 74.2064 53.945 74.6664C53.4554 75.3036 53.2632 76.1816 53.0044 76.928C51.8778 80.1768 50.5054 83.3512 48.8131 86.3468C46.0662 91.2092 42.3069 95.9347 37.1325 98.3356C36.4981 98.6299 35.8469 98.8903 35.1821 99.1078C34.5149 99.326 33.8296 99.4606 33.1566 99.6546C31.8967 100.018 30.7254 100.673 29.7611 101.562C28.8066 102.442 28.0444 103.54 27.5824 104.755C27.059 106.132 26.9579 107.63 26.5422 109.041C26.2341 110.087 25.8033 111.447 24.812 112.053C24.0802 112.499 23.2793 112.214 22.6752 111.704C22.0504 111.177 21.5918 110.44 21.2084 109.728C20.6712 108.73 20.2534 107.666 19.8978 106.591C19.0461 104.018 18.537 101.312 18.348 98.6098C18.1619 95.9489 18.1312 93.0549 19.8334 90.8412C20.6839 89.735 21.7697 89.0338 23.0142 88.4434C24.3305 87.8189 25.5964 87.0891 26.8013 86.2703C29.2175 84.6284 31.3826 82.6186 33.2287 80.356C35.0846 78.0816 36.6667 75.4977 37.7201 72.752C38.8829 69.7208 39.2101 66.4831 39.2798 63.2602C39.3475 60.1271 39.1964 56.9861 39.4613 53.8592C39.7327 50.6549 40.4879 47.51 42.0986 44.7024C42.5469 43.921 43.0419 43.1676 43.5424 42.4188C43.9054 41.8757 44.2349 41.2852 44.6881 40.8106C45.0248 40.4581 45.407 40.1339 45.6903 39.7344C45.7729 39.618 45.9266 39.4231 45.9068 39.27C45.8793 39.057 45.5633 38.9744 45.3821 38.9815C44.6569 39.0098 44.3443 39.9184 44.2276 40.5005C44.0746 41.2643 44.1873 42.0568 44.4163 42.7931C44.8592 44.2174 45.755 45.431 46.5868 46.6481C48.1273 48.902 49.7404 51.1639 51.7827 52.9965C52.7272 53.8441 53.7909 54.6117 54.9802 55.0759C55.2502 55.1814 55.5264 55.2712 55.8071 55.3437C56.1022 55.42 56.4203 55.4394 56.7087 55.534C57.3129 55.7323 57.7519 56.3028 57.7568 56.9443C57.7612 57.5259 57.415 58.07 56.8883 58.314C56.5783 58.4576 56.2538 58.4551 55.9217 58.4644C55.2566 58.4828 54.5916 58.5013 53.9265 58.5198L54.2142 57.8253C56.0261 59.3782 57.8811 60.8785 59.7266 62.3913C60.0151 62.6278 60.3419 62.8497 60.6004 63.1206C61.4242 63.984 61.0283 65.4696 59.8676 65.7855C59.1826 65.972 58.6465 65.6558 58.141 65.2462C57.648 64.8467 57.155 64.4472 56.662 64.0478C55.622 63.205 54.582 62.3623 53.542 61.5195H54.1173C54.1385 61.3552 54.1597 61.1909 54.1809 61.0265C54.6953 62.0058 55.2097 62.985 55.7241 63.9643C56.0394 64.5644 56.3546 65.1645 56.6699 65.7646C56.9164 66.2338 57.1724 66.6725 57.093 67.2318C56.9011 68.5833 55.1919 69.052 54.2941 68.0589L54.7871 68.1225C54.8494 67.9693 54.9117 67.8162 54.974 67.6631C55.1072 68.5251 54.6357 69.3955 53.7358 69.5765C53.0098 69.7225 52.3244 69.3674 51.9704 68.7314C51.5545 67.984 51.1738 67.2149 50.776 66.4576C50.9616 66.5063 51.1471 66.5549 51.3327 66.6036C51.395 66.4504 51.4573 66.2973 51.5196 66.1441C51.835 66.9189 52.1647 67.6893 52.4663 68.4695C52.6963 69.0645 52.4963 69.767 51.9165 70.0837C51.1984 70.4758 50.2901 70.1023 49.7241 69.6066C49.1535 69.1069 48.9312 68.2987 48.6532 67.6158C48.2392 66.5987 47.8251 65.5817 47.4111 64.5646C47.2182 64.0908 47.0254 63.6171 46.8325 63.1434C46.7622 62.9708 46.533 62.6019 46.618 62.4002C46.8183 61.9249 47.606 62.1338 47.4026 62.6165C47.4887 62.4122 47.3582 62.338 47.4428 62.4989C47.4941 62.5966 47.5281 62.7083 47.5697 62.8105C47.7105 63.1564 47.8513 63.5023 47.9922 63.8483C48.3633 64.76 48.7344 65.6717 49.1056 66.5834C49.3607 67.21 49.595 67.8506 49.8727 68.4676C50.0606 68.8852 50.4421 69.2146 50.8835 69.3619C51.4082 69.5369 51.9125 69.2828 51.6817 68.6858C51.3801 67.9056 51.0504 67.1352 50.735 66.3604C50.6732 66.2086 50.7737 65.9699 50.922 65.901C51.1142 65.8116 51.3688 65.838 51.4786 66.0469C51.8044 66.6671 52.1302 67.2874 52.456 67.9076C52.58 68.1435 52.6969 68.4569 52.9103 68.6259C53.4657 69.0659 54.2981 68.5826 54.1894 67.8793C54.1636 67.7121 54.2033 67.5019 54.3764 67.4199C54.5344 67.345 54.7421 67.3427 54.8694 67.4835C55.4997 68.1806 56.609 67.5125 56.2102 66.6377C56.07 66.33 55.8932 66.0342 55.736 65.735C55.1439 64.6079 54.5519 63.4808 53.9598 62.3536C53.7993 62.0482 53.6388 61.7427 53.4784 61.4372C53.401 61.2899 53.4003 61.0603 53.542 60.9441C53.726 60.7933 53.9318 60.7938 54.1173 60.9441C54.9076 61.5845 55.6979 62.2249 56.4882 62.8653C57.0383 63.311 57.5884 63.7568 58.1386 64.2026C58.4129 64.4249 58.6797 64.6789 58.9719 64.8778C59.3303 65.1219 59.8235 65.0607 60.0873 64.7029C60.3627 64.3293 60.2322 63.87 59.9064 63.5857C59.6404 63.3535 59.3589 63.1368 59.0858 62.913C57.9899 62.0146 56.894 61.1163 55.798 60.2179C55.07 59.6211 54.3538 59.0133 53.6389 58.4006C53.3582 58.16 53.5969 57.7152 53.9265 57.7061C54.3453 57.6944 54.764 57.6828 55.1827 57.6712C55.5793 57.6602 56.0983 57.7352 56.4818 57.6046C56.8343 57.4845 57.0168 57.102 56.9145 56.7647C56.7742 56.302 56.3156 56.2869 55.918 56.2047C55.121 56.0398 54.3533 55.7292 53.6408 55.3391C50.4735 53.6051 48.2194 50.4432 46.2123 47.5365C45.1162 45.9491 43.8728 44.33 43.4733 42.4008C43.2715 41.4267 43.2935 40.3824 43.7037 39.4627C44.0635 38.656 44.8791 37.9618 45.8143 38.2229C46.5271 38.4219 46.8999 39.087 46.6023 39.772C46.3372 40.3822 45.7954 40.8416 45.3394 41.3077C45.0941 41.5585 44.9157 41.828 44.7201 42.1205C44.3774 42.6328 44.0318 43.1432 43.6961 43.6601C43.0678 44.6274 42.4787 45.6188 42.0028 46.6709C40.2287 50.5931 40.1081 54.9478 40.1107 59.1784C40.1133 63.3806 40.1915 67.6639 38.9353 71.7229C37.7696 75.4895 35.5715 78.9813 32.9659 81.916C30.381 84.8272 27.238 87.2794 23.7386 88.9946C22.8974 89.4069 22.0652 89.7707 21.3541 90.3976C20.6797 90.9921 20.1355 91.7129 19.751 92.5257C18.9865 94.1415 19.0425 96.0838 19.1176 97.8308C19.2679 101.326 19.961 104.962 21.3628 108.181C21.8101 109.208 22.348 110.345 23.2107 111.094C23.4912 111.338 23.8474 111.568 24.2369 111.432C24.8318 111.224 25.1709 110.428 25.3893 109.897C26.1388 108.074 26.1607 106.058 26.9152 104.246C27.5852 102.637 28.6968 101.252 30.1119 100.235C30.8224 99.7253 31.6085 99.3243 32.4328 99.0326C33.3142 98.7208 34.2423 98.5692 35.129 98.2689C36.9222 97.6615 38.5924 96.7282 40.1058 95.5956C43.1632 93.3075 45.5641 90.2117 47.5158 86.9579C48.6544 85.0597 49.653 83.0781 50.5354 81.0486C51.0052 79.9682 51.439 78.8722 51.8439 77.7659C52.2299 76.7114 52.5086 75.5774 53.0422 74.5849C53.2272 74.2406 53.4764 73.969 53.7391 73.6833C53.9498 73.4542 54.3708 73.0989 54.2068 72.7466C54.0866 72.4886 53.7771 72.5101 53.6025 72.7013C53.4249 72.8957 53.3824 73.2596 53.3393 73.5053C53.2231 74.1679 53.2338 74.8458 53.2026 75.5154C53.1542 76.5563 52.9927 77.6019 52.8239 78.6291C52.0467 83.3564 50.5264 87.9225 49.623 92.6243C48.6945 97.4564 47.9331 102.317 47.3165 107.199C47.2024 108.102 46.9016 109 46.8698 109.91C46.8346 110.917 47.4377 111.565 48.2321 112.104C49.6335 113.056 51.3175 113.615 52.9469 114.037C54.5718 114.458 56.2409 114.727 57.9193 114.791C59.5488 114.852 61.2214 114.734 62.7656 114.175C64.1551 113.672 65.9445 112.563 65.4681 110.839L65.6551 111.082C63.2132 109.454 61.2728 107.008 61.2659 103.961C61.2643 103.249 61.3603 102.517 61.5793 101.837C61.6005 101.771 61.6226 101.706 61.6473 101.641C61.6769 101.564 61.7308 101.388 61.6714 101.58C61.6949 101.504 61.7191 101.428 61.7424 101.352C63.0015 97.2469 63.9301 93.0241 64.6611 88.7965C65.9458 81.3658 66.5815 73.682 65.6417 66.172C65.2532 63.0671 65.1317 59.9323 65.2893 56.8057C65.4185 54.2445 65.7308 51.665 66.4244 49.1911C67.0629 46.9138 68.0529 44.6291 69.728 42.9169C70.1141 42.5223 70.5382 42.1679 70.9892 41.8498C71.4179 41.5473 71.8248 42.2526 71.3998 42.5524Z" fill="#151515"/>
<path d="M82.378 26.6536C81.8715 26.9538 81.2691 27.127 80.6816 27.1934C79.1892 27.362 77.6475 26.953 76.4118 26.1057C75.4793 25.4663 74.2678 23.7021 72.9377 24.253C72.6332 24.3792 72.4029 24.6329 72.1834 24.8788C71.2635 25.9095 70.3436 26.9402 69.4236 27.9709C69.5695 27.2661 69.8651 26.5989 70.0093 25.8937C70.1534 25.1885 70.1231 24.3953 69.6796 23.8284C68.8001 22.7042 67.5762 22.785 66.7072 23.8784C65.8926 24.9035 65.9046 26.6581 66.4608 27.7829C65.9174 28.2935 65.1739 28.5851 64.4284 28.5802C64.1608 28.5784 63.8869 28.5376 63.6532 28.4073C63.4195 28.277 63.2313 28.0455 63.204 27.7793C63.1483 27.2366 63.6898 26.807 63.9038 26.354C64.1019 25.9348 64.2751 25.4122 64.3806 24.957C64.4991 24.4458 64.4668 23.9136 64.4009 23.3976C64.3465 22.9723 64.1536 22.6228 64.0871 22.1996C63.9336 21.2233 64.023 20.2088 64.3504 19.276C64.5646 18.6656 64.8964 18.0699 65.4265 17.6991C66.1121 17.2196 67.0195 17.1901 67.8445 17.3297C68.3272 17.4113 68.8474 17.5777 69.1011 17.9964C69.7581 17.6486 70.5858 17.2196 71.3494 17.2792C72.0908 17.3372 72.8282 17.2953 73.5717 17.3473C75.1687 17.4592 76.722 17.9242 78.2138 18.505C79.5472 19.0243 80.867 19.6537 81.9142 20.629C82.9614 21.6042 83.7129 22.9745 83.6691 24.4048C83.6562 24.8244 83.5741 25.2468 83.3835 25.6209C83.1588 26.062 82.802 26.4023 82.378 26.6536Z" fill="#151515"/>
<path d="M82.5832 27.0048C81.6114 27.5695 80.4288 27.723 79.3236 27.5984C78.2304 27.475 77.1671 27.104 76.2523 26.488C75.9145 26.2606 75.6169 25.9814 75.3194 25.705C75.1683 25.5645 75.0169 25.4241 74.8612 25.2886C74.6892 25.139 74.5827 25.0504 74.4076 24.9301C74.3261 24.8741 74.2426 24.8209 74.1566 24.772C74.1146 24.7482 74.0722 24.7253 74.0291 24.7037C74.0104 24.6943 73.8833 24.6383 73.9421 24.6618C73.8571 24.6278 73.7693 24.5998 73.6801 24.5792C73.6613 24.5748 73.6423 24.5712 73.6234 24.5673C73.6124 24.565 73.533 24.5537 73.5825 24.5596C73.6087 24.5627 73.4889 24.555 73.4642 24.5549C73.4191 24.5547 73.3741 24.5568 73.3291 24.5609C73.3968 24.5548 73.304 24.566 73.2815 24.5709C73.1642 24.5965 73.0944 24.621 73.004 24.673C72.8085 24.7855 72.6561 24.9604 72.5058 25.1275C71.5706 26.1679 70.6427 27.2149 69.7113 28.2585C69.5922 28.3919 69.3675 28.4094 69.2182 28.3221C69.0568 28.2277 68.9934 28.0401 69.0313 27.8627C69.2102 27.0235 69.6252 26.2011 69.674 25.3532C69.6942 25.0015 69.6662 24.6437 69.5167 24.3345C69.37 24.0312 69.1118 23.7652 68.8401 23.604C68.5928 23.4571 68.3706 23.3966 68.0652 23.4376C68.1337 23.4284 68.045 23.4428 68.0289 23.4468C67.9947 23.4553 67.9603 23.4624 67.9262 23.472C67.8849 23.4836 67.8441 23.4969 67.8038 23.5117C67.7259 23.5404 67.7626 23.5279 67.7796 23.5205C67.6213 23.5896 67.4693 23.6882 67.3547 23.7874C67.0804 24.025 66.9097 24.2493 66.7535 24.5753C66.704 24.6786 66.6512 24.8235 66.6088 24.9706C66.5852 25.0528 66.5645 25.1359 66.5467 25.2197C66.5385 25.2581 66.531 25.2966 66.5241 25.3351C66.5208 25.3535 66.5017 25.4711 66.5064 25.4374C66.4055 26.1738 66.5115 26.9592 66.812 27.5775C66.889 27.736 66.8873 27.9425 66.7484 28.0705C66.253 28.5273 65.6301 28.8447 64.9609 28.9435C64.2558 29.0476 63.4474 28.9762 63.0001 28.3494C62.5919 27.7774 62.8714 27.1394 63.236 26.6367C63.3972 26.4144 63.5398 26.1965 63.6441 25.9412C63.7711 25.6302 63.8735 25.3075 63.956 24.9819C64.1221 24.3254 64.0807 23.6014 63.8734 22.9587C63.6486 22.2615 63.5696 21.5436 63.6241 20.8119C63.7213 19.5074 64.1813 17.9216 65.4008 17.235C66.0566 16.8658 66.8431 16.7975 67.5787 16.8844C68.2878 16.9681 69.0429 17.1498 69.4524 17.791C69.2668 17.7424 69.0813 17.6937 68.8958 17.6451C69.5338 17.3076 70.1927 16.9741 70.918 16.8862C71.2716 16.8433 71.6293 16.894 71.9841 16.9021C72.3648 16.9108 72.7456 16.9075 73.1263 16.919C74.6593 16.9654 76.1602 17.3311 77.6 17.8434C80.1502 18.7507 82.9505 20.1015 83.8504 22.8737C84.0877 23.6046 84.1554 24.4141 83.9786 25.1659C83.7922 25.959 83.2727 26.5886 82.5832 27.0048C82.1338 27.2761 81.7243 26.5728 82.1726 26.3023C82.6695 26.0023 83.0344 25.5738 83.1804 25.0052C83.3257 24.4393 83.2778 23.8434 83.1262 23.2914C82.8132 22.1518 82.0371 21.1796 81.104 20.475C80.0754 19.6984 78.8754 19.1779 77.6736 18.7332C76.3741 18.2523 75.02 17.8638 73.6331 17.7586C73.2321 17.7282 72.8299 17.7257 72.428 17.722C72.0321 17.7184 71.6377 17.6885 71.2424 17.6808C70.5531 17.6674 69.8978 18.0349 69.3064 18.3477C69.1063 18.4535 68.8723 18.3936 68.7498 18.2017C68.6541 18.052 68.4677 17.9287 68.2961 17.8646C68.0671 17.7791 67.8159 17.7284 67.5787 17.698C67.0522 17.6307 66.4932 17.6393 65.9997 17.8433C64.9713 18.2683 64.5679 19.5925 64.4573 20.601C64.3907 21.2079 64.3882 21.8617 64.5647 22.451C64.6537 22.7485 64.7588 23.0341 64.8004 23.3435C64.8459 23.6824 64.8772 24.025 64.8634 24.3672C64.838 25.0006 64.6471 25.6269 64.4073 26.2101C64.3005 26.4696 64.1846 26.7064 64.0207 26.9343C63.9481 27.0354 63.8731 27.1348 63.804 27.2383C63.7741 27.2831 63.7452 27.3285 63.7183 27.375C63.7031 27.4012 63.6885 27.4276 63.6746 27.4545C63.6681 27.4673 63.6342 27.5456 63.652 27.4995C63.5733 27.7037 63.5797 27.8544 63.7849 28.0117C63.9833 28.1639 64.3206 28.1829 64.5879 28.1699C65.1665 28.1416 65.7423 27.8924 66.173 27.4952C66.1518 27.6595 66.1306 27.8239 66.1094 27.9882C65.4095 26.5479 65.4594 24.5373 66.6316 23.3507C67.2159 22.7593 68.0835 22.4245 68.8937 22.7333C69.3118 22.8927 69.6709 23.17 69.9497 23.5188C70.2593 23.9061 70.418 24.345 70.4745 24.8348C70.605 25.9655 70.0456 27.0019 69.8159 28.079C69.5892 27.9471 69.3625 27.8151 69.1359 27.6832C69.9696 26.7491 70.8033 25.815 71.637 24.881C72.0086 24.4646 72.363 24.0199 72.9083 23.8307C73.3103 23.6911 73.7658 23.7229 74.1584 23.8773C74.9807 24.2006 75.5904 24.8662 76.2358 25.4431C76.3041 25.5041 76.373 25.5643 76.4435 25.6226C76.4722 25.6464 76.501 25.6698 76.5302 25.6928C76.4704 25.6456 76.5711 25.7222 76.5892 25.735C76.8098 25.8908 77.0439 26.0292 77.2834 26.1537C77.7379 26.3899 78.2214 26.5627 78.7205 26.6775C79.8524 26.938 81.1488 26.8972 82.1726 26.3023C82.6262 26.0387 83.0363 26.7415 82.5832 27.0048Z" fill="#151515"/>
<path d="M104.826 55.3563C105 55.3563 105.248 55.356 105.367 55.34C105.652 55.3014 105.938 55.2085 106.159 55.095C106.654 54.8402 107.021 54.4682 107.27 53.9645C107.51 53.4799 107.575 52.8591 107.443 52.3221C107.325 51.8448 107.078 51.4482 106.728 51.0982C106.482 50.8518 106.236 50.6055 105.989 50.3592C105.619 49.9884 106.194 49.4129 106.565 49.7838C106.806 50.0255 107.048 50.2673 107.29 50.509C107.725 50.9438 108.057 51.4587 108.215 52.0577C108.584 53.4476 107.976 54.9528 106.747 55.6981C106.156 56.0569 105.508 56.17 104.826 56.17C104.303 56.17 104.302 55.3563 104.826 55.3563Z" fill="#151515"/>
<path d="M69.552 34.0533C70.6853 34.8194 71.9019 35.542 73.3126 35.5491C74.3307 35.5543 75.2598 35.1289 75.9994 34.443C76.8136 33.6879 77.3994 32.72 77.8832 31.7294C78.4399 30.5896 78.9011 29.3765 79.1308 28.1259C79.3499 26.933 79.2938 25.686 78.8232 24.5578C78.3049 23.3155 77.3285 22.2548 76.2215 21.5072C75.1289 20.7693 73.8645 20.2948 72.5567 20.1252C71.1929 19.9484 69.6459 20.0136 68.4326 20.7238C67.2996 21.387 66.5831 22.55 66.0192 23.6993C65.4007 24.9597 64.9364 26.3023 64.15 27.4748C63.4334 28.5431 62.4456 29.4814 61.1328 29.6986C59.9599 29.8927 58.7883 29.5873 57.6935 29.1791C56.534 28.7468 55.4229 28.1881 54.2454 27.8035C53.4288 27.5367 52.571 27.3887 51.7399 27.1705C49.7971 26.6604 47.8615 26.1218 45.8789 25.7852C43.7202 25.4187 41.4644 25.2675 39.3041 25.702C38.2203 25.92 37.1691 26.2823 36.2042 26.8249C35.7037 27.1064 35.226 27.4301 34.7855 27.7987C34.5657 27.9826 34.3674 28.2029 34.1354 28.3698C34.101 28.3946 34.0656 28.418 34.0313 28.4429C34.0034 28.463 33.976 28.4836 33.9484 28.5041C33.835 28.5881 34.0196 28.4462 33.9172 28.528C33.72 28.6855 33.529 28.8501 33.3454 29.0235C33.0831 29.2711 32.8348 29.5337 32.601 29.8085C32.5345 29.8866 32.4692 29.9657 32.4051 30.0457C32.3869 30.0685 32.2924 30.1889 32.3312 30.139C32.3748 30.0827 32.3147 30.1605 32.3064 30.1715C32.2875 30.1965 32.2686 30.2216 32.2499 30.2467C32.1123 30.4313 31.981 30.6205 31.8561 30.8139C31.5727 31.253 31.3229 31.7138 31.1102 32.1912C31.0962 32.2226 31.0825 32.2541 31.0687 32.2856C31.059 32.3077 31.0172 32.4081 31.0573 32.3115C31.0304 32.3763 31.0038 32.4413 30.9781 32.5066C30.9235 32.6451 30.8721 32.7848 30.8237 32.9256C30.7241 33.2153 30.6376 33.5095 30.5643 33.8069C30.4878 34.1175 30.4257 34.4317 30.3778 34.7479C30.3716 34.7889 30.3658 34.8299 30.3599 34.8709C30.3509 34.9341 30.3683 34.8053 30.3602 34.869C30.3579 34.8868 30.3555 34.9046 30.3533 34.9225C30.3425 35.0126 30.3321 35.1027 30.3231 35.1931C30.3059 35.3659 30.2928 35.5392 30.2837 35.7127C30.2642 36.0845 30.2629 36.4573 30.2786 36.8293C30.2867 37.022 30.2994 37.2146 30.3164 37.4068C30.3251 37.5056 30.3349 37.6042 30.3459 37.7028C30.3515 37.7528 30.3573 37.8027 30.3635 37.8526C30.3704 37.9089 30.3771 37.9594 30.3773 37.9605C30.6445 39.8957 31.3221 41.7579 32.2025 43.4943C33.4674 45.989 35.134 48.2672 36.9555 50.3818C37.4782 50.9888 38.1215 51.499 38.7168 52.0346C39.2336 52.4997 39.7508 52.9643 40.2681 53.4288C41.0734 54.152 41.8795 54.8744 42.683 55.5997C43.6146 56.4406 44.5647 57.2725 45.4348 58.1784C45.8311 58.5909 46.2253 59.0348 46.4633 59.5608C46.6796 60.0385 46.7964 60.5526 46.9555 61.0504C47.0758 61.4265 47.211 61.7976 47.3574 62.1643C47.4389 62.3684 47.2684 62.6111 47.0733 62.6647C46.8416 62.7284 46.6546 62.5855 46.5728 62.3806C46.3162 61.7378 46.1179 61.0815 45.9165 60.4204C45.8845 60.3157 45.8513 60.2112 45.8139 60.1082C45.7959 60.0586 45.7724 60.0099 45.7565 59.9597C45.8018 60.1031 45.7581 59.9636 45.7283 59.9015C45.6799 59.8009 45.6256 59.7032 45.5662 59.6087C45.5336 59.5567 45.4994 59.5057 45.464 59.4555C45.4292 59.4061 45.2984 59.2486 45.3988 59.3647C44.8035 58.6762 44.1565 58.0498 43.4877 57.4319C41.9947 56.0527 40.4723 54.705 38.9606 53.3466C38.3925 52.8361 37.8248 52.3253 37.2575 51.814C36.9395 51.5275 36.6307 51.2486 36.3513 50.9238C36.0798 50.608 35.8123 50.2889 35.5491 49.9663C34.6009 48.8038 33.7041 47.5971 32.8952 46.3333C31.6618 44.4064 30.6117 42.3251 29.9984 40.1135C29.5567 38.5211 29.3454 36.8426 29.5094 35.193C29.6383 33.8958 29.9829 32.6381 30.5544 31.4655C30.9839 30.5844 31.5436 29.7658 32.1976 29.0361C32.6005 28.5867 33.0428 28.1755 33.5243 27.8116C33.5941 27.7589 33.6742 27.7134 33.7406 27.6567C33.7117 27.6814 33.6816 27.7079 33.7531 27.6297C33.8034 27.5746 33.8646 27.5256 33.9198 27.4757C34.0386 27.3685 34.1598 27.2639 34.2835 27.1624C34.5199 26.9683 34.764 26.7826 35.0156 26.6085C35.498 26.2748 36.0101 25.9848 36.5435 25.741C38.6711 24.7687 41.0387 24.5222 43.3541 24.6701C45.5613 24.8112 47.7323 25.2809 49.8688 25.8333C50.7539 26.0621 51.6346 26.3079 52.521 26.5316C52.8838 26.6232 53.2481 26.7061 53.6138 26.7854C54.2008 26.9126 54.7693 27.1139 55.3271 27.334C56.4977 27.7957 57.6338 28.3621 58.8479 28.7061C59.9067 29.006 61.0482 29.1 62.0278 28.5102C63.1966 27.8065 63.8703 26.461 64.4202 25.2647C65.0018 23.9996 65.5019 22.6815 66.3508 21.5629C66.7717 21.0081 67.2576 20.5126 67.8438 20.1312C68.4579 19.7316 69.1699 19.4857 69.8895 19.363C71.3077 19.1213 72.8028 19.2307 74.1786 19.6468C76.7867 20.4355 79.2418 22.4855 79.8887 25.2179C80.1937 26.5065 80.076 27.8478 79.7409 29.1181C79.4105 30.3704 78.8991 31.6018 78.277 32.7373C77.7295 33.7367 77.0444 34.6886 76.1341 35.3874C75.24 36.0738 74.139 36.433 73.0092 36.3508C71.5613 36.2456 70.32 35.5527 69.1413 34.7559C68.7099 34.4642 69.1166 33.759 69.552 34.0533Z" fill="#151515"/>
<path d="M106.68 54.9035C107.007 54.9035 107.274 54.8967 107.585 54.8058C107.938 54.703 108.273 54.5141 108.542 54.2654C109.133 53.7177 109.434 52.9189 109.352 52.1016C109.311 51.6894 109.157 51.2869 108.927 50.9404C108.791 50.735 108.616 50.5645 108.444 50.3893C108.044 49.9791 107.669 49.5293 107.147 49.2707C106.776 49.0873 106.36 49.0508 105.96 48.9707C105.518 48.8825 105.077 48.7943 104.635 48.706C103.616 48.5024 102.597 48.2987 101.578 48.0951C101.36 48.0514 101.142 48.0025 100.923 47.9622C100.84 47.947 100.758 47.9331 100.675 47.9203C100.626 47.9127 100.578 47.9057 100.529 47.8987C100.467 47.8897 100.434 47.8515 100.545 47.9006C100.519 47.889 100.476 47.8916 100.447 47.888C100.17 47.8537 99.8924 47.8289 99.6141 47.8121C98.8159 47.7641 98.0138 47.7817 97.218 47.8571C97.1043 47.8679 96.9907 47.8798 96.8773 47.893C96.8193 47.8997 96.7613 47.9068 96.7033 47.9141C96.674 47.9179 96.6447 47.9217 96.6154 47.9255C96.7352 47.91 96.5987 47.928 96.5757 47.9312C96.331 47.9659 96.0871 48.006 95.8442 48.0516C95.2959 48.1546 94.7528 48.2852 94.2176 48.4426C93.6275 48.6162 93.0474 48.8225 92.4796 49.0588C92.3619 49.1077 92.5515 49.0277 92.4339 49.0781C92.398 49.0934 92.3622 49.1089 92.3264 49.1244C92.2543 49.1559 92.1824 49.1878 92.1107 49.2202C91.9527 49.2916 91.7958 49.3654 91.64 49.4415C91.33 49.5929 91.0245 49.7536 90.7238 49.9229C89.3837 50.6779 88.1889 51.5734 87.073 52.6202C85.698 53.9099 84.4997 55.3764 83.4592 56.9465C82.516 58.3697 81.4357 59.7127 80.0848 60.7705C78.206 62.2416 75.6959 63.2236 73.3237 62.4286C71.2123 61.7211 69.8516 59.7875 69.5054 57.6354C69.0044 54.5209 70.256 51.3779 71.9327 48.8097C72.5191 47.9114 73.1885 47.0847 73.8604 46.2505C74.4442 45.5258 74.9387 44.7056 75.2888 43.8427C75.6511 42.9495 75.8759 41.9982 75.9093 41.0335C75.9405 40.1319 75.8322 39.1888 75.605 38.3152C75.3991 37.5238 75.0243 36.8306 74.4327 36.2507C74.0581 35.8836 74.6336 35.3084 75.008 35.6753C75.6653 36.3194 76.1177 37.1149 76.3631 38.0001C76.488 38.4509 76.5601 38.9133 76.6201 39.3766C76.6824 39.8577 76.7315 40.3404 76.7274 40.8261C76.7105 42.8318 75.9578 44.7889 74.7716 46.3911C74.4437 46.834 74.079 47.2473 73.7386 47.6803C73.4227 48.0822 73.122 48.4964 72.8353 48.9196C72.3063 49.7005 71.8275 50.5167 71.4219 51.3686C71.0757 52.0954 70.7889 52.8493 70.575 53.6347C70.4783 53.9899 70.3974 54.3494 70.3352 54.7123C70.3208 54.7958 70.3075 54.8795 70.2951 54.9634C70.292 54.9844 70.2793 55.0762 70.2822 55.0544C70.2842 55.0392 70.2721 55.1372 70.2689 55.1649C70.2494 55.3328 70.2342 55.5013 70.2235 55.67C70.203 55.9921 70.1991 56.3153 70.2139 56.6377C70.221 56.7918 70.2323 56.9457 70.2482 57.0991C70.2556 57.1712 70.2639 57.2432 70.2735 57.3151C70.2638 57.2424 70.2747 57.3199 70.2791 57.3488C70.2853 57.3898 70.2918 57.4307 70.2987 57.4716C70.3463 57.7549 70.4105 58.0355 70.4926 58.3109C70.5337 58.4488 70.5792 58.5853 70.6294 58.7201C70.6521 58.7812 70.6763 58.8418 70.7004 58.9024C70.7065 58.9174 70.7128 58.9324 70.719 58.9473C70.7175 58.9439 70.6907 58.882 70.7095 58.9244C70.7248 58.9587 70.7396 58.9931 70.7551 59.0272C70.8636 59.2655 70.9876 59.4967 71.1273 59.7181C71.1954 59.8259 71.2671 59.9314 71.3426 60.0342C71.3605 60.0587 71.3789 60.0828 71.397 60.1071C71.4105 60.1252 71.3571 60.0582 71.4076 60.1201C71.4487 60.1706 71.4896 60.2212 71.532 60.2706C71.693 60.4579 71.8673 60.6338 72.0537 60.7959C72.098 60.8344 72.143 60.8722 72.1887 60.9091C72.2114 60.9275 72.2345 60.9456 72.2575 60.9637C72.1934 60.9133 72.2499 60.9575 72.28 60.9797C72.3779 61.0519 72.4784 61.1205 72.5813 61.1853C72.7921 61.3179 73.0125 61.4302 73.2393 61.5324C73.2606 61.542 73.1742 61.5068 73.2503 61.5368C73.2776 61.5476 73.3048 61.5586 73.3322 61.5692C73.3917 61.5921 73.4517 61.6139 73.5121 61.6346C73.6289 61.6745 73.7473 61.7101 73.8668 61.7413C73.9876 61.7728 74.1096 61.8 74.2324 61.8226C74.292 61.8336 74.3519 61.8423 74.4115 61.8524C74.4912 61.8661 74.3435 61.8454 74.424 61.8544C74.4595 61.8584 74.4949 61.8629 74.5304 61.8667C74.7893 61.8939 75.0501 61.9021 75.3102 61.8928C75.4444 61.888 75.5784 61.8786 75.7119 61.8647C75.7445 61.8613 75.7769 61.8575 75.8094 61.8537C75.8463 61.8494 75.9048 61.8401 75.8318 61.8511C75.9031 61.8404 75.9743 61.8296 76.0453 61.817C76.3277 61.767 76.6066 61.6979 76.8803 61.6125C77.0291 61.5661 77.1763 61.5148 77.3218 61.4591C77.3905 61.4328 77.4589 61.4054 77.5269 61.3772C77.5702 61.3592 77.5219 61.3792 77.5154 61.382C77.5325 61.3746 77.5497 61.3672 77.5668 61.3596C77.607 61.3419 77.6471 61.3241 77.687 61.3058C77.9833 61.1703 78.2714 61.0172 78.5507 60.8496C79.1855 60.4688 79.6975 60.0728 80.2357 59.5779C80.8492 59.0137 81.4116 58.3903 81.9181 57.7286C82.5202 56.9418 83.0343 56.0929 83.6254 55.2978C84.2017 54.5225 84.8155 53.7747 85.4756 53.0691C86.611 51.8553 87.8829 50.7637 89.2741 49.8526C90.4352 49.0922 91.6831 48.4667 92.9872 47.9916C94.0497 47.6045 95.1511 47.3242 96.2699 47.1596C97.1692 47.0272 98.0767 46.9584 98.9859 46.9742C99.6023 46.985 100.217 47.035 100.827 47.1259C101.027 47.1558 101.225 47.1943 101.424 47.2364C102.234 47.4084 103.049 47.5612 103.861 47.7235C104.722 47.8956 105.588 48.0544 106.447 48.2402C106.544 48.2612 106.376 48.2329 106.492 48.2472C106.744 48.2783 106.991 48.3331 107.228 48.4251C107.679 48.5998 108.081 48.8579 108.422 49.2019C108.728 49.5106 109.048 49.8139 109.334 50.1418C109.986 50.8904 110.277 51.8802 110.141 52.8626C110.015 53.7658 109.521 54.5668 108.79 55.1067C108.168 55.5665 107.438 55.7172 106.68 55.7172C106.156 55.7172 106.155 54.9035 106.68 54.9035Z" fill="#151515"/>
<path d="M54.208 67.992C53.6262 66.7491 53.0444 65.5062 52.4626 64.2633C52.3814 64.0898 52.3002 63.9163 52.219 63.7429C52.1259 63.544 52.1633 63.3042 52.365 63.1862C52.5414 63.0831 52.8281 63.1323 52.9216 63.3322C53.5034 64.5751 54.0852 65.818 54.667 67.061C54.7482 67.2344 54.8294 67.4079 54.9106 67.5814C55.0037 67.7803 54.9663 68.02 54.7646 68.138C54.5883 68.2411 54.3016 68.1919 54.208 67.992Z" fill="#151515"/>
<path d="M28.5173 97.7154C28.3619 97.6382 28.1415 97.6193 27.9506 97.668C27.8075 97.7045 27.7757 97.7224 27.6535 97.798C27.6018 97.83 27.4862 97.9395 27.4495 97.9962C27.3335 98.1751 27.2941 98.3973 27.322 98.5709C27.3326 98.6364 27.3497 98.7009 27.37 98.764C27.3842 98.8082 27.3898 98.8241 27.4255 98.8891C27.4793 98.987 27.5491 99.0784 27.6077 99.1236H27.197C27.3341 99.03 27.4209 98.9035 27.4915 98.7555V99.1662C27.4639 99.1271 27.4628 99.1235 27.4883 99.1556C27.4726 99.1362 27.4561 99.1175 27.439 99.0995C27.4136 99.0729 27.3866 99.0476 27.3583 99.0242C27.4205 99.0755 27.3372 99.0127 27.3219 99.0035C27.3074 98.9947 27.1752 98.9323 27.2558 98.9643C27.1867 98.9369 27.1154 98.9205 27.0432 98.9041C26.9952 98.8962 26.9942 98.8958 27.0402 98.9029C27.0214 98.9009 27.0026 98.8995 26.9838 98.8986C26.9394 98.8981 26.8953 98.8955 26.8508 98.8971C26.5967 98.9062 26.3116 99.0182 26.1153 99.225C26.1042 99.2367 26.0261 99.3357 26.0684 99.2765C26.0437 99.311 26.0214 99.3471 26.0003 99.3839C25.9436 99.4828 25.9206 99.5402 25.89 99.6476C25.8371 99.8333 25.8263 100.006 25.8435 100.219C25.8752 100.61 26.0684 101.023 26.3176 101.358C26.4488 101.534 26.3465 101.812 26.1717 101.914C25.9643 102.036 25.7466 101.945 25.615 101.768C25.0199 100.968 24.7514 99.7137 25.3772 98.8502C25.888 98.1456 26.9602 97.8332 27.7326 98.3009C27.9473 98.4308 28.2496 98.6886 28.2496 98.9609C28.2496 99.3081 27.868 99.6485 27.6077 99.8261C27.501 99.8989 27.3026 99.9076 27.197 99.8261C26.8657 99.5704 26.6205 99.2272 26.5412 98.809C26.4626 98.3942 26.5119 97.945 26.7469 97.5855C27.2146 96.8701 28.1718 96.6371 28.928 97.0128C29.1247 97.1105 29.1795 97.389 29.0739 97.5694C28.9567 97.7698 28.7147 97.8135 28.5173 97.7154Z" fill="#151515"/>
<path d="M76.2332 30.0111C76.2109 30.0519 76.1902 30.1013 76.185 30.135C76.1786 30.1776 76.1857 30.1706 76.1849 30.1522C76.1847 30.1498 76.1976 30.1956 76.1898 30.1765C76.1924 30.1829 76.2178 30.2307 76.2325 30.2507C76.2229 30.2376 76.2622 30.2827 76.2696 30.2901C76.2913 30.3118 76.3142 30.333 76.3386 30.3515C76.3697 30.3751 76.4477 30.4201 76.4983 30.4465C76.7326 30.5687 77.0198 30.6423 77.2718 30.7691C77.5503 30.9093 77.8259 31.1614 77.8003 31.5021C77.7715 31.8863 77.4172 32.0406 77.0889 32.1275C76.726 32.2236 76.3471 32.2249 75.9816 32.1436C75.8386 32.1117 75.7547 31.9461 75.7922 31.8099C75.8327 31.6626 75.9823 31.5886 76.1258 31.6205C76.4588 31.6946 76.807 31.6687 77.1301 31.5456C77.1618 31.5335 77.1793 31.5273 77.2142 31.5082C77.225 31.5023 77.2845 31.4542 77.2531 31.4892C77.274 31.466 77.271 31.4582 77.2593 31.4874C77.2648 31.4736 77.2561 31.4382 77.2603 31.4501C77.2176 31.3293 77.0489 31.2591 76.9253 31.2029C76.6477 31.0765 76.2998 30.9927 76.0353 30.7972C75.8782 30.6811 75.7464 30.5398 75.6794 30.3534C75.6032 30.1415 75.6606 29.9277 75.7648 29.7373C75.8351 29.6089 76.012 29.5675 76.1359 29.64C76.2655 29.7158 76.3038 29.8821 76.2332 30.0111Z" fill="#151515"/>
<path d="M75.2698 28.5463C75.2337 28.5055 75.1953 28.467 75.1537 28.4318C75.145 28.4244 75.1331 28.4175 75.1257 28.4088C75.1351 28.4199 75.1665 28.4386 75.1373 28.4185C75.1149 28.403 75.0926 28.3876 75.0695 28.3733C75.0229 28.3446 74.9745 28.3207 74.9251 28.2974C74.8924 28.282 74.974 28.3154 74.9396 28.3039C74.9253 28.2991 74.9113 28.2932 74.897 28.2882C74.8713 28.2793 74.8453 28.2713 74.819 28.2641C74.7956 28.2577 74.7721 28.252 74.7484 28.247C74.7336 28.2439 74.7186 28.2415 74.7038 28.2384C74.6594 28.2292 74.721 28.2434 74.7221 28.2401C74.7223 28.2395 74.5714 28.2305 74.5593 28.2306C74.5321 28.2309 74.505 28.2322 74.4779 28.2344C74.4659 28.2353 74.4539 28.2369 74.4418 28.2379C74.4051 28.2408 74.4962 28.228 74.4601 28.2356C74.4036 28.2476 74.3482 28.2587 74.293 28.2765C74.1579 28.32 73.9909 28.2257 73.9593 28.0871C73.9255 27.9386 74.0041 27.8 74.1488 27.7534C74.6709 27.5852 75.2892 27.7515 75.6534 28.1627C75.7474 28.2689 75.7658 28.4431 75.6534 28.5463C75.5505 28.6407 75.3703 28.6597 75.2698 28.5463Z" fill="#151515"/>
<path d="M78.1198 28.7447C78.0757 28.7183 78.0215 28.6787 77.9711 28.6666C78.0385 28.6828 77.9529 28.6599 77.9385 28.6548C77.9187 28.6477 77.8988 28.641 77.8787 28.6348C77.8252 28.6183 77.7707 28.605 77.7156 28.5948C77.7018 28.5923 77.688 28.59 77.6741 28.5878C77.7116 28.5925 77.7148 28.593 77.6837 28.5893C77.6593 28.5871 77.6349 28.5846 77.6104 28.5831C77.5579 28.58 77.5053 28.5797 77.4528 28.5823C77.4248 28.5837 77.397 28.5866 77.369 28.5889C77.3121 28.5937 77.42 28.5798 77.3476 28.5926C77.2959 28.6017 77.2447 28.6136 77.1943 28.6285C77.1675 28.6365 77.1409 28.6453 77.1146 28.6548C77.1014 28.6596 77.0883 28.6647 77.0753 28.6699C77.1077 28.6559 77.11 28.6551 77.0822 28.6674C76.953 28.7252 76.7845 28.7091 76.7111 28.5701C76.6485 28.4518 76.6701 28.2609 76.8084 28.199C77.3179 27.9708 77.9098 27.987 78.3936 28.2763C78.5154 28.349 78.5708 28.5234 78.4909 28.6473C78.412 28.7698 78.2501 28.8226 78.1198 28.7447Z" fill="#151515"/>
<path d="M75.0396 29.6599C75.0254 29.6952 75.0125 29.7338 74.99 29.7653C74.9682 29.7957 74.9451 29.8293 74.9157 29.8538C74.8572 29.9026 74.7942 29.9454 74.7177 29.9613C74.6883 29.9674 74.6577 29.9711 74.6279 29.9737C74.62 29.9744 74.6122 29.9747 74.6043 29.9743C74.5676 29.9724 74.5277 29.9692 74.4923 29.9568C74.4645 29.9471 74.4362 29.9356 74.4101 29.922C74.4034 29.9185 74.3974 29.9144 74.3913 29.91C74.3729 29.897 74.3412 29.8747 74.3215 29.8544C74.3004 29.8326 74.2822 29.807 74.2649 29.7822C74.2603 29.7756 74.2562 29.7687 74.2527 29.7616C74.2386 29.733 74.2255 29.7031 74.2156 29.6728C74.2056 29.6422 74.203 29.6027 74.1998 29.5743C74.1986 29.5639 74.198 29.5536 74.1987 29.5431C74.2007 29.5099 74.2049 29.4765 74.2123 29.444C74.2195 29.4124 74.2365 29.3788 74.2485 29.3512C74.2525 29.3422 74.2567 29.3334 74.2619 29.325C74.2792 29.2972 74.3003 29.2709 74.3219 29.2465C74.3501 29.2147 74.3861 29.1878 74.4234 29.1675C74.4518 29.152 74.4829 29.1401 74.513 29.1287C74.5223 29.1252 74.5318 29.1224 74.5416 29.1204C74.573 29.1141 74.6058 29.1094 74.6379 29.1076C74.6476 29.1071 74.6572 29.1076 74.6668 29.1086C74.6979 29.112 74.7307 29.1142 74.7611 29.1228C74.7907 29.1312 74.8192 29.1449 74.8468 29.1578C74.8835 29.175 74.9173 29.2018 74.9451 29.2309C74.9486 29.2345 74.9517 29.2384 74.9549 29.2423C74.9713 29.2627 74.9887 29.2833 75.0031 29.3053C75.0204 29.3318 75.0309 29.3636 75.0423 29.3926C75.0459 29.4019 75.0489 29.4113 75.0507 29.4211C75.0566 29.4535 75.0628 29.4876 75.0627 29.5208C75.0626 29.5547 75.0563 29.5894 75.0503 29.6224C75.048 29.6353 75.0442 29.6477 75.0396 29.6599C75.0312 29.6952 75.0151 29.7259 74.9911 29.7521C74.972 29.7816 74.9466 29.8049 74.915 29.822C74.8839 29.8418 74.8502 29.8525 74.8141 29.8542C74.7781 29.8622 74.7421 29.8606 74.706 29.8493C74.6404 29.8281 74.577 29.7874 74.5439 29.7247L74.5166 29.6599C74.5036 29.6118 74.5036 29.5637 74.5166 29.5157C74.5222 29.5009 74.5263 29.4858 74.5285 29.4702L74.5188 29.5423C74.5205 29.5282 74.5207 29.5144 74.519 29.5004L74.5287 29.5725C74.5268 29.5596 74.5235 29.5472 74.5185 29.5352L74.5459 29.6C74.5413 29.5896 74.5357 29.58 74.5289 29.5709L74.5713 29.6258C74.5637 29.6161 74.5551 29.6076 74.5454 29.6001L74.6003 29.6425C74.5903 29.6351 74.5797 29.629 74.5683 29.6242L74.6331 29.6515C74.6212 29.6467 74.6091 29.6435 74.5964 29.6416L74.6685 29.6513C74.654 29.6494 74.6395 29.6495 74.6249 29.6513L74.697 29.6416C74.6813 29.6439 74.6662 29.6481 74.6515 29.654L74.7162 29.6267C74.7005 29.6335 74.6856 29.6418 74.672 29.6523L74.7268 29.6098C74.7159 29.6187 74.7062 29.6287 74.6975 29.6398L74.7399 29.5849C74.7306 29.5974 74.723 29.6107 74.7169 29.625L74.7442 29.5602C74.7385 29.5746 74.7345 29.5893 74.7324 29.6047L74.742 29.5326C74.7405 29.5466 74.7405 29.5604 74.7422 29.5743L74.7325 29.5022C74.7347 29.5169 74.7389 29.5307 74.7446 29.5444L74.7173 29.4796C74.7229 29.4922 74.7297 29.504 74.7381 29.515L74.6957 29.4601C74.7029 29.469 74.7109 29.477 74.7199 29.4841L74.665 29.4417C74.6738 29.4482 74.6831 29.4536 74.6931 29.4579L74.6283 29.4306C74.64 29.4355 74.6521 29.4387 74.6647 29.4404L74.5926 29.4308C74.6064 29.4324 74.62 29.4323 74.6338 29.4305L74.5617 29.4402C74.5767 29.4381 74.5912 29.4341 74.6053 29.4284L74.5405 29.4557C74.5559 29.4492 74.5701 29.4409 74.5834 29.4308L74.5285 29.4732C74.5411 29.4632 74.5522 29.4519 74.5621 29.4392L74.5196 29.4941C74.5289 29.4817 74.5366 29.4684 74.5426 29.454L74.5153 29.5188L74.5166 29.5157C74.525 29.4804 74.5411 29.4496 74.5651 29.4234C74.5842 29.3939 74.6096 29.3706 74.6412 29.3536C74.6723 29.3338 74.7059 29.323 74.742 29.3214C74.7781 29.3133 74.8141 29.3149 74.8502 29.3263C74.9158 29.3475 74.9791 29.3882 75.0123 29.4509L75.0396 29.5157C75.0525 29.5638 75.0525 29.6118 75.0396 29.6599Z" fill="#151515"/>
<path d="M77.7415 29.9704C77.7274 30.0058 77.7144 30.0444 77.6919 30.0759C77.6701 30.1063 77.647 30.1399 77.6177 30.1643C77.5591 30.2132 77.4961 30.2559 77.4196 30.2718C77.3902 30.2779 77.3596 30.2816 77.3298 30.2842C77.3219 30.2849 77.3141 30.2852 77.3062 30.2848C77.2695 30.2829 77.2296 30.2798 77.1942 30.2674C77.1664 30.2577 77.1381 30.2461 77.112 30.2325C77.1053 30.2291 77.0993 30.2249 77.0932 30.2206C77.0748 30.2075 77.0431 30.1853 77.0234 30.1649C77.0023 30.1431 76.9841 30.1175 76.9668 30.0927C76.9622 30.0862 76.9581 30.0793 76.9546 30.0721C76.9405 30.0436 76.9274 30.0136 76.9175 29.9833C76.9075 29.9528 76.9049 29.9133 76.9017 29.8849C76.9005 29.8744 76.8999 29.8641 76.9006 29.8536C76.9027 29.8205 76.9068 29.787 76.9142 29.7546C76.9214 29.723 76.9384 29.6894 76.9504 29.6618C76.9544 29.6527 76.9586 29.6439 76.9639 29.6356C76.9811 29.6078 77.0022 29.5815 77.0238 29.557C77.052 29.5252 77.088 29.4983 77.1253 29.478C77.1537 29.4626 77.1848 29.4507 77.2149 29.4393C77.2242 29.4358 77.2337 29.4329 77.2435 29.431C77.2749 29.4246 77.3077 29.4199 77.3398 29.4182C77.3495 29.4177 77.3591 29.4181 77.3687 29.4192C77.3998 29.4226 77.4326 29.4248 77.463 29.4334C77.4926 29.4417 77.5212 29.4555 77.5487 29.4684C77.5854 29.4856 77.6192 29.5123 77.647 29.5414C77.6505 29.5451 77.6536 29.5489 77.6568 29.5528C77.6732 29.5733 77.6906 29.5939 77.705 29.6159C77.7223 29.6424 77.7328 29.6741 77.7442 29.7031C77.7478 29.7124 77.7508 29.7218 77.7526 29.7317C77.7585 29.764 77.7648 29.7982 77.7646 29.8314C77.7645 29.8652 77.7582 29.8999 77.7522 29.933C77.7499 29.9458 77.7461 29.9582 77.7415 29.9704C77.7331 30.0057 77.717 30.0365 77.693 30.0627C77.6739 30.0922 77.6485 30.1155 77.6169 30.1325C77.5858 30.1523 77.5521 30.1631 77.5161 30.1647C77.48 30.1728 77.444 30.1712 77.4079 30.1598C77.3423 30.1386 77.2789 30.0979 77.2458 30.0352L77.2185 29.9704C77.2055 29.9223 77.2055 29.8743 77.2185 29.8262C77.2241 29.8114 77.2282 29.7964 77.2304 29.7807L77.2207 29.8528C77.2224 29.8388 77.2226 29.8249 77.2209 29.8109L77.2306 29.883C77.2287 29.8701 77.2254 29.8578 77.2204 29.8457L77.2478 29.9105C77.2432 29.9002 77.2376 29.8906 77.2308 29.8815L77.2732 29.9364C77.2656 29.9267 77.257 29.9182 77.2473 29.9106L77.3022 29.953C77.2922 29.9456 77.2816 29.9396 77.2702 29.9347L77.335 29.962C77.3231 29.9573 77.311 29.9541 77.2983 29.9522L77.3704 29.9618C77.3559 29.96 77.3414 29.96 77.3268 29.9618L77.3989 29.9521C77.3832 29.9544 77.3681 29.9586 77.3534 29.9646L77.4181 29.9373C77.4024 29.944 77.3875 29.9523 77.3739 29.9628L77.4288 29.9204C77.4178 29.9293 77.4081 29.9392 77.3994 29.9503L77.4418 29.8954C77.4325 29.9079 77.4249 29.9212 77.4188 29.9355L77.4461 29.8708C77.4404 29.8852 77.4364 29.8999 77.4343 29.9153L77.444 29.8432C77.4424 29.8571 77.4424 29.8709 77.4441 29.8848L77.4344 29.8127C77.4366 29.8274 77.4408 29.8413 77.4465 29.8549L77.4192 29.7901C77.4248 29.8028 77.4316 29.8145 77.44 29.8255L77.3976 29.7706C77.4048 29.7796 77.4128 29.7875 77.4218 29.7946L77.3669 29.7522C77.3757 29.7587 77.385 29.7641 77.395 29.7685L77.3302 29.7412C77.342 29.746 77.3541 29.7492 77.3666 29.751L77.2945 29.7413C77.3083 29.7429 77.3219 29.7428 77.3357 29.7411L77.2636 29.7508C77.2786 29.7486 77.2931 29.7446 77.3072 29.7389L77.2424 29.7662C77.2578 29.7597 77.272 29.7514 77.2853 29.7413L77.2304 29.7837C77.243 29.7738 77.2541 29.7625 77.264 29.7498L77.2216 29.8047C77.2308 29.7922 77.2385 29.7789 77.2445 29.7646L77.2172 29.8294L77.2185 29.8262C77.2269 29.7909 77.243 29.7602 77.267 29.734C77.2861 29.7045 77.3115 29.6812 77.3431 29.6641C77.3742 29.6443 77.4078 29.6336 77.4439 29.6319C77.48 29.6239 77.516 29.6255 77.5521 29.6368C77.6177 29.658 77.681 29.6987 77.7142 29.7614L77.7415 29.8262C77.7544 29.8743 77.7544 29.9224 77.7415 29.9704Z" fill="#151515"/>
<path d="M60.1375 102.403C59.6771 102.336 59.187 102.715 59.1178 103.17C59.0477 103.63 59.4304 104.139 59.894 104.197L59.7023 104.276C59.9326 104.059 59.9983 103.713 59.8435 103.433L60.1498 103.557C59.4267 103.747 58.813 104.306 58.5545 105.01C58.2836 105.747 58.4315 106.556 58.9089 107.175C59.1715 107.516 59.5284 107.789 59.934 107.934C60.2601 108.051 60.1195 108.576 59.7898 108.457C58.8919 108.135 58.1946 107.366 57.9576 106.44C57.7194 105.51 58.013 104.534 58.6632 103.839C59.0246 103.452 59.4938 103.169 60.0056 103.034C60.1195 103.005 60.2537 103.053 60.3119 103.159C60.5196 103.536 60.5198 103.996 60.3113 104.373C60.2608 104.465 60.194 104.555 60.1192 104.629C60.0078 104.738 59.9012 104.746 59.7539 104.72C59.5529 104.685 59.3591 104.595 59.196 104.473C58.4954 103.95 58.353 102.946 58.9852 102.308C59.3289 101.962 59.802 101.81 60.2817 101.88C60.4268 101.901 60.5065 102.085 60.4711 102.214C60.4284 102.369 60.283 102.425 60.1375 102.403Z" fill="#151515"/>
<path d="M74.4766 32.8628C74.2617 32.7755 74.068 32.657 73.9022 32.4929C73.8218 32.4133 73.7501 32.3232 73.6866 32.2297C73.6208 32.1329 73.5729 32.0293 73.5279 31.9215C73.5027 31.8613 73.5239 31.766 73.5552 31.7125C73.5881 31.6563 73.6527 31.6026 73.7173 31.5879C73.7867 31.5721 73.8647 31.5755 73.9263 31.6152L73.9812 31.6577C74.0148 31.6915 74.0381 31.7314 74.051 31.7773L74.0554 31.788L74.0281 31.7232C74.0736 31.8297 74.1322 31.9293 74.2023 32.0214L74.1599 31.9665C74.2332 32.0611 74.3174 32.1459 74.4115 32.2198L74.3566 32.1774C74.4513 32.2505 74.5541 32.3113 74.6642 32.3583L74.5994 32.331C74.6065 32.3339 74.6136 32.3369 74.6208 32.3397C74.6889 32.3674 74.7443 32.3984 74.7829 32.4644C74.8169 32.5225 74.8313 32.6082 74.8102 32.6734C74.789 32.739 74.7483 32.8023 74.6856 32.8355C74.6254 32.8673 74.5426 32.8896 74.4766 32.8628Z" fill="#151515"/>
<path d="M114.028 11.4612C113.367 12.1252 112.625 12.7112 111.828 13.2027C111.647 13.3146 111.372 13.2479 111.271 13.0568C111.166 12.858 111.224 12.6195 111.417 12.5002C111.607 12.3834 111.793 12.2617 111.975 12.1343C112.064 12.0724 112.152 12.0093 112.239 11.9449C112.285 11.9108 112.33 11.8761 112.376 11.8416C112.428 11.8022 112.333 11.8758 112.384 11.8352C112.409 11.8154 112.434 11.7959 112.459 11.7762C112.807 11.4991 113.139 11.2013 113.453 10.8859C113.603 10.7348 113.88 10.7242 114.028 10.8859C114.177 11.0486 114.188 11.3 114.028 11.4612Z" fill="#E742F4"/>
<path d="M113.69 21.8464C113.386 21.6441 113.083 21.4417 112.779 21.2394C112.691 21.1805 112.621 21.1009 112.592 20.9963C112.565 20.8989 112.578 20.7692 112.633 20.6828C112.689 20.5959 112.773 20.5194 112.876 20.4958C112.98 20.4723 113.099 20.4761 113.19 20.5368C113.493 20.7391 113.797 20.9415 114.1 21.1438C114.189 21.2027 114.259 21.2823 114.287 21.3869C114.314 21.4843 114.302 21.614 114.246 21.7004C114.19 21.7873 114.107 21.8638 114.003 21.8874C113.9 21.9109 113.781 21.907 113.69 21.8464Z" fill="#E742F4"/>
<path d="M110.301 3.49063C109.947 4.19875 109.593 4.90688 109.239 5.61501C109.144 5.80578 108.859 5.87466 108.682 5.76097C108.487 5.63519 108.434 5.40838 108.536 5.20434C108.89 4.49621 109.245 3.78808 109.599 3.07995C109.694 2.88918 109.979 2.8203 110.155 2.934C110.35 3.05978 110.403 3.28658 110.301 3.49063Z" fill="#E742F4"/>
<path d="M110.903 81.1272C110.963 84.2341 111.024 87.3409 111.084 90.4477C111.144 93.5327 111.204 96.6176 111.264 99.7026C111.298 101.453 111.332 103.203 111.366 104.954C111.377 105.477 110.563 105.477 110.553 104.954C110.492 101.847 110.432 98.7399 110.371 95.6331C110.311 92.5481 110.251 89.4632 110.191 86.3782C110.157 84.6279 110.123 82.8775 110.089 81.1272C110.079 80.6034 110.893 80.6034 110.903 81.1272Z" fill="#E742F4"/>
<path d="M113.68 99.686C113.731 100.04 113.781 100.394 113.832 100.748C113.848 100.861 113.851 100.959 113.791 101.062C113.742 101.146 113.645 101.227 113.548 101.249C113.444 101.272 113.327 101.267 113.234 101.208C113.152 101.154 113.062 101.066 113.047 100.965C112.997 100.61 112.946 100.256 112.896 99.9023C112.88 99.7894 112.877 99.6916 112.937 99.5889C112.986 99.5045 113.083 99.424 113.18 99.4019C113.284 99.3782 113.401 99.3833 113.493 99.4429C113.576 99.4961 113.666 99.5841 113.68 99.686Z" fill="#E742F4"/>
</svg>
