<svg width="28" height="28" viewBox="0 0 28 28" fill="none" xmlns="http://www.w3.org/2000/svg">
<g clip-path="url(#clip0_1702_43859)">
<path d="M27 7.04004V19.04L11.91 23.1C11.97 22.92 12 22.72 12 22.52C12 21.42 11.1 20.52 10 20.52C8.9 20.52 8 21.42 8 22.52C8 23.1 8.25 23.62 8.65 23.98L1 26.04V14.04L27 7.04004Z" stroke="#75007E" stroke-width="2" stroke-linecap="round" stroke-linejoin="round"/>
<path d="M8.22998 17.5195C8.50612 17.5195 8.72998 17.2957 8.72998 17.0195C8.72998 16.7434 8.50612 16.5195 8.22998 16.5195C7.95384 16.5195 7.72998 16.7434 7.72998 17.0195C7.72998 17.2957 7.95384 17.5195 8.22998 17.5195Z" stroke="#75007E" stroke-width="2" stroke-linecap="round" stroke-linejoin="round"/>
<path d="M10 11.0195C10.2761 11.0195 10.5 10.7957 10.5 10.5195C10.5 10.2434 10.2761 10.0195 10 10.0195C9.72386 10.0195 9.5 10.2434 9.5 10.5195C9.5 10.7957 9.72386 11.0195 10 11.0195Z" stroke="#75007E" stroke-width="2" stroke-linecap="round" stroke-linejoin="round"/>
<path d="M23 13.0195C23.2761 13.0195 23.5 12.7957 23.5 12.5195C23.5 12.2434 23.2761 12.0195 23 12.0195C22.7239 12.0195 22.5 12.2434 22.5 12.5195C22.5 12.7957 22.7239 13.0195 23 13.0195Z" stroke="#75007E" stroke-width="2" stroke-linecap="round" stroke-linejoin="round"/>
<path d="M18 17.7695C18.9665 17.7695 19.75 16.986 19.75 16.0195C19.75 15.053 18.9665 14.2695 18 14.2695C17.0335 14.2695 16.25 15.053 16.25 16.0195C16.25 16.986 17.0335 17.7695 18 17.7695Z" stroke="#75007E" stroke-width="2" stroke-linecap="round" stroke-linejoin="round"/>
<path d="M11.91 23.0995C11.97 22.9195 12 22.7195 12 22.5195C12 21.4195 11.1 20.5195 10 20.5195C8.9 20.5195 8 21.4195 8 22.5195C8 23.0995 8.25 23.6195 8.65 23.9795" stroke="#75007E" stroke-width="2" stroke-linecap="round" stroke-linejoin="round"/>
<path d="M16 7.26953C16.9665 7.26953 17.75 6.48603 17.75 5.51953C17.75 4.55303 16.9665 3.76953 16 3.76953C15.0335 3.76953 14.25 4.55303 14.25 5.51953C14.25 6.48603 15.0335 7.26953 16 7.26953Z" stroke="#75007E" stroke-width="2" stroke-linecap="round" stroke-linejoin="round"/>
<path d="M1 14.0398L7.87 7.1698C8.19 7.3898 8.58 7.5198 9 7.5198C10.1 7.5198 11 6.6198 11 5.5198C11 5.0998 10.87 4.7098 10.65 4.3898L14 1.0398C14 1.0398 18.47 0.629801 21.69 2.3498C24.96 4.1098 27 7.0398 27 7.0398" stroke="#75007E" stroke-width="2" stroke-linecap="round" stroke-linejoin="round"/>
</g>
<defs>
<clipPath id="clip0_1702_43859">
<rect width="28" height="27.04" fill="white"/>
</clipPath>
</defs>
</svg>
