<svg width="30" height="21" viewBox="0 0 30 21" fill="none" xmlns="http://www.w3.org/2000/svg">
<g clip-path="url(#clip0_1702_43896)">
<path d="M1.14999 13.52C2.19999 15.25 4.99999 16.67 8.69999 17.42V20H20.7V17.42C24.39 16.67 27.19 15.25 28.25 13.52C28.66 12.85 28.17 12 27.39 12H2.00999C1.22999 12 0.739994 12.85 1.14999 13.52Z" stroke="#75007E" stroke-width="2" stroke-linecap="round" stroke-linejoin="round"/>
<path d="M22.0699 12C23.0899 10.87 23.6899 9.49 23.6899 8C23.6899 4.13 19.6599 1 14.6899 1C9.71994 1 5.68994 4.13 5.68994 8C5.68994 9.49 6.28994 10.87 7.30994 12" stroke="#75007E" stroke-width="2" stroke-linecap="round" stroke-linejoin="round"/>
<path d="M19.03 7.14024C19.03 7.14024 18.27 4.26024 15.03 5.55024" stroke="#75007E" stroke-width="2" stroke-linecap="round" stroke-linejoin="round"/>
</g>
<defs>
<clipPath id="clip0_1702_43896">
<rect width="29.38" height="21" fill="white"/>
</clipPath>
</defs>
</svg>
