<svg width="26" height="31" viewBox="0 0 26 31" fill="none" xmlns="http://www.w3.org/2000/svg">
<g clip-path="url(#clip0_1702_43743)">
<path d="M13.5 29C19.5751 29 24.5 24.0751 24.5 18C24.5 11.9249 19.5751 7 13.5 7C7.42487 7 2.5 11.9249 2.5 18C2.5 24.0751 7.42487 29 13.5 29Z" stroke="#75007E" stroke-width="2" stroke-linecap="round" stroke-linejoin="round"/>
<path d="M13.5 29C16.8137 29 19.5 24.0751 19.5 18C19.5 11.9249 16.8137 7 13.5 7C10.1863 7 7.5 11.9249 7.5 18C7.5 24.0751 10.1863 29 13.5 29Z" stroke="#75007E" stroke-width="2" stroke-linecap="round" stroke-linejoin="round"/>
<path d="M3.69995 13H6.50995H8.15995H13.5H18.84H20.49H23.2999" stroke="#75007E" stroke-width="2" stroke-linecap="round" stroke-linejoin="round"/>
<path d="M2.5 18H6.5H7.5H13.5H19.5H20.5H24.5" stroke="#75007E" stroke-width="2" stroke-linecap="round" stroke-linejoin="round"/>
<path d="M3.69995 23H6.50995H8.15995H13.5H18.84H20.49H23.2999" stroke="#75007E" stroke-width="2" stroke-linecap="round" stroke-linejoin="round"/>
<path d="M13.5 7V12.17V13V18V23V23.83V29" stroke="#75007E" stroke-width="2" stroke-linecap="round" stroke-linejoin="round"/>
<path d="M13 4H14C14.55 4 15 4.45 15 5V7H12V5C12 4.45 12.45 4 13 4Z" stroke="#75007E" stroke-width="2" stroke-linecap="round" stroke-linejoin="round"/>
<path d="M13.5 1V4" stroke="#75007E" stroke-width="2" stroke-linecap="round" stroke-linejoin="round"/>
<path d="M3.69995 7.5C3.97609 7.5 4.19995 7.27614 4.19995 7C4.19995 6.72386 3.97609 6.5 3.69995 6.5C3.42381 6.5 3.19995 6.72386 3.19995 7C3.19995 7.27614 3.42381 7.5 3.69995 7.5Z" stroke="#75007E" stroke-width="2" stroke-linecap="round" stroke-linejoin="round"/>
<path d="M24.5 28.5C24.7761 28.5 25 28.2761 25 28C25 27.7239 24.7761 27.5 24.5 27.5C24.2239 27.5 24 27.7239 24 28C24 28.2761 24.2239 28.5 24.5 28.5Z" stroke="#75007E" stroke-width="2" stroke-linecap="round" stroke-linejoin="round"/>
<path d="M23.5 5.5V8.5" stroke="#75007E" stroke-width="2" stroke-linecap="round" stroke-linejoin="round"/>
<path d="M22 7H25" stroke="#75007E" stroke-width="2" stroke-linecap="round" stroke-linejoin="round"/>
<path d="M2.5 26.5V29.5" stroke="#75007E" stroke-width="2" stroke-linecap="round" stroke-linejoin="round"/>
<path d="M1 28H4" stroke="#75007E" stroke-width="2" stroke-linecap="round" stroke-linejoin="round"/>
</g>
<defs>
<clipPath id="clip0_1702_43743">
<rect width="26" height="30.5" fill="white"/>
</clipPath>
</defs>
</svg>
