<svg width="30" height="30" viewBox="0 0 30 30" fill="none" xmlns="http://www.w3.org/2000/svg">
<g clip-path="url(#clip0_1702_43774)">
<path d="M29 18.9199C29 24.4399 24.52 28.9199 19 28.9199H11C5.48 28.9199 1 24.4399 1 18.9199C1 17.8199 1.9 16.9199 3 16.9199H27C28.1 16.9199 29 17.8199 29 18.9199Z" stroke="#75007E" stroke-width="2" stroke-linecap="round" stroke-linejoin="round"/>
<path d="M14.73 3.46C15.28 4.42 14.95 5.64 14 6.19C13.05 6.74 11.82 6.41 11.27 5.46C10.24 3.68 11 1 11 1C11 1 13.72 1.71 14.73 3.46Z" stroke="#75007E" stroke-width="2" stroke-linecap="round" stroke-linejoin="round"/>
<path d="M15.27 3.46C14.72 4.42 15.05 5.64 16 6.19C16.95 6.74 18.18 6.41 18.73 5.46C19.76 3.68 19 1 19 1C19 1 16.28 1.71 15.27 3.46Z" stroke="#75007E" stroke-width="2" stroke-linecap="round" stroke-linejoin="round"/>
<path d="M26.95 16.9204C26.77 15.8404 26 14.9704 24.99 14.6204C25 14.5604 25 14.5004 25 14.4404C25 12.7004 24.1 11.1604 22.75 10.2704C22.02 9.78043 21.14 9.49043 20.2 9.45043C19.93 8.99043 19.61 8.57043 19.23 8.19043C18.15 7.11043 16.65 6.44043 15 6.44043C12.38 6.44043 10.15 8.12043 9.34 10.4604C9.23 10.4404 9.12 10.4404 9 10.4404C5.69 10.4404 3 13.1304 3 16.4404C3 16.6004 3.01 16.7604 3.02 16.9204" stroke="#75007E" stroke-width="2" stroke-linecap="round" stroke-linejoin="round"/>
<path d="M5.68994 16.9204C5.82994 16.1604 6.12994 15.4404 6.66994 14.9004C8.33994 13.2304 9.40994 14.0504 11.1699 13.2504C12.6799 12.5604 12.5399 11.3204 13.0799 10.5004C13.3699 10.0304 13.8799 9.70043 14.9999 9.66043C16.6999 9.60043 18.1399 8.96043 19.2299 8.19043" stroke="#75007E" stroke-width="2" stroke-linecap="round" stroke-linejoin="round"/>
<path d="M11.3 16.9195C11.62 16.7095 12 16.4995 12.46 16.2995C14.12 15.4395 14.25 14.1195 15.66 13.0195C15.86 12.7895 16.08 12.6195 16.31 12.4895C17.2 11.9895 18.3 12.1195 19.54 11.7695C20.32 11.5595 21.16 11.1495 22.04 10.2695" stroke="#75007E" stroke-width="2" stroke-linecap="round" stroke-linejoin="round"/>
<path d="M20.25 11.7695H20.26C21.93 13.4495 20.93 14.6195 21.91 16.2795C22.07 16.5495 22.25 16.7495 22.45 16.9195" stroke="#75007E" stroke-width="2" stroke-linecap="round" stroke-linejoin="round"/>
<path d="M17.02 12.4902C17.97 14.0302 17.12 15.0502 17.84 16.6402C17.89 16.7402 17.93 16.8302 17.98 16.9202" stroke="#75007E" stroke-width="2" stroke-linecap="round" stroke-linejoin="round"/>
</g>
<defs>
<clipPath id="clip0_1702_43774">
<rect width="30" height="29.92" fill="white"/>
</clipPath>
</defs>
</svg>
