<svg width="21" height="21" viewBox="0 0 21 21" fill="none" xmlns="http://www.w3.org/2000/svg">
<path d="M5.02629 5.86384V14.2409C5.02629 14.7603 5.04304 15.221 5.10168 15.6315C5.34462 17.8347 6.38338 18.4295 9.21483 18.4295H10.8903C13.7217 18.4295 14.7605 17.8347 15.0034 15.6315C15.062 15.221 15.0788 14.7603 15.0788 14.2409V5.86384C15.0788 5.34446 15.062 4.88372 15.0034 4.47324C14.7605 2.27007 13.7217 1.67529 10.8903 1.67529H9.21483C6.38338 1.67529 5.34462 2.27007 5.10168 4.47324C5.04304 4.88372 5.02629 5.34446 5.02629 5.86384Z" stroke="#F489FD" stroke-width="1.25656" stroke-linecap="round" stroke-linejoin="round"/>
<path d="M5.02629 5.86384V14.2409C5.02629 14.7603 5.04304 15.221 5.10168 15.6315C5.34462 17.8347 6.38338 18.4295 9.21483 18.4295H10.8903C13.7217 18.4295 14.7605 17.8347 15.0034 15.6315C15.062 15.221 15.0788 14.7603 15.0788 14.2409V5.86384C15.0788 5.34446 15.062 4.88372 15.0034 4.47324C14.7605 2.27007 13.7217 1.67529 10.8903 1.67529H9.21483C6.38338 1.67529 5.34462 2.27007 5.10168 4.47324C5.04304 4.88372 5.02629 5.34446 5.02629 5.86384Z" stroke="black" stroke-opacity="0.2" stroke-width="1.25656" stroke-linecap="round" stroke-linejoin="round"/>
<path d="M5.02629 5.86384V14.2409C5.02629 14.7603 5.04304 15.221 5.10168 15.6315C5.34462 17.8347 6.38338 18.4295 9.21483 18.4295H10.8903C13.7217 18.4295 14.7605 17.8347 15.0034 15.6315C15.062 15.221 15.0788 14.7603 15.0788 14.2409V5.86384C15.0788 5.34446 15.062 4.88372 15.0034 4.47324C14.7605 2.27007 13.7217 1.67529 10.8903 1.67529H9.21483C6.38338 1.67529 5.34462 2.27007 5.10168 4.47324C5.04304 4.88372 5.02629 5.34446 5.02629 5.86384Z" stroke="black" stroke-opacity="0.2" stroke-width="1.25656" stroke-linecap="round" stroke-linejoin="round"/>
<path d="M15.0788 14.2412C15.0788 14.7605 15.062 15.2213 15.0034 15.6317C15.1207 15.6401 15.2296 15.6401 15.3552 15.6401H15.6401C17.8684 15.6401 18.4296 15.0789 18.4296 12.8422V7.26304C18.4296 5.02635 17.8684 4.46509 15.6401 4.46509H15.3552C15.2296 4.46509 15.1207 4.46509 15.0034 4.47347C15.062 4.88394 15.0788 5.34468 15.0788 5.86406V14.2412Z" stroke="#F489FD" stroke-width="1.25656" stroke-linecap="round" stroke-linejoin="round"/>
<path d="M15.0788 14.2412C15.0788 14.7605 15.062 15.2213 15.0034 15.6317C15.1207 15.6401 15.2296 15.6401 15.3552 15.6401H15.6401C17.8684 15.6401 18.4296 15.0789 18.4296 12.8422V7.26304C18.4296 5.02635 17.8684 4.46509 15.6401 4.46509H15.3552C15.2296 4.46509 15.1207 4.46509 15.0034 4.47347C15.062 4.88394 15.0788 5.34468 15.0788 5.86406V14.2412Z" stroke="black" stroke-opacity="0.2" stroke-width="1.25656" stroke-linecap="round" stroke-linejoin="round"/>
<path d="M15.0788 14.2412C15.0788 14.7605 15.062 15.2213 15.0034 15.6317C15.1207 15.6401 15.2296 15.6401 15.3552 15.6401H15.6401C17.8684 15.6401 18.4296 15.0789 18.4296 12.8422V7.26304C18.4296 5.02635 17.8684 4.46509 15.6401 4.46509H15.3552C15.2296 4.46509 15.1207 4.46509 15.0034 4.47347C15.062 4.88394 15.0788 5.34468 15.0788 5.86406V14.2412Z" stroke="black" stroke-opacity="0.2" stroke-width="1.25656" stroke-linecap="round" stroke-linejoin="round"/>
<path d="M1.67546 7.26304V12.8422C1.67546 15.0789 2.23672 15.6401 4.46503 15.6401H4.74985C4.8755 15.6401 4.98441 15.6401 5.10168 15.6317C5.04304 15.2213 5.02629 14.7605 5.02629 14.2412V5.86406C5.02629 5.34468 5.04304 4.88394 5.10168 4.47347C4.98441 4.46509 4.8755 4.46509 4.74985 4.46509H4.46503C2.23672 4.46509 1.67546 5.02635 1.67546 7.26304Z" stroke="#F489FD" stroke-width="1.25656" stroke-linecap="round" stroke-linejoin="round"/>
<path d="M1.67546 7.26304V12.8422C1.67546 15.0789 2.23672 15.6401 4.46503 15.6401H4.74985C4.8755 15.6401 4.98441 15.6401 5.10168 15.6317C5.04304 15.2213 5.02629 14.7605 5.02629 14.2412V5.86406C5.02629 5.34468 5.04304 4.88394 5.10168 4.47347C4.98441 4.46509 4.8755 4.46509 4.74985 4.46509H4.46503C2.23672 4.46509 1.67546 5.02635 1.67546 7.26304Z" stroke="black" stroke-opacity="0.2" stroke-width="1.25656" stroke-linecap="round" stroke-linejoin="round"/>
<path d="M1.67546 7.26304V12.8422C1.67546 15.0789 2.23672 15.6401 4.46503 15.6401H4.74985C4.8755 15.6401 4.98441 15.6401 5.10168 15.6317C5.04304 15.2213 5.02629 14.7605 5.02629 14.2412V5.86406C5.02629 5.34468 5.04304 4.88394 5.10168 4.47347C4.98441 4.46509 4.8755 4.46509 4.74985 4.46509H4.46503C2.23672 4.46509 1.67546 5.02635 1.67546 7.26304Z" stroke="black" stroke-opacity="0.2" stroke-width="1.25656" stroke-linecap="round" stroke-linejoin="round"/>
</svg>
