<svg width="21" height="21" viewBox="0 0 21 21" fill="none" xmlns="http://www.w3.org/2000/svg">
<path d="M18.4342 5.02745V7.0552C18.4342 8.37911 17.5963 9.21703 16.2724 9.21703H13.4067V3.35999C13.4067 2.4299 14.1692 1.67578 15.0993 1.67578C16.0126 1.68416 16.8505 2.05284 17.4538 2.65614C18.0571 3.26782 18.4342 4.10574 18.4342 5.02745Z" stroke="#F489FD" stroke-width="1.5" stroke-miterlimit="10" stroke-linecap="round" stroke-linejoin="round"/>
<path d="M18.4342 5.02745V7.0552C18.4342 8.37911 17.5963 9.21703 16.2724 9.21703H13.4067V3.35999C13.4067 2.4299 14.1692 1.67578 15.0993 1.67578C16.0126 1.68416 16.8505 2.05284 17.4538 2.65614C18.0571 3.26782 18.4342 4.10574 18.4342 5.02745Z" stroke="black" stroke-opacity="0.2" stroke-width="1.5" stroke-miterlimit="10" stroke-linecap="round" stroke-linejoin="round"/>
<path d="M18.4342 5.02745V7.0552C18.4342 8.37911 17.5963 9.21703 16.2724 9.21703H13.4067V3.35999C13.4067 2.4299 14.1692 1.67578 15.0993 1.67578C16.0126 1.68416 16.8505 2.05284 17.4538 2.65614C18.0571 3.26782 18.4342 4.10574 18.4342 5.02745Z" stroke="black" stroke-opacity="0.2" stroke-width="1.5" stroke-miterlimit="10" stroke-linecap="round" stroke-linejoin="round"/>
<path d="M1.67584 5.86536V17.5962C1.67584 18.2917 2.46348 18.6855 3.01651 18.2665L4.44935 17.194C4.78451 16.9426 5.25375 16.9761 5.5554 17.2778L6.94634 18.6771C7.27313 19.0039 7.80939 19.0039 8.13618 18.6771L9.54388 17.2694C9.83715 16.9761 10.3064 16.9426 10.6332 17.194L12.066 18.2665C12.619 18.6771 13.4067 18.2833 13.4067 17.5962V3.35161C13.4067 2.42991 14.1608 1.67578 15.0825 1.67578H5.86543H5.02751C2.51376 1.67578 1.67584 3.17565 1.67584 5.02745V5.86536Z" stroke="#F489FD" stroke-width="1.5" stroke-miterlimit="10" stroke-linecap="round" stroke-linejoin="round"/>
<path d="M1.67584 5.86536V17.5962C1.67584 18.2917 2.46348 18.6855 3.01651 18.2665L4.44935 17.194C4.78451 16.9426 5.25375 16.9761 5.5554 17.2778L6.94634 18.6771C7.27313 19.0039 7.80939 19.0039 8.13618 18.6771L9.54388 17.2694C9.83715 16.9761 10.3064 16.9426 10.6332 17.194L12.066 18.2665C12.619 18.6771 13.4067 18.2833 13.4067 17.5962V3.35161C13.4067 2.42991 14.1608 1.67578 15.0825 1.67578H5.86543H5.02751C2.51376 1.67578 1.67584 3.17565 1.67584 5.02745V5.86536Z" stroke="black" stroke-opacity="0.2" stroke-width="1.5" stroke-miterlimit="10" stroke-linecap="round" stroke-linejoin="round"/>
<path d="M1.67584 5.86536V17.5962C1.67584 18.2917 2.46348 18.6855 3.01651 18.2665L4.44935 17.194C4.78451 16.9426 5.25375 16.9761 5.5554 17.2778L6.94634 18.6771C7.27313 19.0039 7.80939 19.0039 8.13618 18.6771L9.54388 17.2694C9.83715 16.9761 10.3064 16.9426 10.6332 17.194L12.066 18.2665C12.619 18.6771 13.4067 18.2833 13.4067 17.5962V3.35161C13.4067 2.42991 14.1608 1.67578 15.0825 1.67578H5.86543H5.02751C2.51376 1.67578 1.67584 3.17565 1.67584 5.02745V5.86536Z" stroke="black" stroke-opacity="0.2" stroke-width="1.5" stroke-miterlimit="10" stroke-linecap="round" stroke-linejoin="round"/>
<path d="M7.54126 10.9014H10.055" stroke="#F489FD" stroke-width="1.5" stroke-linecap="round" stroke-linejoin="round"/>
<path d="M7.54126 10.9014H10.055" stroke="black" stroke-opacity="0.2" stroke-width="1.5" stroke-linecap="round" stroke-linejoin="round"/>
<path d="M7.54126 10.9014H10.055" stroke="black" stroke-opacity="0.2" stroke-width="1.5" stroke-linecap="round" stroke-linejoin="round"/>
<path d="M7.54126 7.54956H10.055" stroke="#F489FD" stroke-width="1.5" stroke-linecap="round" stroke-linejoin="round"/>
<path d="M7.54126 7.54956H10.055" stroke="black" stroke-opacity="0.2" stroke-width="1.5" stroke-linecap="round" stroke-linejoin="round"/>
<path d="M7.54126 7.54956H10.055" stroke="black" stroke-opacity="0.2" stroke-width="1.5" stroke-linecap="round" stroke-linejoin="round"/>
<path d="M5.0238 10.8928H5.03133" stroke="#F489FD" stroke-width="2" stroke-linecap="round" stroke-linejoin="round"/>
<path d="M5.0238 10.8928H5.03133" stroke="black" stroke-opacity="0.2" stroke-width="2" stroke-linecap="round" stroke-linejoin="round"/>
<path d="M5.0238 10.8928H5.03133" stroke="black" stroke-opacity="0.2" stroke-width="2" stroke-linecap="round" stroke-linejoin="round"/>
<path d="M5.0238 7.54126H5.03133" stroke="#F489FD" stroke-width="2" stroke-linecap="round" stroke-linejoin="round"/>
<path d="M5.0238 7.54126H5.03133" stroke="black" stroke-opacity="0.2" stroke-width="2" stroke-linecap="round" stroke-linejoin="round"/>
<path d="M5.0238 7.54126H5.03133" stroke="black" stroke-opacity="0.2" stroke-width="2" stroke-linecap="round" stroke-linejoin="round"/>
</svg>
