<svg width="29" height="29" viewBox="0 0 29 29" fill="none" xmlns="http://www.w3.org/2000/svg">
<g clip-path="url(#clip0_1702_43872)">
<path d="M27.9701 14.9697C27.7701 16.7197 26.3601 18.1897 24.6201 18.4497C22.8801 18.7097 21.4301 17.9197 20.6201 16.6397L19.2901 19.7297C18.3501 21.9297 17.9101 24.3297 18.0201 26.7297C18.0401 27.2897 17.5701 27.7497 17.0101 27.7497H13.0001C12.4401 27.7497 11.9601 27.2897 11.9901 26.7297C12.0901 24.3397 11.6601 21.9397 10.7201 19.7297L9.33012 16.4897C8.22012 17.4697 6.68012 17.9697 5.03012 17.6597C3.09012 17.2897 1.51012 15.7297 1.11012 13.7897C0.460115 10.5797 2.91012 7.7497 6.01012 7.7497C6.49012 7.7497 6.96012 7.8197 7.40012 7.9397C7.07012 7.1497 6.93012 6.2697 7.05012 5.3297C7.31012 3.2697 8.90012 1.5297 10.9301 1.1097C13.6301 0.549696 16.0601 2.1597 16.7901 4.5197C17.6601 4.0897 18.6701 3.8997 19.7401 4.0497C22.1701 4.3997 24.0301 6.5997 24.0101 9.0597C24.0101 9.5697 23.9201 10.0497 23.7801 10.5097C23.8601 10.4997 23.9301 10.4997 24.0101 10.4997C26.3801 10.4997 28.2601 12.5497 27.9801 14.9697H27.9701Z" stroke="#151515" stroke-width="2" stroke-linecap="round" stroke-linejoin="round"/>
<path d="M15 21.75V27.75" stroke="#151515" stroke-width="2" stroke-linecap="round" stroke-linejoin="round"/>
<path d="M13.8802 8.3397C13.8802 8.3397 10.2502 7.8697 10.6502 11.8097" stroke="#151515" stroke-width="2" stroke-linecap="round" stroke-linejoin="round"/>
</g>
<defs>
<clipPath id="clip0_1702_43872">
<rect width="29" height="28.75" fill="white"/>
</clipPath>
</defs>
</svg>
