<svg width="30" height="29" viewBox="0 0 30 29" fill="none" xmlns="http://www.w3.org/2000/svg">
<g clip-path="url(#clip0_1702_43880)">
<path d="M27.9801 11.3797C26.4301 7.87969 22.9201 5.42969 18.8401 5.42969H18.5301C17.9801 8.49969 16.5801 10.8397 13.6201 12.8597C15.1201 13.1297 16.5001 13.5197 17.7101 14.0197" stroke="#151515" stroke-width="2" stroke-linecap="round" stroke-linejoin="round"/>
<path d="M14.6801 12.0804C16.9301 10.2404 18.0501 8.12043 18.5401 5.44043L4.8501 4.44043V4.75043C4.8501 8.94043 8.0801 12.4404 12.2601 12.7304C12.3601 12.7304 12.4701 12.7404 12.5601 12.7504C13.3301 12.8104 14.0901 12.5704 14.6901 12.0804H14.6801Z" stroke="#151515" stroke-width="2" stroke-linecap="round" stroke-linejoin="round"/>
<path d="M28.11 19.1699C28.58 18.0099 28.84 16.7499 28.84 15.4299C28.84 13.9899 28.53 12.6199 27.98 11.3799" stroke="#151515" stroke-width="2" stroke-linecap="round" stroke-linejoin="round"/>
<path d="M17.71 14.0195C19.98 14.9495 21.63 16.2295 22.38 17.6895C22.38 17.6895 22.4 17.6895 22.4 17.6995" stroke="#151515" stroke-width="2" stroke-linecap="round" stroke-linejoin="round"/>
<path d="M15 25.5999H18.43C23.66 25.6099 26.63 22.8399 28.11 19.1699" stroke="#151515" stroke-width="2" stroke-linecap="round" stroke-linejoin="round"/>
<path d="M14.9099 24.9704C18.6699 23.6504 22.8399 21.6004 22.8399 19.4304C22.8399 18.8304 22.6699 18.2504 22.3899 17.6904C22.3899 17.6904 22.3999 17.7004 22.4099 17.7004" stroke="#151515" stroke-width="2" stroke-linecap="round" stroke-linejoin="round"/>
<path d="M15.04 25.4201V25.4501C14.99 25.7701 14.84 26.1301 14.59 26.4601C14.44 26.6601 14.26 26.8501 14.05 27.0401C13.08 27.9101 11.81 28.2001 11.23 27.6701C10.7 27.2101 10.9 26.2501 11.65 25.4301C10.9 24.6201 10.7 23.6601 11.23 23.2001C11.81 22.6801 13.08 22.9601 14.05 23.8201C14.26 24.0101 14.44 24.2001 14.59 24.4101C14.84 24.7501 14.99 25.1001 15.04 25.4201Z" stroke="#151515" stroke-width="2" stroke-linecap="round" stroke-linejoin="round"/>
<path d="M4.84 4.43C2.77 4.17 1.15 4.2 1 1" stroke="#151515" stroke-width="2" stroke-linecap="round" stroke-linejoin="round"/>
<path d="M11.6899 9.08984C11.828 9.08984 11.9399 8.97791 11.9399 8.83984C11.9399 8.70177 11.828 8.58984 11.6899 8.58984C11.5519 8.58984 11.4399 8.70177 11.4399 8.83984C11.4399 8.97791 11.5519 9.08984 11.6899 9.08984Z" stroke="#151515" stroke-width="2" stroke-linecap="round" stroke-linejoin="round"/>
<path d="M19.1499 14.6995C20.1499 14.2995 21.1499 13.7395 22.0999 13.0195C23.8799 11.6495 25.1599 9.95953 25.7999 8.26953" stroke="#151515" stroke-width="2" stroke-linecap="round" stroke-linejoin="round"/>
<path d="M22.8201 19.0804C22.9201 19.0604 23.0101 19.0404 23.1101 19.0104C25.6001 18.3204 27.6401 16.9604 28.8401 15.3604" stroke="#151515" stroke-width="2" stroke-linecap="round" stroke-linejoin="round"/>
</g>
<defs>
<clipPath id="clip0_1702_43880">
<rect width="29.84" height="28.93" fill="white"/>
</clipPath>
</defs>
</svg>
