<svg width="30" height="27" viewBox="0 0 30 27" fill="none" xmlns="http://www.w3.org/2000/svg">
<g clip-path="url(#clip0_1702_43904)">
<path d="M29 20.0299C29 20.5199 28.8 20.9899 28.43 21.2999C25.32 23.8899 20.46 25.5599 15 25.5599C9.54 25.5599 4.68 23.8999 1.57 21.2999C1.2 20.9899 1 20.5199 1 20.0299C1 18.6699 2.54 17.8599 3.64 18.6499C6.54 20.7499 10.55 22.0499 15 22.0499C19.45 22.0499 23.46 20.7499 26.36 18.6499C27.46 17.8499 29 18.6699 29 20.0299Z" stroke="#151515" stroke-width="2" stroke-linecap="round" stroke-linejoin="round"/>
<path d="M3.43994 18.5401L12.3399 2.60012C13.4599 0.460117 16.5299 0.460117 17.6499 2.60012L26.5499 18.5301" stroke="#151515" stroke-width="2" stroke-linecap="round" stroke-linejoin="round"/>
<path d="M14.11 10.2402C14.11 10.2402 16.11 11.3902 14.03 13.2202" stroke="#151515" stroke-width="2" stroke-linecap="round" stroke-linejoin="round"/>
<path d="M19.64 18.3704C19.64 18.3704 18.26 19.6804 17.27 17.8604" stroke="#151515" stroke-width="2" stroke-linecap="round" stroke-linejoin="round"/>
<path d="M20.97 8.53027C19.82 8.94027 19 10.0503 19 11.3403C19 13.0003 20.34 14.3403 22 14.3403C22.7 14.3403 23.34 14.1003 23.85 13.6903" stroke="#151515" stroke-width="2" stroke-linecap="round" stroke-linejoin="round"/>
<path d="M15 7.75C15.8284 7.75 16.5 7.07843 16.5 6.25C16.5 5.42157 15.8284 4.75 15 4.75C14.1716 4.75 13.5 5.42157 13.5 6.25C13.5 7.07843 14.1716 7.75 15 7.75Z" stroke="#151515" stroke-width="2" stroke-linecap="round" stroke-linejoin="round"/>
<path d="M10.3501 18.54C11.4547 18.54 12.3501 17.6446 12.3501 16.54C12.3501 15.4355 11.4547 14.54 10.3501 14.54C9.24553 14.54 8.3501 15.4355 8.3501 16.54C8.3501 17.6446 9.24553 18.54 10.3501 18.54Z" stroke="#151515" stroke-width="2" stroke-linecap="round" stroke-linejoin="round"/>
</g>
<defs>
<clipPath id="clip0_1702_43904">
<rect width="30" height="26.56" fill="white"/>
</clipPath>
</defs>
</svg>
