<svg width="30" height="25" viewBox="0 0 30 25" fill="none" xmlns="http://www.w3.org/2000/svg">
<g clip-path="url(#clip0_1702_43916)">
<path d="M2 19.5H28C28.55 19.5 29 19.95 29 20.5C29 22.16 27.66 23.5 26 23.5H4C2.34 23.5 1 22.16 1 20.5C1 19.95 1.45 19.5 2 19.5Z" stroke="#151515" stroke-width="2" stroke-linecap="round" stroke-linejoin="round"/>
<path d="M3.04 19.5C3.01 19.17 3 18.84 3 18.5C3 11.87 8.37 6.5 15 6.5C21.63 6.5 27 11.87 27 18.5C27 18.84 26.99 19.17 26.96 19.5" stroke="#151515" stroke-width="2" stroke-linecap="round" stroke-linejoin="round"/>
<path d="M16.1 6.55C16.93 5.85 17.5 4.49 17.5 3.5C17.5 2.12 16.38 1 15 1C13.62 1 12.5 2.12 12.5 3.5C12.5 4.49 13.07 5.85 13.9 6.55" stroke="#151515" stroke-width="2" stroke-linecap="round" stroke-linejoin="round"/>
<path d="M17.0601 10.5095C17.0601 10.5095 19.7001 10.2595 20.6101 13.0895" stroke="#151515" stroke-width="2" stroke-linecap="round" stroke-linejoin="round"/>
</g>
<defs>
<clipPath id="clip0_1702_43916">
<rect width="30" height="24.5" fill="white"/>
</clipPath>
</defs>
</svg>
