<svg width="30" height="30" viewBox="0 0 30 30" fill="none" xmlns="http://www.w3.org/2000/svg">
<g clip-path="url(#clip0_1702_43940)">
<path d="M15 29C22.732 29 29 22.732 29 15C29 7.26801 22.732 1 15 1C7.26801 1 1 7.26801 1 15C1 22.732 7.26801 29 15 29Z" stroke="#151515" stroke-width="2" stroke-linecap="round" stroke-linejoin="round"/>
<path d="M20.6501 12.5203C20.3501 12.5403 20.0401 12.5203 19.7301 12.4303C18.6801 12.1703 17.8201 11.3203 17.5701 10.2703C17.4901 9.95029 17.4701 9.64029 17.4801 9.35029C17.5901 7.49029 16.2201 5.88029 14.3701 6.01029C13.9801 6.04029 13.5801 6.09029 13.1801 6.17029C9.45009 6.93029 6.53009 10.0903 6.07009 13.8703C5.36009 19.7203 10.2801 24.6403 16.1301 23.9303C19.9101 23.4703 23.0701 20.5503 23.8301 16.8203C23.9101 16.4203 23.9701 16.0203 23.9901 15.6303C24.1201 13.7703 22.5101 12.4103 20.6501 12.5203Z" stroke="#151515" stroke-width="2" stroke-linecap="round" stroke-linejoin="round"/>
<path d="M15 20C16.1046 20 17 19.1046 17 18C17 16.8954 16.1046 16 15 16C13.8954 16 13 16.8954 13 18C13 19.1046 13.8954 20 15 20Z" stroke="#151515" stroke-width="2" stroke-linecap="round" stroke-linejoin="round"/>
</g>
<defs>
<clipPath id="clip0_1702_43940">
<rect width="30" height="30" fill="white"/>
</clipPath>
</defs>
</svg>
