<svg width="30" height="29" viewBox="0 0 30 29" fill="none" xmlns="http://www.w3.org/2000/svg">
<g clip-path="url(#clip0_1702_43788)">
<path d="M25 16.4902C25 22.0102 21.16 27.4902 16.43 27.4902H9.57C4.84 27.4902 1 22.0102 1 16.4902C1 15.3902 1.77 14.4902 2.71 14.4902H23.28C24.23 14.4902 24.99 15.3902 24.99 16.4902H25Z" stroke="#151515" stroke-width="2" stroke-linecap="round" stroke-linejoin="round"/>
<path d="M28.42 7.91992L17.04 14.4899" stroke="#151515" stroke-width="2" stroke-linecap="round" stroke-linejoin="round"/>
<path d="M27.49 1L14 14.49" stroke="#151515" stroke-width="2" stroke-linecap="round" stroke-linejoin="round"/>
<path d="M15.82 21.3897C16.78 17.6897 13 18.8297 14.45 17.0197C15.5 15.6997 14.88 15.3897 14.92 14.4897C14.85 11.8997 13.22 10.5797 11.96 11.7597C11.38 12.3097 11.53 13.4397 11.25 14.4897" stroke="#151515" stroke-width="2" stroke-linecap="round" stroke-linejoin="round"/>
<path d="M6 14.4902C6 14.1402 6.06 13.8102 6.18 13.5002C6.58 12.3302 7.69 11.4902 9 11.4902C10.05 11.4902 10.97 12.0302 11.51 12.8402C11.82 13.3102 12 13.8802 12 14.4902" stroke="#151515" stroke-width="2" stroke-linecap="round" stroke-linejoin="round"/>
<path d="M4.27002 14.4902C4.62002 13.8902 5.26002 13.4902 6.00002 13.4902C6.06002 13.4902 6.12002 13.4902 6.18002 13.5002" stroke="#151515" stroke-width="2" stroke-linecap="round" stroke-linejoin="round"/>
</g>
<defs>
<clipPath id="clip0_1702_43788">
<rect width="29.42" height="28.49" fill="white"/>
</clipPath>
</defs>
</svg>
