<svg width="28" height="29" viewBox="0 0 28 29" fill="none" xmlns="http://www.w3.org/2000/svg">
<g clip-path="url(#clip0_1702_43819)">
<path d="M27 20.9902L1 27.9902V15.9902L27 8.99023V20.9902Z" stroke="#151515" stroke-width="2" stroke-linecap="round" stroke-linejoin="round"/>
<path d="M7.88 9.11035L1 15.9904" stroke="#151515" stroke-width="2" stroke-linecap="round" stroke-linejoin="round"/>
<path d="M12.1201 4.87L14.0001 2.99C14.0001 2.99 18.4701 2.58 21.6901 4.3C24.9601 6.05 27.0001 8.99 27.0001 8.99" stroke="#151515" stroke-width="2" stroke-linecap="round" stroke-linejoin="round"/>
<path d="M27 13.9199C27 13.9199 26.45 15.9999 24.27 16.2899C21.53 16.6599 21.75 14.9999 18.61 15.6399C16.06 16.1599 15.71 17.8599 13.72 18.5099C11.58 19.2099 10.36 17.9299 8.26 18.4899C6.41 18.9899 5.45 20.5699 4 21.3999C2.41 22.3199 1 21.2899 1 21.2899" stroke="#151515" stroke-width="2" stroke-linecap="round" stroke-linejoin="round"/>
<path d="M10 9.99023C11.6569 9.99023 13 8.64709 13 6.99023C13 5.33338 11.6569 3.99023 10 3.99023C8.34315 3.99023 7 5.33338 7 6.99023C7 8.64709 8.34315 9.99023 10 9.99023Z" stroke="#151515" stroke-width="2" stroke-linecap="round" stroke-linejoin="round"/>
<path d="M6.15991 1.03991C6.15991 1.03991 7.30991 0.789912 8.33991 1.58991C9.67991 2.63991 9.46991 3.99991 9.46991 3.99991" stroke="#151515" stroke-width="2" stroke-linecap="round" stroke-linejoin="round"/>
<path d="M19 7.29004C19.2761 7.29004 19.5 7.06618 19.5 6.79004C19.5 6.5139 19.2761 6.29004 19 6.29004C18.7239 6.29004 18.5 6.5139 18.5 6.79004C18.5 7.06618 18.7239 7.29004 19 7.29004Z" stroke="#151515" stroke-width="2" stroke-linecap="round" stroke-linejoin="round"/>
<path d="M15.4299 9.31016L16.0599 7.66016" stroke="#151515" stroke-width="2" stroke-linecap="round" stroke-linejoin="round"/>
</g>
<defs>
<clipPath id="clip0_1702_43819">
<rect width="28" height="28.99" fill="white"/>
</clipPath>
</defs>
</svg>
