<svg width="28" height="28" viewBox="0 0 28 28" fill="none" xmlns="http://www.w3.org/2000/svg">
<g clip-path="url(#clip0_1702_43832)">
<path d="M6.06005 15.7197C5.27005 16.8497 4.60005 17.9797 4.05005 19.0597" stroke="#151515" stroke-width="2" stroke-linecap="round" stroke-linejoin="round"/>
<path d="M19.7302 3.71973C18.5202 4.27973 17.2402 5.00973 15.9402 5.89973" stroke="#151515" stroke-width="2" stroke-linecap="round" stroke-linejoin="round"/>
<path d="M9.06006 11.9498C9.51006 11.4598 9.98006 10.9598 10.4701 10.4698C10.9601 9.9798 11.4701 9.4998 11.9801 9.0498" stroke="#151515" stroke-width="2" stroke-linecap="round" stroke-linejoin="round"/>
<path d="M10.0901 8.05982C11.4501 6.78982 12.8301 5.65982 14.2001 4.71982C14.6701 5.10982 15.2301 5.48982 15.8301 5.83982L15.9401 5.89982C18.2901 7.22982 20.6301 7.54982 21.1601 6.60982C21.5401 5.94982 20.9401 4.81982 19.7301 3.72982C19.2401 3.29982 18.6601 2.86982 17.9801 2.47982C21.4901 0.779818 24.5001 0.469819 26.0201 1.98982C26.2601 2.22982 26.4501 2.50982 26.6001 2.81982C28.1701 6.03982 25.0101 12.8998 18.9501 18.9598C12.8901 25.0198 6.04011 28.1698 2.82011 26.5998C2.50011 26.4498 2.23011 26.2598 1.99011 26.0198C0.490114 24.5198 0.770115 21.5698 2.41011 18.1198C2.64011 18.2798 2.88011 18.4198 3.12011 18.5598C3.43011 18.7398 3.75011 18.9098 4.06011 19.0498C6.10011 19.9998 7.97011 20.1598 8.44011 19.3298C8.91011 18.4998 7.88011 16.9898 6.06011 15.7098C5.77011 15.4898 5.44011 15.2898 5.11011 15.0898C4.87011 14.9498 4.62011 14.8098 4.37011 14.6998C5.25011 13.3798 6.29011 12.0498 7.47011 10.7298C7.92011 11.1498 8.45011 11.5598 9.07011 11.9298C9.20011 12.0198 9.34011 12.0998 9.48011 12.1798C11.8601 13.5598 14.2601 13.9098 14.8001 12.9498C15.3101 12.0598 14.0701 10.3698 11.9801 9.02982C11.8201 8.91982 11.6401 8.81982 11.4701 8.71982C11.0001 8.44982 10.5501 8.22982 10.1001 8.03982L10.0901 8.05982Z" stroke="#151515" stroke-width="2" stroke-linecap="round" stroke-linejoin="round"/>
</g>
<defs>
<clipPath id="clip0_1702_43832">
<rect width="28" height="28" fill="white"/>
</clipPath>
</defs>
</svg>
