<svg width="174" height="46" viewBox="0 0 174 46" fill="none" xmlns="http://www.w3.org/2000/svg">
<path d="M33.1995 6.87756H7.37921C1.32867 6.87756 -2.14067 13.7663 1.46064 18.6291L14.3761 36.065C15.0619 36.9893 15.9545 37.7403 16.9825 38.2577C18.0106 38.7751 19.1456 39.0446 20.2965 39.0446C21.4474 39.0446 22.5824 38.7751 23.6104 38.2577C24.6385 37.7403 25.5311 36.9893 26.2168 36.065L39.1181 18.6267C42.717 13.7627 39.2465 6.87756 33.1995 6.87756ZM29.3235 24.4133C26.2989 25.8472 23.2373 26.5724 20.2222 26.5724C17.207 26.5724 14.1586 25.8412 11.2207 24.399C10.5873 24.0884 10.1033 23.539 9.87513 22.8715C9.64692 22.204 9.6932 21.4733 10.0038 20.8399C10.3144 20.2066 10.8639 19.7226 11.5313 19.4944C12.1988 19.2662 12.9296 19.3124 13.5629 19.623C15.8064 20.7276 17.987 21.2614 20.221 21.2614C22.455 21.2614 24.7009 20.7216 27.0479 19.6088C27.403 19.4386 27.792 19.3508 28.1857 19.352C28.6891 19.353 29.1818 19.4969 29.6065 19.7669C30.031 20.0367 30.3713 20.4202 30.5886 20.8738C30.8897 21.511 30.9256 22.2417 30.6884 22.9053C30.4512 23.5689 29.9603 24.1113 29.3235 24.4133Z" fill="url(#paint0_linear_1590_22614)"/>
<path d="M61.9523 3.63304H70.0127V3.99067C68.7747 3.99067 67.2617 4.40332 64.8133 10.1254L59.614 23H58.9812C51.9387 6.79668 51.5811 6.21897 51.5811 6.21897C50.6457 4.01818 49.9305 4.01818 49.1877 3.99067V3.63304H58.1559V3.99067C56.0652 3.99067 57.3581 7.18182 57.3581 7.18182L61.5947 17.1679L64.4557 10.0428C64.8683 9.02498 65.8587 3.99067 61.9523 3.99067V3.63304ZM71.193 6.35652C71.193 5.09107 72.1834 4.10071 73.4488 4.10071C74.6868 4.10071 75.7047 5.09107 75.7047 6.35652C75.7047 7.59447 74.6868 8.58482 73.4488 8.58482C72.1834 8.58482 71.193 7.59447 71.193 6.35652ZM76.8876 22.6699V23H70.6153V22.6699C71.6607 22.3398 71.7157 21.1843 71.7157 19.7813V13.3715C71.7157 12.4087 71.4131 12.0236 70.2852 11.5284V11.1708L75.7597 10.0428V19.7813C75.7597 21.2944 75.8972 22.3948 76.8876 22.6699ZM89.2597 16.9203C89.2597 13.124 88.3794 11.0332 86.2611 11.0332C84.3905 11.0332 83.7027 12.9314 83.7027 14.9671V18.1858C83.7027 21.487 84.8581 22.89 86.4812 22.89C88.2419 22.89 89.2597 21.2394 89.2597 16.9203ZM93.9914 16.6177C93.9914 21.5695 90.7177 23.2476 87.0314 23.2476C85.1332 23.2476 83.7577 22.7524 82.9324 21.9546C81.9971 22.6699 79.6588 23.3026 79.6588 22.8625V5.66877C79.6588 4.73344 79.3837 4.32079 78.2558 3.90814V3.57802L83.7027 2.47763V12.2711C84.528 10.7581 86.2336 10.0428 88.1868 10.0428C91.6256 10.0428 93.9914 12.7388 93.9914 16.6177ZM100.402 16.04H104.858C104.858 12.5738 104.116 10.4005 102.74 10.4005C101.282 10.4005 100.402 13.3991 100.402 16.04ZM108.517 16.3976H100.402C100.512 19.8364 101.86 21.0743 103.703 21.487C105.134 21.8171 107.169 21.1293 107.775 19.3137L108.132 19.4512C107.747 21.1843 105.931 23.2476 102.355 23.2476C98.7513 23.2476 96.0553 20.1665 96.0553 16.7002C96.0553 12.4087 99.1639 10.0428 102.74 10.0428C106.206 10.0428 108.517 11.6659 108.517 16.3976ZM122.362 10.2904L115.677 22.6424C119.804 22.6424 121.042 19.9189 121.427 18.8185H121.785L121.537 23H110.45L117.576 10.6481C113.889 10.6481 112.266 12.1061 111.633 13.9217H111.276L111.413 10.2904H122.362ZM133.481 21.7621C133.481 21.7621 132.436 23.2476 129.437 23.2476C126.109 23.2476 124.486 22.1472 124.486 22.1472V18.6259H124.843C125.338 20.4416 126.907 22.89 129.437 22.89C131.391 22.89 131.776 20.5241 129.685 19.1486L126.907 17.4705C124.266 15.7924 123.578 13.3165 125.173 11.3908C125.173 11.3908 126.191 10.0428 129.135 10.0428C132.298 10.0428 133.646 10.8406 133.646 10.8406V13.7842H133.289C132.876 12.0786 131.363 10.4005 129.135 10.4005C127.347 10.4005 126.549 12.3537 128.942 13.8667L131.721 15.5998C134.197 17.1129 134.912 19.8639 133.481 21.7621ZM145.015 23.2476C141.273 23.2476 137.917 20.9918 137.917 16.5077V6.41154C137.917 4.73344 137.477 3.99067 136.267 3.99067V3.63304H144.575V3.99067C143.392 3.99067 142.731 4.43083 142.731 6.41154V16.7002C142.731 19.9464 144.602 21.597 147.216 21.597C149.719 21.597 151.7 19.6988 151.7 16.7002V9.02498C151.7 7.89707 151.37 3.99067 148.151 3.99067V3.63304H155.909L155.936 3.99067C152.305 3.99067 152.057 7.89707 152.057 9.02498V16.7002C152.057 21.4319 148.646 23.2476 145.015 23.2476ZM167.869 16.9203C167.869 13.0964 166.961 11.0332 164.87 11.0332C163.22 11.0332 162.477 12.4912 162.312 14.2243V19.1211C162.505 21.7621 163.632 22.89 165.063 22.89C166.824 22.89 167.869 21.2119 167.869 16.9203ZM172.601 16.5902C172.601 21.542 169.327 23.2476 165.641 23.2476C164.265 23.2476 163.137 22.9725 162.312 22.5048V27.1815C162.312 28.6945 162.477 29.6849 163.44 29.9325V30.2901H157.195V29.9325C158.241 29.6299 158.268 28.5845 158.268 27.1815V13.179C158.268 12.2161 157.993 11.941 156.865 11.5284V11.1708L162.312 10.0428V12.2436C163.137 10.7581 164.843 10.0428 166.769 10.0428C170.207 10.0428 172.601 12.7388 172.601 16.5902Z" fill="white"/>
<path d="M66.7721 42.7465C66.3686 42.7465 66.0091 42.6622 65.6937 42.4934C65.3783 42.3174 65.1288 42.0789 64.9454 41.7782C64.7694 41.4774 64.6813 41.1363 64.6813 40.7548V39.2363C64.6813 38.8548 64.773 38.5137 64.9564 38.2129C65.1398 37.9121 65.3893 37.6774 65.7047 37.5086C66.0201 37.3326 66.3759 37.2445 66.7721 37.2445C67.2489 37.2445 67.6781 37.3692 68.0595 37.6187C68.4484 37.8608 68.7528 38.1909 68.9729 38.609C69.2003 39.0198 69.314 39.4857 69.314 40.0065C69.314 40.52 69.2003 40.9859 68.9729 41.404C68.7528 41.8148 68.4484 42.1413 68.0595 42.3834C67.6781 42.6255 67.2489 42.7465 66.7721 42.7465ZM66.574 41.6021C66.8675 41.6021 67.1242 41.5361 67.3443 41.404C67.5717 41.2646 67.7478 41.0739 67.8725 40.8318C68.0045 40.5897 68.0706 40.311 68.0706 39.9955C68.0706 39.6801 68.0045 39.4013 67.8725 39.1592C67.7478 38.9171 67.5717 38.7301 67.3443 38.598C67.1242 38.4586 66.8675 38.3889 66.574 38.3889C66.2806 38.3889 66.0201 38.4586 65.7927 38.598C65.5653 38.7301 65.3893 38.9171 65.2645 39.1592C65.1398 39.4013 65.0775 39.6801 65.0775 39.9955C65.0775 40.311 65.1398 40.5897 65.2645 40.8318C65.3893 41.0739 65.5653 41.2646 65.7927 41.404C66.0201 41.5361 66.2806 41.6021 66.574 41.6021ZM63.9441 42.6365V34.7136H65.1545V38.653L64.9454 39.9295L65.1545 41.217V42.6365H63.9441ZM71.8502 42.6915L69.5943 37.3546H70.9258L72.4664 41.272H72.0812L73.7098 37.3546H75.0523L72.5984 42.6915H71.8502ZM70.2766 44.8373L71.9162 41.4591L72.5984 42.6915L71.6191 44.8373H70.2766ZM79.0773 42.6365V41.4811H81.102C81.6302 41.4811 82.0923 41.3674 82.4885 41.1399C82.892 40.9125 83.2037 40.5971 83.4238 40.1936C83.6512 39.7828 83.7649 39.3096 83.7649 38.7741C83.7649 38.2459 83.6512 37.7801 83.4238 37.3766C83.1964 36.9731 82.881 36.6577 82.4775 36.4302C82.0813 36.2028 81.6228 36.0891 81.102 36.0891H79.0773V34.9337H81.135C81.6925 34.9337 82.2097 35.0327 82.6866 35.2308C83.1634 35.4215 83.5779 35.693 83.93 36.0451C84.2895 36.3899 84.5682 36.797 84.7663 37.2665C84.9644 37.7287 85.0634 38.2349 85.0634 38.7851C85.0634 39.328 84.9644 39.8341 84.7663 40.3036C84.5682 40.7731 84.2931 41.184 83.941 41.5361C83.5889 41.8809 83.1744 42.1523 82.6976 42.3504C82.2207 42.5411 81.7072 42.6365 81.157 42.6365H79.0773ZM78.2079 42.6365V34.9337H79.4734V42.6365H78.2079ZM88.6423 42.7465C88.1141 42.7465 87.6372 42.6291 87.2118 42.3944C86.7936 42.1523 86.4598 41.8222 86.2104 41.404C85.9683 40.9859 85.8473 40.5164 85.8473 39.9955C85.8473 39.4747 85.9683 39.0088 86.2104 38.598C86.4525 38.1799 86.7789 37.8498 87.1897 37.6077C87.6079 37.3656 88.0701 37.2445 88.5762 37.2445C89.0678 37.2445 89.5006 37.3582 89.8747 37.5857C90.2562 37.8131 90.5533 38.1249 90.766 38.521C90.9861 38.9171 91.0961 39.3683 91.0961 39.8745C91.0961 39.9625 91.0888 40.0542 91.0741 40.1496C91.0668 40.2376 91.0521 40.3366 91.0301 40.4467H86.6946V39.4563H90.4029L89.9517 39.8525C89.9371 39.5297 89.8747 39.2583 89.7647 39.0382C89.6546 38.8181 89.4969 38.6494 89.2915 38.532C89.0934 38.4146 88.8477 38.3559 88.5542 38.3559C88.2461 38.3559 87.9784 38.422 87.7509 38.554C87.5235 38.6861 87.3475 38.8731 87.2228 39.1152C87.098 39.35 87.0357 39.6324 87.0357 39.9625C87.0357 40.2926 87.1017 40.5824 87.2338 40.8318C87.3658 41.0812 87.5529 41.2757 87.795 41.415C88.0371 41.5471 88.3158 41.6131 88.6313 41.6131C88.9027 41.6131 89.1521 41.5654 89.3795 41.4701C89.6143 41.3747 89.8124 41.2353 89.9737 41.0519L90.744 41.8332C90.4873 42.134 90.1755 42.3614 89.8087 42.5154C89.4419 42.6695 89.0531 42.7465 88.6423 42.7465ZM94.4983 42.7465C93.9775 42.7465 93.5043 42.6255 93.0788 42.3834C92.6607 42.1413 92.3306 41.8112 92.0885 41.393C91.8464 40.9749 91.7254 40.509 91.7254 39.9955C91.7254 39.4747 91.8464 39.0088 92.0885 38.598C92.3306 38.1799 92.6607 37.8498 93.0788 37.6077C93.5043 37.3656 93.9775 37.2445 94.4983 37.2445C94.9092 37.2445 95.2906 37.3252 95.6428 37.4866C96.0022 37.6407 96.3067 37.8644 96.5561 38.1579L95.7638 38.9612C95.6097 38.7778 95.4227 38.642 95.2026 38.554C94.9899 38.4586 94.7551 38.411 94.4983 38.411C94.1976 38.411 93.9298 38.4806 93.6951 38.62C93.4676 38.7521 93.2879 38.9355 93.1559 39.1702C93.0312 39.405 92.9688 39.6801 92.9688 39.9955C92.9688 40.3036 93.0312 40.5787 93.1559 40.8208C93.2879 41.0556 93.4676 41.2426 93.6951 41.382C93.9298 41.5141 94.1976 41.5801 94.4983 41.5801C94.7551 41.5801 94.9899 41.5361 95.2026 41.448C95.4227 41.3527 95.6097 41.2133 95.7638 41.0299L96.5561 41.8332C96.3067 42.1266 96.0022 42.354 95.6428 42.5154C95.2906 42.6695 94.9092 42.7465 94.4983 42.7465ZM100.785 42.6365L98.5512 39.9405L100.774 37.3546H102.215L99.6626 40.2596L99.7176 39.5664L102.326 42.6365H100.785ZM97.4288 42.6365V34.7136H98.6392V42.6365H97.4288ZM107.563 42.7465C106.954 42.7465 106.437 42.6365 106.011 42.4164C105.586 42.1963 105.204 41.8735 104.867 41.448L105.725 40.5897C105.938 40.8978 106.191 41.1399 106.484 41.316C106.778 41.4847 107.152 41.5691 107.607 41.5691C108.032 41.5691 108.37 41.4811 108.619 41.305C108.876 41.1289 109.004 40.8868 109.004 40.5787C109.004 40.322 108.938 40.1129 108.806 39.9515C108.674 39.7901 108.498 39.6581 108.278 39.5554C108.065 39.4453 107.827 39.35 107.563 39.2693C107.306 39.1812 107.046 39.0859 106.781 38.9832C106.525 38.8731 106.286 38.7374 106.066 38.576C105.853 38.4146 105.681 38.2055 105.549 37.9488C105.417 37.692 105.351 37.3656 105.351 36.9694C105.351 36.5146 105.461 36.1295 105.681 35.814C105.908 35.4912 106.213 35.2455 106.594 35.0768C106.976 34.908 107.401 34.8237 107.871 34.8237C108.377 34.8237 108.828 34.9227 109.224 35.1208C109.628 35.3188 109.954 35.5719 110.204 35.88L109.345 36.7384C109.125 36.4889 108.894 36.3055 108.652 36.1882C108.417 36.0634 108.146 36.0011 107.838 36.0011C107.456 36.0011 107.156 36.0781 106.935 36.2322C106.723 36.3862 106.616 36.6026 106.616 36.8814C106.616 37.1162 106.682 37.3069 106.814 37.4536C106.946 37.593 107.119 37.714 107.332 37.8167C107.552 37.9121 107.79 38.0038 108.047 38.0918C108.311 38.1799 108.571 38.2789 108.828 38.3889C109.092 38.499 109.331 38.642 109.543 38.8181C109.763 38.9868 109.94 39.2069 110.072 39.4783C110.204 39.7498 110.27 40.0909 110.27 40.5017C110.27 41.1913 110.024 41.7378 109.532 42.1413C109.048 42.5448 108.392 42.7465 107.563 42.7465ZM113.723 42.7465C113.209 42.7465 112.743 42.6255 112.325 42.3834C111.907 42.134 111.573 41.8002 111.324 41.382C111.082 40.9639 110.961 40.498 110.961 39.9845C110.961 39.471 111.082 39.0088 111.324 38.598C111.573 38.1872 111.907 37.8608 112.325 37.6187C112.743 37.3692 113.209 37.2445 113.723 37.2445C114.244 37.2445 114.713 37.3656 115.131 37.6077C115.549 37.8498 115.88 38.1799 116.122 38.598C116.371 39.0088 116.496 39.471 116.496 39.9845C116.496 40.498 116.371 40.9639 116.122 41.382C115.88 41.8002 115.549 42.134 115.131 42.3834C114.713 42.6255 114.244 42.7465 113.723 42.7465ZM113.723 41.5801C114.024 41.5801 114.288 41.5141 114.515 41.382C114.75 41.2426 114.93 41.0519 115.054 40.8098C115.186 40.5677 115.252 40.2926 115.252 39.9845C115.252 39.6764 115.186 39.405 115.054 39.1702C114.922 38.9355 114.742 38.7521 114.515 38.62C114.288 38.4806 114.024 38.411 113.723 38.411C113.429 38.411 113.165 38.4806 112.93 38.62C112.703 38.7521 112.523 38.9355 112.391 39.1702C112.267 39.405 112.204 39.6764 112.204 39.9845C112.204 40.2926 112.267 40.5677 112.391 40.8098C112.523 41.0519 112.703 41.2426 112.93 41.382C113.165 41.5141 113.429 41.5801 113.723 41.5801ZM119.934 42.7465C119.413 42.7465 118.94 42.6255 118.515 42.3834C118.097 42.1413 117.766 41.8112 117.524 41.393C117.282 40.9749 117.161 40.509 117.161 39.9955C117.161 39.4747 117.282 39.0088 117.524 38.598C117.766 38.1799 118.097 37.8498 118.515 37.6077C118.94 37.3656 119.413 37.2445 119.934 37.2445C120.345 37.2445 120.727 37.3252 121.079 37.4866C121.438 37.6407 121.743 37.8644 121.992 38.1579L121.2 38.9612C121.046 38.7778 120.859 38.642 120.638 38.554C120.426 38.4586 120.191 38.411 119.934 38.411C119.633 38.411 119.366 38.4806 119.131 38.62C118.904 38.7521 118.724 38.9355 118.592 39.1702C118.467 39.405 118.405 39.6801 118.405 39.9955C118.405 40.3036 118.467 40.5787 118.592 40.8208C118.724 41.0556 118.904 41.2426 119.131 41.382C119.366 41.5141 119.633 41.5801 119.934 41.5801C120.191 41.5801 120.426 41.5361 120.638 41.448C120.859 41.3527 121.046 41.2133 121.2 41.0299L121.992 41.8332C121.743 42.1266 121.438 42.354 121.079 42.5154C120.727 42.6695 120.345 42.7465 119.934 42.7465ZM122.876 42.6365V37.3546H124.086V42.6365H122.876ZM123.481 36.3862C123.275 36.3862 123.103 36.3165 122.964 36.1772C122.832 36.0378 122.766 35.8654 122.766 35.66C122.766 35.4546 122.832 35.2822 122.964 35.1428C123.103 35.0034 123.275 34.9337 123.481 34.9337C123.694 34.9337 123.866 35.0034 123.998 35.1428C124.13 35.2822 124.196 35.4546 124.196 35.66C124.196 35.8654 124.13 36.0378 123.998 36.1772C123.866 36.3165 123.694 36.3862 123.481 36.3862ZM127.655 42.7465C127.179 42.7465 126.746 42.6255 126.357 42.3834C125.976 42.1413 125.671 41.8148 125.444 41.404C125.224 40.9859 125.114 40.52 125.114 40.0065C125.114 39.4857 125.224 39.0198 125.444 38.609C125.671 38.1909 125.976 37.8608 126.357 37.6187C126.746 37.3692 127.179 37.2445 127.655 37.2445C128.059 37.2445 128.415 37.3326 128.723 37.5086C129.038 37.6774 129.288 37.9121 129.471 38.2129C129.655 38.5137 129.746 38.8548 129.746 39.2363V40.7548C129.746 41.1363 129.655 41.4774 129.471 41.7782C129.295 42.0789 129.049 42.3174 128.734 42.4934C128.418 42.6622 128.059 42.7465 127.655 42.7465ZM127.854 41.6021C128.301 41.6021 128.661 41.4517 128.932 41.1509C129.211 40.8502 129.35 40.465 129.35 39.9955C129.35 39.6801 129.288 39.4013 129.163 39.1592C129.038 38.9171 128.862 38.7301 128.635 38.598C128.415 38.4586 128.154 38.3889 127.854 38.3889C127.56 38.3889 127.3 38.4586 127.072 38.598C126.852 38.7301 126.676 38.9171 126.544 39.1592C126.419 39.4013 126.357 39.6801 126.357 39.9955C126.357 40.311 126.419 40.5897 126.544 40.8318C126.676 41.0739 126.852 41.2646 127.072 41.404C127.3 41.5361 127.56 41.6021 127.854 41.6021ZM129.273 42.6365V41.217L129.482 39.9295L129.273 38.653V37.3546H130.484V42.6365H129.273ZM131.827 42.6365V34.7136H133.037V42.6365H131.827ZM136.112 42.7465C135.819 42.7465 135.536 42.7098 135.265 42.6365C134.993 42.5558 134.744 42.4457 134.516 42.3064C134.289 42.1596 134.091 41.9836 133.922 41.7782L134.693 41.0079C134.876 41.2206 135.085 41.382 135.32 41.4921C135.562 41.5948 135.833 41.6461 136.134 41.6461C136.405 41.6461 136.611 41.6058 136.75 41.5251C136.89 41.4444 136.959 41.327 136.959 41.1729C136.959 41.0116 136.893 40.8868 136.761 40.7988C136.629 40.7108 136.457 40.6374 136.244 40.5787C136.039 40.5127 135.819 40.4467 135.584 40.3807C135.356 40.3146 135.136 40.2266 134.924 40.1166C134.718 39.9992 134.549 39.8415 134.417 39.6434C134.285 39.4453 134.219 39.1886 134.219 38.8731C134.219 38.5357 134.296 38.2459 134.45 38.0038C134.612 37.7617 134.836 37.5747 135.122 37.4426C135.415 37.3106 135.764 37.2445 136.167 37.2445C136.593 37.2445 136.967 37.3216 137.289 37.4756C137.62 37.6223 137.895 37.8461 138.115 38.1469L137.344 38.9171C137.19 38.7264 137.014 38.5834 136.816 38.488C136.618 38.3926 136.391 38.3449 136.134 38.3449C135.892 38.3449 135.705 38.3816 135.573 38.455C135.441 38.5283 135.375 38.6347 135.375 38.7741C135.375 38.9208 135.441 39.0345 135.573 39.1152C135.705 39.1959 135.874 39.2656 136.079 39.3243C136.292 39.383 136.512 39.449 136.739 39.5224C136.974 39.5884 137.194 39.6837 137.399 39.8085C137.612 39.9258 137.785 40.0872 137.917 40.2926C138.049 40.4907 138.115 40.7511 138.115 41.0739C138.115 41.5874 137.935 41.9946 137.576 42.2954C137.216 42.5961 136.728 42.7465 136.112 42.7465ZM141.481 42.6365V34.9337H142.746V42.6365H141.481ZM142.35 42.6365V41.4811H146.377V42.6365H142.35ZM147.793 42.6365V35.1538H149.003V42.6365H147.793ZM146.527 38.455V37.3546H150.269V38.455H146.527ZM153.21 42.7465C152.733 42.7465 152.3 42.6255 151.911 42.3834C151.53 42.1413 151.225 41.8148 150.998 41.404C150.778 40.9859 150.668 40.52 150.668 40.0065C150.668 39.4857 150.778 39.0198 150.998 38.609C151.225 38.1909 151.53 37.8608 151.911 37.6187C152.3 37.3692 152.733 37.2445 153.21 37.2445C153.613 37.2445 153.969 37.3326 154.277 37.5086C154.592 37.6774 154.842 37.9121 155.025 38.2129C155.209 38.5137 155.3 38.8548 155.3 39.2363V40.7548C155.3 41.1363 155.209 41.4774 155.025 41.7782C154.849 42.0789 154.603 42.3174 154.288 42.4934C153.973 42.6622 153.613 42.7465 153.21 42.7465ZM153.408 41.6021C153.708 41.6021 153.969 41.5361 154.189 41.404C154.416 41.2646 154.592 41.0739 154.717 40.8318C154.842 40.5897 154.904 40.311 154.904 39.9955C154.904 39.6801 154.842 39.4013 154.717 39.1592C154.592 38.9171 154.416 38.7301 154.189 38.598C153.969 38.4586 153.708 38.3889 153.408 38.3889C153.114 38.3889 152.854 38.4586 152.626 38.598C152.406 38.7301 152.23 38.9171 152.098 39.1592C151.973 39.4013 151.911 39.6801 151.911 39.9955C151.911 40.311 151.973 40.5897 152.098 40.8318C152.23 41.0739 152.406 41.2646 152.626 41.404C152.854 41.5361 153.114 41.6021 153.408 41.6021ZM156.038 42.6365H154.827V41.217L155.036 39.9295L154.827 38.653V34.7136H156.038V42.6365Z" fill="#F4F4F4"/>
<defs>
<linearGradient id="paint0_linear_1590_22614" x1="-0.000569944" y1="22.9616" x2="40.5769" y2="22.9616" gradientUnits="userSpaceOnUse">
<stop stop-color="#00DAFF"/>
<stop offset="0.16" stop-color="#31BAFD"/>
<stop offset="0.38" stop-color="#7190FA"/>
<stop offset="0.59" stop-color="#A46EF7"/>
<stop offset="0.76" stop-color="#C856F5"/>
<stop offset="0.91" stop-color="#DF47F4"/>
<stop offset="1" stop-color="#E742F4"/>
</linearGradient>
</defs>
</svg>
