<svg width="174" height="46" viewBox="0 0 174 46" fill="none" xmlns="http://www.w3.org/2000/svg">
<path d="M33.1995 6.87753H7.37921C1.32867 6.87753 -2.14067 13.7663 1.46064 18.6291L14.3761 36.0649C15.0619 36.9893 15.9545 37.7402 16.9825 38.2577C18.0106 38.7751 19.1456 39.0446 20.2965 39.0446C21.4474 39.0446 22.5824 38.7751 23.6104 38.2577C24.6385 37.7402 25.5311 36.9893 26.2168 36.0649L39.1181 18.6267C42.717 13.7627 39.2465 6.87753 33.1995 6.87753ZM29.3235 24.4133C26.2989 25.8471 23.2373 26.5724 20.2222 26.5724C17.207 26.5724 14.1586 25.8412 11.2207 24.399C10.5873 24.0884 10.1033 23.5389 9.87513 22.8715C9.64692 22.204 9.6932 21.4732 10.0038 20.8399C10.3144 20.2066 10.8639 19.7226 11.5313 19.4943C12.1988 19.2661 12.9296 19.3124 13.5629 19.623C15.8064 20.7275 17.987 21.2614 20.221 21.2614C22.455 21.2614 24.7009 20.7216 27.0479 19.6087C27.403 19.4386 27.792 19.3508 28.1857 19.3519C28.6891 19.353 29.1818 19.4969 29.6065 19.7669C30.031 20.0367 30.3713 20.4202 30.5886 20.8738C30.8897 21.511 30.9256 22.2416 30.6884 22.9053C30.4512 23.5689 29.9603 24.1113 29.3235 24.4133Z" fill="url(#paint0_linear_1661_30790)"/>
<path d="M61.9523 3.6331H70.0127V3.99073C68.7747 3.99073 67.2617 4.40338 64.8133 10.1254L59.614 23.0001H58.9812C51.9387 6.79674 51.5811 6.21903 51.5811 6.21903C50.6457 4.01824 49.9305 4.01824 49.1877 3.99073V3.6331H58.1559V3.99073C56.0652 3.99073 57.3581 7.18188 57.3581 7.18188L61.5947 17.168L64.4557 10.0429C64.8683 9.02504 65.8587 3.99073 61.9523 3.99073V3.6331ZM71.193 6.35658C71.193 5.09113 72.1834 4.10077 73.4488 4.10077C74.6868 4.10077 75.7047 5.09113 75.7047 6.35658C75.7047 7.59453 74.6868 8.58488 73.4488 8.58488C72.1834 8.58488 71.193 7.59453 71.193 6.35658ZM76.8876 22.6699V23.0001H70.6153V22.6699C71.6607 22.3398 71.7157 21.1844 71.7157 19.7814V13.3716C71.7157 12.4088 71.4131 12.0236 70.2852 11.5284V11.1708L75.7597 10.0429V19.7814C75.7597 21.2944 75.8972 22.3948 76.8876 22.6699ZM89.2597 16.9204C89.2597 13.124 88.3794 11.0333 86.2611 11.0333C84.3905 11.0333 83.7027 12.9314 83.7027 14.9672V18.1858C83.7027 21.487 84.8581 22.89 86.4812 22.89C88.2419 22.89 89.2597 21.2394 89.2597 16.9204ZM93.9914 16.6178C93.9914 21.5695 90.7177 23.2476 87.0314 23.2476C85.1332 23.2476 83.7577 22.7525 82.9324 21.9547C81.9971 22.6699 79.6588 23.3027 79.6588 22.8625V5.66883C79.6588 4.7335 79.3837 4.32085 78.2558 3.9082V3.57808L83.7027 2.47769V12.2712C84.528 10.7582 86.2336 10.0429 88.1868 10.0429C91.6256 10.0429 93.9914 12.7389 93.9914 16.6178ZM100.402 16.0401H104.858C104.858 12.5738 104.116 10.4005 102.74 10.4005C101.282 10.4005 100.402 13.3991 100.402 16.0401ZM108.517 16.3977H100.402C100.512 19.8364 101.86 21.0744 103.703 21.487C105.134 21.8171 107.169 21.1294 107.775 19.3137L108.132 19.4513C107.747 21.1844 105.931 23.2476 102.355 23.2476C98.7513 23.2476 96.0553 20.1665 96.0553 16.7003C96.0553 12.4088 99.1639 10.0429 102.74 10.0429C106.206 10.0429 108.517 11.666 108.517 16.3977ZM122.362 10.2905L115.677 22.6424C119.804 22.6424 121.042 19.919 121.427 18.8186H121.785L121.537 23.0001H110.45L117.576 10.6481C113.889 10.6481 112.266 12.1061 111.633 13.9218H111.276L111.413 10.2905H122.362ZM133.481 21.7621C133.481 21.7621 132.436 23.2476 129.437 23.2476C126.109 23.2476 124.486 22.1473 124.486 22.1473V18.626H124.843C125.338 20.4416 126.907 22.89 129.437 22.89C131.391 22.89 131.776 20.5242 129.685 19.1487L126.907 17.4706C124.266 15.7925 123.578 13.3166 125.173 11.3909C125.173 11.3909 126.191 10.0429 129.135 10.0429C132.298 10.0429 133.646 10.8407 133.646 10.8407V13.7843H133.289C132.876 12.0786 131.363 10.4005 129.135 10.4005C127.347 10.4005 126.549 12.3537 128.942 13.8668L131.721 15.5999C134.197 17.1129 134.912 19.8639 133.481 21.7621ZM145.015 23.2476C141.273 23.2476 137.917 20.9918 137.917 16.5077V6.4116C137.917 4.7335 137.477 3.99073 136.267 3.99073V3.6331H144.575V3.99073C143.392 3.99073 142.731 4.43089 142.731 6.4116V16.7003C142.731 19.9465 144.602 21.5971 147.216 21.5971C149.719 21.5971 151.7 19.6989 151.7 16.7003V9.02504C151.7 7.89714 151.37 3.99073 148.151 3.99073V3.6331H155.909L155.936 3.99073C152.305 3.99073 152.057 7.89714 152.057 9.02504V16.7003C152.057 21.432 148.646 23.2476 145.015 23.2476ZM167.869 16.9204C167.869 13.0965 166.961 11.0333 164.87 11.0333C163.22 11.0333 162.477 12.4913 162.312 14.2244V19.1212C162.505 21.7621 163.632 22.89 165.063 22.89C166.824 22.89 167.869 21.2119 167.869 16.9204ZM172.601 16.5903C172.601 21.542 169.327 23.2476 165.641 23.2476C164.265 23.2476 163.137 22.9726 162.312 22.5049V27.1816C162.312 28.6946 162.477 29.685 163.44 29.9326V30.2902H157.195V29.9326C158.241 29.6299 158.268 28.5846 158.268 27.1816V13.179C158.268 12.2162 157.993 11.9411 156.865 11.5284V11.1708L162.312 10.0429V12.2437C163.137 10.7582 164.843 10.0429 166.769 10.0429C170.207 10.0429 172.601 12.7389 172.601 16.5903Z" fill="white"/>
<path d="M66.7717 42.7465C66.3682 42.7465 66.0088 42.6622 65.6933 42.4934C65.3779 42.3174 65.1285 42.0789 64.9451 41.7782C64.769 41.4774 64.681 41.1363 64.681 40.7548V39.2363C64.681 38.8548 64.7727 38.5137 64.9561 38.2129C65.1395 37.9121 65.3889 37.6774 65.7043 37.5086C66.0198 37.3326 66.3756 37.2445 66.7717 37.2445C67.2486 37.2445 67.6777 37.3692 68.0592 37.6187C68.448 37.8608 68.7524 38.1909 68.9725 38.609C69.1999 39.0198 69.3136 39.4857 69.3136 40.0065C69.3136 40.52 69.1999 40.9859 68.9725 41.404C68.7524 41.8148 68.448 42.1413 68.0592 42.3834C67.6777 42.6255 67.2486 42.7465 66.7717 42.7465ZM66.5736 41.6021C66.8671 41.6021 67.1238 41.5361 67.3439 41.404C67.5713 41.2646 67.7474 41.0739 67.8721 40.8318C68.0042 40.5897 68.0702 40.311 68.0702 39.9955C68.0702 39.6801 68.0042 39.4013 67.8721 39.1592C67.7474 38.9171 67.5713 38.7301 67.3439 38.598C67.1238 38.4586 66.8671 38.3889 66.5736 38.3889C66.2802 38.3889 66.0198 38.4586 65.7924 38.598C65.565 38.7301 65.3889 38.9171 65.2642 39.1592C65.1395 39.4013 65.0771 39.6801 65.0771 39.9955C65.0771 40.311 65.1395 40.5897 65.2642 40.8318C65.3889 41.0739 65.565 41.2646 65.7924 41.404C66.0198 41.5361 66.2802 41.6021 66.5736 41.6021ZM63.9437 42.6365V34.7136H65.1541V38.653L64.9451 39.9295L65.1541 41.217V42.6365H63.9437ZM71.8498 42.6915L69.594 37.3546H70.9255L72.466 41.272H72.0809L73.7095 37.3546H75.0519L72.5981 42.6915H71.8498ZM70.2762 44.8373L71.9158 41.4591L72.5981 42.6915L71.6187 44.8373H70.2762ZM79.0769 42.6365V41.4811H81.1016C81.6298 41.4811 82.092 41.3674 82.4881 41.1399C82.8916 40.9125 83.2034 40.5971 83.4235 40.1936C83.6509 39.7828 83.7646 39.3096 83.7646 38.7741C83.7646 38.2459 83.6509 37.7801 83.4235 37.3766C83.196 36.9731 82.8806 36.6577 82.4771 36.4302C82.081 36.2028 81.6225 36.0891 81.1016 36.0891H79.0769V34.9337H81.1346C81.6922 34.9337 82.2093 35.0327 82.6862 35.2308C83.163 35.4215 83.5775 35.693 83.9296 36.0451C84.2891 36.3899 84.5679 36.797 84.7659 37.2665C84.964 37.7287 85.063 38.2349 85.063 38.7851C85.063 39.328 84.964 39.8341 84.7659 40.3036C84.5679 40.7731 84.2928 41.184 83.9406 41.5361C83.5885 41.8809 83.174 42.1523 82.6972 42.3504C82.2204 42.5411 81.7068 42.6365 81.1566 42.6365H79.0769ZM78.2076 42.6365V34.9337H79.473V42.6365H78.2076ZM88.6419 42.7465C88.1137 42.7465 87.6369 42.6291 87.2114 42.3944C86.7932 42.1523 86.4595 41.8222 86.21 41.404C85.9679 40.9859 85.8469 40.5164 85.8469 39.9955C85.8469 39.4747 85.9679 39.0088 86.21 38.598C86.4521 38.1799 86.7786 37.8498 87.1894 37.6077C87.6075 37.3656 88.0697 37.2445 88.5759 37.2445C89.0674 37.2445 89.5002 37.3582 89.8743 37.5857C90.2558 37.8131 90.5529 38.1249 90.7657 38.521C90.9857 38.9171 91.0958 39.3683 91.0958 39.8745C91.0958 39.9625 91.0884 40.0542 91.0738 40.1496C91.0664 40.2376 91.0518 40.3366 91.0298 40.4467H86.6942V39.4563H90.4025L89.9514 39.8525C89.9367 39.5297 89.8743 39.2583 89.7643 39.0382C89.6543 38.8181 89.4965 38.6494 89.2911 38.532C89.0931 38.4146 88.8473 38.3559 88.5539 38.3559C88.2458 38.3559 87.978 38.422 87.7506 38.554C87.5232 38.6861 87.3471 38.8731 87.2224 39.1152C87.0977 39.35 87.0353 39.6324 87.0353 39.9625C87.0353 40.2926 87.1013 40.5824 87.2334 40.8318C87.3654 41.0812 87.5525 41.2757 87.7946 41.415C88.0367 41.5471 88.3155 41.6131 88.6309 41.6131C88.9023 41.6131 89.1518 41.5654 89.3792 41.4701C89.6139 41.3747 89.812 41.2353 89.9734 41.0519L90.7437 41.8332C90.4869 42.134 90.1751 42.3614 89.8083 42.5154C89.4415 42.6695 89.0527 42.7465 88.6419 42.7465ZM94.498 42.7465C93.9771 42.7465 93.504 42.6255 93.0785 42.3834C92.6603 42.1413 92.3302 41.8112 92.0881 41.393C91.846 40.9749 91.725 40.509 91.725 39.9955C91.725 39.4747 91.846 39.0088 92.0881 38.598C92.3302 38.1799 92.6603 37.8498 93.0785 37.6077C93.504 37.3656 93.9771 37.2445 94.498 37.2445C94.9088 37.2445 95.2903 37.3252 95.6424 37.4866C96.0019 37.6407 96.3063 37.8644 96.5557 38.1579L95.7634 38.9612C95.6094 38.7778 95.4223 38.642 95.2022 38.554C94.9895 38.4586 94.7547 38.411 94.498 38.411C94.1972 38.411 93.9294 38.4806 93.6947 38.62C93.4673 38.7521 93.2875 38.9355 93.1555 39.1702C93.0308 39.405 92.9684 39.6801 92.9684 39.9955C92.9684 40.3036 93.0308 40.5787 93.1555 40.8208C93.2875 41.0556 93.4673 41.2426 93.6947 41.382C93.9294 41.5141 94.1972 41.5801 94.498 41.5801C94.7547 41.5801 94.9895 41.5361 95.2022 41.448C95.4223 41.3527 95.6094 41.2133 95.7634 41.0299L96.5557 41.8332C96.3063 42.1266 96.0019 42.354 95.6424 42.5154C95.2903 42.6695 94.9088 42.7465 94.498 42.7465ZM100.785 42.6365L98.5508 39.9405L100.774 37.3546H102.215L99.6622 40.2596L99.7172 39.5664L102.325 42.6365H100.785ZM97.4284 42.6365V34.7136H98.6388V42.6365H97.4284ZM102.447 40.4027V39.2583H106.177V40.4027H102.447ZM108.553 42.6365V41.5361H110.765C111.154 41.5361 111.455 41.415 111.667 41.1729C111.88 40.9309 111.987 40.6521 111.987 40.3366C111.987 40.1239 111.939 39.9258 111.843 39.7424C111.748 39.559 111.609 39.4123 111.425 39.3023C111.242 39.1922 111.022 39.1372 110.765 39.1372H108.553V38.0368H110.578C110.908 38.0368 111.172 37.9525 111.37 37.7837C111.568 37.615 111.667 37.3656 111.667 37.0355C111.667 36.7053 111.568 36.4559 111.37 36.2872C111.172 36.1185 110.908 36.0341 110.578 36.0341H108.553V34.9337H110.611C111.132 34.9337 111.565 35.0291 111.91 35.2198C112.254 35.4105 112.511 35.6563 112.68 35.9571C112.849 36.2578 112.933 36.5806 112.933 36.9254C112.933 37.3289 112.819 37.6847 112.592 37.9928C112.372 38.3009 112.045 38.5503 111.612 38.7411L111.711 38.3449C112.196 38.543 112.573 38.8218 112.845 39.1812C113.116 39.5407 113.252 39.9625 113.252 40.4467C113.252 40.8428 113.153 41.206 112.955 41.5361C112.764 41.8662 112.478 42.134 112.097 42.3394C111.722 42.5374 111.26 42.6365 110.71 42.6365H108.553ZM107.684 42.6365V34.9337H108.949V42.6365H107.684ZM116.785 42.7465C116.272 42.7465 115.806 42.6255 115.388 42.3834C114.969 42.134 114.636 41.8002 114.386 41.382C114.144 40.9639 114.023 40.498 114.023 39.9845C114.023 39.471 114.144 39.0088 114.386 38.598C114.636 38.1872 114.969 37.8608 115.388 37.6187C115.806 37.3692 116.272 37.2445 116.785 37.2445C117.306 37.2445 117.775 37.3656 118.194 37.6077C118.612 37.8498 118.942 38.1799 119.184 38.598C119.433 39.0088 119.558 39.471 119.558 39.9845C119.558 40.498 119.433 40.9639 119.184 41.382C118.942 41.8002 118.612 42.134 118.194 42.3834C117.775 42.6255 117.306 42.7465 116.785 42.7465ZM116.785 41.5801C117.086 41.5801 117.35 41.5141 117.577 41.382C117.812 41.2426 117.992 41.0519 118.117 40.8098C118.249 40.5677 118.315 40.2926 118.315 39.9845C118.315 39.6764 118.249 39.405 118.117 39.1702C117.984 38.9355 117.805 38.7521 117.577 38.62C117.35 38.4806 117.086 38.411 116.785 38.411C116.492 38.411 116.227 38.4806 115.993 38.62C115.765 38.7521 115.586 38.9355 115.454 39.1702C115.329 39.405 115.266 39.6764 115.266 39.9845C115.266 40.2926 115.329 40.5677 115.454 40.8098C115.586 41.0519 115.765 41.2426 115.993 41.382C116.227 41.5141 116.492 41.5801 116.785 41.5801ZM123.759 42.6365L122.241 40.4027L122.021 40.2046L119.974 37.3546H121.438L122.791 39.3133L123 39.5003L125.212 42.6365H123.759ZM119.875 42.6365L122.01 39.6764L122.714 40.5457L121.283 42.6365H119.875ZM123.11 40.1826L122.395 39.3243L123.715 37.3546H125.113L123.11 40.1826ZM130.527 42.7465C129.918 42.7465 129.401 42.6365 128.975 42.4164C128.55 42.1963 128.168 41.8735 127.831 41.448L128.689 40.5897C128.902 40.8978 129.155 41.1399 129.448 41.316C129.742 41.4847 130.116 41.5691 130.571 41.5691C130.996 41.5691 131.334 41.4811 131.583 41.305C131.84 41.1289 131.968 40.8868 131.968 40.5787C131.968 40.322 131.902 40.1129 131.77 39.9515C131.638 39.7901 131.462 39.6581 131.242 39.5554C131.029 39.4453 130.791 39.35 130.527 39.2693C130.27 39.1812 130.009 39.0859 129.745 38.9832C129.489 38.8731 129.25 38.7374 129.03 38.576C128.817 38.4146 128.645 38.2055 128.513 37.9488C128.381 37.692 128.315 37.3656 128.315 36.9694C128.315 36.5146 128.425 36.1295 128.645 35.814C128.872 35.4912 129.177 35.2455 129.558 35.0768C129.94 34.908 130.365 34.8237 130.835 34.8237C131.341 34.8237 131.792 34.9227 132.188 35.1208C132.592 35.3188 132.918 35.5719 133.168 35.88L132.309 36.7384C132.089 36.4889 131.858 36.3055 131.616 36.1882C131.381 36.0634 131.11 36.0011 130.802 36.0011C130.42 36.0011 130.119 36.0781 129.899 36.2322C129.687 36.3862 129.58 36.6026 129.58 36.8814C129.58 37.1162 129.646 37.3069 129.778 37.4536C129.91 37.593 130.083 37.714 130.296 37.8167C130.516 37.9121 130.754 38.0038 131.011 38.0918C131.275 38.1799 131.535 38.2789 131.792 38.3889C132.056 38.499 132.295 38.642 132.507 38.8181C132.727 38.9868 132.903 39.2069 133.036 39.4783C133.168 39.7498 133.234 40.0909 133.234 40.5017C133.234 41.1913 132.988 41.7378 132.496 42.1413C132.012 42.5448 131.356 42.7465 130.527 42.7465ZM136.687 42.7465C136.173 42.7465 135.707 42.6255 135.289 42.3834C134.871 42.134 134.537 41.8002 134.288 41.382C134.046 40.9639 133.925 40.498 133.925 39.9845C133.925 39.471 134.046 39.0088 134.288 38.598C134.537 38.1872 134.871 37.8608 135.289 37.6187C135.707 37.3692 136.173 37.2445 136.687 37.2445C137.208 37.2445 137.677 37.3656 138.095 37.6077C138.513 37.8498 138.843 38.1799 139.086 38.598C139.335 39.0088 139.46 39.471 139.46 39.9845C139.46 40.498 139.335 40.9639 139.086 41.382C138.843 41.8002 138.513 42.134 138.095 42.3834C137.677 42.6255 137.208 42.7465 136.687 42.7465ZM136.687 41.5801C136.987 41.5801 137.252 41.5141 137.479 41.382C137.714 41.2426 137.893 41.0519 138.018 40.8098C138.15 40.5677 138.216 40.2926 138.216 39.9845C138.216 39.6764 138.15 39.405 138.018 39.1702C137.886 38.9355 137.706 38.7521 137.479 38.62C137.252 38.4806 136.987 38.411 136.687 38.411C136.393 38.411 136.129 38.4806 135.894 38.62C135.667 38.7521 135.487 38.9355 135.355 39.1702C135.231 39.405 135.168 39.6764 135.168 39.9845C135.168 40.2926 135.231 40.5677 135.355 40.8098C135.487 41.0519 135.667 41.2426 135.894 41.382C136.129 41.5141 136.393 41.5801 136.687 41.5801ZM142.898 42.7465C142.377 42.7465 141.904 42.6255 141.479 42.3834C141.061 42.1413 140.73 41.8112 140.488 41.393C140.246 40.9749 140.125 40.509 140.125 39.9955C140.125 39.4747 140.246 39.0088 140.488 38.598C140.73 38.1799 141.061 37.8498 141.479 37.6077C141.904 37.3656 142.377 37.2445 142.898 37.2445C143.309 37.2445 143.69 37.3252 144.043 37.4866C144.402 37.6407 144.706 37.8644 144.956 38.1579L144.164 38.9612C144.01 38.7778 143.823 38.642 143.602 38.554C143.39 38.4586 143.155 38.411 142.898 38.411C142.597 38.411 142.33 38.4806 142.095 38.62C141.867 38.7521 141.688 38.9355 141.556 39.1702C141.431 39.405 141.369 39.6801 141.369 39.9955C141.369 40.3036 141.431 40.5787 141.556 40.8208C141.688 41.0556 141.867 41.2426 142.095 41.382C142.33 41.5141 142.597 41.5801 142.898 41.5801C143.155 41.5801 143.39 41.5361 143.602 41.448C143.823 41.3527 144.01 41.2133 144.164 41.0299L144.956 41.8332C144.706 42.1266 144.402 42.354 144.043 42.5154C143.69 42.6695 143.309 42.7465 142.898 42.7465ZM145.84 42.6365V37.3546H147.05V42.6365H145.84ZM146.445 36.3862C146.239 36.3862 146.067 36.3165 145.928 36.1772C145.796 36.0378 145.73 35.8654 145.73 35.66C145.73 35.4546 145.796 35.2822 145.928 35.1428C146.067 35.0034 146.239 34.9337 146.445 34.9337C146.658 34.9337 146.83 35.0034 146.962 35.1428C147.094 35.2822 147.16 35.4546 147.16 35.66C147.16 35.8654 147.094 36.0378 146.962 36.1772C146.83 36.3165 146.658 36.3862 146.445 36.3862ZM150.619 42.7465C150.143 42.7465 149.71 42.6255 149.321 42.3834C148.939 42.1413 148.635 41.8148 148.408 41.404C148.188 40.9859 148.078 40.52 148.078 40.0065C148.078 39.4857 148.188 39.0198 148.408 38.609C148.635 38.1909 148.939 37.8608 149.321 37.6187C149.71 37.3692 150.143 37.2445 150.619 37.2445C151.023 37.2445 151.379 37.3326 151.687 37.5086C152.002 37.6774 152.252 37.9121 152.435 38.2129C152.618 38.5137 152.71 38.8548 152.71 39.2363V40.7548C152.71 41.1363 152.618 41.4774 152.435 41.7782C152.259 42.0789 152.013 42.3174 151.698 42.4934C151.382 42.6622 151.023 42.7465 150.619 42.7465ZM150.818 41.6021C151.265 41.6021 151.624 41.4517 151.896 41.1509C152.175 40.8502 152.314 40.465 152.314 39.9955C152.314 39.6801 152.252 39.4013 152.127 39.1592C152.002 38.9171 151.826 38.7301 151.599 38.598C151.379 38.4586 151.118 38.3889 150.818 38.3889C150.524 38.3889 150.264 38.4586 150.036 38.598C149.816 38.7301 149.64 38.9171 149.508 39.1592C149.383 39.4013 149.321 39.6801 149.321 39.9955C149.321 40.311 149.383 40.5897 149.508 40.8318C149.64 41.0739 149.816 41.2646 150.036 41.404C150.264 41.5361 150.524 41.6021 150.818 41.6021ZM152.237 42.6365V41.217L152.446 39.9295L152.237 38.653V37.3546H153.447V42.6365H152.237ZM154.791 42.6365V34.7136H156.001V42.6365H154.791Z" fill="#F4F4F4"/>
<defs>
<linearGradient id="paint0_linear_1661_30790" x1="-0.000569944" y1="22.9616" x2="40.5769" y2="22.9616" gradientUnits="userSpaceOnUse">
<stop stop-color="#00DAFF"/>
<stop offset="0.16" stop-color="#31BAFD"/>
<stop offset="0.38" stop-color="#7190FA"/>
<stop offset="0.59" stop-color="#A46EF7"/>
<stop offset="0.76" stop-color="#C856F5"/>
<stop offset="0.91" stop-color="#DF47F4"/>
<stop offset="1" stop-color="#E742F4"/>
</linearGradient>
</defs>
</svg>
