<svg width="83" height="66" viewBox="0 0 83 66" fill="none" xmlns="http://www.w3.org/2000/svg">
<path d="M67.9093 0H15.0941C2.71778 0 -4.37872 14.0909 2.98773 24.0376L29.4063 59.7025C30.8089 61.5933 32.6347 63.1294 34.7376 64.1878C36.8405 65.2461 39.162 65.7974 41.5163 65.7974C43.8705 65.7974 46.192 65.2461 48.2949 64.1878C50.3978 63.1294 52.2237 61.5933 53.6263 59.7025L80.0156 24.0328C87.3772 14.0836 80.2783 0 67.9093 0ZM59.981 35.8692C53.7941 38.8021 47.5318 40.2856 41.3643 40.2856C35.1968 40.2856 28.9612 38.79 22.9518 35.84C21.6563 35.2047 20.6663 34.0807 20.1995 32.7155C19.7327 31.3502 19.8274 29.8554 20.4627 28.5599C21.098 27.2644 22.2219 26.2744 23.5872 25.8076C24.9525 25.3408 26.4473 25.4354 27.7428 26.0708C32.3319 28.3301 36.7922 29.422 41.3618 29.422C45.9315 29.422 50.5255 28.3179 55.3262 26.0416C56.0526 25.6935 56.8482 25.5139 57.6536 25.5163C58.6832 25.5184 59.691 25.8127 60.5598 26.365C61.4282 26.9169 62.1241 27.7013 62.5686 28.6292C63.1846 29.9326 63.258 31.4271 62.7728 32.7846C62.2877 34.1421 61.2835 35.2515 59.981 35.8692Z" fill="url(#paint0_linear_6778_76392)"/>
<defs>
<linearGradient id="paint0_linear_6778_76392" x1="-0.00116581" y1="32.8997" x2="82.9997" y2="32.8997" gradientUnits="userSpaceOnUse">
<stop stop-color="#00DAFF"/>
<stop offset="0.16" stop-color="#31BAFD"/>
<stop offset="0.38" stop-color="#7190FA"/>
<stop offset="0.59" stop-color="#A46EF7"/>
<stop offset="0.76" stop-color="#C856F5"/>
<stop offset="0.91" stop-color="#DF47F4"/>
<stop offset="1" stop-color="#E742F4"/>
</linearGradient>
</defs>
</svg>
