<svg width="41" height="33" viewBox="0 0 41 33" fill="none" xmlns="http://www.w3.org/2000/svg">
<path d="M33.503 0H7.44665C1.34081 0 -2.16024 6.95171 1.47399 11.8589L14.5075 29.4542C15.1995 30.387 16.1003 31.1448 17.1378 31.667C18.1752 32.1891 19.3206 32.4611 20.482 32.4611C21.6435 32.4611 22.7888 32.1891 23.8262 31.667C24.8637 31.1448 25.7645 30.387 26.4565 29.4542L39.4756 11.8565C43.1075 6.94811 39.6052 0 33.503 0ZM29.5916 17.696C26.5393 19.143 23.4497 19.8749 20.407 19.8749C17.3643 19.8749 14.288 19.137 11.3232 17.6816C10.6841 17.3682 10.1957 16.8137 9.96539 16.1401C9.7351 15.4666 9.7818 14.7291 10.0952 14.09C10.4087 13.4509 10.9632 12.9624 11.6367 12.7321C12.3103 12.5018 13.0478 12.5485 13.6869 12.862C15.9509 13.9766 18.1514 14.5153 20.4058 14.5153C22.6603 14.5153 24.9267 13.9706 27.2951 12.8476C27.6535 12.6759 28.046 12.5873 28.4434 12.5884C28.9513 12.5895 29.4485 12.7347 29.8771 13.0072C30.3055 13.2794 30.6489 13.6664 30.8682 14.1242C31.172 14.7672 31.2083 15.5045 30.9689 16.1742C30.7296 16.8439 30.2342 17.3913 29.5916 17.696Z" fill="url(#paint0_linear_4045_17984)"/>
<defs>
<linearGradient id="paint0_linear_4045_17984" x1="-0.000575154" y1="16.2311" x2="40.9478" y2="16.2311" gradientUnits="userSpaceOnUse">
<stop stop-color="#00DAFF"/>
<stop offset="0.16" stop-color="#31BAFD"/>
<stop offset="0.38" stop-color="#7190FA"/>
<stop offset="0.59" stop-color="#A46EF7"/>
<stop offset="0.76" stop-color="#C856F5"/>
<stop offset="0.91" stop-color="#DF47F4"/>
<stop offset="1" stop-color="#E742F4"/>
</linearGradient>
</defs>
</svg>
