<svg width="21" height="21" viewBox="0 0 21 21" fill="none" xmlns="http://www.w3.org/2000/svg">
<path d="M10.0525 14.241V16.2348C10.0525 17.8013 10.6808 18.4296 12.2557 18.4296H16.2348C17.8013 18.4296 18.4296 17.8013 18.4296 16.2348V12.2557C18.4296 10.6808 17.8013 10.0525 16.2348 10.0525H14.2411V12.0379C14.2411 13.6128 13.6128 14.241 12.0463 14.241H10.0525Z" stroke="#8F8F8F" stroke-width="1.25656" stroke-linecap="round" stroke-linejoin="round"/>
<path d="M10.0525 14.241V16.2348C10.0525 17.8013 10.6808 18.4296 12.2557 18.4296H16.2348C17.8013 18.4296 18.4296 17.8013 18.4296 16.2348V12.2557C18.4296 10.6808 17.8013 10.0525 16.2348 10.0525H14.2411V12.0379C14.2411 13.6128 13.6128 14.241 12.0463 14.241H10.0525Z" stroke="black" stroke-opacity="0.2" stroke-width="1.25656" stroke-linecap="round" stroke-linejoin="round"/>
<path d="M10.0525 14.241V16.2348C10.0525 17.8013 10.6808 18.4296 12.2557 18.4296H16.2348C17.8013 18.4296 18.4296 17.8013 18.4296 16.2348V12.2557C18.4296 10.6808 17.8013 10.0525 16.2348 10.0525H14.2411V12.0379C14.2411 13.6128 13.6128 14.241 12.0463 14.241H10.0525Z" stroke="black" stroke-opacity="0.2" stroke-width="1.25656" stroke-linecap="round" stroke-linejoin="round"/>
<path d="M5.864 10.0526V12.0379C5.864 13.6128 6.49228 14.2411 8.06717 14.2411H12.0463C13.6128 14.2411 14.2411 13.6128 14.2411 12.0379V8.05881C14.2411 6.4923 13.6128 5.86401 12.0463 5.86401H10.0525V7.84938C10.0525 9.42428 9.42426 10.0526 7.85775 10.0526H5.864Z" stroke="#8F8F8F" stroke-width="1.25656" stroke-linecap="round" stroke-linejoin="round"/>
<path d="M5.864 10.0526V12.0379C5.864 13.6128 6.49228 14.2411 8.06717 14.2411H12.0463C13.6128 14.2411 14.2411 13.6128 14.2411 12.0379V8.05881C14.2411 6.4923 13.6128 5.86401 12.0463 5.86401H10.0525V7.84938C10.0525 9.42428 9.42426 10.0526 7.85775 10.0526H5.864Z" stroke="black" stroke-opacity="0.2" stroke-width="1.25656" stroke-linecap="round" stroke-linejoin="round"/>
<path d="M5.864 10.0526V12.0379C5.864 13.6128 6.49228 14.2411 8.06717 14.2411H12.0463C13.6128 14.2411 14.2411 13.6128 14.2411 12.0379V8.05881C14.2411 6.4923 13.6128 5.86401 12.0463 5.86401H10.0525V7.84938C10.0525 9.42428 9.42426 10.0526 7.85775 10.0526H5.864Z" stroke="black" stroke-opacity="0.2" stroke-width="1.25656" stroke-linecap="round" stroke-linejoin="round"/>
<path d="M1.67546 3.87033V7.84945C1.67546 9.42434 2.30374 10.0526 3.87864 10.0526H7.85775C9.42427 10.0526 10.0526 9.42434 10.0526 7.84945V3.87033C10.0526 2.30382 9.42427 1.67554 7.85775 1.67554H3.87864C2.30374 1.67554 1.67546 2.30382 1.67546 3.87033Z" stroke="#8F8F8F" stroke-width="1.25656" stroke-linecap="round" stroke-linejoin="round"/>
<path d="M1.67546 3.87033V7.84945C1.67546 9.42434 2.30374 10.0526 3.87864 10.0526H7.85775C9.42427 10.0526 10.0526 9.42434 10.0526 7.84945V3.87033C10.0526 2.30382 9.42427 1.67554 7.85775 1.67554H3.87864C2.30374 1.67554 1.67546 2.30382 1.67546 3.87033Z" stroke="black" stroke-opacity="0.2" stroke-width="1.25656" stroke-linecap="round" stroke-linejoin="round"/>
<path d="M1.67546 3.87033V7.84945C1.67546 9.42434 2.30374 10.0526 3.87864 10.0526H7.85775C9.42427 10.0526 10.0526 9.42434 10.0526 7.84945V3.87033C10.0526 2.30382 9.42427 1.67554 7.85775 1.67554H3.87864C2.30374 1.67554 1.67546 2.30382 1.67546 3.87033Z" stroke="black" stroke-opacity="0.2" stroke-width="1.25656" stroke-linecap="round" stroke-linejoin="round"/>
</svg>
