<svg width="22" height="18" viewBox="0 0 22 18" fill="none" xmlns="http://www.w3.org/2000/svg">
<path d="M20.387 14.2837H1.71806C1.32314 14.2837 1.00003 14.6068 1.00003 15.0017C1.00003 16.1937 1.9622 17.1558 3.15414 17.1558H18.9509C20.1429 17.1558 21.105 16.1937 21.105 15.0017C21.105 14.6068 20.7819 14.2837 20.387 14.2837Z" stroke="#8F8F8F" stroke-width="1.43607" stroke-linecap="round" stroke-linejoin="round"/>
<path d="M20.387 14.2837H1.71806C1.32314 14.2837 1.00003 14.6068 1.00003 15.0017C1.00003 16.1937 1.9622 17.1558 3.15414 17.1558H18.9509C20.1429 17.1558 21.105 16.1937 21.105 15.0017C21.105 14.6068 20.7819 14.2837 20.387 14.2837Z" stroke="black" stroke-opacity="0.2" stroke-width="1.43607" stroke-linecap="round" stroke-linejoin="round"/>
<path d="M20.387 14.2837H1.71806C1.32314 14.2837 1.00003 14.6068 1.00003 15.0017C1.00003 16.1937 1.9622 17.1558 3.15414 17.1558H18.9509C20.1429 17.1558 21.105 16.1937 21.105 15.0017C21.105 14.6068 20.7819 14.2837 20.387 14.2837Z" stroke="black" stroke-opacity="0.2" stroke-width="1.43607" stroke-linecap="round" stroke-linejoin="round"/>
<path d="M19.6402 14.2834C19.6618 14.0465 19.6689 13.8095 19.6689 13.5654C19.6689 8.80483 15.8131 4.94897 11.0525 4.94897C6.29193 4.94897 2.43608 8.80483 2.43608 13.5654C2.43608 13.8095 2.44326 14.0465 2.4648 14.2834" stroke="#8F8F8F" stroke-width="1.43607" stroke-linecap="round" stroke-linejoin="round"/>
<path d="M19.6402 14.2834C19.6618 14.0465 19.6689 13.8095 19.6689 13.5654C19.6689 8.80483 15.8131 4.94897 11.0525 4.94897C6.29193 4.94897 2.43608 8.80483 2.43608 13.5654C2.43608 13.8095 2.44326 14.0465 2.4648 14.2834" stroke="black" stroke-opacity="0.2" stroke-width="1.43607" stroke-linecap="round" stroke-linejoin="round"/>
<path d="M19.6402 14.2834C19.6618 14.0465 19.6689 13.8095 19.6689 13.5654C19.6689 8.80483 15.8131 4.94897 11.0525 4.94897C6.29193 4.94897 2.43608 8.80483 2.43608 13.5654C2.43608 13.8095 2.44326 14.0465 2.4648 14.2834" stroke="black" stroke-opacity="0.2" stroke-width="1.43607" stroke-linecap="round" stroke-linejoin="round"/>
<path d="M10.2627 4.9851C9.66676 4.48248 9.25748 3.50595 9.25748 2.79509C9.25748 1.8042 10.0617 1 11.0526 1C12.0435 1 12.8477 1.8042 12.8477 2.79509C12.8477 3.50595 12.4384 4.48248 11.8424 4.9851" stroke="#8F8F8F" stroke-width="1.43607" stroke-linecap="round" stroke-linejoin="round"/>
<path d="M10.2627 4.9851C9.66676 4.48248 9.25748 3.50595 9.25748 2.79509C9.25748 1.8042 10.0617 1 11.0526 1C12.0435 1 12.8477 1.8042 12.8477 2.79509C12.8477 3.50595 12.4384 4.48248 11.8424 4.9851" stroke="black" stroke-opacity="0.2" stroke-width="1.43607" stroke-linecap="round" stroke-linejoin="round"/>
<path d="M10.2627 4.9851C9.66676 4.48248 9.25748 3.50595 9.25748 2.79509C9.25748 1.8042 10.0617 1 11.0526 1C12.0435 1 12.8477 1.8042 12.8477 2.79509C12.8477 3.50595 12.4384 4.48248 11.8424 4.9851" stroke="black" stroke-opacity="0.2" stroke-width="1.43607" stroke-linecap="round" stroke-linejoin="round"/>
<path d="M9.57343 7.82851C9.57343 7.82851 7.67781 7.649 7.0244 9.68104" stroke="#8F8F8F" stroke-width="1.43607" stroke-linecap="round" stroke-linejoin="round"/>
<path d="M9.57343 7.82851C9.57343 7.82851 7.67781 7.649 7.0244 9.68104" stroke="black" stroke-opacity="0.2" stroke-width="1.43607" stroke-linecap="round" stroke-linejoin="round"/>
<path d="M9.57343 7.82851C9.57343 7.82851 7.67781 7.649 7.0244 9.68104" stroke="black" stroke-opacity="0.2" stroke-width="1.43607" stroke-linecap="round" stroke-linejoin="round"/>
</svg>
