<svg width="21" height="21" viewBox="0 0 21 21" fill="none" xmlns="http://www.w3.org/2000/svg">
<path d="M17.5836 9.39917V13.1605C17.5836 16.9218 16.0757 18.4297 12.3144 18.4297H7.79912C4.03781 18.4297 2.52993 16.9218 2.52993 13.1605V9.39917" stroke="#8F8F8F" stroke-width="1.25656" stroke-linecap="round" stroke-linejoin="round"/>
<path d="M17.5836 9.39917V13.1605C17.5836 16.9218 16.0757 18.4297 12.3144 18.4297H7.79912C4.03781 18.4297 2.52993 16.9218 2.52993 13.1605V9.39917" stroke="black" stroke-opacity="0.2" stroke-width="1.25656" stroke-linecap="round" stroke-linejoin="round"/>
<path d="M17.5836 9.39917V13.1605C17.5836 16.9218 16.0757 18.4297 12.3144 18.4297H7.79912C4.03781 18.4297 2.52993 16.9218 2.52993 13.1605V9.39917" stroke="black" stroke-opacity="0.2" stroke-width="1.25656" stroke-linecap="round" stroke-linejoin="round"/>
<path d="M10.0525 10.0526C8.51954 10.0526 7.38863 8.80444 7.53942 7.27143L8.09231 1.67554H12.0044L12.5657 7.27143C12.7165 8.80444 11.5856 10.0526 10.0525 10.0526Z" stroke="#8F8F8F" stroke-width="1.25656" stroke-linecap="round" stroke-linejoin="round"/>
<path d="M10.0525 10.0526C8.51954 10.0526 7.38863 8.80444 7.53942 7.27143L8.09231 1.67554H12.0044L12.5657 7.27143C12.7165 8.80444 11.5856 10.0526 10.0525 10.0526Z" stroke="black" stroke-opacity="0.2" stroke-width="1.25656" stroke-linecap="round" stroke-linejoin="round"/>
<path d="M10.0525 10.0526C8.51954 10.0526 7.38863 8.80444 7.53942 7.27143L8.09231 1.67554H12.0044L12.5657 7.27143C12.7165 8.80444 11.5856 10.0526 10.0525 10.0526Z" stroke="black" stroke-opacity="0.2" stroke-width="1.25656" stroke-linecap="round" stroke-linejoin="round"/>
<path d="M4.76658 10.0526C3.07441 10.0526 1.8346 8.67878 2.00214 6.99499L2.2367 4.69129C2.53828 2.51325 3.37598 1.67554 5.57078 1.67554H8.12579L7.5394 7.54788C7.39699 8.9301 6.1488 10.0526 4.76658 10.0526Z" stroke="#8F8F8F" stroke-width="1.25656" stroke-linecap="round" stroke-linejoin="round"/>
<path d="M4.76658 10.0526C3.07441 10.0526 1.8346 8.67878 2.00214 6.99499L2.2367 4.69129C2.53828 2.51325 3.37598 1.67554 5.57078 1.67554H8.12579L7.5394 7.54788C7.39699 8.9301 6.1488 10.0526 4.76658 10.0526Z" stroke="black" stroke-opacity="0.2" stroke-width="1.25656" stroke-linecap="round" stroke-linejoin="round"/>
<path d="M4.76658 10.0526C3.07441 10.0526 1.8346 8.67878 2.00214 6.99499L2.2367 4.69129C2.53828 2.51325 3.37598 1.67554 5.57078 1.67554H8.12579L7.5394 7.54788C7.39699 8.9301 6.1488 10.0526 4.76658 10.0526Z" stroke="black" stroke-opacity="0.2" stroke-width="1.25656" stroke-linecap="round" stroke-linejoin="round"/>
<path d="M15.3804 10.0526C13.9981 10.0526 12.75 8.9301 12.6159 7.54788L12.4316 5.69654L12.0295 1.67554H14.5845C16.7793 1.67554 17.617 2.51325 17.9186 4.69129L18.1448 6.99499C18.3123 8.67878 17.0725 10.0526 15.3804 10.0526Z" stroke="#8F8F8F" stroke-width="1.25656" stroke-linecap="round" stroke-linejoin="round"/>
<path d="M15.3804 10.0526C13.9981 10.0526 12.75 8.9301 12.6159 7.54788L12.4316 5.69654L12.0295 1.67554H14.5845C16.7793 1.67554 17.617 2.51325 17.9186 4.69129L18.1448 6.99499C18.3123 8.67878 17.0725 10.0526 15.3804 10.0526Z" stroke="black" stroke-opacity="0.2" stroke-width="1.25656" stroke-linecap="round" stroke-linejoin="round"/>
<path d="M15.3804 10.0526C13.9981 10.0526 12.75 8.9301 12.6159 7.54788L12.4316 5.69654L12.0295 1.67554H14.5845C16.7793 1.67554 17.617 2.51325 17.9186 4.69129L18.1448 6.99499C18.3123 8.67878 17.0725 10.0526 15.3804 10.0526Z" stroke="black" stroke-opacity="0.2" stroke-width="1.25656" stroke-linecap="round" stroke-linejoin="round"/>
<path d="M10.0525 14.241C11.4515 14.241 12.1468 14.9363 12.1468 16.3352V18.4295H7.95825V16.3352C7.95825 14.9363 8.65354 14.241 10.0525 14.241Z" stroke="#8F8F8F" stroke-width="1.25656" stroke-linecap="round" stroke-linejoin="round"/>
<path d="M10.0525 14.241C11.4515 14.241 12.1468 14.9363 12.1468 16.3352V18.4295H7.95825V16.3352C7.95825 14.9363 8.65354 14.241 10.0525 14.241Z" stroke="black" stroke-opacity="0.2" stroke-width="1.25656" stroke-linecap="round" stroke-linejoin="round"/>
<path d="M10.0525 14.241C11.4515 14.241 12.1468 14.9363 12.1468 16.3352V18.4295H7.95825V16.3352C7.95825 14.9363 8.65354 14.241 10.0525 14.241Z" stroke="black" stroke-opacity="0.2" stroke-width="1.25656" stroke-linecap="round" stroke-linejoin="round"/>
</svg>
