<svg width="21" height="21" viewBox="0 0 21 21" fill="none" xmlns="http://www.w3.org/2000/svg">
<path d="M14.2446 15.4429H10.8929L7.16419 17.9231C6.61116 18.2917 5.86543 17.898 5.86543 17.2276V15.4429C3.35168 15.4429 1.67584 13.767 1.67584 11.2533V6.22572C1.67584 3.71197 3.35168 2.03613 5.86543 2.03613H14.2446C16.7583 2.03613 18.4342 3.71197 18.4342 6.22572V11.2533C18.4342 13.767 16.7583 15.4429 14.2446 15.4429Z" stroke="#F489FD" stroke-width="1.5" stroke-miterlimit="10" stroke-linecap="round" stroke-linejoin="round"/>
<path d="M10.055 9.51867V9.34274C10.055 8.77296 10.4069 8.47129 10.7589 8.2283C11.1024 7.99368 11.4459 7.69204 11.4459 7.13902C11.4459 6.36813 10.8259 5.74805 10.055 5.74805C9.2841 5.74805 8.66406 6.36813 8.66406 7.13902" stroke="#F489FD" stroke-width="1.5" stroke-linecap="round" stroke-linejoin="round"/>
<path d="M10.0512 11.5213H10.0588" stroke="#F489FD" stroke-width="1.5" stroke-linecap="round" stroke-linejoin="round"/>
</svg>
